<svg width="413" height="79" viewBox="0 0 413 79" fill="none" xmlns="http://www.w3.org/2000/svg">
<path d="M0.512 23.328C0.512 21.344 1.07733 19.584 2.208 18.048C3.33867 16.512 5.024 15.0507 7.264 13.664L8 13.216C9.32267 12.4267 10.2933 11.7973 10.912 11.328C11.552 10.8587 12.0427 10.3253 12.384 9.728C12.7253 9.13067 12.896 8.39467 12.896 7.52C12.896 6.432 12.608 5.536 12.032 4.832C11.4773 4.10667 10.5173 3.744 9.152 3.744C6.12267 3.744 4.608 5.504 4.608 9.024H1.088C1.088 6.54933 1.77067 4.55467 3.136 3.04C4.52267 1.52533 6.56 0.768 9.248 0.768C10.592 0.768 11.808 1.03467 12.896 1.568C14.0053 2.08 14.88 2.83733 15.52 3.84C16.16 4.84267 16.48 6.02667 16.48 7.392C16.48 8.71467 16.1707 9.888 15.552 10.912C14.9333 11.936 14.176 12.8 13.28 13.504C12.384 14.1867 11.232 14.9653 9.824 15.84C8.39467 16.672 7.296 17.408 6.528 18.048C5.76 18.6667 5.23733 19.4133 4.96 20.288V20.352H16.224V23.328H0.512Z" fill="#C6C6C8"/>
<path d="M25.9307 23.776C24.2241 23.776 22.7521 23.4667 21.5147 22.848C20.2987 22.2293 19.3601 21.3973 18.6987 20.352C18.0374 19.2853 17.6854 18.1227 17.6427 16.864H21.1628C21.2908 18.016 21.7174 18.9653 22.4427 19.712C23.1681 20.4373 24.2667 20.8 25.7387 20.8C27.1681 20.8 28.2987 20.3733 29.1307 19.52C29.9841 18.6453 30.4107 17.3973 30.4107 15.776C30.4107 14.2613 30.0161 13.1307 29.2267 12.384C28.4587 11.6373 27.3707 11.264 25.9627 11.264C25.0241 11.264 24.1707 11.4347 23.4028 11.776C22.6347 12.096 21.9947 12.5867 21.4827 13.248H17.9307L20.2987 1.216H32.8748V4.192H22.9548L21.7387 10.304V10.368C22.9761 9.088 24.6934 8.448 26.8907 8.448C28.2561 8.448 29.4827 8.768 30.5707 9.408C31.6587 10.0267 32.5014 10.9013 33.0988 12.032C33.6961 13.1413 33.9948 14.3893 33.9948 15.776C33.9948 17.376 33.6428 18.784 32.9388 20C32.2348 21.1947 31.2641 22.1227 30.0268 22.784C28.8108 23.4453 27.4454 23.776 25.9307 23.776Z" fill="#C6C6C8"/>
<path d="M40.62 13.696H56.62V16.672H40.62V13.696Z" fill="#C6C6C8"/>
<path d="M72.9398 23.776C70.9984 23.776 69.2811 23.456 67.7878 22.816C66.2944 22.1547 65.1104 21.216 64.2357 20C63.3824 18.7627 62.9131 17.3013 62.8277 15.616H66.4757C66.6037 17.2373 67.1798 18.5067 68.2038 19.424C69.2491 20.32 70.7957 20.768 72.8438 20.768C76.0438 20.768 77.6437 19.5413 77.6437 17.088C77.6437 16.1707 77.4091 15.456 76.9398 14.944C76.4918 14.432 75.8837 14.048 75.1157 13.792C74.3691 13.536 73.0784 13.1733 71.2438 12.704C69.6651 12.2773 68.3638 11.8507 67.3398 11.424C66.3371 10.9973 65.4837 10.368 64.7797 9.536C64.0757 8.68267 63.7237 7.584 63.7237 6.24C63.7237 4.27733 64.4384 2.752 65.8678 1.664C67.2971 0.554667 69.2491 0 71.7237 0C74.3477 0 76.4491 0.64 78.0277 1.92C79.6277 3.2 80.5131 4.98133 80.6837 7.264H77.0358C76.8438 5.856 76.3211 4.8 75.4678 4.096C74.6144 3.37067 73.3771 3.008 71.7557 3.008C70.3264 3.008 69.2384 3.264 68.4917 3.776C67.7664 4.288 67.4037 5.04533 67.4037 6.048C67.4037 6.85867 67.6278 7.49867 68.0758 7.968C68.5238 8.43733 69.0891 8.8 69.7718 9.056C70.4544 9.29067 71.4464 9.568 72.7477 9.888C74.6891 10.3787 76.2251 10.848 77.3558 11.296C78.4864 11.744 79.4251 12.416 80.1718 13.312C80.9398 14.1867 81.3238 15.3813 81.3238 16.896C81.3238 18.9653 80.6091 20.6293 79.1797 21.888C77.7717 23.1467 75.6918 23.776 72.9398 23.776Z" fill="#C6C6C8"/>
<path d="M89.928 23.808C88.2427 23.808 86.792 23.4347 85.576 22.688C84.36 21.9413 83.432 20.9173 82.792 19.616C82.1733 18.3147 81.864 16.8213 81.864 15.136C81.864 13.4293 82.184 11.9253 82.824 10.624C83.4853 9.32267 84.424 8.30933 85.64 7.584C86.856 6.85867 88.2853 6.496 89.928 6.496C92.3813 6.496 94.28 7.24267 95.624 8.736C96.9893 10.2293 97.672 12.256 97.672 14.816C97.672 15.4347 97.6613 15.8293 97.64 16H85.096C85.1387 17.472 85.576 18.72 86.408 19.744C87.2613 20.7467 88.456 21.248 89.992 21.248C91.272 21.248 92.2533 20.9387 92.936 20.32C93.64 19.7013 94.088 19.0293 94.28 18.304H97.48C97.0107 19.968 96.1467 21.3013 94.888 22.304C93.6293 23.3067 91.976 23.808 89.928 23.808ZM94.408 13.536C94.408 12.2347 93.9813 11.168 93.128 10.336C92.296 9.48267 91.1973 9.056 89.832 9.056C88.5093 9.056 87.4107 9.472 86.536 10.304C85.6613 11.1147 85.1813 12.192 85.096 13.536H94.408Z" fill="#C6C6C8"/>
<path d="M109.921 12.864C109.921 11.712 109.644 10.816 109.089 10.176C108.556 9.536 107.724 9.216 106.593 9.216C105.249 9.216 104.172 9.58933 103.361 10.336C102.572 11.0827 102.177 12.0747 102.177 13.312V23.328H99.041V7.008H102.177V9.056H102.241C102.732 8.33067 103.425 7.73333 104.321 7.264C105.217 6.77333 106.316 6.528 107.617 6.528C109.217 6.528 110.518 6.99733 111.521 7.936C112.545 8.85333 113.057 10.208 113.057 12V23.328H109.921V12.864Z" fill="#C6C6C8"/>
<path d="M121.663 23.776C120.277 23.776 119.029 23.4347 117.919 22.752C116.81 22.048 115.935 21.0453 115.295 19.744C114.655 18.4427 114.335 16.9173 114.335 15.168C114.335 13.4187 114.655 11.8933 115.295 10.592C115.935 9.29067 116.81 8.288 117.919 7.584C119.029 6.88 120.277 6.528 121.663 6.528C122.858 6.528 123.861 6.76267 124.671 7.232C125.503 7.68 126.175 8.26667 126.687 8.992H126.751V0.448H129.887V23.328H126.751V21.408H126.687C126.154 22.0907 125.471 22.656 124.639 23.104C123.829 23.552 122.837 23.776 121.663 23.776ZM117.599 15.168C117.599 16.8747 117.994 18.304 118.783 19.456C119.573 20.608 120.703 21.184 122.175 21.184C123.583 21.184 124.693 20.6507 125.503 19.584C126.314 18.496 126.719 17.024 126.719 15.168C126.719 13.312 126.314 11.8507 125.503 10.784C124.693 9.696 123.583 9.152 122.175 9.152C120.703 9.152 119.573 9.728 118.783 10.88C117.994 12.032 117.599 13.4613 117.599 15.168Z" fill="#C6C6C8"/>
<path d="M142.057 23.776C140.435 23.776 139.134 23.3493 138.153 22.496C137.193 21.6427 136.713 20.512 136.713 19.104C136.713 17.9307 136.979 16.992 137.513 16.288C138.067 15.5627 138.825 15.008 139.785 14.624C140.766 14.2187 142.014 13.8773 143.529 13.6C144.574 13.408 145.363 13.2373 145.897 13.088C146.43 12.9173 146.857 12.6933 147.177 12.416C147.497 12.1173 147.657 11.712 147.657 11.2C147.657 9.74933 146.622 9.024 144.553 9.024C143.166 9.024 142.195 9.25867 141.641 9.728C141.086 10.1973 140.766 10.9867 140.681 12.096H137.481C137.566 10.4107 138.195 9.056 139.369 8.032C140.542 7.008 142.313 6.496 144.681 6.496C146.515 6.496 147.977 6.944 149.065 7.84C150.174 8.71467 150.729 10.144 150.729 12.128V19.616C150.729 20.2347 150.782 20.6933 150.889 20.992C150.995 21.2693 151.198 21.408 151.497 21.408L151.881 21.376V23.296C151.347 23.424 150.814 23.488 150.281 23.488C149.47 23.488 148.851 23.3067 148.425 22.944C148.019 22.56 147.774 21.92 147.689 21.024H147.625C147.091 21.8987 146.355 22.5813 145.417 23.072C144.478 23.5413 143.358 23.776 142.057 23.776ZM139.977 18.88C139.977 20.4587 140.905 21.248 142.761 21.248C144.233 21.248 145.417 20.8853 146.313 20.16C147.209 19.4133 147.657 18.3467 147.657 16.96V14.624C147.422 14.8373 147.006 15.04 146.409 15.232C145.833 15.4027 145.054 15.5947 144.073 15.808C142.601 16.1067 141.545 16.4907 140.905 16.96C140.286 17.408 139.977 18.048 139.977 18.88Z" fill="#C6C6C8"/>
<path d="M166.896 23.776C165.702 23.776 164.688 23.552 163.856 23.104C163.024 22.6347 162.363 22.0373 161.872 21.312H161.808V28.992H158.672V7.008H161.808V8.928H161.872C163.11 7.328 164.784 6.528 166.896 6.528C168.283 6.528 169.531 6.88 170.64 7.584C171.75 8.288 172.624 9.29067 173.264 10.592C173.904 11.8933 174.224 13.4187 174.224 15.168C174.224 16.9173 173.904 18.4427 173.264 19.744C172.624 21.0453 171.75 22.048 170.64 22.752C169.531 23.4347 168.283 23.776 166.896 23.776ZM161.84 15.168C161.84 17.024 162.246 18.496 163.056 19.584C163.867 20.6507 164.976 21.184 166.384 21.184C167.856 21.184 168.976 20.608 169.744 19.456C170.534 18.304 170.928 16.8747 170.928 15.168C170.928 13.4613 170.534 12.032 169.744 10.88C168.976 9.728 167.856 9.152 166.384 9.152C164.976 9.152 163.867 9.696 163.056 10.784C162.246 11.8507 161.84 13.312 161.84 15.168Z" fill="#C6C6C8"/>
<path d="M180.154 23.776C178.533 23.776 177.232 23.3493 176.25 22.496C175.29 21.6427 174.81 20.512 174.81 19.104C174.81 17.9307 175.077 16.992 175.61 16.288C176.165 15.5627 176.922 15.008 177.882 14.624C178.864 14.2187 180.112 13.8773 181.626 13.6C182.672 13.408 183.461 13.2373 183.994 13.088C184.528 12.9173 184.954 12.6933 185.274 12.416C185.594 12.1173 185.754 11.712 185.754 11.2C185.754 9.74933 184.72 9.024 182.65 9.024C181.264 9.024 180.293 9.25867 179.738 9.728C179.184 10.1973 178.864 10.9867 178.778 12.096H175.578C175.664 10.4107 176.293 9.056 177.466 8.032C178.64 7.008 180.41 6.496 182.778 6.496C184.613 6.496 186.074 6.944 187.162 7.84C188.272 8.71467 188.826 10.144 188.826 12.128V19.616C188.826 20.2347 188.88 20.6933 188.986 20.992C189.093 21.2693 189.296 21.408 189.594 21.408L189.978 21.376V23.296C189.445 23.424 188.912 23.488 188.378 23.488C187.568 23.488 186.949 23.3067 186.522 22.944C186.117 22.56 185.872 21.92 185.786 21.024H185.722C185.189 21.8987 184.453 22.5813 183.514 23.072C182.576 23.5413 181.456 23.776 180.154 23.776ZM178.074 18.88C178.074 20.4587 179.002 21.248 180.858 21.248C182.33 21.248 183.514 20.8853 184.41 20.16C185.306 19.4133 185.754 18.3467 185.754 16.96V14.624C185.52 14.8373 185.104 15.04 184.506 15.232C183.93 15.4027 183.152 15.5947 182.17 15.808C180.698 16.1067 179.642 16.4907 179.002 16.96C178.384 17.408 178.074 18.048 178.074 18.88Z" fill="#C6C6C8"/>
<path d="M194.498 23.328H191.362V7.008H194.498V10.112H194.562C195.544 7.78667 197.005 6.624 198.946 6.624C199.48 6.624 199.981 6.656 200.45 6.72V9.728C200.066 9.664 199.714 9.632 199.394 9.632C197.965 9.632 196.792 10.1227 195.874 11.104C194.957 12.0853 194.498 13.344 194.498 14.88V23.328Z" fill="#C6C6C8"/>
<path d="M207.688 23.808C206.088 23.808 204.68 23.4453 203.464 22.72C202.248 21.9947 201.309 20.9813 200.648 19.68C199.986 18.3573 199.656 16.8533 199.656 15.168C199.656 13.4827 199.986 11.9893 200.648 10.688C201.309 9.36533 202.237 8.34133 203.432 7.616C204.648 6.89067 206.056 6.528 207.656 6.528C209.021 6.528 210.237 6.80533 211.304 7.36C212.37 7.89333 213.224 8.65067 213.864 9.632C214.504 10.592 214.888 11.6907 215.016 12.928H211.784C211.677 11.904 211.304 11.0187 210.664 10.272C210.024 9.504 209.032 9.12 207.688 9.12C206.066 9.12 204.861 9.70667 204.072 10.88C203.304 12.032 202.92 13.4613 202.92 15.168C202.92 16.8747 203.304 18.304 204.072 19.456C204.861 20.608 206.066 21.184 207.688 21.184C209.053 21.184 210.056 20.8107 210.696 20.064C211.336 19.3173 211.698 18.3893 211.784 17.28H215.016C214.952 18.5173 214.6 19.6373 213.96 20.64C213.32 21.6213 212.456 22.4 211.368 22.976C210.28 23.5307 209.053 23.808 207.688 23.808Z" fill="#C6C6C8"/>
<path d="M223.472 23.808C221.786 23.808 220.336 23.4347 219.12 22.688C217.904 21.9413 216.976 20.9173 216.336 19.616C215.717 18.3147 215.408 16.8213 215.408 15.136C215.408 13.4293 215.728 11.9253 216.368 10.624C217.029 9.32267 217.968 8.30933 219.184 7.584C220.4 6.85867 221.829 6.496 223.472 6.496C225.925 6.496 227.824 7.24267 229.168 8.736C230.533 10.2293 231.216 12.256 231.216 14.816C231.216 15.4347 231.205 15.8293 231.184 16H218.64C218.682 17.472 219.12 18.72 219.952 19.744C220.805 20.7467 222 21.248 223.536 21.248C224.816 21.248 225.797 20.9387 226.48 20.32C227.184 19.7013 227.632 19.0293 227.824 18.304H231.024C230.554 19.968 229.69 21.3013 228.432 22.304C227.173 23.3067 225.52 23.808 223.472 23.808ZM227.952 13.536C227.952 12.2347 227.525 11.168 226.672 10.336C225.84 9.48267 224.741 9.056 223.376 9.056C222.053 9.056 220.954 9.472 220.08 10.304C219.205 11.1147 218.725 12.192 218.64 13.536H227.952Z" fill="#C6C6C8"/>
<path d="M232.585 0.448H235.721V23.328H232.585V0.448Z" fill="#C6C6C8"/>
<path d="M5.056 56.552C4.08533 56.552 3.22667 56.392 2.48 56.072C1.73333 55.7413 1.14133 55.272 0.704 54.664C0.277333 54.0453 0.0426667 53.3147 0 52.472H1.824C1.888 53.2827 2.176 53.9173 2.688 54.376C3.21067 54.824 3.984 55.048 5.008 55.048C6.608 55.048 7.408 54.4347 7.408 53.208C7.408 52.7493 7.29067 52.392 7.056 52.136C6.832 51.88 6.528 51.688 6.144 51.56C5.77067 51.432 5.12533 51.2507 4.208 51.016C3.41867 50.8027 2.768 50.5893 2.256 50.376C1.75467 50.1627 1.328 49.848 0.976 49.432C0.624 49.0053 0.448 48.456 0.448 47.784C0.448 46.8027 0.805333 46.04 1.52 45.496C2.23467 44.9413 3.21067 44.664 4.448 44.664C5.76 44.664 6.81067 44.984 7.6 45.624C8.4 46.264 8.84267 47.1547 8.928 48.296H7.104C7.008 47.592 6.74667 47.064 6.32 46.712C5.89333 46.3493 5.27467 46.168 4.464 46.168C3.74933 46.168 3.20533 46.296 2.832 46.552C2.46933 46.808 2.288 47.1867 2.288 47.688C2.288 48.0933 2.4 48.4133 2.624 48.648C2.848 48.8827 3.13067 49.064 3.472 49.192C3.81333 49.3093 4.30933 49.448 4.96 49.608C5.93067 49.8533 6.69867 50.088 7.264 50.312C7.82933 50.536 8.29867 50.872 8.672 51.32C9.056 51.7573 9.248 52.3547 9.248 53.112C9.248 54.1467 8.89067 54.9787 8.176 55.608C7.472 56.2373 6.432 56.552 5.056 56.552Z" fill="#C6C6C8"/>
<path d="M13.5501 56.568C12.7075 56.568 11.9821 56.3813 11.3741 56.008C10.7661 55.6347 10.3021 55.1227 9.98212 54.472C9.67279 53.8213 9.51812 53.0747 9.51812 52.232C9.51812 51.3787 9.67813 50.6267 9.99813 49.976C10.3288 49.3253 10.7981 48.8187 11.4061 48.456C12.0141 48.0933 12.7288 47.912 13.5501 47.912C14.7768 47.912 15.7261 48.2853 16.3981 49.032C17.0808 49.7787 17.4221 50.792 17.4221 52.072C17.4221 52.3813 17.4168 52.5787 17.4061 52.664H11.1341C11.1555 53.4 11.3741 54.024 11.7901 54.536C12.2168 55.0373 12.8141 55.288 13.5821 55.288C14.2221 55.288 14.7128 55.1333 15.0541 54.824C15.4061 54.5147 15.6301 54.1787 15.7261 53.816H17.3261C17.0915 54.648 16.6595 55.3147 16.0301 55.816C15.4008 56.3173 14.5741 56.568 13.5501 56.568ZM15.7901 51.432C15.7901 50.7813 15.5768 50.248 15.1501 49.832C14.7341 49.4053 14.1848 49.192 13.5021 49.192C12.8408 49.192 12.2915 49.4 11.8541 49.816C11.4168 50.2213 11.1768 50.76 11.1341 51.432H15.7901Z" fill="#C6C6C8"/>
<path d="M23.5466 51.096C23.5466 50.52 23.408 50.072 23.1306 49.752C22.864 49.432 22.448 49.272 21.8826 49.272C21.2106 49.272 20.672 49.4587 20.2666 49.832C19.872 50.2053 19.6746 50.7013 19.6746 51.32V56.328H18.1066V48.168H19.6746V49.192H19.7066C19.952 48.8293 20.2986 48.5307 20.7466 48.296C21.1946 48.0507 21.744 47.928 22.3946 47.928C23.1946 47.928 23.8453 48.1627 24.3466 48.632C24.8586 49.0907 25.1146 49.768 25.1146 50.664V56.328H23.5466V51.096Z" fill="#C6C6C8"/>
<path d="M29.4177 56.552C28.7244 56.552 28.1004 56.3813 27.5457 56.04C26.9911 55.688 26.5537 55.1867 26.2337 54.536C25.9137 53.8853 25.7537 53.1227 25.7537 52.248C25.7537 51.3733 25.9137 50.6107 26.2337 49.96C26.5537 49.3093 26.9911 48.808 27.5457 48.456C28.1004 48.104 28.7244 47.928 29.4177 47.928C30.0151 47.928 30.5164 48.0453 30.9218 48.28C31.3378 48.504 31.6738 48.7973 31.9298 49.16H31.9618V44.888H33.5298V56.328H31.9618V55.368H31.9298C31.6631 55.7093 31.3218 55.992 30.9058 56.216C30.5004 56.44 30.0044 56.552 29.4177 56.552ZM27.3857 52.248C27.3857 53.1013 27.5831 53.816 27.9778 54.392C28.3724 54.968 28.9377 55.256 29.6737 55.256C30.3777 55.256 30.9324 54.9893 31.3377 54.456C31.7431 53.912 31.9457 53.176 31.9457 52.248C31.9457 51.32 31.7431 50.5893 31.3377 50.056C30.9324 49.512 30.3777 49.24 29.6737 49.24C28.9377 49.24 28.3724 49.528 27.9778 50.104C27.5831 50.68 27.3857 51.3947 27.3857 52.248Z" fill="#C6C6C8"/>
<path d="M39.6145 56.552C38.8038 56.552 38.1532 56.3387 37.6625 55.912C37.1825 55.4853 36.9425 54.92 36.9425 54.216C36.9425 53.6293 37.0758 53.16 37.3425 52.808C37.6198 52.4453 37.9985 52.168 38.4785 51.976C38.9692 51.7733 39.5932 51.6027 40.3505 51.464C40.8732 51.368 41.2678 51.2827 41.5345 51.208C41.8012 51.1227 42.0145 51.0107 42.1745 50.872C42.3345 50.7227 42.4145 50.52 42.4145 50.264C42.4145 49.5387 41.8972 49.176 40.8625 49.176C40.1692 49.176 39.6838 49.2933 39.4065 49.528C39.1292 49.7627 38.9692 50.1573 38.9265 50.712H37.3265C37.3692 49.8693 37.6838 49.192 38.2705 48.68C38.8572 48.168 39.7425 47.912 40.9265 47.912C41.8438 47.912 42.5745 48.136 43.1185 48.584C43.6732 49.0213 43.9505 49.736 43.9505 50.728V54.472C43.9505 54.7813 43.9772 55.0107 44.0305 55.16C44.0838 55.2987 44.1852 55.368 44.3345 55.368L44.5265 55.352V56.312C44.2598 56.376 43.9932 56.408 43.7265 56.408C43.3212 56.408 43.0118 56.3173 42.7985 56.136C42.5958 55.944 42.4732 55.624 42.4305 55.176H42.3985C42.1318 55.6133 41.7638 55.9547 41.2945 56.2C40.8252 56.4347 40.2652 56.552 39.6145 56.552ZM38.5745 54.104C38.5745 54.8933 39.0385 55.288 39.9665 55.288C40.7025 55.288 41.2945 55.1067 41.7425 54.744C42.1905 54.3707 42.4145 53.8373 42.4145 53.144V51.976C42.2972 52.0827 42.0892 52.184 41.7905 52.28C41.5025 52.3653 41.1132 52.4613 40.6225 52.568C39.8865 52.7173 39.3585 52.9093 39.0385 53.144C38.7292 53.368 38.5745 53.688 38.5745 54.104Z" fill="#C6C6C8"/>
<path d="M52.0343 56.552C51.4369 56.552 50.9303 56.44 50.5143 56.216C50.0983 55.9813 49.7676 55.6827 49.5223 55.32H49.4902V59.16H47.9222V48.168H49.4902V49.128H49.5223C50.1409 48.328 50.9783 47.928 52.0343 47.928C52.7276 47.928 53.3516 48.104 53.9062 48.456C54.4609 48.808 54.8983 49.3093 55.2183 49.96C55.5382 50.6107 55.6982 51.3733 55.6982 52.248C55.6982 53.1227 55.5382 53.8853 55.2183 54.536C54.8983 55.1867 54.4609 55.688 53.9062 56.04C53.3516 56.3813 52.7276 56.552 52.0343 56.552ZM49.5063 52.248C49.5063 53.176 49.7089 53.912 50.1143 54.456C50.5196 54.9893 51.0743 55.256 51.7783 55.256C52.5143 55.256 53.0743 54.968 53.4583 54.392C53.8529 53.816 54.0503 53.1013 54.0503 52.248C54.0503 51.3947 53.8529 50.68 53.4583 50.104C53.0743 49.528 52.5143 49.24 51.7783 49.24C51.0743 49.24 50.5196 49.512 50.1143 50.056C49.7089 50.5893 49.5063 51.32 49.5063 52.248Z" fill="#C6C6C8"/>
<path d="M58.6632 56.552C57.8526 56.552 57.2019 56.3387 56.7113 55.912C56.2313 55.4853 55.9913 54.92 55.9913 54.216C55.9913 53.6293 56.1246 53.16 56.3913 52.808C56.6686 52.4453 57.0473 52.168 57.5273 51.976C58.0179 51.7733 58.6419 51.6027 59.3993 51.464C59.9219 51.368 60.3166 51.2827 60.5833 51.208C60.8499 51.1227 61.0633 51.0107 61.2233 50.872C61.3833 50.7227 61.4633 50.52 61.4633 50.264C61.4633 49.5387 60.9459 49.176 59.9113 49.176C59.2179 49.176 58.7326 49.2933 58.4552 49.528C58.1779 49.7627 58.0179 50.1573 57.9753 50.712H56.3753C56.4179 49.8693 56.7326 49.192 57.3193 48.68C57.9059 48.168 58.7913 47.912 59.9753 47.912C60.8926 47.912 61.6233 48.136 62.1673 48.584C62.7219 49.0213 62.9993 49.736 62.9993 50.728V54.472C62.9993 54.7813 63.0259 55.0107 63.0793 55.16C63.1326 55.2987 63.2339 55.368 63.3833 55.368L63.5753 55.352V56.312C63.3086 56.376 63.0419 56.408 62.7752 56.408C62.3699 56.408 62.0606 56.3173 61.8473 56.136C61.6446 55.944 61.5219 55.624 61.4793 55.176H61.4473C61.1806 55.6133 60.8126 55.9547 60.3433 56.2C59.8739 56.4347 59.3139 56.552 58.6632 56.552ZM57.6233 54.104C57.6233 54.8933 58.0873 55.288 59.0153 55.288C59.7513 55.288 60.3433 55.1067 60.7913 54.744C61.2393 54.3707 61.4633 53.8373 61.4633 53.144V51.976C61.3459 52.0827 61.1379 52.184 60.8393 52.28C60.5513 52.3653 60.1619 52.4613 59.6712 52.568C58.9352 52.7173 58.4072 52.9093 58.0872 53.144C57.7779 53.368 57.6233 53.688 57.6233 54.104Z" fill="#C6C6C8"/>
<path d="M65.8353 56.328H64.2673V48.168H65.8353V49.72H65.8672C66.3579 48.5573 67.0886 47.976 68.0592 47.976C68.3259 47.976 68.5766 47.992 68.8112 48.024V49.528C68.6192 49.496 68.4432 49.48 68.2832 49.48C67.5686 49.48 66.9819 49.7253 66.5233 50.216C66.0646 50.7067 65.8353 51.336 65.8353 52.104V56.328Z" fill="#C6C6C8"/>
<path d="M72.43 56.568C71.63 56.568 70.926 56.3867 70.318 56.024C69.71 55.6613 69.2407 55.1547 68.91 54.504C68.5793 53.8427 68.414 53.0907 68.414 52.248C68.414 51.4053 68.5793 50.6587 68.91 50.008C69.2407 49.3467 69.7047 48.8347 70.302 48.472C70.91 48.1093 71.614 47.928 72.414 47.928C73.0967 47.928 73.7047 48.0667 74.238 48.344C74.7713 48.6107 75.198 48.9893 75.518 49.48C75.838 49.96 76.03 50.5093 76.094 51.128H74.478C74.4247 50.616 74.238 50.1733 73.918 49.8C73.598 49.416 73.102 49.224 72.43 49.224C71.6193 49.224 71.0167 49.5173 70.622 50.104C70.238 50.68 70.046 51.3947 70.046 52.248C70.046 53.1013 70.238 53.816 70.622 54.392C71.0167 54.968 71.6193 55.256 72.43 55.256C73.1127 55.256 73.614 55.0693 73.934 54.696C74.254 54.3227 74.4353 53.8587 74.478 53.304H76.094C76.062 53.9227 75.886 54.4827 75.566 54.984C75.246 55.4747 74.814 55.864 74.27 56.152C73.726 56.4293 73.1127 56.568 72.43 56.568Z" fill="#C6C6C8"/>
<path d="M80.322 56.568C79.4793 56.568 78.754 56.3813 78.146 56.008C77.538 55.6347 77.074 55.1227 76.754 54.472C76.4447 53.8213 76.29 53.0747 76.29 52.232C76.29 51.3787 76.45 50.6267 76.77 49.976C77.1007 49.3253 77.57 48.8187 78.178 48.456C78.786 48.0933 79.5007 47.912 80.322 47.912C81.5487 47.912 82.498 48.2853 83.17 49.032C83.8527 49.7787 84.194 50.792 84.194 52.072C84.194 52.3813 84.1887 52.5787 84.178 52.664H77.906C77.9273 53.4 78.146 54.024 78.562 54.536C78.9887 55.0373 79.586 55.288 80.354 55.288C80.994 55.288 81.4847 55.1333 81.826 54.824C82.178 54.5147 82.402 54.1787 82.498 53.816H84.098C83.8633 54.648 83.4313 55.3147 82.802 55.816C82.1727 56.3173 81.346 56.568 80.322 56.568ZM82.562 51.432C82.562 50.7813 82.3487 50.248 81.922 49.832C81.506 49.4053 80.9567 49.192 80.274 49.192C79.6127 49.192 79.0633 49.4 78.626 49.816C78.1887 50.2213 77.9487 50.76 77.906 51.432H82.562Z" fill="#C6C6C8"/>
<path d="M84.8785 44.888H86.4465V56.328H84.8785V44.888Z" fill="#C6C6C8"/>
<path d="M92.9584 56.424C92.233 56.424 91.689 56.248 91.3264 55.896C90.9744 55.544 90.7984 54.92 90.7984 54.024V49.464H89.6144V48.168H90.7984V45.544H92.3664V48.168H93.9344V49.464H92.3664V54.072C92.3664 54.488 92.4304 54.7707 92.5584 54.92C92.697 55.0587 92.937 55.128 93.2784 55.128C93.481 55.128 93.705 55.1067 93.9504 55.064V56.328C93.6304 56.392 93.2997 56.424 92.9584 56.424Z" fill="#C6C6C8"/>
<path d="M98.0752 56.568C97.2432 56.568 96.5179 56.3867 95.8993 56.024C95.2806 55.6613 94.8059 55.1547 94.4753 54.504C94.1553 53.8533 93.9953 53.1013 93.9953 52.248C93.9953 51.3947 94.1606 50.6427 94.4912 49.992C94.8219 49.3413 95.2913 48.8347 95.8993 48.472C96.5179 48.0987 97.2486 47.912 98.0913 47.912C98.9233 47.912 99.6433 48.0933 100.251 48.456C100.87 48.8187 101.339 49.3307 101.659 49.992C101.99 50.6427 102.155 51.3893 102.155 52.232C102.155 53.0853 101.99 53.8427 101.659 54.504C101.329 55.1547 100.854 55.6613 100.235 56.024C99.6273 56.3867 98.9072 56.568 98.0752 56.568ZM95.6273 52.248C95.6273 53.144 95.8353 53.8747 96.2513 54.44C96.6673 54.9947 97.2806 55.272 98.0913 55.272C98.8913 55.272 99.4939 54.9947 99.8993 54.44C100.315 53.8747 100.523 53.144 100.523 52.248C100.523 51.352 100.315 50.6267 99.8993 50.072C99.4939 49.5067 98.8913 49.224 98.0913 49.224C97.2806 49.224 96.6673 49.5013 96.2513 50.056C95.8353 50.6107 95.6273 51.3413 95.6273 52.248Z" fill="#C6C6C8"/>
<path d="M107.81 56.552C106.999 56.552 106.348 56.3387 105.858 55.912C105.378 55.4853 105.138 54.92 105.138 54.216C105.138 53.6293 105.271 53.16 105.538 52.808C105.815 52.4453 106.194 52.168 106.674 51.976C107.164 51.7733 107.788 51.6027 108.546 51.464C109.068 51.368 109.463 51.2827 109.729 51.208C109.996 51.1227 110.209 51.0107 110.369 50.872C110.529 50.7227 110.61 50.52 110.61 50.264C110.61 49.5387 110.092 49.176 109.058 49.176C108.364 49.176 107.879 49.2933 107.602 49.528C107.324 49.7627 107.164 50.1573 107.122 50.712H105.521C105.564 49.8693 105.879 49.192 106.465 48.68C107.052 48.168 107.938 47.912 109.122 47.912C110.039 47.912 110.769 48.136 111.313 48.584C111.868 49.0213 112.146 49.736 112.146 50.728V54.472C112.146 54.7813 112.172 55.0107 112.226 55.16C112.279 55.2987 112.38 55.368 112.53 55.368L112.722 55.352V56.312C112.455 56.376 112.188 56.408 111.922 56.408C111.516 56.408 111.207 56.3173 110.993 56.136C110.791 55.944 110.668 55.624 110.626 55.176H110.594C110.327 55.6133 109.959 55.9547 109.49 56.2C109.02 56.4347 108.46 56.552 107.81 56.552ZM106.77 54.104C106.77 54.8933 107.234 55.288 108.162 55.288C108.898 55.288 109.489 55.1067 109.938 54.744C110.385 54.3707 110.61 53.8373 110.61 53.144V51.976C110.492 52.0827 110.284 52.184 109.986 52.28C109.698 52.3653 109.308 52.4613 108.818 52.568C108.082 52.7173 107.554 52.9093 107.234 53.144C106.924 53.368 106.77 53.688 106.77 54.104Z" fill="#C6C6C8"/>
<path d="M118.854 51.096C118.854 50.52 118.715 50.072 118.438 49.752C118.171 49.432 117.755 49.272 117.19 49.272C116.518 49.272 115.979 49.4587 115.574 49.832C115.179 50.2053 114.982 50.7013 114.982 51.32V56.328H113.414V48.168H114.982V49.192H115.014C115.259 48.8293 115.606 48.5307 116.054 48.296C116.502 48.0507 117.051 47.928 117.701 47.928C118.502 47.928 119.152 48.1627 119.654 48.632C120.166 49.0907 120.422 49.768 120.422 50.664V56.328H118.854V51.096Z" fill="#C6C6C8"/>
<path d="M122.392 59.192C122.104 59.192 121.768 59.1547 121.384 59.08V57.8C121.661 57.832 121.885 57.848 122.056 57.848C122.419 57.848 122.749 57.7253 123.048 57.48C123.357 57.2453 123.587 56.8347 123.736 56.248L120.44 48.168H122.152L124.536 54.408H124.568L126.808 48.168H128.456L125.224 56.52C124.84 57.512 124.429 58.2053 123.992 58.6C123.565 58.9947 123.032 59.192 122.392 59.192Z" fill="#C6C6C8"/>
<path d="M134.735 56.568C133.903 56.568 133.178 56.3867 132.559 56.024C131.941 55.6613 131.466 55.1547 131.135 54.504C130.815 53.8533 130.655 53.1013 130.655 52.248C130.655 51.3947 130.821 50.6427 131.151 49.992C131.482 49.3413 131.951 48.8347 132.559 48.472C133.178 48.0987 133.909 47.912 134.751 47.912C135.583 47.912 136.303 48.0933 136.911 48.456C137.53 48.8187 137.999 49.3307 138.319 49.992C138.65 50.6427 138.815 51.3893 138.815 52.232C138.815 53.0853 138.65 53.8427 138.319 54.504C137.989 55.1547 137.514 55.6613 136.895 56.024C136.287 56.3867 135.567 56.568 134.735 56.568ZM132.287 52.248C132.287 53.144 132.495 53.8747 132.911 54.44C133.327 54.9947 133.941 55.272 134.751 55.272C135.551 55.272 136.154 54.9947 136.559 54.44C136.975 53.8747 137.183 53.144 137.183 52.248C137.183 51.352 136.975 50.6267 136.559 50.072C136.154 49.5067 135.551 49.224 134.751 49.224C133.941 49.224 133.327 49.5013 132.911 50.056C132.495 50.6107 132.287 51.3413 132.287 52.248Z" fill="#C6C6C8"/>
<path d="M139.883 47.176C139.883 46.28 140.053 45.656 140.395 45.304C140.747 44.952 141.28 44.776 141.995 44.776C142.208 44.776 142.539 44.808 142.987 44.872V46.136C142.667 46.104 142.443 46.088 142.315 46.088C141.984 46.088 141.76 46.1573 141.643 46.296C141.525 46.4347 141.467 46.7173 141.467 47.144V48.168H142.987V49.464H141.467V56.328H139.883V49.464H138.763V48.168H139.883V47.176Z" fill="#C6C6C8"/>
<path d="M144.886 44.888H146.726L148.742 53.896H148.774L151.142 44.888H152.998L155.382 53.896H155.414L157.43 44.888H159.27L156.406 56.328H154.518L152.086 47.128H152.054L149.638 56.328H147.734L144.886 44.888Z" fill="#C6C6C8"/>
<path d="M162.659 56.568C161.816 56.568 161.091 56.3813 160.483 56.008C159.875 55.6347 159.411 55.1227 159.091 54.472C158.782 53.8213 158.627 53.0747 158.627 52.232C158.627 51.3787 158.787 50.6267 159.107 49.976C159.438 49.3253 159.907 48.8187 160.515 48.456C161.123 48.0933 161.838 47.912 162.659 47.912C163.886 47.912 164.835 48.2853 165.507 49.032C166.19 49.7787 166.531 50.792 166.531 52.072C166.531 52.3813 166.526 52.5787 166.515 52.664H160.243C160.264 53.4 160.483 54.024 160.899 54.536C161.326 55.0373 161.923 55.288 162.691 55.288C163.331 55.288 163.822 55.1333 164.163 54.824C164.515 54.5147 164.739 54.1787 164.835 53.816H166.435C166.2 54.648 165.768 55.3147 165.139 55.816C164.51 56.3173 163.683 56.568 162.659 56.568ZM164.899 51.432C164.899 50.7813 164.686 50.248 164.259 49.832C163.843 49.4053 163.294 49.192 162.611 49.192C161.95 49.192 161.4 49.4 160.963 49.816C160.526 50.2213 160.286 50.76 160.243 51.432H164.899Z" fill="#C6C6C8"/>
<path d="M170.431 56.552C169.237 56.552 168.314 56.28 167.663 55.736C167.023 55.192 166.693 54.4827 166.671 53.608H168.255C168.287 54.12 168.474 54.5307 168.815 54.84C169.167 55.1387 169.701 55.288 170.415 55.288C171.045 55.288 171.493 55.176 171.759 54.952C172.026 54.7173 172.159 54.4293 172.159 54.088C172.159 53.768 172.063 53.5227 171.871 53.352C171.679 53.1813 171.471 53.0693 171.247 53.016C171.034 52.952 170.623 52.856 170.015 52.728C169.386 52.5787 168.863 52.424 168.447 52.264C168.031 52.104 167.679 51.864 167.391 51.544C167.103 51.224 166.959 50.8027 166.959 50.28C166.959 49.5653 167.231 48.9947 167.775 48.568C168.33 48.1413 169.093 47.928 170.063 47.928C171.13 47.928 171.951 48.1733 172.527 48.664C173.103 49.1547 173.423 49.7787 173.487 50.536H171.903C171.829 50.1413 171.658 49.8213 171.391 49.576C171.135 49.32 170.703 49.192 170.095 49.192C169.583 49.192 169.205 49.2827 168.959 49.464C168.714 49.6453 168.591 49.896 168.591 50.216C168.591 50.4507 168.661 50.6373 168.799 50.776C168.938 50.9147 169.114 51.0213 169.327 51.096C169.541 51.16 169.855 51.2347 170.271 51.32C170.357 51.3307 170.485 51.3573 170.655 51.4C171.306 51.5493 171.845 51.7093 172.271 51.88C172.698 52.0507 173.055 52.3067 173.343 52.648C173.642 52.9893 173.791 53.4427 173.791 54.008C173.791 54.808 173.498 55.432 172.911 55.88C172.325 56.328 171.498 56.552 170.431 56.552Z" fill="#C6C6C8"/>
<path d="M176.982 56.424C176.257 56.424 175.713 56.248 175.35 55.896C174.998 55.544 174.822 54.92 174.822 54.024V49.464H173.638V48.168H174.822V45.544H176.39V48.168H177.958V49.464H176.39V54.072C176.39 54.488 176.454 54.7707 176.582 54.92C176.721 55.0587 176.961 55.128 177.302 55.128C177.505 55.128 177.729 55.1067 177.974 55.064V56.328C177.654 56.392 177.323 56.424 176.982 56.424Z" fill="#C6C6C8"/>
<path d="M184.267 44.888H186.171L190.459 56.328H188.539L187.595 53.576H182.811L181.867 56.328H180.011L184.267 44.888ZM187.099 52.088L185.227 46.52H185.195L183.339 52.088H187.099Z" fill="#C6C6C8"/>
<path d="M190.872 47.176C190.872 46.28 191.043 45.656 191.384 45.304C191.736 44.952 192.269 44.776 192.984 44.776C193.197 44.776 193.528 44.808 193.976 44.872V46.136C193.656 46.104 193.432 46.088 193.304 46.088C192.973 46.088 192.749 46.1573 192.632 46.296C192.515 46.4347 192.456 46.7173 192.456 47.144V48.168H193.976V49.464H192.456V56.328H190.872V49.464H189.752V48.168H190.872V47.176Z" fill="#C6C6C8"/>
<path d="M195.896 56.328H194.328V48.168H195.896V49.72H195.928C196.419 48.5573 197.149 47.976 198.12 47.976C198.387 47.976 198.637 47.992 198.872 48.024V49.528C198.68 49.496 198.504 49.48 198.344 49.48C197.629 49.48 197.043 49.7253 196.584 50.216C196.125 50.7067 195.896 51.336 195.896 52.104V56.328Z" fill="#C6C6C8"/>
<path d="M199.25 48.168H200.818V56.328H199.25V48.168ZM199.154 45.016H200.93V46.712H199.154V45.016Z" fill="#C6C6C8"/>
<path d="M205.523 56.568C204.723 56.568 204.019 56.3867 203.411 56.024C202.803 55.6613 202.333 55.1547 202.003 54.504C201.672 53.8427 201.507 53.0907 201.507 52.248C201.507 51.4053 201.672 50.6587 202.003 50.008C202.333 49.3467 202.797 48.8347 203.395 48.472C204.003 48.1093 204.707 47.928 205.507 47.928C206.189 47.928 206.797 48.0667 207.331 48.344C207.864 48.6107 208.291 48.9893 208.611 49.48C208.931 49.96 209.123 50.5093 209.187 51.128H207.571C207.517 50.616 207.33 50.1733 207.01 49.8C206.69 49.416 206.195 49.224 205.523 49.224C204.712 49.224 204.109 49.5173 203.715 50.104C203.331 50.68 203.139 51.3947 203.139 52.248C203.139 53.1013 203.331 53.816 203.715 54.392C204.109 54.968 204.712 55.256 205.523 55.256C206.205 55.256 206.707 55.0693 207.027 54.696C207.347 54.3227 207.528 53.8587 207.571 53.304H209.187C209.155 53.9227 208.979 54.4827 208.659 54.984C208.339 55.4747 207.907 55.864 207.363 56.152C206.819 56.4293 206.205 56.568 205.523 56.568Z" fill="#C6C6C8"/>
<path d="M212.055 56.552C211.244 56.552 210.593 56.3387 210.103 55.912C209.623 55.4853 209.383 54.92 209.383 54.216C209.383 53.6293 209.516 53.16 209.783 52.808C210.06 52.4453 210.439 52.168 210.919 51.976C211.409 51.7733 212.033 51.6027 212.791 51.464C213.313 51.368 213.708 51.2827 213.975 51.208C214.241 51.1227 214.455 51.0107 214.615 50.872C214.775 50.7227 214.855 50.52 214.855 50.264C214.855 49.5387 214.337 49.176 213.303 49.176C212.609 49.176 212.124 49.2933 211.847 49.528C211.569 49.7627 211.409 50.1573 211.367 50.712H209.767C209.809 49.8693 210.124 49.192 210.711 48.68C211.297 48.168 212.183 47.912 213.367 47.912C214.284 47.912 215.015 48.136 215.559 48.584C216.113 49.0213 216.391 49.736 216.391 50.728V54.472C216.391 54.7813 216.417 55.0107 216.471 55.16C216.524 55.2987 216.625 55.368 216.775 55.368L216.967 55.352V56.312C216.7 56.376 216.433 56.408 216.167 56.408C215.761 56.408 215.452 56.3173 215.239 56.136C215.036 55.944 214.913 55.624 214.87 55.176H214.839C214.572 55.6133 214.204 55.9547 213.735 56.2C213.265 56.4347 212.705 56.552 212.055 56.552ZM211.015 54.104C211.015 54.8933 211.479 55.288 212.407 55.288C213.143 55.288 213.735 55.1067 214.183 54.744C214.631 54.3707 214.855 53.8373 214.855 53.144V51.976C214.737 52.0827 214.529 52.184 214.23 52.28C213.942 52.3653 213.553 52.4613 213.062 52.568C212.327 52.7173 211.799 52.9093 211.479 53.144C211.169 53.368 211.015 53.688 211.015 54.104Z" fill="#C6C6C8"/>
<path d="M216.968 47.944C217.277 47.848 217.496 47.7093 217.624 47.528C217.752 47.336 217.81 47.0373 217.8 46.632H216.968V44.888H218.712V46.632C218.712 47.7947 218.13 48.52 216.968 48.808V47.944Z" fill="#C6C6C8"/>
<path d="M222.047 56.552C220.852 56.552 219.93 56.28 219.279 55.736C218.639 55.192 218.308 54.4827 218.287 53.608H219.871C219.903 54.12 220.09 54.5307 220.431 54.84C220.783 55.1387 221.316 55.288 222.031 55.288C222.66 55.288 223.108 55.176 223.375 54.952C223.642 54.7173 223.775 54.4293 223.775 54.088C223.775 53.768 223.679 53.5227 223.487 53.352C223.295 53.1813 223.087 53.0693 222.863 53.016C222.65 52.952 222.239 52.856 221.631 52.728C221.002 52.5787 220.479 52.424 220.063 52.264C219.647 52.104 219.295 51.864 219.007 51.544C218.719 51.224 218.575 50.8027 218.575 50.28C218.575 49.5653 218.847 48.9947 219.391 48.568C219.946 48.1413 220.708 47.928 221.679 47.928C222.746 47.928 223.567 48.1733 224.143 48.664C224.719 49.1547 225.039 49.7787 225.103 50.536H223.519C223.444 50.1413 223.274 49.8213 223.007 49.576C222.751 49.32 222.319 49.192 221.711 49.192C221.199 49.192 220.82 49.2827 220.575 49.464C220.33 49.6453 220.207 49.896 220.207 50.216C220.207 50.4507 220.276 50.6373 220.415 50.776C220.554 50.9147 220.73 51.0213 220.943 51.096C221.156 51.16 221.471 51.2347 221.887 51.32C221.972 51.3307 222.1 51.3573 222.271 51.4C222.922 51.5493 223.46 51.7093 223.887 51.88C224.314 52.0507 224.671 52.3067 224.959 52.648C225.258 52.9893 225.407 53.4427 225.407 54.008C225.407 54.808 225.114 55.432 224.527 55.88C223.94 56.328 223.114 56.552 222.047 56.552Z" fill="#C6C6C8"/>
<path d="M233.603 51.096C233.603 50.488 233.502 50.0347 233.299 49.736C233.107 49.4267 232.734 49.272 232.179 49.272C231.603 49.272 231.139 49.4587 230.787 49.832C230.446 50.2053 230.275 50.7013 230.275 51.32V56.328H228.707V48.168H230.275V49.192H230.307C230.563 48.8293 230.889 48.5307 231.283 48.296C231.678 48.0507 232.158 47.928 232.723 47.928C233.833 47.928 234.553 48.4027 234.883 49.352H234.915C235.63 48.4027 236.521 47.928 237.587 47.928C238.398 47.928 239.011 48.1627 239.427 48.632C239.854 49.1013 240.067 49.7787 240.067 50.664V56.328H238.499V51.096C238.499 50.488 238.398 50.0347 238.195 49.736C238.003 49.4267 237.63 49.272 237.075 49.272C236.499 49.272 236.035 49.4587 235.683 49.832C235.342 50.2053 235.171 50.7013 235.171 51.32V56.328H233.603V51.096Z" fill="#C6C6C8"/>
<path d="M243.401 56.552C242.591 56.552 241.94 56.3387 241.449 55.912C240.969 55.4853 240.729 54.92 240.729 54.216C240.729 53.6293 240.863 53.16 241.129 52.808C241.407 52.4453 241.785 52.168 242.265 51.976C242.756 51.7733 243.38 51.6027 244.137 51.464C244.66 51.368 245.055 51.2827 245.321 51.208C245.588 51.1227 245.801 51.0107 245.961 50.872C246.121 50.7227 246.201 50.52 246.201 50.264C246.201 49.5387 245.684 49.176 244.649 49.176C243.956 49.176 243.471 49.2933 243.193 49.528C242.916 49.7627 242.756 50.1573 242.713 50.712H241.113C241.156 49.8693 241.471 49.192 242.057 48.68C242.644 48.168 243.529 47.912 244.713 47.912C245.631 47.912 246.361 48.136 246.905 48.584C247.46 49.0213 247.737 49.736 247.737 50.728V54.472C247.737 54.7813 247.764 55.0107 247.817 55.16C247.871 55.2987 247.972 55.368 248.121 55.368L248.313 55.352V56.312C248.047 56.376 247.78 56.408 247.513 56.408C247.108 56.408 246.799 56.3173 246.585 56.136C246.383 55.944 246.26 55.624 246.217 55.176H246.185C245.919 55.6133 245.551 55.9547 245.081 56.2C244.612 56.4347 244.052 56.552 243.401 56.552ZM242.361 54.104C242.361 54.8933 242.825 55.288 243.753 55.288C244.489 55.288 245.081 55.1067 245.529 54.744C245.977 54.3707 246.201 53.8373 246.201 53.144V51.976C246.084 52.0827 245.876 52.184 245.577 52.28C245.289 52.3653 244.9 52.4613 244.409 52.568C243.673 52.7173 243.145 52.9093 242.825 53.144C242.516 53.368 242.361 53.688 242.361 54.104Z" fill="#C6C6C8"/>
<path d="M248.621 59.224C248.376 59.224 248.051 59.192 247.645 59.128V57.832C247.901 57.864 248.109 57.88 248.269 57.88C248.525 57.88 248.712 57.7893 248.829 57.608C248.947 57.4373 249.005 57.1333 249.005 56.696V48.168H250.573V56.76C250.573 57.6027 250.397 58.2213 250.045 58.616C249.704 59.0213 249.229 59.224 248.621 59.224ZM248.909 45.016H250.685V46.712H248.909V45.016Z" fill="#C6C6C8"/>
<path d="M255.341 56.568C254.509 56.568 253.784 56.3867 253.165 56.024C252.547 55.6613 252.072 55.1547 251.742 54.504C251.422 53.8533 251.261 53.1013 251.261 52.248C251.261 51.3947 251.427 50.6427 251.757 49.992C252.088 49.3413 252.557 48.8347 253.165 48.472C253.784 48.0987 254.515 47.912 255.357 47.912C256.189 47.912 256.909 48.0933 257.517 48.456C258.136 48.8187 258.606 49.3307 258.926 49.992C259.256 50.6427 259.422 51.3893 259.422 52.232C259.422 53.0853 259.256 53.8427 258.926 54.504C258.595 55.1547 258.12 55.6613 257.501 56.024C256.893 56.3867 256.173 56.568 255.341 56.568ZM252.893 52.248C252.893 53.144 253.102 53.8747 253.518 54.44C253.934 54.9947 254.547 55.272 255.357 55.272C256.157 55.272 256.76 54.9947 257.165 54.44C257.581 53.8747 257.789 53.144 257.789 52.248C257.789 51.352 257.581 50.6267 257.165 50.072C256.76 49.5067 256.157 49.224 255.357 49.224C254.547 49.224 253.934 49.5013 253.518 50.056C253.102 50.6107 252.893 51.3413 252.893 52.248Z" fill="#C6C6C8"/>
<path d="M261.684 56.328H260.116V48.168H261.684V49.72H261.716C262.207 48.5573 262.937 47.976 263.908 47.976C264.175 47.976 264.425 47.992 264.66 48.024V49.528C264.468 49.496 264.292 49.48 264.132 49.48C263.417 49.48 262.831 49.7253 262.372 50.216C261.913 50.7067 261.684 51.336 261.684 52.104V56.328Z" fill="#C6C6C8"/>
<path d="M270.967 56.568C270.167 56.568 269.463 56.3867 268.855 56.024C268.247 55.6613 267.778 55.1547 267.447 54.504C267.116 53.8427 266.951 53.0907 266.951 52.248C266.951 51.4053 267.116 50.6587 267.447 50.008C267.778 49.3467 268.242 48.8347 268.839 48.472C269.447 48.1093 270.151 47.928 270.951 47.928C271.634 47.928 272.242 48.0667 272.775 48.344C273.308 48.6107 273.735 48.9893 274.055 49.48C274.375 49.96 274.567 50.5093 274.631 51.128H273.015C272.962 50.616 272.775 50.1733 272.455 49.8C272.135 49.416 271.639 49.224 270.967 49.224C270.156 49.224 269.554 49.5173 269.159 50.104C268.775 50.68 268.583 51.3947 268.583 52.248C268.583 53.1013 268.775 53.816 269.159 54.392C269.554 54.968 270.156 55.256 270.967 55.256C271.65 55.256 272.151 55.0693 272.471 54.696C272.791 54.3227 272.972 53.8587 273.015 53.304H274.631C274.599 53.9227 274.423 54.4827 274.103 54.984C273.783 55.4747 273.351 55.864 272.807 56.152C272.263 56.4293 271.65 56.568 270.967 56.568Z" fill="#C6C6C8"/>
<path d="M275.243 48.168H276.811V56.328H275.243V48.168ZM275.147 45.016H276.923V46.712H275.147V45.016Z" fill="#C6C6C8"/>
<path d="M280.619 56.424C279.894 56.424 279.35 56.248 278.987 55.896C278.635 55.544 278.459 54.92 278.459 54.024V49.464H277.275V48.168H278.459V45.544H280.027V48.168H281.595V49.464H280.027V54.072C280.027 54.488 280.091 54.7707 280.219 54.92C280.358 55.0587 280.598 55.128 280.939 55.128C281.142 55.128 281.366 55.1067 281.611 55.064V56.328C281.291 56.392 280.96 56.424 280.619 56.424Z" fill="#C6C6C8"/>
<path d="M282.26 48.168H283.828V56.328H282.26V48.168ZM282.164 45.016H283.94V46.712H282.164V45.016Z" fill="#C6C6C8"/>
<path d="M288.564 56.568C287.721 56.568 286.996 56.3813 286.388 56.008C285.78 55.6347 285.316 55.1227 284.996 54.472C284.687 53.8213 284.532 53.0747 284.532 52.232C284.532 51.3787 284.692 50.6267 285.012 49.976C285.343 49.3253 285.812 48.8187 286.42 48.456C287.028 48.0933 287.743 47.912 288.564 47.912C289.791 47.912 290.74 48.2853 291.412 49.032C292.095 49.7787 292.436 50.792 292.436 52.072C292.436 52.3813 292.431 52.5787 292.42 52.664H286.148C286.169 53.4 286.388 54.024 286.804 54.536C287.231 55.0373 287.828 55.288 288.596 55.288C289.236 55.288 289.727 55.1333 290.068 54.824C290.42 54.5147 290.644 54.1787 290.74 53.816H292.34C292.105 54.648 291.673 55.3147 291.044 55.816C290.415 56.3173 289.588 56.568 288.564 56.568ZM290.804 51.432C290.804 50.7813 290.591 50.248 290.164 49.832C289.748 49.4053 289.199 49.192 288.516 49.192C287.855 49.192 287.305 49.4 286.868 49.816C286.431 50.2213 286.191 50.76 286.148 51.432H290.804Z" fill="#C6C6C8"/>
<path d="M296.336 56.552C295.142 56.552 294.219 56.28 293.568 55.736C292.928 55.192 292.598 54.4827 292.576 53.608H294.16C294.192 54.12 294.379 54.5307 294.72 54.84C295.072 55.1387 295.606 55.288 296.32 55.288C296.95 55.288 297.398 55.176 297.664 54.952C297.931 54.7173 298.064 54.4293 298.064 54.088C298.064 53.768 297.968 53.5227 297.776 53.352C297.584 53.1813 297.376 53.0693 297.152 53.016C296.939 52.952 296.528 52.856 295.92 52.728C295.291 52.5787 294.768 52.424 294.352 52.264C293.936 52.104 293.584 51.864 293.296 51.544C293.008 51.224 292.864 50.8027 292.864 50.28C292.864 49.5653 293.136 48.9947 293.68 48.568C294.235 48.1413 294.998 47.928 295.968 47.928C297.035 47.928 297.856 48.1733 298.432 48.664C299.008 49.1547 299.328 49.7787 299.392 50.536H297.808C297.734 50.1413 297.563 49.8213 297.296 49.576C297.04 49.32 296.608 49.192 296 49.192C295.488 49.192 295.11 49.2827 294.864 49.464C294.619 49.6453 294.496 49.896 294.496 50.216C294.496 50.4507 294.566 50.6373 294.704 50.776C294.843 50.9147 295.019 51.0213 295.232 51.096C295.446 51.16 295.76 51.2347 296.176 51.32C296.262 51.3307 296.39 51.3573 296.56 51.4C297.211 51.5493 297.75 51.7093 298.176 51.88C298.603 52.0507 298.96 52.3067 299.248 52.648C299.547 52.9893 299.696 53.4427 299.696 54.008C299.696 54.808 299.403 55.432 298.816 55.88C298.23 56.328 297.403 56.552 296.336 56.552Z" fill="#C6C6C8"/>
<path d="M300.133 54.584H301.877V56.328H300.133V54.584Z" fill="#C6C6C8"/>
<path d="M304.154 44.888H305.994L308.01 53.896H308.042L310.41 44.888H312.266L314.65 53.896H314.682L316.698 44.888H318.538L315.674 56.328H313.786L311.354 47.128H311.322L308.906 56.328H307.002L304.154 44.888Z" fill="#C6C6C8"/>
<path d="M321.926 56.568C321.084 56.568 320.358 56.3813 319.75 56.008C319.142 55.6347 318.678 55.1227 318.358 54.472C318.049 53.8213 317.894 53.0747 317.894 52.232C317.894 51.3787 318.054 50.6267 318.374 49.976C318.705 49.3253 319.174 48.8187 319.782 48.456C320.39 48.0933 321.105 47.912 321.926 47.912C323.153 47.912 324.102 48.2853 324.774 49.032C325.457 49.7787 325.798 50.792 325.798 52.072C325.798 52.3813 325.793 52.5787 325.782 52.664H319.51C319.532 53.4 319.75 54.024 320.166 54.536C320.593 55.0373 321.19 55.288 321.958 55.288C322.598 55.288 323.089 55.1333 323.43 54.824C323.782 54.5147 324.006 54.1787 324.102 53.816H325.702C325.468 54.648 325.036 55.3147 324.406 55.816C323.777 56.3173 322.95 56.568 321.926 56.568ZM324.166 51.432C324.166 50.7813 323.953 50.248 323.526 49.832C323.11 49.4053 322.561 49.192 321.878 49.192C321.217 49.192 320.668 49.4 320.23 49.816C319.793 50.2213 319.553 50.76 319.51 51.432H324.166Z" fill="#C6C6C8"/>
<path d="M332.691 59.256C331.571 59.256 330.701 59.016 330.083 58.536C329.464 58.0667 329.112 57.4427 329.027 56.664H330.659C330.851 57.5387 331.528 57.976 332.691 57.976C333.448 57.976 334.013 57.8 334.387 57.448C334.76 57.096 334.947 56.5413 334.947 55.784V54.68H334.915C334.349 55.5013 333.512 55.912 332.403 55.912C331.72 55.912 331.107 55.7627 330.563 55.464C330.019 55.1547 329.587 54.7013 329.267 54.104C328.957 53.496 328.803 52.7707 328.803 51.928C328.803 51.0747 328.957 50.3493 329.267 49.752C329.587 49.1547 330.013 48.7013 330.547 48.392C331.091 48.0827 331.709 47.928 332.403 47.928C333.459 47.928 334.296 48.328 334.915 49.128H334.947V48.168H336.515V55.688C336.515 56.8827 336.179 57.7733 335.507 58.36C334.835 58.9573 333.896 59.256 332.691 59.256ZM330.435 51.928C330.435 52.728 330.627 53.3787 331.011 53.88C331.395 54.3707 331.955 54.616 332.691 54.616C333.405 54.616 333.955 54.3867 334.339 53.928C334.733 53.4693 334.931 52.8027 334.931 51.928C334.931 51.0427 334.733 50.376 334.339 49.928C333.955 49.4693 333.405 49.24 332.691 49.24C331.955 49.24 331.395 49.4907 331.011 49.992C330.627 50.4827 330.435 51.128 330.435 51.928Z" fill="#C6C6C8"/>
<path d="M340.281 56.552C339.481 56.552 338.825 56.3227 338.313 55.864C337.811 55.3947 337.561 54.712 337.561 53.816V48.168H339.129V53.384C339.129 53.96 339.262 54.4133 339.529 54.744C339.806 55.064 340.227 55.224 340.793 55.224C341.465 55.224 341.998 55.0373 342.393 54.664C342.798 54.2907 343.001 53.7947 343.001 53.176V48.168H344.569V56.328H343.001V55.304H342.969C342.723 55.6667 342.377 55.9653 341.929 56.2C341.481 56.4347 340.931 56.552 340.281 56.552Z" fill="#C6C6C8"/>
<path d="M347.944 56.552C347.133 56.552 346.483 56.3387 345.992 55.912C345.512 55.4853 345.272 54.92 345.272 54.216C345.272 53.6293 345.405 53.16 345.672 52.808C345.949 52.4453 346.328 52.168 346.808 51.976C347.299 51.7733 347.923 51.6027 348.68 51.464C349.203 51.368 349.597 51.2827 349.864 51.208C350.131 51.1227 350.344 51.0107 350.504 50.872C350.664 50.7227 350.744 50.52 350.744 50.264C350.744 49.5387 350.227 49.176 349.192 49.176C348.499 49.176 348.013 49.2933 347.736 49.528C347.459 49.7627 347.299 50.1573 347.256 50.712H345.656C345.699 49.8693 346.013 49.192 346.6 48.68C347.187 48.168 348.072 47.912 349.256 47.912C350.173 47.912 350.904 48.136 351.448 48.584C352.003 49.0213 352.28 49.736 352.28 50.728V54.472C352.28 54.7813 352.307 55.0107 352.36 55.16C352.413 55.2987 352.515 55.368 352.664 55.368L352.856 55.352V56.312C352.589 56.376 352.323 56.408 352.056 56.408C351.651 56.408 351.341 56.3173 351.128 56.136C350.925 55.944 350.803 55.624 350.76 55.176H350.728C350.461 55.6133 350.093 55.9547 349.624 56.2C349.155 56.4347 348.595 56.552 347.944 56.552ZM346.904 54.104C346.904 54.8933 347.368 55.288 348.296 55.288C349.032 55.288 349.624 55.1067 350.072 54.744C350.52 54.3707 350.744 53.8373 350.744 53.144V51.976C350.627 52.0827 350.419 52.184 350.12 52.28C349.832 52.3653 349.443 52.4613 348.952 52.568C348.216 52.7173 347.688 52.9093 347.368 53.144C347.059 53.368 346.904 53.688 346.904 54.104Z" fill="#C6C6C8"/>
<path d="M355.116 56.328H353.548V48.168H355.116V49.72H355.148C355.639 48.5573 356.369 47.976 357.34 47.976C357.607 47.976 357.857 47.992 358.092 48.024V49.528C357.9 49.496 357.724 49.48 357.564 49.48C356.849 49.48 356.263 49.7253 355.804 50.216C355.345 50.7067 355.116 51.336 355.116 52.104V56.328Z" fill="#C6C6C8"/>
<path d="M360.445 56.552C359.634 56.552 358.984 56.3387 358.493 55.912C358.013 55.4853 357.773 54.92 357.773 54.216C357.773 53.6293 357.906 53.16 358.173 52.808C358.45 52.4453 358.829 52.168 359.309 51.976C359.8 51.7733 360.424 51.6027 361.181 51.464C361.704 51.368 362.098 51.2827 362.365 51.208C362.632 51.1227 362.845 51.0107 363.005 50.872C363.165 50.7227 363.245 50.52 363.245 50.264C363.245 49.5387 362.728 49.176 361.693 49.176C361 49.176 360.514 49.2933 360.237 49.528C359.96 49.7627 359.8 50.1573 359.757 50.712H358.157C358.2 49.8693 358.514 49.192 359.101 48.68C359.688 48.168 360.573 47.912 361.757 47.912C362.674 47.912 363.405 48.136 363.949 48.584C364.504 49.0213 364.781 49.736 364.781 50.728V54.472C364.781 54.7813 364.808 55.0107 364.861 55.16C364.914 55.2987 365.016 55.368 365.165 55.368L365.357 55.352V56.312C365.09 56.376 364.824 56.408 364.557 56.408C364.152 56.408 363.842 56.3173 363.629 56.136C363.426 55.944 363.304 55.624 363.261 55.176H363.229C362.962 55.6133 362.594 55.9547 362.125 56.2C361.656 56.4347 361.096 56.552 360.445 56.552ZM359.405 54.104C359.405 54.8933 359.869 55.288 360.797 55.288C361.533 55.288 362.125 55.1067 362.573 54.744C363.021 54.3707 363.245 53.8373 363.245 53.144V51.976C363.128 52.0827 362.92 52.184 362.621 52.28C362.333 52.3653 361.944 52.4613 361.453 52.568C360.717 52.7173 360.189 52.9093 359.869 53.144C359.56 53.368 359.405 53.688 359.405 54.104Z" fill="#C6C6C8"/>
<path d="M371.489 51.096C371.489 50.52 371.35 50.072 371.073 49.752C370.806 49.432 370.39 49.272 369.825 49.272C369.153 49.272 368.614 49.4587 368.209 49.832C367.814 50.2053 367.617 50.7013 367.617 51.32V56.328H366.049V48.168H367.617V49.192H367.649C367.894 48.8293 368.241 48.5307 368.689 48.296C369.137 48.0507 369.686 47.928 370.337 47.928C371.137 47.928 371.788 48.1627 372.289 48.632C372.801 49.0907 373.057 49.768 373.057 50.664V56.328H371.489V51.096Z" fill="#C6C6C8"/>
<path d="M376.722 56.424C375.997 56.424 375.453 56.248 375.09 55.896C374.738 55.544 374.562 54.92 374.562 54.024V49.464H373.378V48.168H374.562V45.544H376.13V48.168H377.698V49.464H376.13V54.072C376.13 54.488 376.194 54.7707 376.322 54.92C376.461 55.0587 376.701 55.128 377.042 55.128C377.245 55.128 377.469 55.1067 377.714 55.064V56.328C377.394 56.392 377.063 56.424 376.722 56.424Z" fill="#C6C6C8"/>
<path d="M381.807 56.568C380.964 56.568 380.239 56.3813 379.631 56.008C379.023 55.6347 378.559 55.1227 378.239 54.472C377.93 53.8213 377.775 53.0747 377.775 52.232C377.775 51.3787 377.935 50.6267 378.255 49.976C378.586 49.3253 379.055 48.8187 379.663 48.456C380.271 48.0933 380.986 47.912 381.807 47.912C383.034 47.912 383.983 48.2853 384.655 49.032C385.338 49.7787 385.679 50.792 385.679 52.072C385.679 52.3813 385.674 52.5787 385.663 52.664H379.391C379.412 53.4 379.631 54.024 380.047 54.536C380.474 55.0373 381.071 55.288 381.839 55.288C382.479 55.288 382.97 55.1333 383.311 54.824C383.663 54.5147 383.887 54.1787 383.983 53.816H385.583C385.348 54.648 384.916 55.3147 384.287 55.816C383.658 56.3173 382.831 56.568 381.807 56.568ZM384.047 51.432C384.047 50.7813 383.834 50.248 383.407 49.832C382.991 49.4053 382.442 49.192 381.759 49.192C381.098 49.192 380.548 49.4 380.111 49.816C379.674 50.2213 379.434 50.76 379.391 51.432H384.047Z" fill="#C6C6C8"/>
<path d="M389.979 56.568C389.137 56.568 388.411 56.3813 387.803 56.008C387.195 55.6347 386.731 55.1227 386.411 54.472C386.102 53.8213 385.947 53.0747 385.947 52.232C385.947 51.3787 386.107 50.6267 386.427 49.976C386.758 49.3253 387.227 48.8187 387.835 48.456C388.443 48.0933 389.158 47.912 389.979 47.912C391.206 47.912 392.155 48.2853 392.827 49.032C393.51 49.7787 393.852 50.792 393.852 52.072C393.852 52.3813 393.846 52.5787 393.835 52.664H387.564C387.585 53.4 387.803 54.024 388.219 54.536C388.646 55.0373 389.244 55.288 390.012 55.288C390.652 55.288 391.142 55.1333 391.483 54.824C391.835 54.5147 392.059 54.1787 392.155 53.816H393.755C393.521 54.648 393.089 55.3147 392.46 55.816C391.83 56.3173 391.003 56.568 389.979 56.568ZM392.219 51.432C392.219 50.7813 392.006 50.248 391.579 49.832C391.163 49.4053 390.614 49.192 389.931 49.192C389.27 49.192 388.721 49.4 388.283 49.816C387.846 50.2213 387.606 50.76 387.564 51.432H392.219Z" fill="#C6C6C8"/>
<path d="M397.24 48.168H398.808V56.328H397.24V48.168ZM397.144 45.016H398.92V46.712H397.144V45.016Z" fill="#C6C6C8"/>
<path d="M402.616 56.424C401.891 56.424 401.347 56.248 400.984 55.896C400.632 55.544 400.456 54.92 400.456 54.024V49.464H399.272V48.168H400.456V45.544H402.024V48.168H403.592V49.464H402.024V54.072C402.024 54.488 402.088 54.7707 402.216 54.92C402.355 55.0587 402.595 55.128 402.936 55.128C403.139 55.128 403.363 55.1067 403.608 55.064V56.328C403.288 56.392 402.957 56.424 402.616 56.424Z" fill="#C6C6C8"/>
<path d="M404.113 47.944C404.422 47.848 404.641 47.7093 404.769 47.528C404.897 47.336 404.955 47.0373 404.945 46.632H404.113V44.888H405.857V46.632C405.857 47.7947 405.275 48.52 404.113 48.808V47.944Z" fill="#C6C6C8"/>
<path d="M409.192 56.552C407.997 56.552 407.075 56.28 406.424 55.736C405.784 55.192 405.453 54.4827 405.432 53.608H407.016C407.048 54.12 407.235 54.5307 407.576 54.84C407.928 55.1387 408.461 55.288 409.176 55.288C409.805 55.288 410.253 55.176 410.52 54.952C410.787 54.7173 410.92 54.4293 410.92 54.088C410.92 53.768 410.824 53.5227 410.632 53.352C410.44 53.1813 410.232 53.0693 410.008 53.016C409.795 52.952 409.384 52.856 408.776 52.728C408.147 52.5787 407.624 52.424 407.208 52.264C406.792 52.104 406.44 51.864 406.152 51.544C405.864 51.224 405.72 50.8027 405.72 50.28C405.72 49.5653 405.992 48.9947 406.536 48.568C407.091 48.1413 407.853 47.928 408.824 47.928C409.891 47.928 410.712 48.1733 411.288 48.664C411.864 49.1547 412.184 49.7787 412.248 50.536H410.664C410.589 50.1413 410.419 49.8213 410.152 49.576C409.896 49.32 409.464 49.192 408.856 49.192C408.344 49.192 407.965 49.2827 407.72 49.464C407.475 49.6453 407.352 49.896 407.352 50.216C407.352 50.4507 407.421 50.6373 407.56 50.776C407.699 50.9147 407.875 51.0213 408.088 51.096C408.301 51.16 408.616 51.2347 409.032 51.32C409.117 51.3307 409.245 51.3573 409.416 51.4C410.067 51.5493 410.605 51.7093 411.032 51.88C411.459 52.0507 411.816 52.3067 412.104 52.648C412.403 52.9893 412.552 53.4427 412.552 54.008C412.552 54.808 412.259 55.432 411.672 55.88C411.085 56.328 410.259 56.552 409.192 56.552Z" fill="#C6C6C8"/>
<path d="M4 78.256C2.88 78.256 2.01067 78.016 1.392 77.536C0.773333 77.0667 0.421333 76.4427 0.336 75.664H1.968C2.16 76.5387 2.83733 76.976 4 76.976C4.75733 76.976 5.32267 76.8 5.696 76.448C6.06933 76.096 6.256 75.5413 6.256 74.784V73.68H6.224C5.65867 74.5013 4.82133 74.912 3.712 74.912C3.02933 74.912 2.416 74.7627 1.872 74.464C1.328 74.1547 0.896 73.7013 0.576 73.104C0.266667 72.496 0.112 71.7707 0.112 70.928C0.112 70.0747 0.266667 69.3493 0.576 68.752C0.896 68.1547 1.32267 67.7013 1.856 67.392C2.4 67.0827 3.01867 66.928 3.712 66.928C4.768 66.928 5.60533 67.328 6.224 68.128H6.256V67.168H7.824V74.688C7.824 75.8827 7.488 76.7733 6.816 77.36C6.144 77.9573 5.20533 78.256 4 78.256ZM1.744 70.928C1.744 71.728 1.936 72.3787 2.32 72.88C2.704 73.3707 3.264 73.616 4 73.616C4.71467 73.616 5.264 73.3867 5.648 72.928C6.04267 72.4693 6.24 71.8027 6.24 70.928C6.24 70.0427 6.04267 69.376 5.648 68.928C5.264 68.4693 4.71467 68.24 4 68.24C3.264 68.24 2.704 68.4907 2.32 68.992C1.936 69.4827 1.744 70.128 1.744 70.928Z" fill="#C6C6C8"/>
<path d="M12.5821 75.568C11.7501 75.568 11.0248 75.3867 10.4061 75.024C9.78746 74.6613 9.31279 74.1547 8.98212 73.504C8.66212 72.8533 8.50212 72.1013 8.50212 71.248C8.50212 70.3947 8.66746 69.6427 8.99813 68.992C9.32879 68.3413 9.79813 67.8347 10.4061 67.472C11.0248 67.0987 11.7555 66.912 12.5981 66.912C13.4301 66.912 14.1501 67.0933 14.7581 67.456C15.3768 67.8187 15.8461 68.3307 16.1661 68.992C16.4968 69.6427 16.6621 70.3893 16.6621 71.232C16.6621 72.0853 16.4968 72.8427 16.1661 73.504C15.8355 74.1547 15.3608 74.6613 14.7421 75.024C14.1341 75.3867 13.4141 75.568 12.5821 75.568ZM10.1341 71.248C10.1341 72.144 10.3421 72.8747 10.7581 73.44C11.1741 73.9947 11.7875 74.272 12.5981 74.272C13.3981 74.272 14.0008 73.9947 14.4061 73.44C14.8221 72.8747 15.0301 72.144 15.0301 71.248C15.0301 70.352 14.8221 69.6267 14.4061 69.072C14.0008 68.5067 13.3981 68.224 12.5981 68.224C11.7875 68.224 11.1741 68.5013 10.7581 69.056C10.3421 69.6107 10.1341 70.3413 10.1341 71.248Z" fill="#C6C6C8"/>
<path d="M22.7966 70.096C22.7966 69.52 22.658 69.072 22.3806 68.752C22.114 68.432 21.698 68.272 21.1326 68.272C20.4606 68.272 19.922 68.4587 19.5166 68.832C19.122 69.2053 18.9246 69.7013 18.9246 70.32V75.328H17.3566V67.168H18.9246V68.192H18.9566C19.202 67.8293 19.5486 67.5307 19.9966 67.296C20.4446 67.0507 20.994 66.928 21.6446 66.928C22.4446 66.928 23.0953 67.1627 23.5966 67.632C24.1086 68.0907 24.3646 68.768 24.3646 69.664V75.328H22.7966V70.096Z" fill="#C6C6C8"/>
<path d="M30.8598 70.096C30.8598 69.52 30.7211 69.072 30.4438 68.752C30.1771 68.432 29.7611 68.272 29.1957 68.272C28.5237 68.272 27.9851 68.4587 27.5798 68.832C27.1851 69.2053 26.9878 69.7013 26.9878 70.32V75.328H25.4198V67.168H26.9878V68.192H27.0198C27.2651 67.8293 27.6117 67.5307 28.0597 67.296C28.5077 67.0507 29.0571 66.928 29.7078 66.928C30.5078 66.928 31.1584 67.1627 31.6597 67.632C32.1718 68.0907 32.4277 68.768 32.4277 69.664V75.328H30.8598V70.096Z" fill="#C6C6C8"/>
<path d="M35.7389 75.552C34.9282 75.552 34.2775 75.3387 33.7869 74.912C33.3069 74.4853 33.0669 73.92 33.0669 73.216C33.0669 72.6293 33.2002 72.16 33.4669 71.808C33.7442 71.4453 34.1229 71.168 34.6029 70.976C35.0935 70.7733 35.7175 70.6027 36.4749 70.464C36.9975 70.368 37.3922 70.2827 37.6589 70.208C37.9255 70.1227 38.1389 70.0107 38.2989 69.872C38.4589 69.7227 38.5389 69.52 38.5389 69.264C38.5389 68.5387 38.0215 68.176 36.9869 68.176C36.2935 68.176 35.8082 68.2933 35.5309 68.528C35.2535 68.7627 35.0935 69.1573 35.0509 69.712H33.4509C33.4935 68.8693 33.8082 68.192 34.3949 67.68C34.9815 67.168 35.8669 66.912 37.0509 66.912C37.9682 66.912 38.6989 67.136 39.2429 67.584C39.7975 68.0213 40.0749 68.736 40.0749 69.728V73.472C40.0749 73.7813 40.1015 74.0107 40.1549 74.16C40.2082 74.2987 40.3095 74.368 40.4589 74.368L40.6509 74.352V75.312C40.3842 75.376 40.1175 75.408 39.8509 75.408C39.4455 75.408 39.1362 75.3173 38.9229 75.136C38.7202 74.944 38.5975 74.624 38.5549 74.176H38.5229C38.2562 74.6133 37.8882 74.9547 37.4189 75.2C36.9495 75.4347 36.3895 75.552 35.7389 75.552ZM34.6989 73.104C34.6989 73.8933 35.1629 74.288 36.0909 74.288C36.8269 74.288 37.4189 74.1067 37.8669 73.744C38.3149 73.3707 38.5389 72.8373 38.5389 72.144V70.976C38.4215 71.0827 38.2135 71.184 37.9149 71.28C37.6269 71.3653 37.2375 71.4613 36.7469 71.568C36.0109 71.7173 35.4829 71.9093 35.1629 72.144C34.8535 72.368 34.6989 72.688 34.6989 73.104Z" fill="#C6C6C8"/>
<path d="M47.5506 78.256C46.4306 78.256 45.5613 78.016 44.9426 77.536C44.324 77.0667 43.972 76.4427 43.8866 75.664H45.5186C45.7106 76.5387 46.388 76.976 47.5506 76.976C48.308 76.976 48.8733 76.8 49.2466 76.448C49.62 76.096 49.8066 75.5413 49.8066 74.784V73.68H49.7746C49.2093 74.5013 48.372 74.912 47.2626 74.912C46.58 74.912 45.9666 74.7627 45.4226 74.464C44.8786 74.1547 44.4466 73.7013 44.1266 73.104C43.8173 72.496 43.6626 71.7707 43.6626 70.928C43.6626 70.0747 43.8173 69.3493 44.1266 68.752C44.4466 68.1547 44.8733 67.7013 45.4066 67.392C45.9506 67.0827 46.5693 66.928 47.2626 66.928C48.3186 66.928 49.156 67.328 49.7746 68.128H49.8066V67.168H51.3746V74.688C51.3746 75.8827 51.0386 76.7733 50.3666 77.36C49.6946 77.9573 48.756 78.256 47.5506 78.256ZM45.2946 70.928C45.2946 71.728 45.4866 72.3787 45.8706 72.88C46.2546 73.3707 46.8146 73.616 47.5506 73.616C48.2653 73.616 48.8146 73.3867 49.1986 72.928C49.5933 72.4693 49.7906 71.8027 49.7906 70.928C49.7906 70.0427 49.5933 69.376 49.1986 68.928C48.8146 68.4693 48.2653 68.24 47.5506 68.24C46.8146 68.24 46.2546 68.4907 45.8706 68.992C45.4866 69.4827 45.2946 70.128 45.2946 70.928Z" fill="#C6C6C8"/>
<path d="M56.1007 75.568C55.2581 75.568 54.5328 75.3813 53.9248 75.008C53.3168 74.6347 52.8527 74.1227 52.5327 73.472C52.2234 72.8213 52.0688 72.0747 52.0688 71.232C52.0688 70.3787 52.2288 69.6267 52.5488 68.976C52.8794 68.3253 53.3487 67.8187 53.9567 67.456C54.5647 67.0933 55.2794 66.912 56.1007 66.912C57.3274 66.912 58.2767 67.2853 58.9487 68.032C59.6314 68.7787 59.9728 69.792 59.9728 71.072C59.9728 71.3813 59.9674 71.5787 59.9567 71.664H53.6847C53.7061 72.4 53.9248 73.024 54.3408 73.536C54.7674 74.0373 55.3648 74.288 56.1328 74.288C56.7728 74.288 57.2634 74.1333 57.6048 73.824C57.9568 73.5147 58.1808 73.1787 58.2768 72.816H59.8768C59.6421 73.648 59.2101 74.3147 58.5807 74.816C57.9514 75.3173 57.1247 75.568 56.1007 75.568ZM58.3408 70.432C58.3408 69.7813 58.1274 69.248 57.7008 68.832C57.2848 68.4053 56.7354 68.192 56.0527 68.192C55.3914 68.192 54.8421 68.4 54.4048 68.816C53.9674 69.2213 53.7274 69.76 53.6847 70.432H58.3408Z" fill="#C6C6C8"/>
<path d="M63.2203 75.424C62.4949 75.424 61.9509 75.248 61.5883 74.896C61.2363 74.544 61.0602 73.92 61.0602 73.024V68.464H59.8763V67.168H61.0602V64.544H62.6283V67.168H64.1963V68.464H62.6283V73.072C62.6283 73.488 62.6923 73.7707 62.8203 73.92C62.9589 74.0587 63.1989 74.128 63.5403 74.128C63.7429 74.128 63.9669 74.1067 64.2122 74.064V75.328C63.8922 75.392 63.5616 75.424 63.2203 75.424Z" fill="#C6C6C8"/>
<path d="M68.1407 66.176C68.1407 65.28 68.3114 64.656 68.6527 64.304C69.0047 63.952 69.5381 63.776 70.2527 63.776C70.4661 63.776 70.7968 63.808 71.2448 63.872V65.136C70.9248 65.104 70.7007 65.088 70.5727 65.088C70.2421 65.088 70.0181 65.1573 69.9007 65.296C69.7834 65.4347 69.7247 65.7173 69.7247 66.144V67.168H71.2448V68.464H69.7247V75.328H68.1407V68.464H67.0208V67.168H68.1407V66.176Z" fill="#C6C6C8"/>
<path d="M73.1646 75.328H71.5966V67.168H73.1646V68.72H73.1966C73.6873 67.5573 74.418 66.976 75.3886 66.976C75.6553 66.976 75.906 66.992 76.1406 67.024V68.528C75.9486 68.496 75.7726 68.48 75.6126 68.48C74.898 68.48 74.3113 68.7253 73.8526 69.216C73.394 69.7067 73.1646 70.336 73.1646 71.104V75.328Z" fill="#C6C6C8"/>
<path d="M79.8234 75.568C78.9914 75.568 78.266 75.3867 77.6474 75.024C77.0287 74.6613 76.554 74.1547 76.2234 73.504C75.9034 72.8533 75.7434 72.1013 75.7434 71.248C75.7434 70.3947 75.9087 69.6427 76.2394 68.992C76.57 68.3413 77.0394 67.8347 77.6474 67.472C78.266 67.0987 78.9967 66.912 79.8394 66.912C80.6714 66.912 81.3914 67.0933 81.9994 67.456C82.618 67.8187 83.0874 68.3307 83.4074 68.992C83.738 69.6427 83.9034 70.3893 83.9034 71.232C83.9034 72.0853 83.738 72.8427 83.4074 73.504C83.0767 74.1547 82.602 74.6613 81.9834 75.024C81.3754 75.3867 80.6554 75.568 79.8234 75.568ZM77.3754 71.248C77.3754 72.144 77.5834 72.8747 77.9994 73.44C78.4154 73.9947 79.0287 74.272 79.8394 74.272C80.6394 74.272 81.242 73.9947 81.6474 73.44C82.0634 72.8747 82.2714 72.144 82.2714 71.248C82.2714 70.352 82.0634 69.6267 81.6474 69.072C81.242 68.5067 80.6394 68.224 79.8394 68.224C79.0287 68.224 78.4154 68.5013 77.9994 69.056C77.5834 69.6107 77.3754 70.3413 77.3754 71.248Z" fill="#C6C6C8"/>
<path d="M89.4939 70.096C89.4939 69.488 89.3925 69.0347 89.1899 68.736C88.9979 68.4267 88.6245 68.272 88.0699 68.272C87.4939 68.272 87.0299 68.4587 86.6779 68.832C86.3365 69.2053 86.1659 69.7013 86.1659 70.32V75.328H84.5979V67.168H86.1659V68.192H86.1979C86.4539 67.8293 86.7792 67.5307 87.1739 67.296C87.5685 67.0507 88.0485 66.928 88.6139 66.928C89.7232 66.928 90.4432 67.4027 90.7739 68.352H90.8059C91.5205 67.4027 92.4112 66.928 93.4779 66.928C94.2885 66.928 94.9019 67.1627 95.3179 67.632C95.7445 68.1013 95.9579 68.7787 95.9579 69.664V75.328H94.3899V70.096C94.3899 69.488 94.2885 69.0347 94.0859 68.736C93.8939 68.4267 93.5205 68.272 92.9659 68.272C92.3899 68.272 91.9259 68.4587 91.5739 68.832C91.2325 69.2053 91.0619 69.7013 91.0619 70.32V75.328H89.4939V70.096Z" fill="#C6C6C8"/>
<path d="M100.421 78.192C100.133 78.192 99.7968 78.1547 99.4128 78.08V76.8C99.6901 76.832 99.9141 76.848 100.085 76.848C100.447 76.848 100.778 76.7253 101.077 76.48C101.386 76.2453 101.615 75.8347 101.765 75.248L98.4688 67.168H100.181L102.565 73.408H102.597L104.837 67.168H106.485L103.253 75.52C102.869 76.512 102.458 77.2053 102.021 77.6C101.594 77.9947 101.061 78.192 100.421 78.192Z" fill="#C6C6C8"/>
<path d="M110.154 75.568C109.322 75.568 108.597 75.3867 107.978 75.024C107.359 74.6613 106.885 74.1547 106.554 73.504C106.234 72.8533 106.074 72.1013 106.074 71.248C106.074 70.3947 106.239 69.6427 106.57 68.992C106.901 68.3413 107.37 67.8347 107.978 67.472C108.597 67.0987 109.327 66.912 110.17 66.912C111.002 66.912 111.722 67.0933 112.33 67.456C112.949 67.8187 113.418 68.3307 113.738 68.992C114.069 69.6427 114.234 70.3893 114.234 71.232C114.234 72.0853 114.069 72.8427 113.738 73.504C113.407 74.1547 112.933 74.6613 112.314 75.024C111.706 75.3867 110.986 75.568 110.154 75.568ZM107.706 71.248C107.706 72.144 107.914 72.8747 108.33 73.44C108.746 73.9947 109.359 74.272 110.17 74.272C110.97 74.272 111.573 73.9947 111.978 73.44C112.394 72.8747 112.602 72.144 112.602 71.248C112.602 70.352 112.394 69.6267 111.978 69.072C111.573 68.5067 110.97 68.224 110.17 68.224C109.359 68.224 108.746 68.5013 108.33 69.056C107.914 69.6107 107.706 70.3413 107.706 71.248Z" fill="#C6C6C8"/>
<path d="M117.585 75.552C116.785 75.552 116.129 75.3227 115.617 74.864C115.115 74.3947 114.865 73.712 114.865 72.816V67.168H116.433V72.384C116.433 72.96 116.566 73.4133 116.833 73.744C117.11 74.064 117.531 74.224 118.097 74.224C118.769 74.224 119.302 74.0373 119.697 73.664C120.102 73.2907 120.305 72.7947 120.305 72.176V67.168H121.873V75.328H120.305V74.304H120.273C120.027 74.6667 119.681 74.9653 119.233 75.2C118.785 75.4347 118.235 75.552 117.585 75.552Z" fill="#C6C6C8"/>
<path d="M124.56 75.328H122.992V67.168H124.56V68.72H124.592C125.082 67.5573 125.813 66.976 126.784 66.976C127.05 66.976 127.301 66.992 127.536 67.024V68.528C127.344 68.496 127.168 68.48 127.008 68.48C126.293 68.48 125.706 68.7253 125.248 69.216C124.789 69.7067 124.56 70.336 124.56 71.104V75.328Z" fill="#C6C6C8"/>
<path d="M133.507 75.552C132.813 75.552 132.189 75.3813 131.634 75.04C131.08 74.688 130.642 74.1867 130.322 73.536C130.002 72.8853 129.842 72.1227 129.842 71.248C129.842 70.3733 130.002 69.6107 130.322 68.96C130.642 68.3093 131.08 67.808 131.634 67.456C132.189 67.104 132.813 66.928 133.507 66.928C134.104 66.928 134.605 67.0453 135.01 67.28C135.426 67.504 135.762 67.7973 136.018 68.16H136.05V63.888H137.618V75.328H136.05V74.368H136.018C135.752 74.7093 135.41 74.992 134.994 75.216C134.589 75.44 134.093 75.552 133.507 75.552ZM131.475 71.248C131.475 72.1013 131.672 72.816 132.066 73.392C132.461 73.968 133.026 74.256 133.762 74.256C134.466 74.256 135.021 73.9893 135.426 73.456C135.832 72.912 136.035 72.176 136.035 71.248C136.035 70.32 135.832 69.5893 135.426 69.056C135.021 68.512 134.466 68.24 133.762 68.24C133.026 68.24 132.461 68.528 132.066 69.104C131.672 69.68 131.475 70.3947 131.475 71.248Z" fill="#C6C6C8"/>
<path d="M142.391 75.568C141.559 75.568 140.834 75.3867 140.215 75.024C139.597 74.6613 139.122 74.1547 138.792 73.504C138.472 72.8533 138.311 72.1013 138.311 71.248C138.311 70.3947 138.477 69.6427 138.807 68.992C139.138 68.3413 139.607 67.8347 140.215 67.472C140.834 67.0987 141.565 66.912 142.408 66.912C143.24 66.912 143.96 67.0933 144.568 67.456C145.186 67.8187 145.655 68.3307 145.975 68.992C146.306 69.6427 146.471 70.3893 146.471 71.232C146.471 72.0853 146.306 72.8427 145.975 73.504C145.645 74.1547 145.17 74.6613 144.551 75.024C143.943 75.3867 143.223 75.568 142.391 75.568ZM139.943 71.248C139.943 72.144 140.152 72.8747 140.568 73.44C140.984 73.9947 141.597 74.272 142.408 74.272C143.208 74.272 143.81 73.9947 144.215 73.44C144.631 72.8747 144.839 72.144 144.839 71.248C144.839 70.352 144.631 69.6267 144.215 69.072C143.81 68.5067 143.208 68.224 142.408 68.224C141.597 68.224 140.984 68.5013 140.568 69.056C140.152 69.6107 139.943 70.3413 139.943 71.248Z" fill="#C6C6C8"/>
<path d="M150.814 75.568C149.982 75.568 149.257 75.3867 148.638 75.024C148.019 74.6613 147.545 74.1547 147.214 73.504C146.894 72.8533 146.734 72.1013 146.734 71.248C146.734 70.3947 146.899 69.6427 147.23 68.992C147.561 68.3413 148.03 67.8347 148.638 67.472C149.257 67.0987 149.987 66.912 150.83 66.912C151.662 66.912 152.382 67.0933 152.99 67.456C153.609 67.8187 154.078 68.3307 154.398 68.992C154.729 69.6427 154.894 70.3893 154.894 71.232C154.894 72.0853 154.729 72.8427 154.398 73.504C154.067 74.1547 153.593 74.6613 152.974 75.024C152.366 75.3867 151.646 75.568 150.814 75.568ZM148.366 71.248C148.366 72.144 148.574 72.8747 148.99 73.44C149.406 73.9947 150.019 74.272 150.83 74.272C151.63 74.272 152.233 73.9947 152.638 73.44C153.054 72.8747 153.262 72.144 153.262 71.248C153.262 70.352 153.054 69.6267 152.638 69.072C152.233 68.5067 151.63 68.224 150.83 68.224C150.019 68.224 149.406 68.5013 148.99 69.056C148.574 69.6107 148.366 70.3413 148.366 71.248Z" fill="#C6C6C8"/>
<path d="M157.156 75.328H155.589V67.168H157.156V68.72H157.188C157.679 67.5573 158.41 66.976 159.38 66.976C159.647 66.976 159.898 66.992 160.132 67.024V68.528C159.94 68.496 159.764 68.48 159.604 68.48C158.89 68.48 158.303 68.7253 157.844 69.216C157.386 69.7067 157.156 70.336 157.156 71.104V75.328Z" fill="#C6C6C8"/>
<path d="M165.543 75.424C164.818 75.424 164.274 75.248 163.911 74.896C163.559 74.544 163.383 73.92 163.383 73.024V68.464H162.199V67.168H163.383V64.544H164.951V67.168H166.519V68.464H164.951V73.072C164.951 73.488 165.015 73.7707 165.143 73.92C165.282 74.0587 165.522 74.128 165.863 74.128C166.066 74.128 166.29 74.1067 166.535 74.064V75.328C166.215 75.392 165.885 75.424 165.543 75.424Z" fill="#C6C6C8"/>
<path d="M170.66 75.568C169.828 75.568 169.103 75.3867 168.484 75.024C167.866 74.6613 167.391 74.1547 167.06 73.504C166.74 72.8533 166.58 72.1013 166.58 71.248C166.58 70.3947 166.746 69.6427 167.076 68.992C167.407 68.3413 167.876 67.8347 168.484 67.472C169.103 67.0987 169.834 66.912 170.676 66.912C171.508 66.912 172.228 67.0933 172.836 67.456C173.455 67.8187 173.924 68.3307 174.244 68.992C174.575 69.6427 174.74 70.3893 174.74 71.232C174.74 72.0853 174.575 72.8427 174.244 73.504C173.914 74.1547 173.439 74.6613 172.82 75.024C172.212 75.3867 171.492 75.568 170.66 75.568ZM168.212 71.248C168.212 72.144 168.42 72.8747 168.836 73.44C169.252 73.9947 169.866 74.272 170.676 74.272C171.476 74.272 172.079 73.9947 172.484 73.44C172.9 72.8747 173.108 72.144 173.108 71.248C173.108 70.352 172.9 69.6267 172.484 69.072C172.079 68.5067 171.476 68.224 170.676 68.224C169.866 68.224 169.252 68.5013 168.836 69.056C168.42 69.6107 168.212 70.3413 168.212 71.248Z" fill="#C6C6C8"/>
<path d="M178.139 67.168H179.706V75.328H178.139V67.168ZM178.042 64.016H179.818V65.712H178.042V64.016Z" fill="#C6C6C8"/>
<path d="M183.515 75.424C182.789 75.424 182.245 75.248 181.883 74.896C181.531 74.544 181.355 73.92 181.355 73.024V68.464H180.171V67.168H181.355V64.544H182.923V67.168H184.491V68.464H182.923V73.072C182.923 73.488 182.987 73.7707 183.115 73.92C183.253 74.0587 183.493 74.128 183.835 74.128C184.037 74.128 184.261 74.1067 184.507 74.064V75.328C184.187 75.392 183.856 75.424 183.515 75.424Z" fill="#C6C6C8"/>
<path d="M188.371 75.552C187.177 75.552 186.254 75.28 185.603 74.736C184.963 74.192 184.633 73.4827 184.611 72.608H186.195C186.227 73.12 186.414 73.5307 186.755 73.84C187.107 74.1387 187.641 74.288 188.355 74.288C188.985 74.288 189.433 74.176 189.699 73.952C189.966 73.7173 190.099 73.4293 190.099 73.088C190.099 72.768 190.003 72.5227 189.811 72.352C189.619 72.1813 189.411 72.0693 189.187 72.016C188.974 71.952 188.563 71.856 187.955 71.728C187.326 71.5787 186.803 71.424 186.387 71.264C185.971 71.104 185.619 70.864 185.331 70.544C185.043 70.224 184.899 69.8027 184.899 69.28C184.899 68.5653 185.171 67.9947 185.715 67.568C186.27 67.1413 187.033 66.928 188.003 66.928C189.07 66.928 189.891 67.1733 190.467 67.664C191.043 68.1547 191.363 68.7787 191.427 69.536H189.843C189.769 69.1413 189.598 68.8213 189.331 68.576C189.075 68.32 188.643 68.192 188.035 68.192C187.523 68.192 187.145 68.2827 186.899 68.464C186.654 68.6453 186.531 68.896 186.531 69.216C186.531 69.4507 186.601 69.6373 186.739 69.776C186.878 69.9147 187.054 70.0213 187.267 70.096C187.481 70.16 187.795 70.2347 188.211 70.32C188.297 70.3307 188.425 70.3573 188.595 70.4C189.246 70.5493 189.785 70.7093 190.211 70.88C190.638 71.0507 190.995 71.3067 191.283 71.648C191.582 71.9893 191.731 72.4427 191.731 73.008C191.731 73.808 191.438 74.432 190.851 74.88C190.265 75.328 189.438 75.552 188.371 75.552Z" fill="#C6C6C8"/>
<path d="M198.28 75.552C197.586 75.552 196.962 75.3813 196.408 75.04C195.853 74.688 195.416 74.1867 195.096 73.536C194.776 72.8853 194.616 72.1227 194.616 71.248C194.616 70.3733 194.776 69.6107 195.096 68.96C195.416 68.3093 195.853 67.808 196.408 67.456C196.962 67.104 197.586 66.928 198.28 66.928C198.877 66.928 199.378 67.0453 199.784 67.28C200.2 67.504 200.536 67.7973 200.792 68.16H200.824V63.888H202.392V75.328H200.824V74.368H200.792C200.525 74.7093 200.184 74.992 199.768 75.216C199.362 75.44 198.866 75.552 198.28 75.552ZM196.248 71.248C196.248 72.1013 196.445 72.816 196.84 73.392C197.234 73.968 197.8 74.256 198.536 74.256C199.24 74.256 199.794 73.9893 200.2 73.456C200.605 72.912 200.808 72.176 200.808 71.248C200.808 70.32 200.605 69.5893 200.2 69.056C199.794 68.512 199.24 68.24 198.536 68.24C197.8 68.24 197.234 68.528 196.84 69.104C196.445 69.68 196.248 70.3947 196.248 71.248Z" fill="#C6C6C8"/>
<path d="M207.133 75.568C206.29 75.568 205.565 75.3813 204.957 75.008C204.349 74.6347 203.885 74.1227 203.565 73.472C203.255 72.8213 203.101 72.0747 203.101 71.232C203.101 70.3787 203.261 69.6267 203.581 68.976C203.911 68.3253 204.381 67.8187 204.989 67.456C205.597 67.0933 206.311 66.912 207.133 66.912C208.359 66.912 209.309 67.2853 209.981 68.032C210.663 68.7787 211.005 69.792 211.005 71.072C211.005 71.3813 210.999 71.5787 210.989 71.664H204.717C204.738 72.4 204.957 73.024 205.373 73.536C205.799 74.0373 206.397 74.288 207.165 74.288C207.805 74.288 208.295 74.1333 208.637 73.824C208.989 73.5147 209.213 73.1787 209.309 72.816H210.909C210.674 73.648 210.242 74.3147 209.613 74.816C208.983 75.3173 208.157 75.568 207.133 75.568ZM209.373 70.432C209.373 69.7813 209.159 69.248 208.733 68.832C208.317 68.4053 207.767 68.192 207.085 68.192C206.423 68.192 205.874 68.4 205.437 68.816C204.999 69.2213 204.759 69.76 204.717 70.432H209.373Z" fill="#C6C6C8"/>
<path d="M214.905 75.552C213.71 75.552 212.788 75.28 212.137 74.736C211.497 74.192 211.166 73.4827 211.145 72.608H212.729C212.761 73.12 212.948 73.5307 213.289 73.84C213.641 74.1387 214.174 74.288 214.889 74.288C215.518 74.288 215.966 74.176 216.233 73.952C216.5 73.7173 216.633 73.4293 216.633 73.088C216.633 72.768 216.537 72.5227 216.345 72.352C216.153 72.1813 215.945 72.0693 215.721 72.016C215.508 71.952 215.097 71.856 214.489 71.728C213.86 71.5787 213.337 71.424 212.921 71.264C212.505 71.104 212.153 70.864 211.865 70.544C211.577 70.224 211.433 69.8027 211.433 69.28C211.433 68.5653 211.705 67.9947 212.249 67.568C212.804 67.1413 213.566 66.928 214.537 66.928C215.604 66.928 216.425 67.1733 217.001 67.664C217.577 68.1547 217.897 68.7787 217.961 69.536H216.377C216.302 69.1413 216.132 68.8213 215.865 68.576C215.609 68.32 215.177 68.192 214.569 68.192C214.057 68.192 213.678 68.2827 213.433 68.464C213.188 68.6453 213.065 68.896 213.065 69.216C213.065 69.4507 213.134 69.6373 213.273 69.776C213.412 69.9147 213.588 70.0213 213.801 70.096C214.014 70.16 214.329 70.2347 214.745 70.32C214.83 70.3307 214.958 70.3573 215.129 70.4C215.78 70.5493 216.318 70.7093 216.745 70.88C217.172 71.0507 217.529 71.3067 217.817 71.648C218.116 71.9893 218.265 72.4427 218.265 73.008C218.265 73.808 217.972 74.432 217.385 74.88C216.798 75.328 215.972 75.552 214.905 75.552Z" fill="#C6C6C8"/>
<path d="M221.456 75.424C220.731 75.424 220.187 75.248 219.824 74.896C219.472 74.544 219.296 73.92 219.296 73.024V68.464H218.112V67.168H219.296V64.544H220.864V67.168H222.432V68.464H220.864V73.072C220.864 73.488 220.928 73.7707 221.056 73.92C221.195 74.0587 221.435 74.128 221.776 74.128C221.979 74.128 222.203 74.1067 222.448 74.064V75.328C222.128 75.392 221.797 75.424 221.456 75.424Z" fill="#C6C6C8"/>
<path d="M223.097 67.168H224.665V75.328H223.097V67.168ZM223.001 64.016H224.777V65.712H223.001V64.016Z" fill="#C6C6C8"/>
<path d="M231.225 70.096C231.225 69.52 231.086 69.072 230.809 68.752C230.542 68.432 230.126 68.272 229.561 68.272C228.889 68.272 228.35 68.4587 227.945 68.832C227.55 69.2053 227.353 69.7013 227.353 70.32V75.328H225.785V67.168H227.353V68.192H227.385C227.63 67.8293 227.977 67.5307 228.425 67.296C228.873 67.0507 229.422 66.928 230.073 66.928C230.873 66.928 231.523 67.1627 232.025 67.632C232.537 68.0907 232.793 68.768 232.793 69.664V75.328H231.225V70.096Z" fill="#C6C6C8"/>
<path d="M236.104 75.552C235.293 75.552 234.643 75.3387 234.152 74.912C233.672 74.4853 233.432 73.92 233.432 73.216C233.432 72.6293 233.565 72.16 233.832 71.808C234.109 71.4453 234.488 71.168 234.968 70.976C235.459 70.7733 236.083 70.6027 236.84 70.464C237.363 70.368 237.757 70.2827 238.024 70.208C238.291 70.1227 238.504 70.0107 238.664 69.872C238.824 69.7227 238.904 69.52 238.904 69.264C238.904 68.5387 238.387 68.176 237.352 68.176C236.659 68.176 236.173 68.2933 235.896 68.528C235.619 68.7627 235.459 69.1573 235.416 69.712H233.816C233.859 68.8693 234.173 68.192 234.76 67.68C235.347 67.168 236.232 66.912 237.416 66.912C238.333 66.912 239.064 67.136 239.608 67.584C240.163 68.0213 240.44 68.736 240.44 69.728V73.472C240.44 73.7813 240.467 74.0107 240.52 74.16C240.573 74.2987 240.675 74.368 240.824 74.368L241.016 74.352V75.312C240.749 75.376 240.483 75.408 240.216 75.408C239.811 75.408 239.501 75.3173 239.288 75.136C239.085 74.944 238.963 74.624 238.92 74.176H238.888C238.621 74.6133 238.253 74.9547 237.784 75.2C237.315 75.4347 236.755 75.552 236.104 75.552ZM235.064 73.104C235.064 73.8933 235.528 74.288 236.456 74.288C237.192 74.288 237.784 74.1067 238.232 73.744C238.68 73.3707 238.904 72.8373 238.904 72.144V70.976C238.787 71.0827 238.579 71.184 238.28 71.28C237.992 71.3653 237.603 71.4613 237.112 71.568C236.376 71.7173 235.848 71.9093 235.528 72.144C235.219 72.368 235.064 72.688 235.064 73.104Z" fill="#C6C6C8"/>
<path d="M244.24 75.424C243.514 75.424 242.97 75.248 242.608 74.896C242.256 74.544 242.08 73.92 242.08 73.024V68.464H240.896V67.168H242.08V64.544H243.648V67.168H245.216V68.464H243.648V73.072C243.648 73.488 243.712 73.7707 243.84 73.92C243.978 74.0587 244.218 74.128 244.56 74.128C244.762 74.128 244.986 74.1067 245.232 74.064V75.328C244.912 75.392 244.581 75.424 244.24 75.424Z" fill="#C6C6C8"/>
<path d="M245.88 67.168H247.448V75.328H245.88V67.168ZM245.784 64.016H247.56V65.712H245.784V64.016Z" fill="#C6C6C8"/>
<path d="M252.216 75.568C251.384 75.568 250.659 75.3867 250.04 75.024C249.422 74.6613 248.947 74.1547 248.617 73.504C248.297 72.8533 248.136 72.1013 248.136 71.248C248.136 70.3947 248.302 69.6427 248.632 68.992C248.963 68.3413 249.432 67.8347 250.04 67.472C250.659 67.0987 251.39 66.912 252.232 66.912C253.064 66.912 253.785 67.0933 254.393 67.456C255.011 67.8187 255.48 68.3307 255.8 68.992C256.131 69.6427 256.297 70.3893 256.297 71.232C256.297 72.0853 256.131 72.8427 255.8 73.504C255.47 74.1547 254.995 74.6613 254.376 75.024C253.768 75.3867 253.048 75.568 252.216 75.568ZM249.768 71.248C249.768 72.144 249.977 72.8747 250.393 73.44C250.809 73.9947 251.422 74.272 252.232 74.272C253.032 74.272 253.635 73.9947 254.04 73.44C254.456 72.8747 254.664 72.144 254.664 71.248C254.664 70.352 254.456 69.6267 254.04 69.072C253.635 68.5067 253.032 68.224 252.232 68.224C251.422 68.224 250.809 68.5013 250.393 69.056C249.977 69.6107 249.768 70.3413 249.768 71.248Z" fill="#C6C6C8"/>
<path d="M262.431 70.096C262.431 69.52 262.292 69.072 262.015 68.752C261.748 68.432 261.332 68.272 260.767 68.272C260.095 68.272 259.556 68.4587 259.151 68.832C258.756 69.2053 258.559 69.7013 258.559 70.32V75.328H256.991V67.168H258.559V68.192H258.591C258.836 67.8293 259.183 67.5307 259.631 67.296C260.079 67.0507 260.628 66.928 261.279 66.928C262.079 66.928 262.73 67.1627 263.231 67.632C263.743 68.0907 263.999 68.768 263.999 69.664V75.328H262.431V70.096Z" fill="#C6C6C8"/>
<path d="M271.006 75.552C270.313 75.552 269.689 75.3813 269.134 75.04C268.579 74.688 268.142 74.1867 267.822 73.536C267.502 72.8853 267.342 72.1227 267.342 71.248C267.342 70.3733 267.502 69.6107 267.822 68.96C268.142 68.3093 268.579 67.808 269.134 67.456C269.689 67.104 270.313 66.928 271.006 66.928C271.603 66.928 272.105 67.0453 272.51 67.28C272.926 67.504 273.262 67.7973 273.518 68.16H273.55V63.888H275.118V75.328H273.55V74.368H273.518C273.251 74.7093 272.91 74.992 272.494 75.216C272.089 75.44 271.593 75.552 271.006 75.552ZM268.974 71.248C268.974 72.1013 269.171 72.816 269.566 73.392C269.961 73.968 270.526 74.256 271.262 74.256C271.966 74.256 272.521 73.9893 272.926 73.456C273.331 72.912 273.534 72.176 273.534 71.248C273.534 70.32 273.331 69.5893 272.926 69.056C272.521 68.512 271.966 68.24 271.262 68.24C270.526 68.24 269.961 68.528 269.566 69.104C269.171 69.68 268.974 70.3947 268.974 71.248Z" fill="#C6C6C8"/>
<path d="M279.891 75.568C279.059 75.568 278.334 75.3867 277.715 75.024C277.096 74.6613 276.622 74.1547 276.291 73.504C275.971 72.8533 275.811 72.1013 275.811 71.248C275.811 70.3947 275.976 69.6427 276.307 68.992C276.638 68.3413 277.107 67.8347 277.715 67.472C278.334 67.0987 279.064 66.912 279.907 66.912C280.739 66.912 281.459 67.0933 282.067 67.456C282.686 67.8187 283.155 68.3307 283.475 68.992C283.806 69.6427 283.971 70.3893 283.971 71.232C283.971 72.0853 283.806 72.8427 283.475 73.504C283.144 74.1547 282.67 74.6613 282.051 75.024C281.443 75.3867 280.723 75.568 279.891 75.568ZM277.443 71.248C277.443 72.144 277.651 72.8747 278.067 73.44C278.483 73.9947 279.096 74.272 279.907 74.272C280.707 74.272 281.31 73.9947 281.715 73.44C282.131 72.8747 282.339 72.144 282.339 71.248C282.339 70.352 282.131 69.6267 281.715 69.072C281.31 68.5067 280.707 68.224 279.907 68.224C279.096 68.224 278.483 68.5013 278.067 69.056C277.651 69.6107 277.443 70.3413 277.443 71.248Z" fill="#C6C6C8"/>
<path d="M288.313 75.568C287.481 75.568 286.756 75.3867 286.137 75.024C285.519 74.6613 285.044 74.1547 284.713 73.504C284.393 72.8533 284.233 72.1013 284.233 71.248C284.233 70.3947 284.399 69.6427 284.729 68.992C285.06 68.3413 285.529 67.8347 286.137 67.472C286.756 67.0987 287.487 66.912 288.329 66.912C289.161 66.912 289.881 67.0933 290.489 67.456C291.108 67.8187 291.577 68.3307 291.897 68.992C292.228 69.6427 292.393 70.3893 292.393 71.232C292.393 72.0853 292.228 72.8427 291.897 73.504C291.567 74.1547 291.092 74.6613 290.473 75.024C289.865 75.3867 289.145 75.568 288.313 75.568ZM285.865 71.248C285.865 72.144 286.073 72.8747 286.489 73.44C286.905 73.9947 287.519 74.272 288.329 74.272C289.129 74.272 289.732 73.9947 290.137 73.44C290.553 72.8747 290.761 72.144 290.761 71.248C290.761 70.352 290.553 69.6267 290.137 69.072C289.732 68.5067 289.129 68.224 288.329 68.224C287.519 68.224 286.905 68.5013 286.489 69.056C286.073 69.6107 285.865 70.3413 285.865 71.248Z" fill="#C6C6C8"/>
<path d="M294.656 75.328H293.088V67.168H294.656V68.72H294.688C295.179 67.5573 295.909 66.976 296.88 66.976C297.147 66.976 297.397 66.992 297.632 67.024V68.528C297.44 68.496 297.264 68.48 297.104 68.48C296.389 68.48 295.803 68.7253 295.344 69.216C294.885 69.7067 294.656 70.336 294.656 71.104V75.328Z" fill="#C6C6C8"/>
<path d="M299.322 67.168H301.018L302.746 73.488H302.778L304.474 67.168H306.058L307.754 73.488H307.786L309.53 67.168H311.162L308.634 75.328H307.018L305.258 69.04H305.226L303.466 75.328H301.85L299.322 67.168Z" fill="#C6C6C8"/>
<path d="M311.543 67.168H313.111V75.328H311.543V67.168ZM311.447 64.016H313.223V65.712H311.447V64.016Z" fill="#C6C6C8"/>
<path d="M316.919 75.424C316.194 75.424 315.65 75.248 315.287 74.896C314.935 74.544 314.759 73.92 314.759 73.024V68.464H313.575V67.168H314.759V64.544H316.327V67.168H317.895V68.464H316.327V73.072C316.327 73.488 316.391 73.7707 316.519 73.92C316.658 74.0587 316.898 74.128 317.239 74.128C317.442 74.128 317.666 74.1067 317.911 74.064V75.328C317.591 75.392 317.26 75.424 316.919 75.424Z" fill="#C6C6C8"/>
<path d="M324 70.096C324 69.52 323.861 69.072 323.584 68.752C323.317 68.432 322.901 68.272 322.336 68.272C321.664 68.272 321.125 68.4587 320.72 68.832C320.325 69.2053 320.128 69.7013 320.128 70.32V75.328H318.56V63.888H320.128V68.192H320.16C320.405 67.8293 320.752 67.5307 321.2 67.296C321.648 67.0507 322.197 66.928 322.848 66.928C323.648 66.928 324.298 67.1627 324.8 67.632C325.312 68.0907 325.568 68.768 325.568 69.664V75.328H324V70.096Z" fill="#C6C6C8"/>
<path d="M326.623 67.168H328.191V75.328H326.623V67.168ZM326.527 64.016H328.303V65.712H326.527V64.016Z" fill="#C6C6C8"/>
<path d="M334.751 70.096C334.751 69.52 334.612 69.072 334.335 68.752C334.068 68.432 333.652 68.272 333.087 68.272C332.415 68.272 331.876 68.4587 331.471 68.832C331.076 69.2053 330.879 69.7013 330.879 70.32V75.328H329.311V67.168H330.879V68.192H330.911C331.156 67.8293 331.503 67.5307 331.951 67.296C332.399 67.0507 332.948 66.928 333.599 66.928C334.399 66.928 335.05 67.1627 335.551 67.632C336.063 68.0907 336.319 68.768 336.319 69.664V75.328H334.751V70.096Z" fill="#C6C6C8"/>
<path d="M339.646 75.328C339.646 74.336 339.929 73.456 340.494 72.688C341.059 71.92 341.902 71.1893 343.022 70.496L343.39 70.272C344.051 69.8773 344.537 69.5627 344.846 69.328C345.166 69.0933 345.411 68.8267 345.582 68.528C345.753 68.2293 345.838 67.8613 345.838 67.424C345.838 66.88 345.694 66.432 345.406 66.08C345.129 65.7173 344.649 65.536 343.966 65.536C342.451 65.536 341.694 66.416 341.694 68.176H339.934C339.934 66.9387 340.275 65.9413 340.958 65.184C341.651 64.4267 342.67 64.048 344.014 64.048C344.686 64.048 345.294 64.1813 345.838 64.448C346.393 64.704 346.83 65.0827 347.15 65.584C347.47 66.0853 347.63 66.6773 347.63 67.36C347.63 68.0213 347.475 68.608 347.166 69.12C346.857 69.632 346.478 70.064 346.03 70.416C345.582 70.7573 345.006 71.1467 344.302 71.584C343.587 72 343.038 72.368 342.654 72.688C342.27 72.9973 342.009 73.3707 341.87 73.808V73.84H347.502V75.328H339.646Z" fill="#C6C6C8"/>
<path d="M352.355 75.552C351.502 75.552 350.766 75.3973 350.147 75.088C349.539 74.7787 349.07 74.3627 348.739 73.84C348.409 73.3067 348.233 72.7253 348.211 72.096H349.971C350.035 72.672 350.249 73.1467 350.611 73.52C350.974 73.8827 351.523 74.064 352.259 74.064C352.974 74.064 353.539 73.8507 353.955 73.424C354.382 72.9867 354.595 72.3627 354.595 71.552C354.595 70.7947 354.398 70.2293 354.003 69.856C353.619 69.4827 353.075 69.296 352.371 69.296C351.902 69.296 351.475 69.3813 351.091 69.552C350.707 69.712 350.387 69.9573 350.131 70.288H348.355L349.539 64.272H355.827V65.76H350.867L350.259 68.816V68.848C350.878 68.208 351.737 67.888 352.835 67.888C353.518 67.888 354.131 68.048 354.675 68.368C355.219 68.6773 355.641 69.1147 355.939 69.68C356.238 70.2347 356.387 70.8587 356.387 71.552C356.387 72.352 356.211 73.056 355.859 73.664C355.507 74.2613 355.022 74.7253 354.403 75.056C353.795 75.3867 353.113 75.552 352.355 75.552Z" fill="#C6C6C8"/>
<path d="M365.348 70.096C365.348 69.52 365.209 69.072 364.932 68.752C364.665 68.432 364.249 68.272 363.684 68.272C363.012 68.272 362.473 68.4587 362.068 68.832C361.673 69.2053 361.476 69.7013 361.476 70.32V75.328H359.908V63.888H361.476V68.192H361.508C361.753 67.8293 362.1 67.5307 362.548 67.296C362.996 67.0507 363.545 66.928 364.196 66.928C364.996 66.928 365.647 67.1627 366.148 67.632C366.66 68.0907 366.916 68.768 366.916 69.664V75.328H365.348V70.096Z" fill="#C6C6C8"/>
<path d="M371.619 75.568C370.787 75.568 370.062 75.3867 369.443 75.024C368.824 74.6613 368.35 74.1547 368.019 73.504C367.699 72.8533 367.539 72.1013 367.539 71.248C367.539 70.3947 367.704 69.6427 368.035 68.992C368.366 68.3413 368.835 67.8347 369.443 67.472C370.062 67.0987 370.792 66.912 371.635 66.912C372.467 66.912 373.187 67.0933 373.795 67.456C374.414 67.8187 374.883 68.3307 375.203 68.992C375.534 69.6427 375.699 70.3893 375.699 71.232C375.699 72.0853 375.534 72.8427 375.203 73.504C374.872 74.1547 374.398 74.6613 373.779 75.024C373.171 75.3867 372.451 75.568 371.619 75.568ZM369.171 71.248C369.171 72.144 369.379 72.8747 369.795 73.44C370.211 73.9947 370.824 74.272 371.635 74.272C372.435 74.272 373.038 73.9947 373.443 73.44C373.859 72.8747 374.067 72.144 374.067 71.248C374.067 70.352 373.859 69.6267 373.443 69.072C373.038 68.5067 372.435 68.224 371.635 68.224C370.824 68.224 370.211 68.5013 369.795 69.056C369.379 69.6107 369.171 70.3413 369.171 71.248Z" fill="#C6C6C8"/>
<path d="M379.049 75.552C378.249 75.552 377.593 75.3227 377.081 74.864C376.58 74.3947 376.329 73.712 376.329 72.816V67.168H377.897V72.384C377.897 72.96 378.031 73.4133 378.297 73.744C378.575 74.064 378.996 74.224 379.561 74.224C380.233 74.224 380.767 74.0373 381.161 73.664C381.567 73.2907 381.77 72.7947 381.77 72.176V67.168H383.337V75.328H381.77V74.304H381.737C381.492 74.6667 381.145 74.9653 380.697 75.2C380.249 75.4347 379.7 75.552 379.049 75.552Z" fill="#C6C6C8"/>
<path d="M386.025 75.328H384.457V67.168H386.025V68.72H386.057C386.547 67.5573 387.278 66.976 388.249 66.976C388.515 66.976 388.766 66.992 389.001 67.024V68.528C388.809 68.496 388.633 68.48 388.473 68.48C387.758 68.48 387.171 68.7253 386.713 69.216C386.254 69.7067 386.025 70.336 386.025 71.104V75.328Z" fill="#C6C6C8"/>
<path d="M392.423 75.552C391.229 75.552 390.306 75.28 389.655 74.736C389.015 74.192 388.685 73.4827 388.663 72.608H390.247C390.279 73.12 390.466 73.5307 390.807 73.84C391.159 74.1387 391.693 74.288 392.407 74.288C393.037 74.288 393.485 74.176 393.751 73.952C394.018 73.7173 394.151 73.4293 394.151 73.088C394.151 72.768 394.055 72.5227 393.863 72.352C393.671 72.1813 393.463 72.0693 393.239 72.016C393.026 71.952 392.615 71.856 392.007 71.728C391.378 71.5787 390.855 71.424 390.439 71.264C390.023 71.104 389.671 70.864 389.383 70.544C389.095 70.224 388.951 69.8027 388.951 69.28C388.951 68.5653 389.223 67.9947 389.767 67.568C390.322 67.1413 391.085 66.928 392.055 66.928C393.122 66.928 393.943 67.1733 394.519 67.664C395.095 68.1547 395.415 68.7787 395.479 69.536H393.895C393.821 69.1413 393.65 68.8213 393.383 68.576C393.127 68.32 392.695 68.192 392.087 68.192C391.575 68.192 391.197 68.2827 390.951 68.464C390.706 68.6453 390.583 68.896 390.583 69.216C390.583 69.4507 390.653 69.6373 390.791 69.776C390.93 69.9147 391.106 70.0213 391.319 70.096C391.533 70.16 391.847 70.2347 392.263 70.32C392.349 70.3307 392.477 70.3573 392.647 70.4C393.298 70.5493 393.837 70.7093 394.263 70.88C394.69 71.0507 395.047 71.3067 395.335 71.648C395.634 71.9893 395.783 72.4427 395.783 73.008C395.783 73.808 395.49 74.432 394.903 74.88C394.317 75.328 393.49 75.552 392.423 75.552Z" fill="#C6C6C8"/>
<path d="M396.22 73.584H397.964V75.328H396.22V73.584Z" fill="#C6C6C8"/>
</svg>
