<svg width="1198" height="217" viewBox="0 0 1198 217" fill="none" xmlns="http://www.w3.org/2000/svg">
<path d="M35.84 60.06L0 0H16.66L43.54 47.88H43.82L70.7 0H87.22L51.38 60.06V100.1H35.84V60.06Z" fill="#C6C6C8"/>
<path d="M107.278 102.2C99.9983 102.2 93.6516 100.613 88.2383 97.44C82.8249 94.2667 78.6716 89.8333 75.7783 84.14C72.9783 78.4467 71.5783 71.8667 71.5783 64.4C71.5783 56.9333 73.0249 50.3533 75.9183 44.66C78.8116 38.9667 82.9183 34.5333 88.2383 31.36C93.6516 28.0933 100.045 26.46 107.418 26.46C114.698 26.46 120.998 28.0467 126.318 31.22C131.732 34.3933 135.838 38.8733 138.638 44.66C141.532 50.3533 142.978 56.8867 142.978 64.26C142.978 71.7267 141.532 78.3533 138.638 84.14C135.745 89.8333 131.592 94.2667 126.178 97.44C120.858 100.613 114.558 102.2 107.278 102.2ZM85.8583 64.4C85.8583 72.24 87.6783 78.6333 91.3183 83.58C94.9583 88.4333 100.325 90.86 107.418 90.86C114.418 90.86 119.692 88.4333 123.238 83.58C126.878 78.6333 128.698 72.24 128.698 64.4C128.698 56.56 126.878 50.2133 123.238 45.36C119.692 40.4133 114.418 37.94 107.418 37.94C100.325 37.94 94.9583 40.3667 91.3183 45.22C87.6783 50.0733 85.8583 56.4667 85.8583 64.4Z" fill="#C6C6C8"/>
<path d="M172.295 102.06C165.295 102.06 159.555 100.053 155.075 96.04C150.688 91.9333 148.495 85.96 148.495 78.12V28.7H162.215V74.34C162.215 79.38 163.382 83.3467 165.715 86.24C168.142 89.04 171.828 90.44 176.775 90.44C182.655 90.44 187.322 88.8067 190.775 85.54C194.322 82.2733 196.095 77.9333 196.095 72.52V28.7H209.815V100.1H196.095V91.14H195.815C193.669 94.3133 190.635 96.9267 186.715 98.98C182.795 101.033 177.988 102.06 172.295 102.06Z" fill="#C6C6C8"/>
<path d="M290.865 54.32C290.865 49.28 289.652 45.36 287.225 42.56C284.892 39.76 281.252 38.36 276.305 38.36C270.425 38.36 265.712 39.9933 262.165 43.26C258.712 46.5267 256.985 50.8667 256.985 56.28V100.1H243.265V0H256.985V37.66H257.265C259.412 34.4867 262.445 31.8733 266.365 29.82C270.285 27.6733 275.092 26.6 280.785 26.6C287.785 26.6 293.479 28.6533 297.865 32.76C302.345 36.7733 304.585 42.7 304.585 50.54V100.1H290.865V54.32Z" fill="#C6C6C8"/>
<path d="M333.558 102.06C326.464 102.06 320.771 100.193 316.478 96.46C312.278 92.7267 310.178 87.78 310.178 81.62C310.178 76.4867 311.344 72.38 313.678 69.3C316.104 66.1267 319.418 63.7 323.618 62.02C327.911 60.2467 333.371 58.7533 339.998 57.54C344.571 56.7 348.024 55.9533 350.358 55.3C352.691 54.5533 354.558 53.5733 355.958 52.36C357.358 51.0533 358.058 49.28 358.058 47.04C358.058 40.6933 353.531 37.52 344.478 37.52C338.411 37.52 334.164 38.5467 331.738 40.6C329.311 42.6533 327.911 46.1067 327.538 50.96H313.538C313.911 43.5867 316.664 37.66 321.798 33.18C326.931 28.7 334.678 26.46 345.038 26.46C353.064 26.46 359.458 28.42 364.218 32.34C369.071 36.1667 371.498 42.42 371.498 51.1V83.86C371.498 86.5667 371.731 88.5733 372.198 89.88C372.664 91.0933 373.551 91.7 374.858 91.7L376.538 91.56V99.96C374.204 100.52 371.871 100.8 369.538 100.8C365.991 100.8 363.284 100.007 361.418 98.42C359.644 96.74 358.571 93.94 358.198 90.02H357.918C355.584 93.8467 352.364 96.8333 348.258 98.98C344.151 101.033 339.251 102.06 333.558 102.06ZM324.458 80.64C324.458 87.5467 328.518 91 336.638 91C343.078 91 348.258 89.4133 352.178 86.24C356.098 82.9733 358.058 78.3067 358.058 72.24V62.02C357.031 62.9533 355.211 63.84 352.598 64.68C350.078 65.4267 346.671 66.2667 342.378 67.2C335.938 68.5067 331.318 70.1867 328.518 72.24C325.811 74.2 324.458 77 324.458 80.64Z" fill="#C6C6C8"/>
<path d="M373.275 28.7H387.975L406.735 85.96H406.875L425.355 28.7H439.635L414.155 100.1H398.755L373.275 28.7Z" fill="#C6C6C8"/>
<path d="M472.07 102.2C464.697 102.2 458.35 100.567 453.03 97.3C447.71 94.0333 443.65 89.5533 440.85 83.86C438.143 78.1667 436.79 71.6333 436.79 64.26C436.79 56.7933 438.19 50.2133 440.99 44.52C443.883 38.8267 447.99 34.3933 453.31 31.22C458.63 28.0467 464.883 26.46 472.07 26.46C482.803 26.46 491.11 29.7267 496.99 36.26C502.963 42.7933 505.95 51.66 505.95 62.86C505.95 65.5667 505.903 67.2933 505.81 68.04H450.93C451.117 74.48 453.03 79.94 456.67 84.42C460.403 88.8067 465.63 91 472.35 91C477.95 91 482.243 89.6467 485.23 86.94C488.31 84.2333 490.27 81.2933 491.11 78.12H505.11C503.057 85.4 499.277 91.2333 493.77 95.62C488.263 100.007 481.03 102.2 472.07 102.2ZM491.67 57.26C491.67 51.5667 489.803 46.9 486.07 43.26C482.43 39.5267 477.623 37.66 471.65 37.66C465.863 37.66 461.057 39.48 457.23 43.12C453.403 46.6667 451.303 51.38 450.93 57.26H491.67Z" fill="#C6C6C8"/>
<path d="M549.317 100.1H535.597V28.7H549.317V42.28H549.597C553.891 32.1067 560.284 27.02 568.777 27.02C571.111 27.02 573.304 27.16 575.357 27.44V40.6C573.677 40.32 572.137 40.18 570.737 40.18C564.484 40.18 559.351 42.3267 555.337 46.62C551.324 50.9133 549.317 56.42 549.317 63.14V100.1Z" fill="#C6C6C8"/>
<path d="M607.301 102.2C599.928 102.2 593.581 100.567 588.261 97.3C582.941 94.0333 578.881 89.5533 576.081 83.86C573.375 78.1667 572.021 71.6333 572.021 64.26C572.021 56.7933 573.421 50.2133 576.221 44.52C579.115 38.8267 583.221 34.3933 588.541 31.22C593.861 28.0467 600.115 26.46 607.301 26.46C618.035 26.46 626.341 29.7267 632.221 36.26C638.195 42.7933 641.181 51.66 641.181 62.86C641.181 65.5667 641.135 67.2933 641.041 68.04H586.161C586.348 74.48 588.261 79.94 591.901 84.42C595.635 88.8067 600.861 91 607.581 91C613.181 91 617.475 89.6467 620.461 86.94C623.541 84.2333 625.501 81.2933 626.341 78.12H640.341C638.288 85.4 634.508 91.2333 629.001 95.62C623.495 100.007 616.261 102.2 607.301 102.2ZM626.901 57.26C626.901 51.5667 625.035 46.9 621.301 43.26C617.661 39.5267 612.855 37.66 606.881 37.66C601.095 37.66 596.288 39.48 592.461 43.12C588.635 46.6667 586.535 51.38 586.161 57.26H626.901Z" fill="#C6C6C8"/>
<path d="M666.911 102.06C659.817 102.06 654.124 100.193 649.831 96.46C645.631 92.7267 643.531 87.78 643.531 81.62C643.531 76.4867 644.697 72.38 647.031 69.3C649.457 66.1267 652.771 63.7 656.971 62.02C661.264 60.2467 666.724 58.7533 673.351 57.54C677.924 56.7 681.377 55.9533 683.711 55.3C686.044 54.5533 687.911 53.5733 689.311 52.36C690.711 51.0533 691.411 49.28 691.411 47.04C691.411 40.6933 686.884 37.52 677.831 37.52C671.764 37.52 667.517 38.5467 665.091 40.6C662.664 42.6533 661.264 46.1067 660.891 50.96H646.891C647.264 43.5867 650.017 37.66 655.151 33.18C660.284 28.7 668.031 26.46 678.391 26.46C686.417 26.46 692.811 28.42 697.571 32.34C702.424 36.1667 704.851 42.42 704.851 51.1V83.86C704.851 86.5667 705.084 88.5733 705.551 89.88C706.017 91.0933 706.904 91.7 708.211 91.7L709.891 91.56V99.96C707.557 100.52 705.224 100.8 702.891 100.8C699.344 100.8 696.637 100.007 694.771 98.42C692.997 96.74 691.924 93.94 691.551 90.02H691.271C688.937 93.8467 685.718 96.8333 681.611 98.98C677.504 101.033 672.604 102.06 666.911 102.06ZM657.811 80.64C657.811 87.5467 661.871 91 669.991 91C676.431 91 681.611 89.4133 685.531 86.24C689.451 82.9733 691.411 78.3067 691.411 72.24V62.02C690.384 62.9533 688.564 63.84 685.951 64.68C683.431 65.4267 680.024 66.2667 675.731 67.2C669.291 68.5067 664.671 70.1867 661.871 72.24C659.164 74.2 657.811 77 657.811 80.64Z" fill="#C6C6C8"/>
<path d="M746.622 102.2C739.622 102.2 733.462 100.613 728.142 97.44C722.822 94.2667 718.716 89.8333 715.822 84.14C712.929 78.3533 711.482 71.7733 711.482 64.4C711.482 57.0267 712.929 50.4933 715.822 44.8C718.716 39.0133 722.776 34.5333 728.002 31.36C733.322 28.1867 739.482 26.6 746.482 26.6C752.456 26.6 757.776 27.8133 762.442 30.24C767.109 32.5733 770.842 35.8867 773.642 40.18C776.442 44.38 778.122 49.1867 778.682 54.6H764.542C764.076 50.12 762.442 46.2467 759.642 42.98C756.842 39.62 752.502 37.94 746.622 37.94C739.529 37.94 734.256 40.5067 730.802 45.64C727.442 50.68 725.762 56.9333 725.762 64.4C725.762 71.8667 727.442 78.12 730.802 83.16C734.256 88.2 739.529 90.72 746.622 90.72C752.596 90.72 756.982 89.0867 759.782 85.82C762.582 82.5533 764.169 78.4933 764.542 73.64H778.682C778.402 79.0533 776.862 83.9533 774.062 88.34C771.262 92.6333 767.482 96.04 762.722 98.56C757.962 100.987 752.596 102.2 746.622 102.2Z" fill="#C6C6C8"/>
<path d="M831.637 54.32C831.637 49.28 830.424 45.36 827.997 42.56C825.664 39.76 822.024 38.36 817.077 38.36C811.197 38.36 806.484 39.9933 802.937 43.26C799.484 46.5267 797.757 50.8667 797.757 56.28V100.1H784.037V0H797.757V37.66H798.037C800.184 34.4867 803.217 31.8733 807.137 29.82C811.057 27.6733 815.864 26.6 821.557 26.6C828.557 26.6 834.251 28.6533 838.637 32.76C843.117 36.7733 845.357 42.7 845.357 50.54V100.1H831.637V54.32Z" fill="#C6C6C8"/>
<path d="M886.229 102.2C878.856 102.2 872.51 100.567 867.19 97.3C861.87 94.0333 857.81 89.5533 855.01 83.86C852.303 78.1667 850.95 71.6333 850.95 64.26C850.95 56.7933 852.35 50.2133 855.15 44.52C858.043 38.8267 862.149 34.3933 867.469 31.22C872.789 28.0467 879.043 26.46 886.229 26.46C896.963 26.46 905.27 29.7267 911.15 36.26C917.123 42.7933 920.109 51.66 920.109 62.86C920.109 65.5667 920.063 67.2933 919.969 68.04H865.09C865.276 74.48 867.19 79.94 870.83 84.42C874.563 88.8067 879.79 91 886.51 91C892.11 91 896.403 89.6467 899.39 86.94C902.47 84.2333 904.43 81.2933 905.27 78.12H919.27C917.216 85.4 913.436 91.2333 907.93 95.62C902.423 100.007 895.189 102.2 886.229 102.2ZM905.83 57.26C905.83 51.5667 903.963 46.9 900.229 43.26C896.589 39.5267 891.783 37.66 885.81 37.66C880.023 37.66 875.216 39.48 871.39 43.12C867.563 46.6667 865.463 51.38 865.09 57.26H905.83Z" fill="#C6C6C8"/>
<path d="M954.519 102.06C948.452 102.06 942.992 100.567 938.139 97.58C933.286 94.5 929.459 90.1133 926.659 84.42C923.859 78.7267 922.459 72.0533 922.459 64.4C922.459 56.7467 923.859 50.0733 926.659 44.38C929.459 38.6867 933.286 34.3 938.139 31.22C942.992 28.14 948.452 26.6 954.519 26.6C959.746 26.6 964.132 27.6267 967.679 29.68C971.319 31.64 974.259 34.2067 976.499 37.38H976.779V0H990.499V100.1H976.779V91.7H976.499C974.166 94.6867 971.179 97.16 967.539 99.12C963.992 101.08 959.652 102.06 954.519 102.06ZM936.739 64.4C936.739 71.8667 938.466 78.12 941.919 83.16C945.372 88.2 950.319 90.72 956.759 90.72C962.919 90.72 967.772 88.3867 971.319 83.72C974.866 78.96 976.639 72.52 976.639 64.4C976.639 56.28 974.866 49.8867 971.319 45.22C967.772 40.46 962.919 38.08 956.759 38.08C950.319 38.08 945.372 40.6 941.919 45.64C938.466 50.68 936.739 56.9333 936.739 64.4Z" fill="#C6C6C8"/>
<path d="M1047.52 100.94C1041.17 100.94 1036.41 99.4 1033.24 96.32C1030.16 93.24 1028.62 87.78 1028.62 79.94V40.04H1018.26V28.7H1028.62V5.74H1042.34V28.7H1056.06V40.04H1042.34V80.36C1042.34 84 1042.9 86.4733 1044.02 87.78C1045.23 88.9933 1047.33 89.6 1050.32 89.6C1052.09 89.6 1054.05 89.4133 1056.2 89.04V100.1C1053.4 100.66 1050.51 100.94 1047.52 100.94Z" fill="#C6C6C8"/>
<path d="M1109.48 54.32C1109.48 49.28 1108.26 45.36 1105.84 42.56C1103.5 39.76 1099.86 38.36 1094.92 38.36C1089.04 38.36 1084.32 39.9933 1080.78 43.26C1077.32 46.5267 1075.6 50.8667 1075.6 56.28V100.1H1061.88V0H1075.6V37.66H1075.88C1078.02 34.4867 1081.06 31.8733 1084.98 29.82C1088.9 27.6733 1093.7 26.6 1099.4 26.6C1106.4 26.6 1112.09 28.6533 1116.48 32.76C1120.96 36.7733 1123.2 42.7 1123.2 50.54V100.1H1109.48V54.32Z" fill="#C6C6C8"/>
<path d="M1164.07 102.2C1156.7 102.2 1150.35 100.567 1145.03 97.3C1139.71 94.0333 1135.65 89.5533 1132.85 83.86C1130.14 78.1667 1128.79 71.6333 1128.79 64.26C1128.79 56.7933 1130.19 50.2133 1132.99 44.52C1135.88 38.8267 1139.99 34.3933 1145.31 31.22C1150.63 28.0467 1156.88 26.46 1164.07 26.46C1174.8 26.46 1183.11 29.7267 1188.99 36.26C1194.96 42.7933 1197.95 51.66 1197.95 62.86C1197.95 65.5667 1197.9 67.2933 1197.81 68.04H1142.93C1143.12 74.48 1145.03 79.94 1148.67 84.42C1152.4 88.8067 1157.63 91 1164.35 91C1169.95 91 1174.24 89.6467 1177.23 86.94C1180.31 84.2333 1182.27 81.2933 1183.11 78.12H1197.11C1195.06 85.4 1191.28 91.2333 1185.77 95.62C1180.26 100.007 1173.03 102.2 1164.07 102.2ZM1183.67 57.26C1183.67 51.5667 1181.8 46.9 1178.07 43.26C1174.43 39.5267 1169.62 37.66 1163.65 37.66C1157.86 37.66 1153.06 39.48 1149.23 43.12C1145.4 46.6667 1143.3 51.38 1142.93 57.26H1183.67Z" fill="#C6C6C8"/>
<path d="M8.96 114H78.4V127.3H24.36V157.4H68.04V170.7H24.36V214.1H8.96V114Z" fill="#C6C6C8"/>
<path d="M107.962 216.2C100.682 216.2 94.3352 214.613 88.9219 211.44C83.5085 208.267 79.3552 203.833 76.4619 198.14C73.6619 192.447 72.2619 185.867 72.2619 178.4C72.2619 170.933 73.7085 164.353 76.6019 158.66C79.4952 152.967 83.6019 148.533 88.9219 145.36C94.3352 142.093 100.729 140.46 108.102 140.46C115.382 140.46 121.682 142.047 127.002 145.22C132.415 148.393 136.522 152.873 139.322 158.66C142.215 164.353 143.662 170.887 143.662 178.26C143.662 185.727 142.215 192.353 139.322 198.14C136.429 203.833 132.275 208.267 126.862 211.44C121.542 214.613 115.242 216.2 107.962 216.2ZM86.5419 178.4C86.5419 186.24 88.3619 192.633 92.0019 197.58C95.6419 202.433 101.009 204.86 108.102 204.86C115.102 204.86 120.375 202.433 123.922 197.58C127.562 192.633 129.382 186.24 129.382 178.4C129.382 170.56 127.562 164.213 123.922 159.36C120.375 154.413 115.102 151.94 108.102 151.94C101.009 151.94 95.6419 154.367 92.0019 159.22C88.3619 164.073 86.5419 170.467 86.5419 178.4Z" fill="#C6C6C8"/>
<path d="M181.659 216.2C174.379 216.2 168.032 214.613 162.619 211.44C157.205 208.267 153.052 203.833 150.159 198.14C147.359 192.447 145.959 185.867 145.959 178.4C145.959 170.933 147.405 164.353 150.299 158.66C153.192 152.967 157.299 148.533 162.619 145.36C168.032 142.093 174.425 140.46 181.799 140.46C189.079 140.46 195.379 142.047 200.699 145.22C206.112 148.393 210.219 152.873 213.019 158.66C215.912 164.353 217.359 170.887 217.359 178.26C217.359 185.727 215.912 192.353 213.019 198.14C210.125 203.833 205.972 208.267 200.559 211.44C195.239 214.613 188.939 216.2 181.659 216.2ZM160.239 178.4C160.239 186.24 162.059 192.633 165.699 197.58C169.339 202.433 174.705 204.86 181.799 204.86C188.799 204.86 194.072 202.433 197.619 197.58C201.259 192.633 203.079 186.24 203.079 178.4C203.079 170.56 201.259 164.213 197.619 159.36C194.072 154.413 188.799 151.94 181.799 151.94C174.705 151.94 169.339 154.367 165.699 159.22C162.059 164.073 160.239 170.467 160.239 178.4Z" fill="#C6C6C8"/>
<path d="M245.588 214.94C239.242 214.94 234.482 213.4 231.308 210.32C228.228 207.24 226.688 201.78 226.688 193.94V154.04H216.328V142.7H226.688V119.74H240.408V142.7H254.128V154.04H240.408V194.36C240.408 198 240.968 200.473 242.088 201.78C243.302 202.993 245.402 203.6 248.388 203.6C250.162 203.6 252.122 203.413 254.268 203.04V214.1C251.468 214.66 248.575 214.94 245.588 214.94Z" fill="#C6C6C8"/>
<path d="M290.081 216.2C282.708 216.2 276.361 214.567 271.041 211.3C265.721 208.033 261.661 203.553 258.861 197.86C256.154 192.167 254.801 185.633 254.801 178.26C254.801 170.793 256.201 164.213 259.001 158.52C261.894 152.827 266.001 148.393 271.321 145.22C276.641 142.047 282.894 140.46 290.081 140.46C300.814 140.46 309.121 143.727 315.001 150.26C320.974 156.793 323.961 165.66 323.961 176.86C323.961 179.567 323.914 181.293 323.821 182.04H268.941C269.128 188.48 271.041 193.94 274.681 198.42C278.414 202.807 283.641 205 290.361 205C295.961 205 300.254 203.647 303.241 200.94C306.321 198.233 308.281 195.293 309.121 192.12H323.121C321.068 199.4 317.288 205.233 311.781 209.62C306.274 214.007 299.041 216.2 290.081 216.2ZM309.681 171.26C309.681 165.567 307.814 160.9 304.081 157.26C300.441 153.527 295.634 151.66 289.661 151.66C283.874 151.66 279.068 153.48 275.241 157.12C271.414 160.667 269.314 165.38 268.941 171.26H309.681Z" fill="#C6C6C8"/>
<path d="M343.67 214.1H329.95V142.7H343.67V156.28H343.95C348.244 146.107 354.637 141.02 363.13 141.02C365.464 141.02 367.657 141.16 369.71 141.44V154.6C368.03 154.32 366.49 154.18 365.09 154.18C358.837 154.18 353.704 156.327 349.69 160.62C345.677 164.913 343.67 170.42 343.67 177.14V214.1Z" fill="#C6C6C8"/>
<path d="M373.442 198.84H388.702V214.1H373.442V198.84ZM373.442 114H388.562V141.16L385.062 186.8H377.082L373.442 141.16V114Z" fill="#C6C6C8"/>
</svg>
