<svg width="380" height="187" viewBox="0 0 380 187" fill="none" xmlns="http://www.w3.org/2000/svg">
<path d="M20.3554 34.065L0 0H9.46206L24.7286 27.1567H24.8876L40.1541 0H49.5367L29.1813 34.065V56.7749H20.3554V34.065Z" fill="#C6C6C8"/>
<path d="M60.9288 57.966C56.7941 57.966 53.1895 57.0661 50.115 55.2662C47.0405 53.4664 44.6816 50.9519 43.0383 47.7227C41.4481 44.4936 40.6529 40.7615 40.6529 36.5265C40.6529 32.2916 41.4746 28.5595 43.1179 25.3304C44.7611 22.1012 47.0935 19.5867 50.115 17.7868C53.1895 15.934 56.8206 15.0076 61.0083 15.0076C65.143 15.0076 68.7211 15.9076 71.7426 17.7074C74.8171 19.5073 77.1495 22.0483 78.7397 25.3304C80.383 28.5595 81.2046 32.2651 81.2046 36.4471C81.2046 40.6821 80.383 44.4406 78.7397 47.7227C77.0965 50.9519 74.7376 53.4664 71.6631 55.2662C68.6416 57.0661 65.0635 57.966 60.9288 57.966ZM48.7633 36.5265C48.7633 40.9732 49.797 44.5994 51.8643 47.4051C53.9316 50.1578 56.9796 51.5342 61.0083 51.5342C64.984 51.5342 67.979 50.1578 69.9933 47.4051C72.0606 44.5994 73.0943 40.9732 73.0943 36.5265C73.0943 32.0798 72.0606 28.4801 69.9933 25.7274C67.979 22.9217 64.984 21.5189 61.0083 21.5189C56.9796 21.5189 53.9316 22.8953 51.8643 25.648C49.797 28.4007 48.7633 32.0269 48.7633 36.5265Z" fill="#C6C6C8"/>
<path d="M97.8552 57.8866C93.8795 57.8866 90.6195 56.7485 88.0751 54.4722C85.5836 52.143 84.3379 48.755 84.3379 44.3083V16.2781H92.1302V42.1643C92.1302 45.0229 92.7928 47.2728 94.1181 48.9138C95.4963 50.5019 97.5901 51.296 100.4 51.296C103.739 51.296 106.39 50.3696 108.351 48.5168C110.365 46.664 111.372 44.2024 111.372 41.1321V16.2781H119.165V56.7749H111.372V51.693H111.213C109.994 53.4929 108.271 54.9751 106.045 56.1397C103.819 57.3043 101.089 57.8866 97.8552 57.8866Z" fill="#C6C6C8"/>
<path d="M165.197 30.8093C165.197 27.9507 164.508 25.7274 163.13 24.1393C161.805 22.5512 159.737 21.7571 156.928 21.7571C153.588 21.7571 150.911 22.6835 148.897 24.5363C146.936 26.3891 145.955 28.8507 145.955 31.921V56.7749H138.163V0H145.955V21.3601H146.114C147.333 19.5602 149.056 18.078 151.282 16.9134C153.509 15.6958 156.239 15.087 159.472 15.087C163.448 15.087 166.681 16.2517 169.173 18.5809C171.717 20.8572 172.989 24.2187 172.989 28.6654V56.7749H165.197V30.8093Z" fill="#C6C6C8"/>
<path d="M189.444 57.8866C185.416 57.8866 182.182 56.8279 179.744 54.7104C177.358 52.5929 176.166 49.7873 176.166 46.2934C176.166 43.3819 176.828 41.0527 178.153 39.3057C179.532 37.5059 181.414 36.1295 183.799 35.1766C186.237 34.1708 189.338 33.3239 193.102 32.6357C195.699 32.1592 197.661 31.7357 198.986 31.3652C200.311 30.9417 201.371 30.3858 202.166 29.6977C202.962 28.9565 203.359 27.9507 203.359 26.6803C203.359 23.0805 200.788 21.2807 195.646 21.2807C192.201 21.2807 189.789 21.863 188.411 23.0276C187.032 24.1922 186.237 26.1509 186.025 28.9036H178.074C178.286 24.7216 179.85 21.3601 182.765 18.8191C185.681 16.2781 190.08 15.0076 195.964 15.0076C200.523 15.0076 204.154 16.1193 206.858 18.3427C209.614 20.5131 210.992 24.0599 210.992 28.983V47.5639C210.992 49.0991 211.125 50.2372 211.39 50.9783C211.655 51.6665 212.159 52.0106 212.901 52.0106L213.855 51.9312V56.6955C212.53 57.0132 211.204 57.172 209.879 57.172C207.865 57.172 206.328 56.722 205.267 55.8221C204.26 54.8692 203.651 53.2811 203.439 51.0577H203.28C201.954 53.2282 200.126 54.9222 197.793 56.1397C195.461 57.3043 192.678 57.8866 189.444 57.8866ZM184.276 45.7376C184.276 49.6549 186.582 51.6136 191.194 51.6136C194.851 51.6136 197.793 50.7137 200.02 48.9138C202.246 47.061 203.359 44.4142 203.359 40.9732V35.1766C202.776 35.706 201.742 36.2089 200.258 36.6854C198.827 37.1088 196.892 37.5853 194.454 38.1146C190.796 38.8558 188.172 39.8086 186.582 40.9732C185.045 42.0849 184.276 43.673 184.276 45.7376Z" fill="#C6C6C8"/>
<path d="M212.002 16.2781H220.351L231.005 48.755H231.085L241.581 16.2781H249.691L235.22 56.7749H226.473L212.002 16.2781Z" fill="#C6C6C8"/>
<path d="M268.113 57.966C263.925 57.966 260.32 57.0396 257.299 55.1868C254.277 53.334 251.971 50.7931 250.381 47.5639C248.844 44.3348 248.075 40.6292 248.075 36.4471C248.075 32.2122 248.87 28.4801 250.461 25.251C252.104 22.0218 254.436 19.5073 257.458 17.7074C260.479 15.9076 264.031 15.0076 268.113 15.0076C274.209 15.0076 278.926 16.8604 282.266 20.566C285.659 24.2716 287.355 29.3006 287.355 35.6531C287.355 37.1883 287.328 38.1676 287.275 38.5911H256.106C256.212 42.2437 257.299 45.3406 259.366 47.8815C261.487 50.3696 264.455 51.6136 268.272 51.6136C271.452 51.6136 273.891 50.846 275.587 49.3108C277.336 47.7757 278.449 46.1081 278.926 44.3083H286.878C285.712 48.4374 283.565 51.7459 280.437 54.234C277.31 56.722 273.201 57.966 268.113 57.966ZM279.244 32.4769C279.244 29.2477 278.184 26.6008 276.064 24.5363C273.997 22.4188 271.267 21.3601 267.874 21.3601C264.588 21.3601 261.858 22.3924 259.684 24.4569C257.511 26.4685 256.318 29.1418 256.106 32.4769H279.244Z" fill="#C6C6C8"/>
<path d="M11.6089 121.292H3.81663V80.7951H11.6089V88.4975H11.7679C14.2063 82.7273 17.8374 79.8423 22.6612 79.8423C23.9865 79.8423 25.2322 79.9217 26.3984 80.0805V87.5446C25.4442 87.3858 24.5696 87.3064 23.7744 87.3064C20.2228 87.3064 17.3074 88.5239 15.028 90.959C12.7486 93.3941 11.6089 96.5174 11.6089 100.329V121.292Z" fill="#C6C6C8"/>
<path d="M44.541 122.483C40.3533 122.483 36.7487 121.557 33.7272 119.704C30.7057 117.851 28.3998 115.31 26.8096 112.081C25.2723 108.852 24.5037 105.146 24.5037 100.964C24.5037 96.7292 25.2988 92.9971 26.8891 89.7679C28.5324 86.5388 30.8648 84.0243 33.8863 82.2244C36.9078 80.4246 40.4593 79.5246 44.541 79.5246C50.637 79.5246 55.3548 81.3774 58.6943 85.083C62.0869 88.7886 63.7832 93.8176 63.7832 100.17C63.7832 101.705 63.7567 102.685 63.7037 103.108H32.5345C32.6405 106.761 33.7272 109.858 35.7946 112.399C37.9149 114.887 40.8834 116.131 44.7 116.131C47.8806 116.131 50.319 115.363 52.0152 113.828C53.7645 112.293 54.8777 110.625 55.3548 108.825H63.3061C62.1399 112.954 59.9931 116.263 56.8655 118.751C53.738 121.239 49.6299 122.483 44.541 122.483ZM55.6728 96.9938C55.6728 93.7647 54.6127 91.1178 52.4923 89.0533C50.425 86.9358 47.695 85.8771 44.3025 85.8771C41.0159 85.8771 38.286 86.9093 36.1126 88.9739C33.9393 90.9855 32.7466 93.6588 32.5345 96.9938H55.6728Z" fill="#C6C6C8"/>
<path d="M78.3962 122.404C74.3675 122.404 71.134 121.345 68.6956 119.227C66.3102 117.11 65.1175 114.304 65.1175 110.81C65.1175 107.899 65.7801 105.57 67.1053 103.823C68.4836 102.023 70.3654 100.647 72.7508 99.6936C75.1892 98.6878 78.2902 97.8408 82.0538 97.1527C84.6512 96.6762 86.6126 96.2527 87.9378 95.8822C89.263 95.4587 90.3232 94.9028 91.1183 94.2147C91.9134 93.4735 92.311 92.4677 92.311 91.1972C92.311 87.5975 89.7401 85.7977 84.5982 85.7977C81.1527 85.7977 78.7408 86.38 77.3625 87.5446C75.9843 88.7092 75.1892 90.6679 74.9771 93.4206H67.0258C67.2379 89.2386 68.8016 85.8771 71.7171 83.3361C74.6326 80.7951 79.0323 79.5246 84.9163 79.5246C89.475 79.5246 93.1061 80.6363 95.8096 82.8597C98.566 85.0301 99.9443 88.5769 99.9443 93.5V112.081C99.9443 113.616 100.077 114.754 100.342 115.495C100.607 116.184 101.11 116.528 101.853 116.528L102.807 116.448V121.213C101.482 121.53 100.156 121.689 98.8311 121.689C96.8167 121.689 95.2795 121.239 94.2193 120.339C93.2121 119.386 92.6025 117.798 92.3905 115.575H92.2315C90.9063 117.745 89.0775 119.439 86.7451 120.657C84.4127 121.821 81.6297 122.404 78.3962 122.404ZM73.2279 110.255C73.2279 114.172 75.5337 116.131 80.1455 116.131C83.8031 116.131 86.7451 115.231 88.9714 113.431C91.1978 111.578 92.311 108.931 92.311 105.49V99.6936C91.7279 100.223 90.6942 100.726 89.21 101.202C87.7788 101.626 85.8439 102.102 83.4055 102.632C79.7479 103.373 77.124 104.326 75.5337 105.49C73.9965 106.602 73.2279 108.19 73.2279 110.255Z" fill="#C6C6C8"/>
<path d="M123.668 122.483C119.693 122.483 116.194 121.583 113.173 119.783C110.151 117.983 107.819 115.469 106.175 112.24C104.532 108.958 103.711 105.226 103.711 101.044C103.711 96.8615 104.532 93.1559 106.175 89.9268C107.819 86.6447 110.125 84.1037 113.093 82.3038C116.115 80.504 119.613 79.604 123.589 79.604C126.981 79.604 130.003 80.2922 132.653 81.6686C135.304 82.992 137.424 84.8713 139.014 87.3064C140.605 89.6885 141.559 92.4148 141.877 95.4851H133.846C133.581 92.9442 132.653 90.7473 131.063 88.8945C129.473 86.9887 127.008 86.0359 123.668 86.0359C119.64 86.0359 116.645 87.4916 114.683 90.4032C112.775 93.2618 111.821 96.8086 111.821 101.044C111.821 105.278 112.775 108.825 114.683 111.684C116.645 114.542 119.64 115.972 123.668 115.972C127.061 115.972 129.552 115.045 131.143 113.193C132.733 111.34 133.634 109.037 133.846 106.284H141.877C141.718 109.355 140.843 112.134 139.253 114.622C137.663 117.057 135.516 118.989 132.812 120.418C130.109 121.795 127.061 122.483 123.668 122.483Z" fill="#C6C6C8"/>
<path d="M171.953 95.3263C171.953 92.4677 171.264 90.2444 169.885 88.6563C168.56 87.0682 166.493 86.2741 163.683 86.2741C160.344 86.2741 157.667 87.2005 155.653 89.0533C153.691 90.9061 152.711 93.3677 152.711 96.438V121.292H144.918V64.517H152.711V85.8771H152.87C154.089 84.0772 155.812 82.595 158.038 81.4304C160.264 80.2128 162.994 79.604 166.228 79.604C170.203 79.604 173.437 80.7686 175.928 83.0979C178.473 85.3742 179.745 88.7357 179.745 93.1824V121.292H171.953V95.3263Z" fill="#C6C6C8"/>
<path d="M202.958 122.483C198.771 122.483 195.166 121.557 192.145 119.704C189.123 117.851 186.817 115.31 185.227 112.081C183.69 108.852 182.921 105.146 182.921 100.964C182.921 96.7292 183.716 92.9971 185.307 89.7679C186.95 86.5388 189.282 84.0243 192.304 82.2244C195.325 80.4246 198.877 79.5246 202.958 79.5246C209.054 79.5246 213.772 81.3774 217.112 85.083C220.504 88.7886 222.201 93.8176 222.201 100.17C222.201 101.705 222.174 102.685 222.121 103.108H190.952C191.058 106.761 192.145 109.858 194.212 112.399C196.332 114.887 199.301 116.131 203.117 116.131C206.298 116.131 208.736 115.363 210.433 113.828C212.182 112.293 213.295 110.625 213.772 108.825H221.724C220.557 112.954 218.411 116.263 215.283 118.751C212.155 121.239 208.047 122.483 202.958 122.483ZM214.09 96.9938C214.09 93.7647 213.03 91.1178 210.91 89.0533C208.842 86.9358 206.112 85.8771 202.72 85.8771C199.433 85.8771 196.703 86.9093 194.53 88.9739C192.357 90.9855 191.164 93.6588 190.952 96.9938H214.09Z" fill="#C6C6C8"/>
<path d="M241.743 122.404C238.298 122.404 235.197 121.557 232.44 119.863C229.684 118.116 227.511 115.628 225.92 112.399C224.33 109.169 223.535 105.384 223.535 101.044C223.535 96.7027 224.33 92.9177 225.92 89.6885C227.511 86.4594 229.684 83.9713 232.44 82.2244C235.197 80.4775 238.298 79.604 241.743 79.604C244.712 79.604 247.203 80.1863 249.218 81.351C251.285 82.4626 252.955 83.9184 254.227 85.7183H254.386V64.517H262.178V121.292H254.386V116.528H254.227C252.902 118.222 251.206 119.624 249.138 120.736C247.124 121.848 244.659 122.404 241.743 122.404ZM231.645 101.044C231.645 105.278 232.626 108.825 234.587 111.684C236.549 114.542 239.358 115.972 243.016 115.972C246.514 115.972 249.271 114.648 251.285 112.001C253.299 109.302 254.307 105.649 254.307 101.044C254.307 96.438 253.299 92.8118 251.285 90.165C249.271 87.4652 246.514 86.1153 243.016 86.1153C239.358 86.1153 236.549 87.5446 234.587 90.4032C232.626 93.2618 231.645 96.8086 231.645 101.044Z" fill="#C6C6C8"/>
<path d="M294.564 121.768C290.959 121.768 288.256 120.895 286.453 119.148C284.704 117.401 283.83 114.304 283.83 109.858V87.227H277.946V80.7951H283.83V67.7726H291.622V80.7951H299.414V87.227H291.622V110.096C291.622 112.16 291.94 113.563 292.576 114.304C293.265 114.992 294.458 115.337 296.154 115.337C297.161 115.337 298.274 115.231 299.494 115.019V121.292C297.903 121.61 296.26 121.768 294.564 121.768Z" fill="#C6C6C8"/>
<path d="M329.752 95.3263C329.752 92.4677 329.063 90.2444 327.685 88.6563C326.36 87.0682 324.292 86.2741 321.483 86.2741C318.143 86.2741 315.466 87.2005 313.452 89.0533C311.491 90.9061 310.51 93.3677 310.51 96.438V121.292H302.718V64.517H310.51V85.8771H310.669C311.888 84.0772 313.611 82.595 315.837 81.4304C318.064 80.2128 320.794 79.604 324.027 79.604C328.003 79.604 331.236 80.7686 333.728 83.0979C336.272 85.3742 337.544 88.7357 337.544 93.1824V121.292H329.752V95.3263Z" fill="#C6C6C8"/>
<path d="M360.758 122.483C356.57 122.483 352.966 121.557 349.944 119.704C346.923 117.851 344.617 115.31 343.026 112.081C341.489 108.852 340.721 105.146 340.721 100.964C340.721 96.7292 341.516 92.9971 343.106 89.7679C344.749 86.5388 347.082 84.0243 350.103 82.2244C353.125 80.4246 356.676 79.5246 360.758 79.5246C366.854 79.5246 371.572 81.3774 374.911 85.083C378.304 88.7886 380 93.8176 380 100.17C380 101.705 379.973 102.685 379.92 103.108H348.751C348.857 106.761 349.944 109.858 352.011 112.399C354.132 114.887 357.1 116.131 360.917 116.131C364.097 116.131 366.536 115.363 368.232 113.828C369.981 112.293 371.095 110.625 371.572 108.825H379.523C378.357 112.954 376.21 116.263 373.082 118.751C369.955 121.239 365.847 122.483 360.758 122.483ZM371.89 96.9938C371.89 93.7647 370.829 91.1178 368.709 89.0533C366.642 86.9358 363.912 85.8771 360.519 85.8771C357.233 85.8771 354.503 86.9093 352.329 88.9739C350.156 90.9855 348.963 93.6588 348.751 96.9938H371.89Z" fill="#C6C6C8"/>
<path d="M5.08884 129.034H44.5273V136.577H13.8353V153.65H38.6434V161.193H13.8353V185.809H5.08884V129.034Z" fill="#C6C6C8"/>
<path d="M61.317 187C57.1824 187 53.5778 186.1 50.5033 184.3C47.4287 182.5 45.0699 179.986 43.4266 176.757C41.8363 173.528 41.0412 169.795 41.0412 165.561C41.0412 161.326 41.8628 157.593 43.5061 154.364C45.1494 151.135 47.4818 148.621 50.5033 146.821C53.5778 144.968 57.2089 144.042 61.3965 144.042C65.5312 144.042 69.1093 144.942 72.1308 146.741C75.2053 148.541 77.5377 151.082 79.128 154.364C80.7712 157.593 81.5929 161.299 81.5929 165.481C81.5929 169.716 80.7712 173.475 79.128 176.757C77.4847 179.986 75.1258 182.5 72.0513 184.3C69.0298 186.1 65.4517 187 61.317 187ZM49.1515 165.561C49.1515 170.007 50.1852 173.633 52.2525 176.439C54.3199 179.192 57.3679 180.568 61.3965 180.568C65.3722 180.568 68.3672 179.192 70.3815 176.439C72.4489 173.633 73.4825 170.007 73.4825 165.561C73.4825 161.114 72.4489 157.514 70.3815 154.761C68.3672 151.956 65.3722 150.553 61.3965 150.553C57.3679 150.553 54.3199 151.929 52.2525 154.682C50.1852 157.435 49.1515 161.061 49.1515 165.561Z" fill="#C6C6C8"/>
<path d="M103.173 187C99.0386 187 95.434 186.1 92.3594 184.3C89.2849 182.5 86.9261 179.986 85.2828 176.757C83.6925 173.528 82.8974 169.795 82.8974 165.561C82.8974 161.326 83.719 157.593 85.3623 154.364C87.0056 151.135 89.3379 148.621 92.3594 146.821C95.434 144.968 99.0651 144.042 103.253 144.042C107.387 144.042 110.966 144.942 113.987 146.741C117.062 148.541 119.394 151.082 120.984 154.364C122.627 157.593 123.449 161.299 123.449 165.481C123.449 169.716 122.627 173.475 120.984 176.757C119.341 179.986 116.982 182.5 113.908 184.3C110.886 186.1 107.308 187 103.173 187ZM91.0077 165.561C91.0077 170.007 92.0414 173.633 94.1087 176.439C96.1761 179.192 99.2241 180.568 103.253 180.568C107.228 180.568 110.223 179.192 112.238 176.439C114.305 173.633 115.339 170.007 115.339 165.561C115.339 161.114 114.305 157.514 112.238 154.761C110.223 151.956 107.228 150.553 103.253 150.553C99.2241 150.553 96.1761 151.929 94.1087 154.682C92.0414 157.435 91.0077 161.061 91.0077 165.561Z" fill="#C6C6C8"/>
<path d="M139.482 186.285C135.878 186.285 133.174 185.412 131.372 183.665C129.623 181.918 128.748 178.821 128.748 174.375V151.744H122.864V145.312H128.748V132.29H136.54V145.312H144.332V151.744H136.54V174.613C136.54 176.677 136.858 178.08 137.494 178.821C138.183 179.509 139.376 179.854 141.072 179.854C142.08 179.854 143.193 179.748 144.412 179.536V185.809C142.822 186.127 141.178 186.285 139.482 186.285Z" fill="#C6C6C8"/>
<path d="M164.752 187C160.564 187 156.96 186.074 153.938 184.221C150.917 182.368 148.611 179.827 147.02 176.598C145.483 173.369 144.714 169.663 144.714 165.481C144.714 161.246 145.51 157.514 147.1 154.285C148.743 151.056 151.076 148.541 154.097 146.741C157.119 144.942 160.67 144.042 164.752 144.042C170.848 144.042 175.566 145.894 178.905 149.6C182.298 153.306 183.994 158.335 183.994 164.687C183.994 166.222 183.967 167.202 183.914 167.625H152.745C152.851 171.278 153.938 174.375 156.005 176.915C158.126 179.404 161.094 180.648 164.911 180.648C168.091 180.648 170.53 179.88 172.226 178.345C173.975 176.81 175.089 175.142 175.566 173.342H183.517C182.351 177.471 180.204 180.78 177.076 183.268C173.949 185.756 169.841 187 164.752 187ZM175.884 161.511C175.884 158.282 174.823 155.635 172.703 153.57C170.636 151.453 167.906 150.394 164.513 150.394C161.227 150.394 158.497 151.426 156.323 153.491C154.15 155.502 152.957 158.176 152.745 161.511H175.884Z" fill="#C6C6C8"/>
<path d="M195.188 185.809H187.396V145.312H195.188V153.014H195.347C197.785 147.244 201.416 144.359 206.24 144.359C207.565 144.359 208.811 144.439 209.977 144.597V152.062C209.023 151.903 208.149 151.823 207.353 151.823C203.802 151.823 200.886 153.041 198.607 155.476C196.328 157.911 195.188 161.034 195.188 164.846V185.809Z" fill="#C6C6C8"/>
<path d="M212.097 177.154H220.764V185.809H212.097V177.154ZM212.097 129.034H220.684V144.439L218.696 170.325H214.164L212.097 144.439V129.034Z" fill="#C6C6C8"/>
</svg>
