<svg width="1400" height="20" viewBox="0 0 1400 20" fill="none" xmlns="http://www.w3.org/2000/svg">
<path d="M6.09375 0.791016L2.19727 7.47656C2.13477 7.57422 2.06445 7.64648 1.98633 7.69336C1.91211 7.74023 1.82617 7.76367 1.72852 7.76367C1.58398 7.76367 1.46289 7.7168 1.36523 7.62305C1.27148 7.5332 1.22461 7.41602 1.22461 7.27148C1.22461 7.22461 1.23242 7.17578 1.24805 7.125C1.26367 7.07031 1.28711 7.01953 1.31836 6.97266L5.2207 0.287109C5.2793 0.189453 5.34766 0.117188 5.42578 0.0703125C5.50391 0.0234375 5.5918 0 5.68945 0C5.82617 0 5.94336 0.0488281 6.04102 0.146484C6.14258 0.240234 6.19336 0.359375 6.19336 0.503906C6.19336 0.546875 6.18359 0.59375 6.16406 0.644531C6.14844 0.695312 6.125 0.744141 6.09375 0.791016Z" fill="#C6C6C8"/>
<path d="M11.2399 0H14.6384C14.9157 0 15.152 0.0976562 15.3473 0.292969C15.5466 0.488281 15.6462 0.726562 15.6462 1.00781V3.38086C15.6462 3.66211 15.5466 3.90039 15.3473 4.0957C15.152 4.29102 14.9157 4.38867 14.6384 4.38867H11.6852V6.76758H15.0837C15.2516 6.76758 15.3864 6.81445 15.488 6.9082C15.5934 7.00195 15.6462 7.12305 15.6462 7.27148C15.6462 7.41992 15.5934 7.54102 15.488 7.63477C15.3825 7.72852 15.2477 7.77539 15.0837 7.77539H10.6774V4.38867C10.6774 4.11133 10.7751 3.875 10.9704 3.67969C11.1657 3.48047 11.404 3.38086 11.6852 3.38086H14.6384V1.00781H11.2399C11.068 1.00781 10.9313 0.962891 10.8298 0.873047C10.7282 0.779297 10.6774 0.65625 10.6774 0.503906C10.6774 0.355469 10.7302 0.234375 10.8356 0.140625C10.9411 0.046875 11.0759 0 11.2399 0Z" fill="#C6C6C8"/>
<path d="M18.2515 0H21.6616C21.8296 0 21.9644 0.046875 22.0659 0.140625C22.1714 0.234375 22.2241 0.355469 22.2241 0.503906C22.2241 0.648438 22.1714 0.769531 22.0659 0.867188C21.9605 0.960938 21.8257 1.00781 21.6616 1.00781H19.2593V3.38086H21.2163C21.4898 3.38086 21.7261 3.48047 21.9253 3.67969C22.1245 3.87891 22.2241 4.11523 22.2241 4.38867V6.76758C22.2241 7.04492 22.1245 7.28125 21.9253 7.47656C21.73 7.67578 21.4937 7.77539 21.2163 7.77539H18.9839C18.8941 7.77539 18.7984 7.76367 18.6968 7.74023C18.5991 7.7207 18.5034 7.69336 18.4097 7.6582L17.6128 7.33008C17.4995 7.2832 17.4116 7.21875 17.3491 7.13672C17.2866 7.05078 17.2554 6.95117 17.2554 6.83789C17.2554 6.70117 17.3023 6.58594 17.396 6.49219C17.4937 6.39453 17.6148 6.3457 17.7593 6.3457C17.7945 6.3457 17.8316 6.35156 17.8706 6.36328C17.9136 6.37109 17.9585 6.38477 18.0054 6.4043L18.7905 6.7207C18.8296 6.74023 18.8628 6.75391 18.8902 6.76172C18.9175 6.76562 18.9448 6.76758 18.9722 6.76758H21.2163V4.38867H18.2515V0Z" fill="#C6C6C8"/>
<path d="M938.094 0.791016L934.197 7.47656C934.135 7.57422 934.064 7.64648 933.986 7.69336C933.912 7.74023 933.826 7.76367 933.729 7.76367C933.584 7.76367 933.463 7.7168 933.365 7.62305C933.271 7.5332 933.225 7.41602 933.225 7.27148C933.225 7.22461 933.232 7.17578 933.248 7.125C933.264 7.07031 933.287 7.01953 933.318 6.97266L937.221 0.287109C937.279 0.189453 937.348 0.117188 937.426 0.0703125C937.504 0.0234375 937.592 0 937.689 0C937.826 0 937.943 0.0488281 938.041 0.146484C938.143 0.240234 938.193 0.359375 938.193 0.503906C938.193 0.546875 938.184 0.59375 938.164 0.644531C938.148 0.695312 938.125 0.744141 938.094 0.791016Z" fill="#C6C6C8"/>
<path d="M943.685 0.5625V2.79492L946.767 0.158203C946.83 0.0996094 946.89 0.0585938 946.949 0.0351562C947.008 0.0117188 947.072 0 947.142 0C947.279 0 947.396 0.0488281 947.494 0.146484C947.595 0.240234 947.646 0.351562 947.646 0.480469C947.646 0.5625 947.627 0.640625 947.588 0.714844C947.552 0.789062 947.5 0.855469 947.429 0.914062L943.949 3.88477L947.429 6.86133C947.496 6.92383 947.549 6.99414 947.588 7.07227C947.627 7.14648 947.646 7.2207 947.646 7.29492C947.646 7.42383 947.595 7.53516 947.494 7.62891C947.396 7.72656 947.279 7.77539 947.142 7.77539C947.072 7.77539 947.008 7.76367 946.949 7.74023C946.89 7.7168 946.83 7.67578 946.767 7.61719L943.685 4.98047V7.21289C943.685 7.38086 943.638 7.51562 943.545 7.61719C943.451 7.72266 943.33 7.77539 943.181 7.77539C943.033 7.77539 942.912 7.72266 942.818 7.61719C942.724 7.51172 942.677 7.37695 942.677 7.21289V0.5625C942.677 0.390625 942.722 0.253906 942.812 0.152344C942.906 0.0507812 943.029 0 943.181 0C943.326 0 943.445 0.0527344 943.539 0.158203C943.636 0.263672 943.685 0.398438 943.685 0.5625Z" fill="#C6C6C8"/>
<path d="M951.74 2.30273L950.925 5.07422H952.542L951.74 2.30273ZM952.279 0.5625L954.177 7.08398C954.189 7.11914 954.197 7.1543 954.201 7.18945C954.208 7.22461 954.212 7.25586 954.212 7.2832C954.212 7.41992 954.164 7.53516 954.066 7.62891C953.968 7.72656 953.853 7.77539 953.72 7.77539C953.603 7.77539 953.498 7.73633 953.404 7.6582C953.314 7.58398 953.251 7.48438 953.216 7.35938L952.841 6.08203H950.644L950.263 7.35352C950.216 7.49805 950.15 7.60352 950.064 7.66992C949.982 7.74023 949.876 7.77539 949.748 7.77539C949.619 7.77539 949.505 7.72656 949.408 7.62891C949.314 7.53516 949.267 7.42383 949.267 7.29492C949.267 7.23633 949.269 7.19336 949.273 7.16602C949.277 7.13477 949.283 7.10547 949.291 7.07812L951.189 0.5625C951.248 0.351562 951.318 0.205078 951.4 0.123047C951.486 0.0410156 951.599 0 951.74 0C951.876 0 951.986 0.0390625 952.068 0.117188C952.15 0.195312 952.22 0.34375 952.279 0.5625Z" fill="#C6C6C8"/>
<path d="M955.833 0H957.163L959.794 5.98828V0.5625C959.794 0.390625 959.839 0.253906 959.929 0.152344C960.023 0.0507812 960.146 0 960.298 0C960.443 0 960.562 0.0527344 960.656 0.158203C960.753 0.263672 960.802 0.398438 960.802 0.5625V7.77539H959.466L956.841 1.81055V7.21289C956.841 7.38086 956.794 7.51562 956.701 7.61719C956.607 7.72266 956.486 7.77539 956.337 7.77539C956.189 7.77539 956.068 7.72266 955.974 7.61719C955.88 7.51172 955.833 7.37695 955.833 7.21289V0Z" fill="#C6C6C8"/>
<path d="M965.159 1.20117C965.116 1.12695 965.075 1.07617 965.036 1.04883C965.001 1.02148 964.954 1.00781 964.896 1.00781C964.841 1.00781 964.788 1.02539 964.737 1.06055C964.687 1.0957 964.648 1.14062 964.62 1.19531L963.536 3.32812C963.501 3.39844 963.472 3.48438 963.448 3.58594C963.429 3.6875 963.419 3.78711 963.419 3.88477C963.419 3.98633 963.429 4.08789 963.448 4.18945C963.472 4.29102 963.501 4.37695 963.536 4.44727L964.632 6.57422C964.671 6.64844 964.71 6.69922 964.749 6.72656C964.788 6.75391 964.837 6.76758 964.896 6.76758C964.95 6.76758 965.003 6.75195 965.054 6.7207C965.105 6.68555 965.144 6.63672 965.171 6.57422L966.249 4.45312C966.284 4.38281 966.314 4.29688 966.337 4.19531C966.361 4.08984 966.372 3.98633 966.372 3.88477C966.372 3.7832 966.361 3.67969 966.337 3.57422C966.314 3.46875 966.284 3.38477 966.249 3.32227L965.159 1.20117ZM966.12 0.849609L967.163 2.90625C967.23 3.03516 967.282 3.18555 967.321 3.35742C967.361 3.5293 967.38 3.70508 967.38 3.88477C967.38 4.06836 967.361 4.24609 967.321 4.41797C967.282 4.58984 967.23 4.74023 967.163 4.86914L966.12 6.92578C965.956 7.23438 965.78 7.45312 965.593 7.58203C965.405 7.71094 965.173 7.77539 964.896 7.77539C964.614 7.77539 964.38 7.71094 964.193 7.58203C964.005 7.45312 963.831 7.23438 963.671 6.92578L962.628 4.86914C962.558 4.73242 962.503 4.58008 962.464 4.41211C962.429 4.24023 962.411 4.06445 962.411 3.88477C962.411 3.70508 962.429 3.5293 962.464 3.35742C962.503 3.18555 962.558 3.03516 962.628 2.90625L963.671 0.849609C963.831 0.541016 964.005 0.322266 964.193 0.193359C964.38 0.0644531 964.614 0 964.896 0C965.173 0 965.405 0.0644531 965.593 0.193359C965.78 0.322266 965.956 0.541016 966.12 0.849609Z" fill="#C6C6C8"/>
<path d="M460.094 0.791016L456.197 7.47656C456.135 7.57422 456.064 7.64648 455.986 7.69336C455.912 7.74023 455.826 7.76367 455.729 7.76367C455.584 7.76367 455.463 7.7168 455.365 7.62305C455.271 7.5332 455.225 7.41602 455.225 7.27148C455.225 7.22461 455.232 7.17578 455.248 7.125C455.264 7.07031 455.287 7.01953 455.318 6.97266L459.221 0.287109C459.279 0.189453 459.348 0.117188 459.426 0.0703125C459.504 0.0234375 459.592 0 459.689 0C459.826 0 459.943 0.0488281 460.041 0.146484C460.143 0.240234 460.193 0.359375 460.193 0.503906C460.193 0.546875 460.184 0.59375 460.164 0.644531C460.148 0.695312 460.125 0.744141 460.094 0.791016Z" fill="#C6C6C8"/>
<path d="M464.677 0H466.008L468.638 5.98828V0.5625C468.638 0.390625 468.683 0.253906 468.773 0.152344C468.867 0.0507812 468.99 0 469.142 0C469.287 0 469.406 0.0527344 469.5 0.158203C469.597 0.263672 469.646 0.398438 469.646 0.5625V7.77539H468.31L465.685 1.81055V7.21289C465.685 7.38086 465.638 7.51562 465.545 7.61719C465.451 7.72266 465.33 7.77539 465.181 7.77539C465.033 7.77539 464.912 7.72266 464.818 7.61719C464.724 7.51172 464.677 7.37695 464.677 7.21289V0Z" fill="#C6C6C8"/>
<path d="M472.263 0.5625V2.08594L473.74 5.96484L475.216 2.08594V0.5625C475.216 0.398438 475.263 0.263672 475.357 0.158203C475.451 0.0527344 475.572 0 475.72 0C475.869 0 475.99 0.0527344 476.084 0.158203C476.177 0.259766 476.224 0.394531 476.224 0.5625V2.2793L474.244 7.3418C474.181 7.50977 474.111 7.62305 474.033 7.68164C473.959 7.74414 473.861 7.77539 473.74 7.77539C473.615 7.77539 473.511 7.74219 473.429 7.67578C473.347 7.60938 473.279 7.49805 473.224 7.3418L471.255 2.2793V0.5625C471.255 0.390625 471.3 0.253906 471.39 0.152344C471.484 0.0507812 471.607 0 471.759 0C471.904 0 472.023 0.0527344 472.117 0.158203C472.214 0.263672 472.263 0.398438 472.263 0.5625Z" fill="#C6C6C8"/>
<path d="M480.786 0H482.24C482.408 0 482.542 0.046875 482.644 0.140625C482.749 0.234375 482.802 0.355469 482.802 0.503906C482.802 0.648438 482.749 0.769531 482.644 0.867188C482.538 0.960938 482.404 1.00781 482.24 1.00781H480.798C480.732 1.00781 480.661 1.02539 480.587 1.06055C480.513 1.0918 480.462 1.12695 480.435 1.16602L479.14 2.8418C479.023 2.99805 478.943 3.12891 478.9 3.23438C478.861 3.33594 478.841 3.44531 478.841 3.5625V6.26367C478.841 6.40039 478.892 6.51953 478.994 6.62109C479.095 6.71875 479.212 6.76758 479.345 6.76758H481.279C481.411 6.76758 481.529 6.71875 481.63 6.62109C481.732 6.51953 481.783 6.40039 481.783 6.26367V5.24414H480.869C480.697 5.24414 480.56 5.19922 480.458 5.10938C480.357 5.01562 480.306 4.89258 480.306 4.74023C480.306 4.5918 480.359 4.4707 480.464 4.37695C480.57 4.2832 480.704 4.23633 480.869 4.23633H482.802V6.26367C482.802 6.67773 482.654 7.0332 482.357 7.33008C482.06 7.62695 481.704 7.77539 481.29 7.77539H479.357C478.935 7.77539 478.576 7.62695 478.279 7.33008C477.982 7.03711 477.833 6.68164 477.833 6.26367V3.5625C477.833 3.33203 477.872 3.11328 477.951 2.90625C478.029 2.69922 478.181 2.44141 478.408 2.13281L479.574 0.585938C479.703 0.417969 479.88 0.279297 480.107 0.169922C480.333 0.0566406 480.56 0 480.786 0Z" fill="#C6C6C8"/>
<path d="M485.419 4.38867V6.76758H488.372V4.38867H485.419ZM486.415 1.00781V3.38086H487.376V1.00781H486.415ZM485.911 0H487.88C488.025 0 488.144 0.0527344 488.237 0.158203C488.335 0.263672 488.384 0.398438 488.384 0.5625V3.38086C488.708 3.41211 488.954 3.52344 489.122 3.71484C489.294 3.90234 489.38 4.16406 489.38 4.5V6.66211C489.38 7.02148 489.282 7.29688 489.087 7.48828C488.896 7.67969 488.62 7.77539 488.261 7.77539H485.525C485.165 7.77539 484.89 7.67969 484.698 7.48828C484.507 7.29688 484.411 7.02148 484.411 6.66211V4.5C484.411 4.16406 484.495 3.90039 484.663 3.70898C484.835 3.51758 485.083 3.4082 485.407 3.38086V0.5625C485.407 0.390625 485.452 0.253906 485.542 0.152344C485.636 0.0507812 485.759 0 485.911 0Z" fill="#C6C6C8"/>
</svg>
