<svg width="1400" height="32" viewBox="0 0 1400 32" fill="none" xmlns="http://www.w3.org/2000/svg">
<path d="M0 32V0H18.1775V32H0ZM36.355 32V0H109.065V32H36.355ZM145.42 32V0H163.598V32H145.42Z" fill="#C6C6C8"/>
<path d="M181.822 32V0H200V32H181.822ZM218.178 32V0H236.355V32H218.178ZM272.71 32V0H345.42V32H272.71Z" fill="#C6C6C8"/>
<path d="M363.645 32V0H381.822V32H363.645ZM418.178 32V0H436.355V32H418.178ZM472.71 32V0H545.42V32H472.71Z" fill="#C6C6C8"/>
<path d="M545.467 32V0H581.822V32H545.467ZM654.533 32V0H672.71V32H654.533ZM690.888 32V0H709.065V32H690.888Z" fill="#C6C6C8"/>
<path d="M727.29 32V0H745.467V32H727.29ZM781.822 32V0H854.533V32H781.822ZM872.71 32V0H890.888V32H872.71Z" fill="#C6C6C8"/>
<path d="M909.112 32V0H927.29V32H909.112ZM981.822 32V0H1054.53V32H981.822ZM1072.71 32V0H1090.89V32H1072.71Z" fill="#C6C6C8"/>
<path d="M1090.93 32V0H1127.29V32H1090.93ZM1200 32V0H1218.18V32H1200ZM1236.36 32V0H1254.53V32H1236.36Z" fill="#C6C6C8"/>
<path d="M1272.76 32V0H1290.93V32H1272.76ZM1309.11 32V0H1345.47V32H1309.11ZM1381.82 32V0H1400V32H1381.82Z" fill="#C6C6C8"/>
</svg>
