<svg width="411" height="76" viewBox="0 0 411 76" fill="none" xmlns="http://www.w3.org/2000/svg">
<path d="M1.392 0.448H4.912V12.032L15.76 0.448H19.696L10.736 9.984L20.432 23.328H16.304L8.56 12.32L4.912 16.192V23.328H1.392V0.448Z" fill="#C6C6C8"/>
<path d="M27.3237 0.448H31.1318L39.7077 23.328H35.8677L33.9798 17.824H24.4117L22.5238 23.328H18.8117L27.3237 0.448ZM32.9878 14.848L29.2437 3.712H29.1798L25.4678 14.848H32.9878Z" fill="#C6C6C8"/>
<path d="M40.8007 0.448H44.8327L55.4567 18.048H55.5207V0.448H59.0728V23.328H55.0407L44.3848 5.728H44.3207V23.328H40.8007V0.448Z" fill="#C6C6C8"/>
<path d="M72.4453 23.776C70.2053 23.776 68.2319 23.264 66.5253 22.24C64.8399 21.216 63.5279 19.808 62.5892 18.016C61.6719 16.2027 61.2132 14.1547 61.2132 11.872C61.2132 9.58933 61.6719 7.552 62.5892 5.76C63.5279 3.94667 64.8399 2.53867 66.5253 1.536C68.2319 0.512 70.2053 0 72.4453 0C74.6853 0 76.6479 0.512 78.3333 1.536C80.0399 2.53867 81.3519 3.94667 82.2692 5.76C83.2079 7.552 83.6773 9.58933 83.6773 11.872C83.6773 14.1547 83.2079 16.2027 82.2692 18.016C81.3519 19.808 80.0399 21.216 78.3333 22.24C76.6479 23.264 74.6853 23.776 72.4453 23.776ZM64.8932 11.872C64.8932 14.432 65.5119 16.5547 66.7493 18.24C68.0079 19.904 69.9066 20.736 72.4453 20.736C74.9839 20.736 76.8719 19.904 78.1093 18.24C79.3679 16.5547 79.9973 14.432 79.9973 11.872C79.9973 9.312 79.3679 7.2 78.1093 5.536C76.8719 3.872 74.9839 3.04 72.4453 3.04C69.9066 3.04 68.0079 3.872 66.7493 5.536C65.5119 7.2 64.8932 9.312 64.8932 11.872Z" fill="#C6C6C8"/>
<path d="M90.314 13.696H106.314V16.672H90.314V13.696Z" fill="#C6C6C8"/>
<path d="M123.594 23.776C121.46 23.776 119.583 23.2747 117.962 22.272C116.362 21.248 115.114 19.84 114.218 18.048C113.343 16.2347 112.906 14.1867 112.906 11.904C112.906 9.62133 113.343 7.57333 114.218 5.76C115.114 3.94667 116.372 2.53867 117.994 1.536C119.615 0.512 121.492 0 123.626 0C125.482 0 127.114 0.362666 128.522 1.088C129.951 1.81333 131.082 2.79467 131.914 4.032C132.746 5.26933 133.258 6.66667 133.45 8.224H129.77C129.514 6.79467 128.906 5.57867 127.946 4.576C126.986 3.552 125.524 3.04 123.562 3.04C121.194 3.04 119.434 3.88267 118.282 5.568C117.151 7.25333 116.586 9.35467 116.586 11.872C116.586 14.4107 117.151 16.5227 118.282 18.208C119.434 19.8933 121.194 20.736 123.562 20.736C125.588 20.736 127.092 20.192 128.074 19.104C129.076 17.9947 129.642 16.6293 129.77 15.008H133.45C133.279 16.7147 132.778 18.2293 131.946 19.552C131.114 20.8747 129.983 21.9093 128.554 22.656C127.124 23.4027 125.471 23.776 123.594 23.776Z" fill="#C6C6C8"/>
<path d="M142.061 23.808C140.397 23.808 138.946 23.4453 137.709 22.72C136.472 21.9947 135.522 20.9813 134.861 19.68C134.221 18.3787 133.901 16.8747 133.901 15.168C133.901 13.4613 134.232 11.9573 134.893 10.656C135.554 9.35467 136.493 8.34133 137.709 7.616C138.946 6.86933 140.408 6.496 142.093 6.496C143.757 6.496 145.197 6.85867 146.413 7.584C147.65 8.30933 148.589 9.33333 149.229 10.656C149.89 11.9573 150.221 13.4507 150.221 15.136C150.221 16.8427 149.89 18.3573 149.229 19.68C148.568 20.9813 147.618 21.9947 146.381 22.72C145.165 23.4453 143.725 23.808 142.061 23.808ZM137.165 15.168C137.165 16.96 137.581 18.4213 138.413 19.552C139.245 20.6613 140.472 21.216 142.093 21.216C143.693 21.216 144.898 20.6613 145.709 19.552C146.541 18.4213 146.957 16.96 146.957 15.168C146.957 13.376 146.541 11.9253 145.709 10.816C144.898 9.68533 143.693 9.12 142.093 9.12C140.472 9.12 139.245 9.67467 138.413 10.784C137.581 11.8933 137.165 13.3547 137.165 15.168Z" fill="#C6C6C8"/>
<path d="M161.402 12.864C161.402 11.648 161.199 10.7413 160.794 10.144C160.41 9.52533 159.663 9.216 158.554 9.216C157.402 9.216 156.474 9.58933 155.77 10.336C155.087 11.0827 154.746 12.0747 154.746 13.312V23.328H151.61V7.008H154.746V9.056H154.81C155.322 8.33067 155.973 7.73333 156.762 7.264C157.551 6.77333 158.511 6.528 159.642 6.528C161.861 6.528 163.301 7.47733 163.962 9.376H164.026C165.455 7.47733 167.237 6.528 169.37 6.528C170.991 6.528 172.218 6.99733 173.05 7.936C173.903 8.87467 174.33 10.2293 174.33 12V23.328H171.194V12.864C171.194 11.648 170.991 10.7413 170.586 10.144C170.202 9.52533 169.455 9.216 168.346 9.216C167.194 9.216 166.266 9.58933 165.562 10.336C164.879 11.0827 164.538 12.0747 164.538 13.312V23.328H161.402V12.864Z" fill="#C6C6C8"/>
<path d="M176.486 7.008H179.622V23.328H176.486V7.008ZM176.294 0.704H179.846V4.096H176.294V0.704Z" fill="#C6C6C8"/>
<path d="M192.742 12.864C192.742 11.712 192.465 10.816 191.91 10.176C191.377 9.536 190.545 9.216 189.415 9.216C188.071 9.216 186.993 9.58933 186.182 10.336C185.393 11.0827 184.999 12.0747 184.999 13.312V23.328H181.863V7.008H184.999V9.056H185.062C185.553 8.33067 186.247 7.73333 187.143 7.264C188.039 6.77333 189.137 6.528 190.438 6.528C192.038 6.528 193.34 6.99733 194.342 7.936C195.366 8.85333 195.878 10.208 195.878 12V23.328H192.742V12.864Z" fill="#C6C6C8"/>
<path d="M204.997 29.184C202.757 29.184 201.018 28.704 199.781 27.744C198.543 26.8053 197.839 25.5573 197.669 24H200.933C201.317 25.7493 202.671 26.624 204.997 26.624C206.511 26.624 207.642 26.272 208.389 25.568C209.135 24.864 209.509 23.7547 209.509 22.24V20.032H209.445C208.314 21.6747 206.639 22.496 204.421 22.496C203.055 22.496 201.829 22.1973 200.741 21.6C199.653 20.9813 198.789 20.0747 198.149 18.88C197.53 17.664 197.221 16.2133 197.221 14.528C197.221 12.8213 197.53 11.3707 198.149 10.176C198.789 8.98133 199.642 8.07467 200.709 7.456C201.797 6.83733 203.034 6.528 204.421 6.528C206.533 6.528 208.207 7.328 209.445 8.928H209.509V7.008H212.645V22.048C212.645 24.4373 211.973 26.2187 210.629 27.392C209.285 28.5867 207.407 29.184 204.997 29.184ZM200.485 14.528C200.485 16.128 200.869 17.4293 201.637 18.432C202.405 19.4133 203.525 19.904 204.997 19.904C206.426 19.904 207.525 19.4453 208.293 18.528C209.082 17.6107 209.477 16.2773 209.477 14.528C209.477 12.7573 209.082 11.424 208.293 10.528C207.525 9.61067 206.426 9.152 204.997 9.152C203.525 9.152 202.405 9.65333 201.637 10.656C200.869 11.6373 200.485 12.928 200.485 14.528Z" fill="#C6C6C8"/>
<path d="M229.393 23.776C227.451 23.776 225.734 23.456 224.241 22.816C222.747 22.1547 221.563 21.216 220.689 20C219.835 18.7627 219.366 17.3013 219.281 15.616H222.928C223.056 17.2373 223.633 18.5067 224.657 19.424C225.702 20.32 227.249 20.768 229.297 20.768C232.497 20.768 234.096 19.5413 234.096 17.088C234.096 16.1707 233.862 15.456 233.393 14.944C232.945 14.432 232.336 14.048 231.568 13.792C230.822 13.536 229.531 13.1733 227.697 12.704C226.118 12.2773 224.816 11.8507 223.792 11.424C222.79 10.9973 221.936 10.368 221.232 9.536C220.528 8.68267 220.176 7.584 220.176 6.24C220.176 4.27733 220.891 2.752 222.32 1.664C223.75 0.554667 225.702 0 228.176 0C230.8 0 232.902 0.64 234.48 1.92C236.08 3.2 236.966 4.98133 237.137 7.264H233.489C233.297 5.856 232.774 4.8 231.921 4.096C231.067 3.37067 229.83 3.008 228.208 3.008C226.779 3.008 225.691 3.264 224.945 3.776C224.219 4.288 223.857 5.04533 223.857 6.048C223.857 6.85867 224.081 7.49867 224.529 7.968C224.977 8.43733 225.542 8.8 226.225 9.056C226.907 9.29067 227.899 9.568 229.201 9.888C231.142 10.3787 232.678 10.848 233.809 11.296C234.939 11.744 235.878 12.416 236.624 13.312C237.392 14.1867 237.777 15.3813 237.777 16.896C237.777 18.9653 237.062 20.6293 235.633 21.888C234.225 23.1467 232.145 23.776 229.393 23.776Z" fill="#C6C6C8"/>
<path d="M246.445 23.808C244.781 23.808 243.33 23.4453 242.093 22.72C240.855 21.9947 239.906 20.9813 239.245 19.68C238.605 18.3787 238.285 16.8747 238.285 15.168C238.285 13.4613 238.615 11.9573 239.277 10.656C239.938 9.35467 240.877 8.34133 242.093 7.616C243.33 6.86933 244.791 6.496 246.477 6.496C248.141 6.496 249.581 6.85867 250.797 7.584C252.034 8.30933 252.973 9.33333 253.613 10.656C254.274 11.9573 254.605 13.4507 254.605 15.136C254.605 16.8427 254.274 18.3573 253.613 19.68C252.951 20.9813 252.002 21.9947 250.765 22.72C249.549 23.4453 248.109 23.808 246.445 23.808ZM241.549 15.168C241.549 16.96 241.965 18.4213 242.797 19.552C243.629 20.6613 244.855 21.216 246.477 21.216C248.077 21.216 249.282 20.6613 250.093 19.552C250.925 18.4213 251.341 16.96 251.341 15.168C251.341 13.376 250.925 11.9253 250.093 10.816C249.282 9.68533 248.077 9.12 246.477 9.12C244.855 9.12 243.629 9.67467 242.797 10.784C241.965 11.8933 241.549 13.3547 241.549 15.168Z" fill="#C6C6C8"/>
<path d="M263.29 23.808C261.626 23.808 260.175 23.4453 258.938 22.72C257.7 21.9947 256.751 20.9813 256.09 19.68C255.45 18.3787 255.13 16.8747 255.13 15.168C255.13 13.4613 255.46 11.9573 256.122 10.656C256.783 9.35467 257.722 8.34133 258.938 7.616C260.175 6.86933 261.636 6.496 263.322 6.496C264.986 6.496 266.426 6.85867 267.642 7.584C268.879 8.30933 269.818 9.33333 270.458 10.656C271.119 11.9573 271.45 13.4507 271.45 15.136C271.45 16.8427 271.119 18.3573 270.458 19.68C269.796 20.9813 268.847 21.9947 267.61 22.72C266.394 23.4453 264.954 23.808 263.29 23.808ZM258.394 15.168C258.394 16.96 258.81 18.4213 259.642 19.552C260.474 20.6613 261.7 21.216 263.322 21.216C264.922 21.216 266.127 20.6613 266.938 19.552C267.77 18.4213 268.186 16.96 268.186 15.168C268.186 13.376 267.77 11.9253 266.938 10.816C266.127 9.68533 264.922 9.12 263.322 9.12C261.7 9.12 260.474 9.67467 259.642 10.784C258.81 11.8933 258.394 13.3547 258.394 15.168Z" fill="#C6C6C8"/>
<path d="M283.719 12.864C283.719 11.712 283.441 10.816 282.887 10.176C282.353 9.536 281.521 9.216 280.391 9.216C279.047 9.216 277.969 9.58933 277.159 10.336C276.369 11.0827 275.975 12.0747 275.975 13.312V23.328H272.839V7.008H275.975V9.056H276.039C276.529 8.33067 277.223 7.73333 278.119 7.264C279.015 6.77333 280.113 6.528 281.415 6.528C283.015 6.528 284.316 6.99733 285.319 7.936C286.343 8.85333 286.855 10.208 286.855 12V23.328H283.719V12.864Z" fill="#C6C6C8"/>
<path d="M0.256 44.888H2.016V56.328H0.256V44.888Z" fill="#C6C6C8"/>
<path d="M8.351 56.552C7.54033 56.552 6.88967 56.3387 6.399 55.912C5.919 55.4853 5.679 54.92 5.679 54.216C5.679 53.6293 5.81233 53.16 6.079 52.808C6.35633 52.4453 6.735 52.168 7.215 51.976C7.70567 51.7733 8.32967 51.6027 9.087 51.464C9.60967 51.368 10.0043 51.2827 10.271 51.208C10.5377 51.1227 10.751 51.0107 10.911 50.872C11.071 50.7227 11.151 50.52 11.151 50.264C11.151 49.5387 10.6337 49.176 9.599 49.176C8.90567 49.176 8.42033 49.2933 8.143 49.528C7.86567 49.7627 7.70567 50.1573 7.663 50.712H6.063C6.10567 49.8693 6.42033 49.192 7.007 48.68C7.59367 48.168 8.479 47.912 9.663 47.912C10.5803 47.912 11.311 48.136 11.855 48.584C12.4097 49.0213 12.687 49.736 12.687 50.728V54.472C12.687 54.7813 12.7137 55.0107 12.767 55.16C12.8203 55.2987 12.9217 55.368 13.071 55.368L13.263 55.352V56.312C12.9963 56.376 12.7297 56.408 12.463 56.408C12.0577 56.408 11.7483 56.3173 11.535 56.136C11.3323 55.944 11.2097 55.624 11.167 55.176H11.135C10.8683 55.6133 10.5003 55.9547 10.031 56.2C9.56167 56.4347 9.00167 56.552 8.351 56.552ZM7.311 54.104C7.311 54.8933 7.775 55.288 8.703 55.288C9.439 55.288 10.031 55.1067 10.479 54.744C10.927 54.3707 11.151 53.8373 11.151 53.144V51.976C11.0337 52.0827 10.8257 52.184 10.527 52.28C10.239 52.3653 9.84967 52.4613 9.359 52.568C8.623 52.7173 8.095 52.9093 7.775 53.144C7.46567 53.368 7.311 53.688 7.311 54.104Z" fill="#C6C6C8"/>
<path d="M18.851 51.096C18.851 50.488 18.7497 50.0347 18.547 49.736C18.355 49.4267 17.9817 49.272 17.427 49.272C16.851 49.272 16.387 49.4587 16.035 49.832C15.6937 50.2053 15.523 50.7013 15.523 51.32V56.328H13.955V48.168H15.523V49.192H15.555C15.811 48.8293 16.1363 48.5307 16.531 48.296C16.9257 48.0507 17.4057 47.928 17.971 47.928C19.0803 47.928 19.8003 48.4027 20.131 49.352H20.163C20.8777 48.4027 21.7683 47.928 22.835 47.928C23.6457 47.928 24.259 48.1627 24.675 48.632C25.1017 49.1013 25.315 49.7787 25.315 50.664V56.328H23.747V51.096C23.747 50.488 23.6457 50.0347 23.443 49.736C23.251 49.4267 22.8777 49.272 22.323 49.272C21.747 49.272 21.283 49.4587 20.931 49.832C20.5897 50.2053 20.419 50.7013 20.419 51.32V56.328H18.851V51.096Z" fill="#C6C6C8"/>
<path d="M28.6491 56.552C27.8385 56.552 27.1878 56.3387 26.6971 55.912C26.2171 55.4853 25.9771 54.92 25.9771 54.216C25.9771 53.6293 26.1105 53.16 26.3771 52.808C26.6545 52.4453 27.0331 52.168 27.5131 51.976C28.0038 51.7733 28.6278 51.6027 29.3851 51.464C29.9078 51.368 30.3025 51.2827 30.5691 51.208C30.8358 51.1227 31.0491 51.0107 31.2091 50.872C31.3691 50.7227 31.4491 50.52 31.4491 50.264C31.4491 49.5387 30.9318 49.176 29.8971 49.176C29.2038 49.176 28.7185 49.2933 28.4411 49.528C28.1638 49.7627 28.0038 50.1573 27.9611 50.712H26.3611C26.4038 49.8693 26.7185 49.192 27.3051 48.68C27.8918 48.168 28.7771 47.912 29.9611 47.912C30.8785 47.912 31.6091 48.136 32.1531 48.584C32.7078 49.0213 32.9851 49.736 32.9851 50.728V54.472C32.9851 54.7813 33.0118 55.0107 33.0651 55.16C33.1185 55.2987 33.2198 55.368 33.3691 55.368L33.5611 55.352V56.312C33.2945 56.376 33.0278 56.408 32.7611 56.408C32.3558 56.408 32.0465 56.3173 31.8331 56.136C31.6305 55.944 31.5078 55.624 31.4651 55.176H31.4331C31.1665 55.6133 30.7985 55.9547 30.3291 56.2C29.8598 56.4347 29.2998 56.552 28.6491 56.552ZM27.6091 54.104C27.6091 54.8933 28.0731 55.288 29.0011 55.288C29.7371 55.288 30.3291 55.1067 30.7771 54.744C31.2251 54.3707 31.4491 53.8373 31.4491 53.144V51.976C31.3318 52.0827 31.1238 52.184 30.8251 52.28C30.5371 52.3653 30.1478 52.4613 29.6571 52.568C28.9211 52.7173 28.3931 52.9093 28.0731 53.144C27.7638 53.368 27.6091 53.688 27.6091 54.104Z" fill="#C6C6C8"/>
<path d="M35.8211 56.328H34.2531V48.168H35.8211V49.72H35.8531C36.3438 48.5573 37.0745 47.976 38.0451 47.976C38.3118 47.976 38.5625 47.992 38.7971 48.024V49.528C38.6051 49.496 38.4291 49.48 38.2691 49.48C37.5545 49.48 36.9678 49.7253 36.5091 50.216C36.0505 50.7067 35.8211 51.336 35.8211 52.104V56.328Z" fill="#C6C6C8"/>
<path d="M45.632 56.552C45.0347 56.552 44.528 56.44 44.112 56.216C43.696 55.9813 43.3653 55.6827 43.12 55.32H43.088V59.16H41.52V48.168H43.088V49.128H43.12C43.7387 48.328 44.576 47.928 45.632 47.928C46.3253 47.928 46.9493 48.104 47.504 48.456C48.0587 48.808 48.496 49.3093 48.816 49.96C49.136 50.6107 49.296 51.3733 49.296 52.248C49.296 53.1227 49.136 53.8853 48.816 54.536C48.496 55.1867 48.0587 55.688 47.504 56.04C46.9493 56.3813 46.3253 56.552 45.632 56.552ZM43.104 52.248C43.104 53.176 43.3067 53.912 43.712 54.456C44.1173 54.9893 44.672 55.256 45.376 55.256C46.112 55.256 46.672 54.968 47.056 54.392C47.4507 53.816 47.648 53.1013 47.648 52.248C47.648 51.3947 47.4507 50.68 47.056 50.104C46.672 49.528 46.112 49.24 45.376 49.24C44.672 49.24 44.1173 49.512 43.712 50.056C43.3067 50.5893 43.104 51.32 43.104 52.248Z" fill="#C6C6C8"/>
<path d="M51.573 56.328H50.005V48.168H51.573V49.72H51.605C52.0957 48.5573 52.8263 47.976 53.797 47.976C54.0637 47.976 54.3143 47.992 54.549 48.024V49.528C54.357 49.496 54.181 49.48 54.021 49.48C53.3063 49.48 52.7197 49.7253 52.261 50.216C51.8023 50.7067 51.573 51.336 51.573 52.104V56.328Z" fill="#C6C6C8"/>
<path d="M58.1998 56.568C57.3571 56.568 56.6318 56.3813 56.0238 56.008C55.4158 55.6347 54.9518 55.1227 54.6318 54.472C54.3224 53.8213 54.1678 53.0747 54.1678 52.232C54.1678 51.3787 54.3278 50.6267 54.6478 49.976C54.9784 49.3253 55.4478 48.8187 56.0558 48.456C56.6638 48.0933 57.3784 47.912 58.1998 47.912C59.4264 47.912 60.3758 48.2853 61.0478 49.032C61.7304 49.7787 62.0718 50.792 62.0718 52.072C62.0718 52.3813 62.0664 52.5787 62.0558 52.664H55.7838C55.8051 53.4 56.0238 54.024 56.4398 54.536C56.8664 55.0373 57.4638 55.288 58.2318 55.288C58.8718 55.288 59.3624 55.1333 59.7038 54.824C60.0558 54.5147 60.2798 54.1787 60.3758 53.816H61.9758C61.7411 54.648 61.3091 55.3147 60.6798 55.816C60.0504 56.3173 59.2238 56.568 58.1998 56.568ZM60.4398 51.432C60.4398 50.7813 60.2264 50.248 59.7998 49.832C59.3838 49.4053 58.8344 49.192 58.1518 49.192C57.4904 49.192 56.9411 49.4 56.5038 49.816C56.0664 50.2213 55.8264 50.76 55.7838 51.432H60.4398Z" fill="#C6C6C8"/>
<path d="M65.9723 56.552C64.7776 56.552 63.8549 56.28 63.2043 55.736C62.5643 55.192 62.2336 54.4827 62.2122 53.608H63.7962C63.8282 54.12 64.0149 54.5307 64.3562 54.84C64.7082 55.1387 65.2416 55.288 65.9562 55.288C66.5856 55.288 67.0336 55.176 67.3002 54.952C67.5669 54.7173 67.7002 54.4293 67.7002 54.088C67.7002 53.768 67.6042 53.5227 67.4122 53.352C67.2202 53.1813 67.0122 53.0693 66.7882 53.016C66.5749 52.952 66.1643 52.856 65.5563 52.728C64.9269 52.5787 64.4042 52.424 63.9882 52.264C63.5722 52.104 63.2202 51.864 62.9322 51.544C62.6442 51.224 62.5002 50.8027 62.5002 50.28C62.5002 49.5653 62.7722 48.9947 63.3162 48.568C63.8709 48.1413 64.6336 47.928 65.6042 47.928C66.6709 47.928 67.4923 48.1733 68.0683 48.664C68.6443 49.1547 68.9643 49.7787 69.0283 50.536H67.4443C67.3696 50.1413 67.1989 49.8213 66.9323 49.576C66.6763 49.32 66.2442 49.192 65.6362 49.192C65.1242 49.192 64.7456 49.2827 64.5003 49.464C64.2549 49.6453 64.1322 49.896 64.1322 50.216C64.1322 50.4507 64.2016 50.6373 64.3402 50.776C64.4789 50.9147 64.6549 51.0213 64.8682 51.096C65.0816 51.16 65.3962 51.2347 65.8122 51.32C65.8976 51.3307 66.0256 51.3573 66.1963 51.4C66.8469 51.5493 67.3856 51.7093 67.8122 51.88C68.2389 52.0507 68.5962 52.3067 68.8842 52.648C69.1829 52.9893 69.3323 53.4427 69.3323 54.008C69.3323 54.808 69.0389 55.432 68.4522 55.88C67.8656 56.328 67.0389 56.552 65.9723 56.552Z" fill="#C6C6C8"/>
<path d="M72.523 56.424C71.7977 56.424 71.2537 56.248 70.891 55.896C70.539 55.544 70.363 54.92 70.363 54.024V49.464H69.179V48.168H70.363V45.544H71.931V48.168H73.499V49.464H71.931V54.072C71.931 54.488 71.995 54.7707 72.123 54.92C72.2617 55.0587 72.5017 55.128 72.843 55.128C73.0457 55.128 73.2697 55.1067 73.515 55.064V56.328C73.195 56.392 72.8643 56.424 72.523 56.424Z" fill="#C6C6C8"/>
<path d="M76.4197 56.552C75.6091 56.552 74.9584 56.3387 74.4678 55.912C73.9878 55.4853 73.7477 54.92 73.7477 54.216C73.7477 53.6293 73.8811 53.16 74.1478 52.808C74.4251 52.4453 74.8038 52.168 75.2838 51.976C75.7744 51.7733 76.3984 51.6027 77.1557 51.464C77.6784 51.368 78.0731 51.2827 78.3398 51.208C78.6064 51.1227 78.8198 51.0107 78.9798 50.872C79.1398 50.7227 79.2197 50.52 79.2197 50.264C79.2197 49.5387 78.7024 49.176 77.6677 49.176C76.9744 49.176 76.4891 49.2933 76.2117 49.528C75.9344 49.7627 75.7744 50.1573 75.7318 50.712H74.1318C74.1744 49.8693 74.4891 49.192 75.0758 48.68C75.6624 48.168 76.5478 47.912 77.7318 47.912C78.6491 47.912 79.3798 48.136 79.9238 48.584C80.4784 49.0213 80.7558 49.736 80.7558 50.728V54.472C80.7558 54.7813 80.7824 55.0107 80.8357 55.16C80.8891 55.2987 80.9904 55.368 81.1397 55.368L81.3317 55.352V56.312C81.0651 56.376 80.7984 56.408 80.5318 56.408C80.1264 56.408 79.8171 56.3173 79.6038 56.136C79.4011 55.944 79.2784 55.624 79.2357 55.176H79.2038C78.9371 55.6133 78.5691 55.9547 78.0997 56.2C77.6304 56.4347 77.0704 56.552 76.4197 56.552ZM75.3798 54.104C75.3798 54.8933 75.8438 55.288 76.7718 55.288C77.5078 55.288 78.0998 55.1067 78.5478 54.744C78.9958 54.3707 79.2197 53.8373 79.2197 53.144V51.976C79.1024 52.0827 78.8944 52.184 78.5957 52.28C78.3077 52.3653 77.9184 52.4613 77.4277 52.568C76.6917 52.7173 76.1638 52.9093 75.8438 53.144C75.5344 53.368 75.3798 53.688 75.3798 54.104Z" fill="#C6C6C8"/>
<path d="M83.5918 56.328H82.0238V48.168H83.5918V49.72H83.6237C84.1144 48.5573 84.8451 47.976 85.8158 47.976C86.0824 47.976 86.3331 47.992 86.5677 48.024V49.528C86.3757 49.496 86.1997 49.48 86.0397 49.48C85.3251 49.48 84.7384 49.7253 84.2797 50.216C83.8211 50.7067 83.5918 51.336 83.5918 52.104V56.328Z" fill="#C6C6C8"/>
<path d="M91.5466 56.552C90.736 56.552 90.0853 56.3387 89.5946 55.912C89.1146 55.4853 88.8746 54.92 88.8746 54.216C88.8746 53.6293 89.008 53.16 89.2746 52.808C89.552 52.4453 89.9306 52.168 90.4106 51.976C90.9013 51.7733 91.5253 51.6027 92.2826 51.464C92.8053 51.368 93.2 51.2827 93.4666 51.208C93.7333 51.1227 93.9466 51.0107 94.1066 50.872C94.2666 50.7227 94.3466 50.52 94.3466 50.264C94.3466 49.5387 93.8293 49.176 92.7946 49.176C92.1013 49.176 91.616 49.2933 91.3386 49.528C91.0613 49.7627 90.9013 50.1573 90.8586 50.712H89.2586C89.3013 49.8693 89.616 49.192 90.2026 48.68C90.7893 48.168 91.6746 47.912 92.8586 47.912C93.776 47.912 94.5066 48.136 95.0506 48.584C95.6053 49.0213 95.8826 49.736 95.8826 50.728V54.472C95.8826 54.7813 95.9093 55.0107 95.9626 55.16C96.016 55.2987 96.1173 55.368 96.2666 55.368L96.4586 55.352V56.312C96.192 56.376 95.9253 56.408 95.6586 56.408C95.2533 56.408 94.944 56.3173 94.7306 56.136C94.528 55.944 94.4053 55.624 94.3626 55.176H94.3306C94.064 55.6133 93.696 55.9547 93.2266 56.2C92.7573 56.4347 92.1973 56.552 91.5466 56.552ZM90.5066 54.104C90.5066 54.8933 90.9706 55.288 91.8986 55.288C92.6346 55.288 93.2266 55.1067 93.6746 54.744C94.1226 54.3707 94.3466 53.8373 94.3466 53.144V51.976C94.2293 52.0827 94.0213 52.184 93.7226 52.28C93.4346 52.3653 93.0453 52.4613 92.5546 52.568C91.8186 52.7173 91.2906 52.9093 90.9706 53.144C90.6613 53.368 90.5066 53.688 90.5066 54.104Z" fill="#C6C6C8"/>
<path d="M100.688 56.568C99.8458 56.568 99.1205 56.3813 98.5125 56.008C97.9045 55.6347 97.4405 55.1227 97.1205 54.472C96.8112 53.8213 96.6565 53.0747 96.6565 52.232C96.6565 51.3787 96.8165 50.6267 97.1365 49.976C97.4672 49.3253 97.9365 48.8187 98.5445 48.456C99.1525 48.0933 99.8672 47.912 100.688 47.912C101.915 47.912 102.864 48.2853 103.536 49.032C104.219 49.7787 104.561 50.792 104.561 52.072C104.561 52.3813 104.555 52.5787 104.545 52.664H98.2725C98.2938 53.4 98.5125 54.024 98.9285 54.536C99.3552 55.0373 99.9525 55.288 100.721 55.288C101.361 55.288 101.851 55.1333 102.193 54.824C102.545 54.5147 102.769 54.1787 102.865 53.816H104.465C104.23 54.648 103.798 55.3147 103.169 55.816C102.539 56.3173 101.712 56.568 100.688 56.568ZM102.929 51.432C102.929 50.7813 102.715 50.248 102.289 49.832C101.873 49.4053 101.323 49.192 100.641 49.192C99.9792 49.192 99.4298 49.4 98.9925 49.816C98.5552 50.2213 98.3152 50.76 98.2725 51.432H102.929Z" fill="#C6C6C8"/>
<path d="M110.685 51.096C110.685 50.52 110.546 50.072 110.269 49.752C110.002 49.432 109.586 49.272 109.021 49.272C108.349 49.272 107.81 49.4587 107.405 49.832C107.01 50.2053 106.813 50.7013 106.813 51.32V56.328H105.245V48.168H106.813V49.192H106.845C107.09 48.8293 107.437 48.5307 107.885 48.296C108.333 48.0507 108.882 47.928 109.533 47.928C110.333 47.928 110.984 48.1627 111.485 48.632C111.997 49.0907 112.253 49.768 112.253 50.664V56.328H110.685V51.096Z" fill="#C6C6C8"/>
<path d="M113.18 57.64C113.489 57.544 113.708 57.4 113.836 57.208C113.964 57.0267 114.023 56.7333 114.012 56.328H113.18V54.584H114.924V56.328C114.924 57.4907 114.343 58.216 113.18 58.504V57.64Z" fill="#C6C6C8"/>
<path d="M123.64 51.096C123.64 50.52 123.501 50.072 123.224 49.752C122.957 49.432 122.541 49.272 121.976 49.272C121.304 49.272 120.765 49.4587 120.36 49.832C119.965 50.2053 119.768 50.7013 119.768 51.32V56.328H118.2V44.888H119.768V49.192H119.8C120.045 48.8293 120.392 48.5307 120.84 48.296C121.288 48.0507 121.837 47.928 122.488 47.928C123.288 47.928 123.939 48.1627 124.44 48.632C124.952 49.0907 125.208 49.768 125.208 50.664V56.328H123.64V51.096Z" fill="#C6C6C8"/>
<path d="M128.519 56.552C127.708 56.552 127.058 56.3387 126.567 55.912C126.087 55.4853 125.847 54.92 125.847 54.216C125.847 53.6293 125.98 53.16 126.247 52.808C126.524 52.4453 126.903 52.168 127.383 51.976C127.874 51.7733 128.498 51.6027 129.255 51.464C129.778 51.368 130.172 51.2827 130.439 51.208C130.706 51.1227 130.919 51.0107 131.079 50.872C131.239 50.7227 131.319 50.52 131.319 50.264C131.319 49.5387 130.802 49.176 129.767 49.176C129.074 49.176 128.588 49.2933 128.311 49.528C128.034 49.7627 127.874 50.1573 127.831 50.712H126.231C126.274 49.8693 126.588 49.192 127.175 48.68C127.762 48.168 128.647 47.912 129.831 47.912C130.748 47.912 131.479 48.136 132.023 48.584C132.578 49.0213 132.855 49.736 132.855 50.728V54.472C132.855 54.7813 132.882 55.0107 132.935 55.16C132.988 55.2987 133.09 55.368 133.239 55.368L133.431 55.352V56.312C133.164 56.376 132.898 56.408 132.631 56.408C132.226 56.408 131.916 56.3173 131.703 56.136C131.5 55.944 131.378 55.624 131.335 55.176H131.303C131.036 55.6133 130.668 55.9547 130.199 56.2C129.73 56.4347 129.17 56.552 128.519 56.552ZM127.479 54.104C127.479 54.8933 127.943 55.288 128.871 55.288C129.607 55.288 130.199 55.1067 130.647 54.744C131.095 54.3707 131.319 53.8373 131.319 53.144V51.976C131.202 52.0827 130.994 52.184 130.695 52.28C130.407 52.3653 130.018 52.4613 129.527 52.568C128.791 52.7173 128.263 52.9093 127.943 53.144C127.634 53.368 127.479 53.688 127.479 54.104Z" fill="#C6C6C8"/>
<path d="M139.563 51.096C139.563 50.52 139.424 50.072 139.147 49.752C138.88 49.432 138.464 49.272 137.899 49.272C137.227 49.272 136.688 49.4587 136.283 49.832C135.888 50.2053 135.691 50.7013 135.691 51.32V56.328H134.123V48.168H135.691V49.192H135.723C135.968 48.8293 136.315 48.5307 136.763 48.296C137.211 48.0507 137.76 47.928 138.411 47.928C139.211 47.928 139.862 48.1627 140.363 48.632C140.875 49.0907 141.131 49.768 141.131 50.664V56.328H139.563V51.096Z" fill="#C6C6C8"/>
<path d="M149.786 51.096C149.786 50.488 149.685 50.0347 149.482 49.736C149.29 49.4267 148.917 49.272 148.362 49.272C147.786 49.272 147.322 49.4587 146.97 49.832C146.629 50.2053 146.458 50.7013 146.458 51.32V56.328H144.89V48.168H146.458V49.192H146.49C146.746 48.8293 147.071 48.5307 147.466 48.296C147.861 48.0507 148.341 47.928 148.906 47.928C150.015 47.928 150.735 48.4027 151.066 49.352H151.098C151.813 48.4027 152.703 47.928 153.77 47.928C154.581 47.928 155.194 48.1627 155.61 48.632C156.037 49.1013 156.25 49.7787 156.25 50.664V56.328H154.682V51.096C154.682 50.488 154.581 50.0347 154.378 49.736C154.186 49.4267 153.813 49.272 153.258 49.272C152.682 49.272 152.218 49.4587 151.866 49.832C151.525 50.2053 151.354 50.7013 151.354 51.32V56.328H149.786V51.096Z" fill="#C6C6C8"/>
<path d="M159.584 56.552C158.773 56.552 158.123 56.3387 157.632 55.912C157.152 55.4853 156.912 54.92 156.912 54.216C156.912 53.6293 157.045 53.16 157.312 52.808C157.589 52.4453 157.968 52.168 158.448 51.976C158.939 51.7733 159.563 51.6027 160.32 51.464C160.843 51.368 161.237 51.2827 161.504 51.208C161.771 51.1227 161.984 51.0107 162.144 50.872C162.304 50.7227 162.384 50.52 162.384 50.264C162.384 49.5387 161.867 49.176 160.832 49.176C160.139 49.176 159.653 49.2933 159.376 49.528C159.099 49.7627 158.939 50.1573 158.896 50.712H157.296C157.339 49.8693 157.653 49.192 158.24 48.68C158.827 48.168 159.712 47.912 160.896 47.912C161.813 47.912 162.544 48.136 163.088 48.584C163.643 49.0213 163.92 49.736 163.92 50.728V54.472C163.92 54.7813 163.947 55.0107 164 55.16C164.053 55.2987 164.155 55.368 164.304 55.368L164.496 55.352V56.312C164.229 56.376 163.963 56.408 163.696 56.408C163.291 56.408 162.981 56.3173 162.768 56.136C162.565 55.944 162.443 55.624 162.4 55.176H162.368C162.101 55.6133 161.733 55.9547 161.264 56.2C160.795 56.4347 160.235 56.552 159.584 56.552ZM158.544 54.104C158.544 54.8933 159.008 55.288 159.936 55.288C160.672 55.288 161.264 55.1067 161.712 54.744C162.16 54.3707 162.384 53.8373 162.384 53.144V51.976C162.267 52.0827 162.059 52.184 161.76 52.28C161.472 52.3653 161.083 52.4613 160.592 52.568C159.856 52.7173 159.328 52.9093 159.008 53.144C158.699 53.368 158.544 53.688 158.544 54.104Z" fill="#C6C6C8"/>
<path d="M167.72 56.424C166.995 56.424 166.451 56.248 166.088 55.896C165.736 55.544 165.56 54.92 165.56 54.024V49.464H164.376V48.168H165.56V45.544H167.128V48.168H168.696V49.464H167.128V54.072C167.128 54.488 167.192 54.7707 167.32 54.92C167.459 55.0587 167.699 55.128 168.04 55.128C168.243 55.128 168.467 55.1067 168.712 55.064V56.328C168.392 56.392 168.061 56.424 167.72 56.424Z" fill="#C6C6C8"/>
<path d="M174.801 51.096C174.801 50.52 174.662 50.072 174.385 49.752C174.118 49.432 173.702 49.272 173.137 49.272C172.465 49.272 171.926 49.4587 171.521 49.832C171.126 50.2053 170.929 50.7013 170.929 51.32V56.328H169.361V44.888H170.929V49.192H170.961C171.206 48.8293 171.553 48.5307 172.001 48.296C172.449 48.0507 172.998 47.928 173.649 47.928C174.449 47.928 175.099 48.1627 175.601 48.632C176.113 49.0907 176.369 49.768 176.369 50.664V56.328H174.801V51.096Z" fill="#C6C6C8"/>
<path d="M181.072 56.568C180.24 56.568 179.514 56.3867 178.896 56.024C178.277 55.6613 177.802 55.1547 177.472 54.504C177.152 53.8533 176.992 53.1013 176.992 52.248C176.992 51.3947 177.157 50.6427 177.488 49.992C177.818 49.3413 178.288 48.8347 178.896 48.472C179.514 48.0987 180.245 47.912 181.088 47.912C181.92 47.912 182.64 48.0933 183.248 48.456C183.866 48.8187 184.336 49.3307 184.656 49.992C184.986 50.6427 185.152 51.3893 185.152 52.232C185.152 53.0853 184.986 53.8427 184.656 54.504C184.325 55.1547 183.85 55.6613 183.232 56.024C182.624 56.3867 181.904 56.568 181.072 56.568ZM178.624 52.248C178.624 53.144 178.832 53.8747 179.248 54.44C179.664 54.9947 180.277 55.272 181.088 55.272C181.888 55.272 182.49 54.9947 182.896 54.44C183.312 53.8747 183.52 53.144 183.52 52.248C183.52 51.352 183.312 50.6267 182.896 50.072C182.49 49.5067 181.888 49.224 181.088 49.224C180.277 49.224 179.664 49.5013 179.248 50.056C178.832 50.6107 178.624 51.3413 178.624 52.248Z" fill="#C6C6C8"/>
<path d="M191.286 51.096C191.286 50.52 191.148 50.072 190.87 49.752C190.604 49.432 190.188 49.272 189.622 49.272C188.95 49.272 188.412 49.4587 188.006 49.832C187.612 50.2053 187.414 50.7013 187.414 51.32V56.328H185.846V48.168H187.414V49.192H187.446C187.692 48.8293 188.038 48.5307 188.486 48.296C188.934 48.0507 189.484 47.928 190.134 47.928C190.934 47.928 191.585 48.1627 192.086 48.632C192.598 49.0907 192.854 49.768 192.854 50.664V56.328H191.286V51.096Z" fill="#C6C6C8"/>
<path d="M202.053 51.096C202.053 50.52 201.914 50.072 201.637 49.752C201.37 49.432 200.954 49.272 200.389 49.272C199.717 49.272 199.178 49.4587 198.773 49.832C198.378 50.2053 198.181 50.7013 198.181 51.32V56.328H196.613V48.168H198.181V49.192H198.213C198.458 48.8293 198.805 48.5307 199.253 48.296C199.701 48.0507 200.25 47.928 200.901 47.928C201.701 47.928 202.352 48.1627 202.853 48.632C203.365 49.0907 203.621 49.768 203.621 50.664V56.328H202.053V51.096Z" fill="#C6C6C8"/>
<path d="M208.292 56.568C207.45 56.568 206.724 56.3813 206.116 56.008C205.508 55.6347 205.044 55.1227 204.724 54.472C204.415 53.8213 204.26 53.0747 204.26 52.232C204.26 51.3787 204.42 50.6267 204.74 49.976C205.071 49.3253 205.54 48.8187 206.148 48.456C206.756 48.0933 207.471 47.912 208.292 47.912C209.519 47.912 210.468 48.2853 211.14 49.032C211.823 49.7787 212.164 50.792 212.164 52.072C212.164 52.3813 212.159 52.5787 212.148 52.664H205.876C205.898 53.4 206.116 54.024 206.532 54.536C206.959 55.0373 207.556 55.288 208.324 55.288C208.964 55.288 209.455 55.1333 209.796 54.824C210.148 54.5147 210.372 54.1787 210.468 53.816H212.068C211.834 54.648 211.402 55.3147 210.772 55.816C210.143 56.3173 209.316 56.568 208.292 56.568ZM210.532 51.432C210.532 50.7813 210.319 50.248 209.892 49.832C209.476 49.4053 208.927 49.192 208.244 49.192C207.583 49.192 207.034 49.4 206.596 49.816C206.159 50.2213 205.919 50.76 205.876 51.432H210.532Z" fill="#C6C6C8"/>
<path d="M220.993 51.096C220.993 50.52 220.854 50.072 220.577 49.752C220.31 49.432 219.894 49.272 219.329 49.272C218.657 49.272 218.118 49.4587 217.713 49.832C217.318 50.2053 217.12 50.7013 217.12 51.32V56.328H215.553V48.168H217.12V49.192H217.153C217.398 48.8293 217.745 48.5307 218.193 48.296C218.641 48.0507 219.19 47.928 219.84 47.928C220.641 47.928 221.291 48.1627 221.793 48.632C222.305 49.0907 222.561 49.768 222.561 50.664V56.328H220.993V51.096Z" fill="#C6C6C8"/>
<path d="M227.232 56.568C226.389 56.568 225.664 56.3813 225.056 56.008C224.448 55.6347 223.984 55.1227 223.664 54.472C223.354 53.8213 223.2 53.0747 223.2 52.232C223.2 51.3787 223.36 50.6267 223.68 49.976C224.01 49.3253 224.48 48.8187 225.088 48.456C225.696 48.0933 226.41 47.912 227.232 47.912C228.458 47.912 229.408 48.2853 230.08 49.032C230.762 49.7787 231.104 50.792 231.104 52.072C231.104 52.3813 231.098 52.5787 231.088 52.664H224.816C224.837 53.4 225.056 54.024 225.472 54.536C225.898 55.0373 226.496 55.288 227.264 55.288C227.904 55.288 228.394 55.1333 228.736 54.824C229.088 54.5147 229.312 54.1787 229.408 53.816H231.008C230.773 54.648 230.341 55.3147 229.712 55.816C229.082 56.3173 228.256 56.568 227.232 56.568ZM229.472 51.432C229.472 50.7813 229.258 50.248 228.832 49.832C228.416 49.4053 227.866 49.192 227.184 49.192C226.522 49.192 225.973 49.4 225.536 49.816C225.098 50.2213 224.858 50.76 224.816 51.432H229.472Z" fill="#C6C6C8"/>
<path d="M237.228 51.096C237.228 50.52 237.089 50.072 236.812 49.752C236.545 49.432 236.129 49.272 235.564 49.272C234.892 49.272 234.353 49.4587 233.948 49.832C233.553 50.2053 233.356 50.7013 233.356 51.32V56.328H231.788V48.168H233.356V49.192H233.388C233.633 48.8293 233.98 48.5307 234.428 48.296C234.876 48.0507 235.425 47.928 236.076 47.928C236.876 47.928 237.527 48.1627 238.028 48.632C238.54 49.0907 238.796 49.768 238.796 50.664V56.328H237.228V51.096Z" fill="#C6C6C8"/>
<path d="M239.723 57.64C240.033 57.544 240.251 57.4 240.379 57.208C240.507 57.0267 240.566 56.7333 240.555 56.328H239.723V54.584H241.467V56.328C241.467 57.4907 240.886 58.216 239.723 58.504V57.64Z" fill="#C6C6C8"/>
<path d="M250.183 51.096C250.183 50.52 250.044 50.072 249.767 49.752C249.5 49.432 249.084 49.272 248.519 49.272C247.847 49.272 247.308 49.4587 246.903 49.832C246.508 50.2053 246.311 50.7013 246.311 51.32V56.328H244.743V44.888H246.311V49.192H246.343C246.588 48.8293 246.935 48.5307 247.383 48.296C247.831 48.0507 248.38 47.928 249.031 47.928C249.831 47.928 250.482 48.1627 250.983 48.632C251.495 49.0907 251.751 49.768 251.751 50.664V56.328H250.183V51.096Z" fill="#C6C6C8"/>
<path d="M255.062 56.552C254.252 56.552 253.601 56.3387 253.11 55.912C252.63 55.4853 252.39 54.92 252.39 54.216C252.39 53.6293 252.524 53.16 252.79 52.808C253.068 52.4453 253.446 52.168 253.926 51.976C254.417 51.7733 255.041 51.6027 255.798 51.464C256.321 51.368 256.716 51.2827 256.982 51.208C257.249 51.1227 257.462 51.0107 257.622 50.872C257.782 50.7227 257.862 50.52 257.862 50.264C257.862 49.5387 257.345 49.176 256.31 49.176C255.617 49.176 255.132 49.2933 254.854 49.528C254.577 49.7627 254.417 50.1573 254.374 50.712H252.774C252.817 49.8693 253.132 49.192 253.718 48.68C254.305 48.168 255.19 47.912 256.374 47.912C257.292 47.912 258.022 48.136 258.566 48.584C259.121 49.0213 259.398 49.736 259.398 50.728V54.472C259.398 54.7813 259.425 55.0107 259.478 55.16C259.532 55.2987 259.633 55.368 259.782 55.368L259.974 55.352V56.312C259.708 56.376 259.441 56.408 259.174 56.408C258.769 56.408 258.46 56.3173 258.246 56.136C258.044 55.944 257.921 55.624 257.878 55.176H257.846C257.58 55.6133 257.212 55.9547 256.742 56.2C256.273 56.4347 255.713 56.552 255.062 56.552ZM254.022 54.104C254.022 54.8933 254.486 55.288 255.414 55.288C256.15 55.288 256.742 55.1067 257.19 54.744C257.638 54.3707 257.862 53.8373 257.862 53.144V51.976C257.745 52.0827 257.537 52.184 257.238 52.28C256.95 52.3653 256.561 52.4613 256.07 52.568C255.334 52.7173 254.806 52.9093 254.486 53.144C254.177 53.368 254.022 53.688 254.022 54.104Z" fill="#C6C6C8"/>
<path d="M266.106 51.096C266.106 50.52 265.968 50.072 265.69 49.752C265.424 49.432 265.008 49.272 264.442 49.272C263.77 49.272 263.232 49.4587 262.826 49.832C262.432 50.2053 262.234 50.7013 262.234 51.32V56.328H260.666V48.168H262.234V49.192H262.266C262.512 48.8293 262.858 48.5307 263.306 48.296C263.754 48.0507 264.304 47.928 264.954 47.928C265.754 47.928 266.405 48.1627 266.906 48.632C267.418 49.0907 267.674 49.768 267.674 50.664V56.328H266.106V51.096Z" fill="#C6C6C8"/>
<path d="M276.329 51.096C276.329 50.488 276.228 50.0347 276.025 49.736C275.833 49.4267 275.46 49.272 274.905 49.272C274.329 49.272 273.865 49.4587 273.513 49.832C273.172 50.2053 273.001 50.7013 273.001 51.32V56.328H271.433V48.168H273.001V49.192H273.033C273.289 48.8293 273.614 48.5307 274.009 48.296C274.404 48.0507 274.884 47.928 275.449 47.928C276.558 47.928 277.278 48.4027 277.609 49.352H277.641C278.356 48.4027 279.246 47.928 280.313 47.928C281.124 47.928 281.737 48.1627 282.153 48.632C282.58 49.1013 282.793 49.7787 282.793 50.664V56.328H281.225V51.096C281.225 50.488 281.124 50.0347 280.921 49.736C280.729 49.4267 280.356 49.272 279.801 49.272C279.225 49.272 278.761 49.4587 278.409 49.832C278.068 50.2053 277.897 50.7013 277.897 51.32V56.328H276.329V51.096Z" fill="#C6C6C8"/>
<path d="M286.127 56.552C285.317 56.552 284.666 56.3387 284.175 55.912C283.695 55.4853 283.455 54.92 283.455 54.216C283.455 53.6293 283.589 53.16 283.855 52.808C284.133 52.4453 284.511 52.168 284.991 51.976C285.482 51.7733 286.106 51.6027 286.863 51.464C287.386 51.368 287.781 51.2827 288.047 51.208C288.314 51.1227 288.527 51.0107 288.687 50.872C288.847 50.7227 288.927 50.52 288.927 50.264C288.927 49.5387 288.41 49.176 287.375 49.176C286.682 49.176 286.197 49.2933 285.919 49.528C285.642 49.7627 285.482 50.1573 285.439 50.712H283.839C283.882 49.8693 284.197 49.192 284.783 48.68C285.37 48.168 286.255 47.912 287.439 47.912C288.357 47.912 289.087 48.136 289.631 48.584C290.186 49.0213 290.463 49.736 290.463 50.728V54.472C290.463 54.7813 290.49 55.0107 290.543 55.16C290.597 55.2987 290.698 55.368 290.847 55.368L291.039 55.352V56.312C290.773 56.376 290.506 56.408 290.239 56.408C289.834 56.408 289.525 56.3173 289.311 56.136C289.109 55.944 288.986 55.624 288.943 55.176H288.911C288.645 55.6133 288.277 55.9547 287.807 56.2C287.338 56.4347 286.778 56.552 286.127 56.552ZM285.087 54.104C285.087 54.8933 285.551 55.288 286.479 55.288C287.215 55.288 287.807 55.1067 288.255 54.744C288.703 54.3707 288.927 53.8373 288.927 53.144V51.976C288.81 52.0827 288.602 52.184 288.303 52.28C288.015 52.3653 287.626 52.4613 287.135 52.568C286.399 52.7173 285.871 52.9093 285.551 53.144C285.242 53.368 285.087 53.688 285.087 54.104Z" fill="#C6C6C8"/>
<path d="M294.263 56.424C293.538 56.424 292.994 56.248 292.631 55.896C292.279 55.544 292.103 54.92 292.103 54.024V49.464H290.919V48.168H292.103V45.544H293.671V48.168H295.239V49.464H293.671V54.072C293.671 54.488 293.735 54.7707 293.863 54.92C294.002 55.0587 294.242 55.128 294.583 55.128C294.786 55.128 295.01 55.1067 295.255 55.064V56.328C294.935 56.392 294.604 56.424 294.263 56.424Z" fill="#C6C6C8"/>
<path d="M301.344 51.096C301.344 50.52 301.205 50.072 300.928 49.752C300.661 49.432 300.245 49.272 299.68 49.272C299.008 49.272 298.469 49.4587 298.064 49.832C297.669 50.2053 297.472 50.7013 297.472 51.32V56.328H295.904V44.888H297.472V49.192H297.504C297.749 48.8293 298.096 48.5307 298.544 48.296C298.992 48.0507 299.541 47.928 300.192 47.928C300.992 47.928 301.642 48.1627 302.144 48.632C302.656 49.0907 302.912 49.768 302.912 50.664V56.328H301.344V51.096Z" fill="#C6C6C8"/>
<path d="M307.615 56.568C306.783 56.568 306.058 56.3867 305.439 56.024C304.82 55.6613 304.346 55.1547 304.015 54.504C303.695 53.8533 303.535 53.1013 303.535 52.248C303.535 51.3947 303.7 50.6427 304.031 49.992C304.362 49.3413 304.831 48.8347 305.439 48.472C306.058 48.0987 306.788 47.912 307.631 47.912C308.463 47.912 309.183 48.0933 309.791 48.456C310.41 48.8187 310.879 49.3307 311.199 49.992C311.53 50.6427 311.695 51.3893 311.695 52.232C311.695 53.0853 311.53 53.8427 311.199 54.504C310.868 55.1547 310.394 55.6613 309.775 56.024C309.167 56.3867 308.447 56.568 307.615 56.568ZM305.167 52.248C305.167 53.144 305.375 53.8747 305.791 54.44C306.207 54.9947 306.82 55.272 307.631 55.272C308.431 55.272 309.034 54.9947 309.439 54.44C309.855 53.8747 310.063 53.144 310.063 52.248C310.063 51.352 309.855 50.6267 309.439 50.072C309.034 49.5067 308.431 49.224 307.631 49.224C306.82 49.224 306.207 49.5013 305.791 50.056C305.375 50.6107 305.167 51.3413 305.167 52.248Z" fill="#C6C6C8"/>
<path d="M317.829 51.096C317.829 50.52 317.691 50.072 317.413 49.752C317.147 49.432 316.731 49.272 316.165 49.272C315.493 49.272 314.955 49.4587 314.549 49.832C314.155 50.2053 313.957 50.7013 313.957 51.32V56.328H312.389V48.168H313.957V49.192H313.989C314.235 48.8293 314.581 48.5307 315.029 48.296C315.477 48.0507 316.027 47.928 316.677 47.928C317.477 47.928 318.128 48.1627 318.629 48.632C319.141 49.0907 319.397 49.768 319.397 50.664V56.328H317.829V51.096Z" fill="#C6C6C8"/>
<path d="M328.596 51.096C328.596 50.52 328.458 50.072 328.18 49.752C327.914 49.432 327.498 49.272 326.932 49.272C326.26 49.272 325.722 49.4587 325.316 49.832C324.922 50.2053 324.724 50.7013 324.724 51.32V56.328H323.156V48.168H324.724V49.192H324.756C325.002 48.8293 325.348 48.5307 325.796 48.296C326.244 48.0507 326.794 47.928 327.444 47.928C328.244 47.928 328.895 48.1627 329.396 48.632C329.908 49.0907 330.164 49.768 330.164 50.664V56.328H328.596V51.096Z" fill="#C6C6C8"/>
<path d="M334.835 56.568C333.993 56.568 333.267 56.3813 332.659 56.008C332.051 55.6347 331.587 55.1227 331.267 54.472C330.958 53.8213 330.803 53.0747 330.803 52.232C330.803 51.3787 330.963 50.6267 331.283 49.976C331.614 49.3253 332.083 48.8187 332.691 48.456C333.299 48.0933 334.014 47.912 334.835 47.912C336.062 47.912 337.011 48.2853 337.683 49.032C338.366 49.7787 338.707 50.792 338.707 52.072C338.707 52.3813 338.702 52.5787 338.691 52.664H332.419C332.441 53.4 332.659 54.024 333.075 54.536C333.502 55.0373 334.099 55.288 334.867 55.288C335.507 55.288 335.998 55.1333 336.339 54.824C336.691 54.5147 336.915 54.1787 337.011 53.816H338.611C338.377 54.648 337.945 55.3147 337.315 55.816C336.686 56.3173 335.859 56.568 334.835 56.568ZM337.075 51.432C337.075 50.7813 336.862 50.248 336.435 49.832C336.019 49.4053 335.47 49.192 334.787 49.192C334.126 49.192 333.577 49.4 333.139 49.816C332.702 50.2213 332.462 50.76 332.419 51.432H337.075Z" fill="#C6C6C8"/>
<path d="M345.68 56.568C344.88 56.568 344.176 56.3867 343.568 56.024C342.96 55.6613 342.49 55.1547 342.16 54.504C341.829 53.8427 341.664 53.0907 341.664 52.248C341.664 51.4053 341.829 50.6587 342.16 50.008C342.49 49.3467 342.954 48.8347 343.552 48.472C344.16 48.1093 344.864 47.928 345.664 47.928C346.346 47.928 346.954 48.0667 347.488 48.344C348.021 48.6107 348.448 48.9893 348.768 49.48C349.088 49.96 349.28 50.5093 349.344 51.128H347.728C347.674 50.616 347.488 50.1733 347.168 49.8C346.848 49.416 346.352 49.224 345.68 49.224C344.869 49.224 344.266 49.5173 343.872 50.104C343.488 50.68 343.296 51.3947 343.296 52.248C343.296 53.1013 343.488 53.816 343.872 54.392C344.266 54.968 344.869 55.256 345.68 55.256C346.362 55.256 346.864 55.0693 347.184 54.696C347.504 54.3227 347.685 53.8587 347.728 53.304H349.344C349.312 53.9227 349.136 54.4827 348.816 54.984C348.496 55.4747 348.064 55.864 347.52 56.152C346.976 56.4293 346.362 56.568 345.68 56.568Z" fill="#C6C6C8"/>
<path d="M355.396 51.096C355.396 50.52 355.257 50.072 354.98 49.752C354.713 49.432 354.297 49.272 353.732 49.272C353.06 49.272 352.521 49.4587 352.116 49.832C351.721 50.2053 351.524 50.7013 351.524 51.32V56.328H349.956V44.888H351.524V49.192H351.556C351.801 48.8293 352.148 48.5307 352.596 48.296C353.044 48.0507 353.593 47.928 354.244 47.928C355.044 47.928 355.694 48.1627 356.196 48.632C356.708 49.0907 356.964 49.768 356.964 50.664V56.328H355.396V51.096Z" fill="#C6C6C8"/>
<path d="M360.275 56.552C359.464 56.552 358.813 56.3387 358.323 55.912C357.843 55.4853 357.603 54.92 357.603 54.216C357.603 53.6293 357.736 53.16 358.003 52.808C358.28 52.4453 358.659 52.168 359.139 51.976C359.629 51.7733 360.253 51.6027 361.011 51.464C361.533 51.368 361.928 51.2827 362.195 51.208C362.461 51.1227 362.675 51.0107 362.835 50.872C362.995 50.7227 363.075 50.52 363.075 50.264C363.075 49.5387 362.557 49.176 361.523 49.176C360.829 49.176 360.344 49.2933 360.067 49.528C359.789 49.7627 359.629 50.1573 359.587 50.712H357.987C358.029 49.8693 358.344 49.192 358.931 48.68C359.517 48.168 360.403 47.912 361.587 47.912C362.504 47.912 363.235 48.136 363.779 48.584C364.333 49.0213 364.611 49.736 364.611 50.728V54.472C364.611 54.7813 364.637 55.0107 364.691 55.16C364.744 55.2987 364.845 55.368 364.995 55.368L365.187 55.352V56.312C364.92 56.376 364.653 56.408 364.387 56.408C363.981 56.408 363.672 56.3173 363.459 56.136C363.256 55.944 363.133 55.624 363.091 55.176H363.059C362.792 55.6133 362.424 55.9547 361.955 56.2C361.485 56.4347 360.925 56.552 360.275 56.552ZM359.235 54.104C359.235 54.8933 359.699 55.288 360.627 55.288C361.363 55.288 361.955 55.1067 362.403 54.744C362.851 54.3707 363.075 53.8373 363.075 53.144V51.976C362.957 52.0827 362.749 52.184 362.451 52.28C362.163 52.3653 361.773 52.4613 361.283 52.568C360.547 52.7173 360.019 52.9093 359.699 53.144C359.389 53.368 359.235 53.688 359.235 54.104Z" fill="#C6C6C8"/>
<path d="M369.417 56.568C368.574 56.568 367.849 56.3813 367.241 56.008C366.633 55.6347 366.169 55.1227 365.849 54.472C365.539 53.8213 365.385 53.0747 365.385 52.232C365.385 51.3787 365.545 50.6267 365.865 49.976C366.195 49.3253 366.665 48.8187 367.273 48.456C367.881 48.0933 368.595 47.912 369.417 47.912C370.643 47.912 371.593 48.2853 372.265 49.032C372.947 49.7787 373.289 50.792 373.289 52.072C373.289 52.3813 373.283 52.5787 373.273 52.664H367.001C367.022 53.4 367.241 54.024 367.657 54.536C368.083 55.0373 368.681 55.288 369.449 55.288C370.089 55.288 370.579 55.1333 370.921 54.824C371.273 54.5147 371.497 54.1787 371.593 53.816H373.193C372.958 54.648 372.526 55.3147 371.897 55.816C371.267 56.3173 370.441 56.568 369.417 56.568ZM371.657 51.432C371.657 50.7813 371.443 50.248 371.017 49.832C370.601 49.4053 370.051 49.192 369.369 49.192C368.707 49.192 368.158 49.4 367.721 49.816C367.283 50.2213 367.043 50.76 367.001 51.432H371.657Z" fill="#C6C6C8"/>
<path d="M378.933 56.552C378.122 56.552 377.472 56.3387 376.981 55.912C376.501 55.4853 376.261 54.92 376.261 54.216C376.261 53.6293 376.394 53.16 376.661 52.808C376.938 52.4453 377.317 52.168 377.797 51.976C378.288 51.7733 378.912 51.6027 379.669 51.464C380.192 51.368 380.586 51.2827 380.853 51.208C381.12 51.1227 381.333 51.0107 381.493 50.872C381.653 50.7227 381.733 50.52 381.733 50.264C381.733 49.5387 381.216 49.176 380.181 49.176C379.488 49.176 379.002 49.2933 378.725 49.528C378.448 49.7627 378.288 50.1573 378.245 50.712H376.645C376.688 49.8693 377.002 49.192 377.589 48.68C378.176 48.168 379.061 47.912 380.245 47.912C381.162 47.912 381.893 48.136 382.437 48.584C382.992 49.0213 383.269 49.736 383.269 50.728V54.472C383.269 54.7813 383.296 55.0107 383.349 55.16C383.402 55.2987 383.504 55.368 383.653 55.368L383.845 55.352V56.312C383.578 56.376 383.312 56.408 383.045 56.408C382.64 56.408 382.33 56.3173 382.117 56.136C381.914 55.944 381.792 55.624 381.749 55.176H381.717C381.45 55.6133 381.082 55.9547 380.613 56.2C380.144 56.4347 379.584 56.552 378.933 56.552ZM377.893 54.104C377.893 54.8933 378.357 55.288 379.285 55.288C380.021 55.288 380.613 55.1067 381.061 54.744C381.509 54.3707 381.733 53.8373 381.733 53.144V51.976C381.616 52.0827 381.408 52.184 381.109 52.28C380.821 52.3653 380.432 52.4613 379.941 52.568C379.205 52.7173 378.677 52.9093 378.357 53.144C378.048 53.368 377.893 53.688 377.893 54.104Z" fill="#C6C6C8"/>
<path d="M392.681 51.096C392.681 50.52 392.542 50.072 392.265 49.752C391.998 49.432 391.582 49.272 391.017 49.272C390.345 49.272 389.806 49.4587 389.401 49.832C389.006 50.2053 388.809 50.7013 388.809 51.32V56.328H387.241V44.888H388.809V49.192H388.841C389.086 48.8293 389.433 48.5307 389.881 48.296C390.329 48.0507 390.878 47.928 391.529 47.928C392.329 47.928 392.979 48.1627 393.481 48.632C393.993 49.0907 394.249 49.768 394.249 50.664V56.328H392.681V51.096Z" fill="#C6C6C8"/>
<path d="M397.56 56.552C396.749 56.552 396.098 56.3387 395.608 55.912C395.128 55.4853 394.888 54.92 394.888 54.216C394.888 53.6293 395.021 53.16 395.288 52.808C395.565 52.4453 395.944 52.168 396.424 51.976C396.914 51.7733 397.538 51.6027 398.296 51.464C398.818 51.368 399.213 51.2827 399.48 51.208C399.746 51.1227 399.96 51.0107 400.12 50.872C400.28 50.7227 400.36 50.52 400.36 50.264C400.36 49.5387 399.842 49.176 398.808 49.176C398.114 49.176 397.629 49.2933 397.352 49.528C397.074 49.7627 396.914 50.1573 396.872 50.712H395.272C395.314 49.8693 395.629 49.192 396.216 48.68C396.802 48.168 397.688 47.912 398.872 47.912C399.789 47.912 400.52 48.136 401.064 48.584C401.618 49.0213 401.896 49.736 401.896 50.728V54.472C401.896 54.7813 401.922 55.0107 401.976 55.16C402.029 55.2987 402.13 55.368 402.28 55.368L402.472 55.352V56.312C402.205 56.376 401.938 56.408 401.672 56.408C401.266 56.408 400.957 56.3173 400.744 56.136C400.541 55.944 400.418 55.624 400.376 55.176H400.344C400.077 55.6133 399.709 55.9547 399.24 56.2C398.77 56.4347 398.21 56.552 397.56 56.552ZM396.52 54.104C396.52 54.8933 396.984 55.288 397.912 55.288C398.648 55.288 399.24 55.1067 399.688 54.744C400.136 54.3707 400.36 53.8373 400.36 53.144V51.976C400.242 52.0827 400.034 52.184 399.736 52.28C399.448 52.3653 399.058 52.4613 398.568 52.568C397.832 52.7173 397.304 52.9093 396.984 53.144C396.674 53.368 396.52 53.688 396.52 54.104Z" fill="#C6C6C8"/>
<path d="M408.604 51.096C408.604 50.52 408.465 50.072 408.188 49.752C407.921 49.432 407.505 49.272 406.94 49.272C406.268 49.272 405.729 49.4587 405.324 49.832C404.929 50.2053 404.732 50.7013 404.732 51.32V56.328H403.164V48.168H404.732V49.192H404.764C405.009 48.8293 405.356 48.5307 405.804 48.296C406.252 48.0507 406.801 47.928 407.452 47.928C408.252 47.928 408.902 48.1627 409.404 48.632C409.916 49.0907 410.172 49.768 410.172 50.664V56.328H408.604V51.096Z" fill="#C6C6C8"/>
<path d="M5.44 70.096C5.44 69.52 5.30133 69.072 5.024 68.752C4.75733 68.432 4.34133 68.272 3.776 68.272C3.104 68.272 2.56533 68.4587 2.16 68.832C1.76533 69.2053 1.568 69.7013 1.568 70.32V75.328H0V67.168H1.568V68.192H1.6C1.84533 67.8293 2.192 67.5307 2.64 67.296C3.088 67.0507 3.63733 66.928 4.288 66.928C5.088 66.928 5.73867 67.1627 6.24 67.632C6.752 68.0907 7.008 68.768 7.008 69.664V75.328H5.44V70.096Z" fill="#C6C6C8"/>
<path d="M11.7111 75.568C10.8791 75.568 10.1538 75.3867 9.53512 75.024C8.91646 74.6613 8.44179 74.1547 8.11112 73.504C7.79112 72.8533 7.63112 72.1013 7.63112 71.248C7.63112 70.3947 7.79646 69.6427 8.12712 68.992C8.45779 68.3413 8.92712 67.8347 9.53512 67.472C10.1538 67.0987 10.8845 66.912 11.7271 66.912C12.5591 66.912 13.2791 67.0933 13.8871 67.456C14.5058 67.8187 14.9751 68.3307 15.2951 68.992C15.6258 69.6427 15.7911 70.3893 15.7911 71.232C15.7911 72.0853 15.6258 72.8427 15.2951 73.504C14.9645 74.1547 14.4898 74.6613 13.8711 75.024C13.2631 75.3867 12.5431 75.568 11.7111 75.568ZM9.26312 71.248C9.26312 72.144 9.47112 72.8747 9.88713 73.44C10.3031 73.9947 10.9165 74.272 11.7271 74.272C12.5271 74.272 13.1298 73.9947 13.5351 73.44C13.9511 72.8747 14.1591 72.144 14.1591 71.248C14.1591 70.352 13.9511 69.6267 13.5351 69.072C13.1298 68.5067 12.5271 68.224 11.7271 68.224C10.9165 68.224 10.3031 68.5013 9.88713 69.056C9.47112 69.6107 9.26312 70.3413 9.26312 71.248Z" fill="#C6C6C8"/>
<path d="M19.7016 75.552C18.507 75.552 17.5843 75.28 16.9336 74.736C16.2936 74.192 15.963 73.4827 15.9416 72.608H17.5256C17.5576 73.12 17.7443 73.5307 18.0856 73.84C18.4376 74.1387 18.971 74.288 19.6856 74.288C20.315 74.288 20.763 74.176 21.0296 73.952C21.2963 73.7173 21.4296 73.4293 21.4296 73.088C21.4296 72.768 21.3336 72.5227 21.1416 72.352C20.9496 72.1813 20.7416 72.0693 20.5176 72.016C20.3043 71.952 19.8936 71.856 19.2856 71.728C18.6563 71.5787 18.1336 71.424 17.7176 71.264C17.3016 71.104 16.9496 70.864 16.6616 70.544C16.3736 70.224 16.2296 69.8027 16.2296 69.28C16.2296 68.5653 16.5016 67.9947 17.0456 67.568C17.6003 67.1413 18.363 66.928 19.3336 66.928C20.4003 66.928 21.2216 67.1733 21.7976 67.664C22.3736 68.1547 22.6936 68.7787 22.7576 69.536H21.1736C21.099 69.1413 20.9283 68.8213 20.6616 68.576C20.4056 68.32 19.9736 68.192 19.3656 68.192C18.8536 68.192 18.475 68.2827 18.2296 68.464C17.9843 68.6453 17.8616 68.896 17.8616 69.216C17.8616 69.4507 17.931 69.6373 18.0696 69.776C18.2083 69.9147 18.3843 70.0213 18.5976 70.096C18.811 70.16 19.1256 70.2347 19.5416 70.32C19.627 70.3307 19.755 70.3573 19.9256 70.4C20.5763 70.5493 21.115 70.7093 21.5416 70.88C21.9683 71.0507 22.3256 71.3067 22.6136 71.648C22.9123 71.9893 23.0616 72.4427 23.0616 73.008C23.0616 73.808 22.7683 74.432 22.1816 74.88C21.595 75.328 20.7683 75.552 19.7016 75.552Z" fill="#C6C6C8"/>
<path d="M26.2524 75.424C25.527 75.424 24.983 75.248 24.6204 74.896C24.2684 74.544 24.0924 73.92 24.0924 73.024V68.464H22.9084V67.168H24.0924V64.544H25.6604V67.168H27.2284V68.464H25.6604V73.072C25.6604 73.488 25.7244 73.7707 25.8524 73.92C25.991 74.0587 26.231 74.128 26.5724 74.128C26.775 74.128 26.999 74.1067 27.2444 74.064V75.328C26.9244 75.392 26.5937 75.424 26.2524 75.424Z" fill="#C6C6C8"/>
<path d="M31.3693 75.568C30.5373 75.568 29.8119 75.3867 29.1933 75.024C28.5746 74.6613 28.0999 74.1547 27.7693 73.504C27.4493 72.8533 27.2893 72.1013 27.2893 71.248C27.2893 70.3947 27.4546 69.6427 27.7852 68.992C28.1159 68.3413 28.5853 67.8347 29.1933 67.472C29.8119 67.0987 30.5426 66.912 31.3853 66.912C32.2173 66.912 32.9372 67.0933 33.5452 67.456C34.1639 67.8187 34.6333 68.3307 34.9533 68.992C35.2839 69.6427 35.4493 70.3893 35.4493 71.232C35.4493 72.0853 35.2839 72.8427 34.9533 73.504C34.6226 74.1547 34.1479 74.6613 33.5293 75.024C32.9213 75.3867 32.2013 75.568 31.3693 75.568ZM28.9213 71.248C28.9213 72.144 29.1292 72.8747 29.5452 73.44C29.9612 73.9947 30.5746 74.272 31.3853 74.272C32.1853 74.272 32.7879 73.9947 33.1933 73.44C33.6093 72.8747 33.8172 72.144 33.8172 71.248C33.8172 70.352 33.6093 69.6267 33.1933 69.072C32.7879 68.5067 32.1853 68.224 31.3853 68.224C30.5746 68.224 29.9612 68.5013 29.5452 69.056C29.1292 69.6107 28.9213 70.3413 28.9213 71.248Z" fill="#C6C6C8"/>
<path d="M41.5837 70.096C41.5837 69.52 41.4451 69.072 41.1678 68.752C40.9011 68.432 40.4851 68.272 39.9198 68.272C39.2478 68.272 38.7091 68.4587 38.3037 68.832C37.9091 69.2053 37.7118 69.7013 37.7118 70.32V75.328H36.1437V67.168H37.7118V68.192H37.7437C37.9891 67.8293 38.3357 67.5307 38.7837 67.296C39.2317 67.0507 39.7811 66.928 40.4318 66.928C41.2318 66.928 41.8824 67.1627 42.3838 67.632C42.8958 68.0907 43.1517 68.768 43.1517 69.664V75.328H41.5837V70.096Z" fill="#C6C6C8"/>
<path d="M52.3506 70.096C52.3506 69.52 52.212 69.072 51.9346 68.752C51.668 68.432 51.252 68.272 50.6866 68.272C50.0146 68.272 49.476 68.4587 49.0706 68.832C48.676 69.2053 48.4786 69.7013 48.4786 70.32V75.328H46.9106V67.168H48.4786V68.192H48.5106C48.756 67.8293 49.1026 67.5307 49.5506 67.296C49.9986 67.0507 50.548 66.928 51.1986 66.928C51.9986 66.928 52.6493 67.1627 53.1506 67.632C53.6626 68.0907 53.9186 68.768 53.9186 69.664V75.328H52.3506V70.096Z" fill="#C6C6C8"/>
<path d="M58.5898 75.568C57.7471 75.568 57.0217 75.3813 56.4137 75.008C55.8057 74.6347 55.3418 74.1227 55.0218 73.472C54.7124 72.8213 54.5578 72.0747 54.5578 71.232C54.5578 70.3787 54.7178 69.6267 55.0378 68.976C55.3684 68.3253 55.8378 67.8187 56.4458 67.456C57.0538 67.0933 57.7684 66.912 58.5898 66.912C59.8164 66.912 60.7658 67.2853 61.4378 68.032C62.1204 68.7787 62.4618 69.792 62.4618 71.072C62.4618 71.3813 62.4564 71.5787 62.4458 71.664H56.1738C56.1951 72.4 56.4138 73.024 56.8298 73.536C57.2564 74.0373 57.8537 74.288 58.6217 74.288C59.2617 74.288 59.7524 74.1333 60.0938 73.824C60.4457 73.5147 60.6698 73.1787 60.7658 72.816H62.3658C62.1311 73.648 61.6991 74.3147 61.0698 74.816C60.4404 75.3173 59.6138 75.568 58.5898 75.568ZM60.8298 70.432C60.8298 69.7813 60.6164 69.248 60.1898 68.832C59.7738 68.4053 59.2244 68.192 58.5418 68.192C57.8804 68.192 57.3311 68.4 56.8938 68.816C56.4564 69.2213 56.2164 69.76 56.1738 70.432H60.8298Z" fill="#C6C6C8"/>
<path d="M66.3942 75.552C65.7009 75.552 65.0769 75.3813 64.5223 75.04C63.9676 74.688 63.5303 74.1867 63.2103 73.536C62.8903 72.8853 62.7303 72.1227 62.7303 71.248C62.7303 70.3733 62.8903 69.6107 63.2103 68.96C63.5303 68.3093 63.9676 67.808 64.5223 67.456C65.0769 67.104 65.7009 66.928 66.3942 66.928C66.9916 66.928 67.4929 67.0453 67.8983 67.28C68.3143 67.504 68.6503 67.7973 68.9062 68.16H68.9383V63.888H70.5063V75.328H68.9383V74.368H68.9062C68.6396 74.7093 68.2983 74.992 67.8823 75.216C67.4769 75.44 66.9809 75.552 66.3942 75.552ZM64.3623 71.248C64.3623 72.1013 64.5596 72.816 64.9543 73.392C65.3489 73.968 65.9143 74.256 66.6503 74.256C67.3543 74.256 67.9089 73.9893 68.3143 73.456C68.7196 72.912 68.9222 72.176 68.9222 71.248C68.9222 70.32 68.7196 69.5893 68.3143 69.056C67.9089 68.512 67.3543 68.24 66.6503 68.24C65.9143 68.24 65.3489 68.528 64.9543 69.104C64.5596 69.68 64.3623 70.3947 64.3623 71.248Z" fill="#C6C6C8"/>
<path d="M73.7207 63.888H75.2087L75.0167 67.888H73.9128L73.7207 63.888Z" fill="#C6C6C8"/>
<path d="M75.3809 67.168H77.0769L78.8049 73.488H78.8369L80.5329 67.168H82.1169L83.8129 73.488H83.8449L85.5889 67.168H87.2209L84.6929 75.328H83.0769L81.3169 69.04H81.2849L79.5249 75.328H77.9089L75.3809 67.168Z" fill="#C6C6C8"/>
<path d="M87.6019 67.168H89.1699V75.328H87.6019V67.168ZM87.5059 64.016H89.2819V65.712H87.5059V64.016Z" fill="#C6C6C8"/>
<path d="M90.29 63.888H91.858V75.328H90.29V63.888Z" fill="#C6C6C8"/>
<path d="M92.9781 67.168H94.5461V75.328H92.9781V67.168ZM92.8821 64.016H94.6581V65.712H92.8821V64.016Z" fill="#C6C6C8"/>
<path d="M98.3543 75.424C97.6289 75.424 97.0849 75.248 96.7223 74.896C96.3703 74.544 96.1943 73.92 96.1943 73.024V68.464H95.0103V67.168H96.1943V64.544H97.7623V67.168H99.3303V68.464H97.7623V73.072C97.7623 73.488 97.8263 73.7707 97.9543 73.92C98.0929 74.0587 98.3329 74.128 98.6743 74.128C98.8769 74.128 99.1009 74.1067 99.3463 74.064V75.328C99.0263 75.392 98.6956 75.424 98.3543 75.424Z" fill="#C6C6C8"/>
<path d="M105.435 70.096C105.435 69.52 105.296 69.072 105.019 68.752C104.752 68.432 104.336 68.272 103.771 68.272C103.099 68.272 102.56 68.4587 102.155 68.832C101.76 69.2053 101.563 69.7013 101.563 70.32V75.328H99.995V63.888H101.563V68.192H101.595C101.84 67.8293 102.187 67.5307 102.635 67.296C103.083 67.0507 103.632 66.928 104.283 66.928C105.083 66.928 105.734 67.1627 106.235 67.632C106.747 68.0907 107.003 68.768 107.003 69.664V75.328H105.435V70.096Z" fill="#C6C6C8"/>
<path d="M107.898 73.584H109.642V75.328H107.898V73.584Z" fill="#C6C6C8"/>
</svg>
