<svg width="403" height="79" viewBox="0 0 403 79" fill="none" xmlns="http://www.w3.org/2000/svg">
<path d="M2.048 0.448H6.08L16.704 18.048H16.768V0.448H20.32V23.328H16.288L5.632 5.728H5.568V23.328H2.048V0.448Z" fill="#C6C6C8"/>
<path d="M21.5325 0.448H25.4045L31.4845 19.616H31.5165L37.5645 0.448H41.2765L33.4045 23.328H29.5965L21.5325 0.448Z" fill="#C6C6C8"/>
<path d="M50.954 23.776C48.7993 23.776 46.9433 23.2747 45.386 22.272C43.85 21.248 42.6767 19.84 41.866 18.048C41.0553 16.256 40.65 14.1973 40.65 11.872C40.65 9.58933 41.0873 7.552 41.962 5.76C42.858 3.94667 44.1167 2.53867 45.738 1.536C47.3593 0.512 49.2367 0 51.37 0C54.2073 0 56.4473 0.682667 58.09 2.048C59.754 3.41333 60.778 5.23733 61.162 7.52H57.482C57.1833 6.06933 56.5007 4.96 55.434 4.192C54.3887 3.424 53.0233 3.04 51.338 3.04C49.738 3.04 48.4153 3.46667 47.37 4.32C46.3247 5.152 45.5567 6.24 45.066 7.584C44.5753 8.90667 44.33 10.336 44.33 11.872C44.33 14.3893 44.8527 16.5013 45.898 18.208C46.9433 19.8933 48.6927 20.736 51.146 20.736C52.4047 20.736 53.546 20.4693 54.57 19.936C55.6153 19.3813 56.4367 18.6133 57.034 17.632C57.6527 16.6507 57.962 15.5413 57.962 14.304H51.21V11.36H61.546V23.328H59.114L58.25 20.16H58.186C57.354 21.376 56.362 22.2827 55.21 22.88C54.058 23.4773 52.6393 23.776 50.954 23.776Z" fill="#C6C6C8"/>
<path d="M71.4757 23.776C68.9584 23.776 66.9104 23.2 65.3317 22.048C63.7744 20.896 62.9958 19.2427 62.9958 17.088C62.9958 15.7013 63.3691 14.5813 64.1158 13.728C64.8838 12.8533 65.8864 12.1387 67.1237 11.584V11.52C65.0971 10.4533 64.0837 8.87467 64.0837 6.784C64.0837 4.928 64.7664 3.46667 66.1318 2.4C67.4971 1.312 69.2784 0.768 71.4757 0.768C73.6731 0.768 75.4544 1.30133 76.8197 2.368C78.2064 3.43467 78.8997 4.90667 78.8997 6.784C78.8997 8.85333 77.8864 10.432 75.8597 11.52V11.584C77.0971 12.1387 78.0891 12.8533 78.8358 13.728C79.6038 14.5813 79.9877 15.7013 79.9877 17.088C79.9877 19.2427 79.1984 20.896 77.6198 22.048C76.0411 23.2 73.9931 23.776 71.4757 23.776ZM66.5798 16.896C66.5798 18.1547 67.0064 19.136 67.8597 19.84C68.7344 20.544 69.9397 20.896 71.4757 20.896C73.0117 20.896 74.2064 20.544 75.0598 19.84C75.9344 19.136 76.3717 18.1547 76.3717 16.896C76.3717 15.6587 75.9344 14.6987 75.0598 14.016C74.2064 13.312 73.0117 12.96 71.4757 12.96C69.9397 12.96 68.7344 13.312 67.8597 14.016C67.0064 14.6987 66.5798 15.6587 66.5798 16.896ZM67.5397 6.912C67.5397 8 67.8811 8.82133 68.5638 9.376C69.2464 9.93067 70.2171 10.208 71.4757 10.208C72.7557 10.208 73.7371 9.94133 74.4197 9.408C75.1024 8.85333 75.4437 8.02133 75.4437 6.912C75.4437 5.824 75.0917 5.00267 74.3877 4.448C73.7051 3.872 72.7344 3.584 71.4757 3.584C70.2171 3.584 69.2464 3.872 68.5638 4.448C67.8811 5.00267 67.5397 5.824 67.5397 6.912Z" fill="#C6C6C8"/>
<path d="M86.6888 13.696H95.2647V16.672H86.6888V13.696Z" fill="#C6C6C8"/>
<path d="M112.562 23.776C110.429 23.776 108.552 23.2747 106.93 22.272C105.33 21.248 104.082 19.84 103.186 18.048C102.312 16.2347 101.874 14.1867 101.874 11.904C101.874 9.62133 102.312 7.57333 103.186 5.76C104.082 3.94667 105.341 2.53867 106.962 1.536C108.584 0.512 110.461 0 112.594 0C114.45 0 116.082 0.362666 117.49 1.088C118.92 1.81333 120.05 2.79467 120.882 4.032C121.714 5.26933 122.226 6.66667 122.418 8.224H118.738C118.482 6.79467 117.874 5.57867 116.914 4.576C115.954 3.552 114.493 3.04 112.53 3.04C110.162 3.04 108.402 3.88267 107.25 5.568C106.12 7.25333 105.554 9.35467 105.554 11.872C105.554 14.4107 106.12 16.5227 107.25 18.208C108.402 19.8933 110.162 20.736 112.53 20.736C114.557 20.736 116.061 20.192 117.042 19.104C118.045 17.9947 118.61 16.6293 118.738 15.008H122.418C122.248 16.7147 121.746 18.2293 120.914 19.552C120.082 20.8747 118.952 21.9093 117.522 22.656C116.093 23.4027 114.44 23.776 112.562 23.776Z" fill="#C6C6C8"/>
<path d="M131.029 23.808C129.365 23.808 127.915 23.4453 126.678 22.72C125.44 21.9947 124.491 20.9813 123.83 19.68C123.19 18.3787 122.869 16.8747 122.869 15.168C122.869 13.4613 123.2 11.9573 123.862 10.656C124.523 9.35467 125.462 8.34133 126.678 7.616C127.915 6.86933 129.376 6.496 131.062 6.496C132.726 6.496 134.166 6.85867 135.382 7.584C136.619 8.30933 137.558 9.33333 138.198 10.656C138.859 11.9573 139.189 13.4507 139.189 15.136C139.189 16.8427 138.859 18.3573 138.198 19.68C137.536 20.9813 136.587 21.9947 135.35 22.72C134.134 23.4453 132.693 23.808 131.029 23.808ZM126.133 15.168C126.133 16.96 126.55 18.4213 127.382 19.552C128.214 20.6613 129.44 21.216 131.062 21.216C132.662 21.216 133.867 20.6613 134.678 19.552C135.51 18.4213 135.926 16.96 135.926 15.168C135.926 13.376 135.51 11.9253 134.678 10.816C133.867 9.68533 132.662 9.12 131.062 9.12C129.44 9.12 128.214 9.67467 127.382 10.784C126.55 11.8933 126.133 13.3547 126.133 15.168Z" fill="#C6C6C8"/>
<path d="M150.37 12.864C150.37 11.648 150.168 10.7413 149.762 10.144C149.378 9.52533 148.632 9.216 147.522 9.216C146.37 9.216 145.442 9.58933 144.738 10.336C144.056 11.0827 143.714 12.0747 143.714 13.312V23.328H140.578V7.008H143.714V9.056H143.778C144.29 8.33067 144.941 7.73333 145.73 7.264C146.52 6.77333 147.48 6.528 148.61 6.528C150.829 6.528 152.269 7.47733 152.93 9.376H152.994C154.424 7.47733 156.205 6.528 158.339 6.528C159.96 6.528 161.186 6.99733 162.018 7.936C162.872 8.87467 163.298 10.2293 163.298 12V23.328H160.162V12.864C160.162 11.648 159.96 10.7413 159.554 10.144C159.17 9.52533 158.424 9.216 157.314 9.216C156.162 9.216 155.235 9.58933 154.531 10.336C153.848 11.0827 153.507 12.0747 153.507 13.312V23.328H150.37V12.864Z" fill="#C6C6C8"/>
<path d="M165.455 7.008H168.591V23.328H165.455V7.008ZM165.263 0.704H168.815V4.096H165.263V0.704Z" fill="#C6C6C8"/>
<path d="M181.711 12.864C181.711 11.712 181.434 10.816 180.879 10.176C180.346 9.536 179.514 9.216 178.383 9.216C177.039 9.216 175.962 9.58933 175.151 10.336C174.362 11.0827 173.967 12.0747 173.967 13.312V23.328H170.831V7.008H173.967V9.056H174.031C174.522 8.33067 175.215 7.73333 176.111 7.264C177.007 6.77333 178.106 6.528 179.407 6.528C181.007 6.528 182.308 6.99733 183.311 7.936C184.335 8.85333 184.847 10.208 184.847 12V23.328H181.711V12.864Z" fill="#C6C6C8"/>
<path d="M193.965 29.184C191.725 29.184 189.987 28.704 188.749 27.744C187.512 26.8053 186.808 25.5573 186.637 24H189.901C190.285 25.7493 191.64 26.624 193.965 26.624C195.48 26.624 196.611 26.272 197.357 25.568C198.104 24.864 198.477 23.7547 198.477 22.24V20.032H198.413C197.283 21.6747 195.608 22.496 193.389 22.496C192.024 22.496 190.797 22.1973 189.709 21.6C188.621 20.9813 187.757 20.0747 187.117 18.88C186.499 17.664 186.189 16.2133 186.189 14.528C186.189 12.8213 186.499 11.3707 187.117 10.176C187.757 8.98133 188.611 8.07467 189.677 7.456C190.765 6.83733 192.003 6.528 193.389 6.528C195.501 6.528 197.176 7.328 198.413 8.928H198.477V7.008H201.613V22.048C201.613 24.4373 200.941 26.2187 199.597 27.392C198.253 28.5867 196.376 29.184 193.965 29.184ZM189.453 14.528C189.453 16.128 189.837 17.4293 190.605 18.432C191.373 19.4133 192.493 19.904 193.965 19.904C195.395 19.904 196.493 19.4453 197.261 18.528C198.051 17.6107 198.445 16.2773 198.445 14.528C198.445 12.7573 198.051 11.424 197.261 10.528C196.493 9.61067 195.395 9.152 193.965 9.152C192.493 9.152 191.373 9.65333 190.605 10.656C189.837 11.6373 189.453 12.928 189.453 14.528Z" fill="#C6C6C8"/>
<path d="M218.361 23.776C216.42 23.776 214.702 23.456 213.209 22.816C211.716 22.1547 210.532 21.216 209.657 20C208.804 18.7627 208.334 17.3013 208.249 15.616H211.897C212.025 17.2373 212.601 18.5067 213.625 19.424C214.67 20.32 216.217 20.768 218.265 20.768C221.465 20.768 223.065 19.5413 223.065 17.088C223.065 16.1707 222.83 15.456 222.361 14.944C221.913 14.432 221.305 14.048 220.537 13.792C219.79 13.536 218.5 13.1733 216.665 12.704C215.086 12.2773 213.785 11.8507 212.761 11.424C211.758 10.9973 210.905 10.368 210.201 9.536C209.497 8.68267 209.145 7.584 209.145 6.24C209.145 4.27733 209.86 2.752 211.289 1.664C212.718 0.554667 214.67 0 217.145 0C219.769 0 221.87 0.64 223.449 1.92C225.049 3.2 225.934 4.98133 226.105 7.264H222.457C222.265 5.856 221.742 4.8 220.889 4.096C220.036 3.37067 218.798 3.008 217.177 3.008C215.748 3.008 214.66 3.264 213.913 3.776C213.188 4.288 212.825 5.04533 212.825 6.048C212.825 6.85867 213.049 7.49867 213.497 7.968C213.945 8.43733 214.51 8.8 215.193 9.056C215.876 9.29067 216.868 9.568 218.169 9.888C220.11 10.3787 221.646 10.848 222.777 11.296C223.908 11.744 224.846 12.416 225.593 13.312C226.361 14.1867 226.745 15.3813 226.745 16.896C226.745 18.9653 226.03 20.6293 224.601 21.888C223.193 23.1467 221.113 23.776 218.361 23.776Z" fill="#C6C6C8"/>
<path d="M235.413 23.808C233.749 23.808 232.299 23.4453 231.061 22.72C229.824 21.9947 228.875 20.9813 228.213 19.68C227.573 18.3787 227.253 16.8747 227.253 15.168C227.253 13.4613 227.584 11.9573 228.245 10.656C228.907 9.35467 229.845 8.34133 231.061 7.616C232.299 6.86933 233.76 6.496 235.445 6.496C237.109 6.496 238.549 6.85867 239.765 7.584C241.003 8.30933 241.941 9.33333 242.581 10.656C243.243 11.9573 243.573 13.4507 243.573 15.136C243.573 16.8427 243.243 18.3573 242.581 19.68C241.92 20.9813 240.971 21.9947 239.733 22.72C238.517 23.4453 237.077 23.808 235.413 23.808ZM230.517 15.168C230.517 16.96 230.933 18.4213 231.765 19.552C232.597 20.6613 233.824 21.216 235.445 21.216C237.045 21.216 238.251 20.6613 239.061 19.552C239.893 18.4213 240.309 16.96 240.309 15.168C240.309 13.376 239.893 11.9253 239.061 10.816C238.251 9.68533 237.045 9.12 235.445 9.12C233.824 9.12 232.597 9.67467 231.765 10.784C230.933 11.8933 230.517 13.3547 230.517 15.168Z" fill="#C6C6C8"/>
<path d="M252.258 23.808C250.594 23.808 249.144 23.4453 247.906 22.72C246.669 21.9947 245.72 20.9813 245.058 19.68C244.418 18.3787 244.098 16.8747 244.098 15.168C244.098 13.4613 244.429 11.9573 245.09 10.656C245.752 9.35467 246.69 8.34133 247.906 7.616C249.144 6.86933 250.605 6.496 252.29 6.496C253.954 6.496 255.394 6.85867 256.61 7.584C257.848 8.30933 258.786 9.33333 259.426 10.656C260.088 11.9573 260.418 13.4507 260.418 15.136C260.418 16.8427 260.088 18.3573 259.426 19.68C258.765 20.9813 257.816 21.9947 256.578 22.72C255.362 23.4453 253.922 23.808 252.258 23.808ZM247.362 15.168C247.362 16.96 247.778 18.4213 248.61 19.552C249.442 20.6613 250.669 21.216 252.29 21.216C253.89 21.216 255.096 20.6613 255.906 19.552C256.738 18.4213 257.154 16.96 257.154 15.168C257.154 13.376 256.738 11.9253 255.906 10.816C255.096 9.68533 253.89 9.12 252.29 9.12C250.669 9.12 249.442 9.67467 248.61 10.784C247.778 11.8933 247.362 13.3547 247.362 15.168Z" fill="#C6C6C8"/>
<path d="M272.687 12.864C272.687 11.712 272.41 10.816 271.855 10.176C271.322 9.536 270.49 9.216 269.359 9.216C268.015 9.216 266.938 9.58933 266.127 10.336C265.338 11.0827 264.943 12.0747 264.943 13.312V23.328H261.807V7.008H264.943V9.056H265.007C265.498 8.33067 266.191 7.73333 267.087 7.264C267.983 6.77333 269.082 6.528 270.383 6.528C271.983 6.528 273.285 6.99733 274.287 7.936C275.311 8.85333 275.823 10.208 275.823 12V23.328H272.687V12.864Z" fill="#C6C6C8"/>
<path d="M0 44.888H1.84L3.856 53.896H3.888L6.256 44.888H8.112L10.496 53.896H10.528L12.544 44.888H14.384L11.52 56.328H9.632L7.2 47.128H7.168L4.752 56.328H2.848L0 44.888Z" fill="#C6C6C8"/>
<path d="M17.7726 56.568C16.93 56.568 16.2046 56.3813 15.5966 56.008C14.9886 55.6347 14.5246 55.1227 14.2046 54.472C13.8953 53.8213 13.7406 53.0747 13.7406 52.232C13.7406 51.3787 13.9006 50.6267 14.2206 49.976C14.5513 49.3253 15.0206 48.8187 15.6286 48.456C16.2366 48.0933 16.9513 47.912 17.7726 47.912C18.9993 47.912 19.9486 48.2853 20.6206 49.032C21.3033 49.7787 21.6446 50.792 21.6446 52.072C21.6446 52.3813 21.6393 52.5787 21.6286 52.664H15.3566C15.378 53.4 15.5966 54.024 16.0126 54.536C16.4393 55.0373 17.0366 55.288 17.8046 55.288C18.4446 55.288 18.9353 55.1333 19.2766 54.824C19.6286 54.5147 19.8526 54.1787 19.9486 53.816H21.5486C21.314 54.648 20.882 55.3147 20.2526 55.816C19.6233 56.3173 18.7966 56.568 17.7726 56.568ZM20.0126 51.432C20.0126 50.7813 19.7993 50.248 19.3726 49.832C18.9566 49.4053 18.4073 49.192 17.7246 49.192C17.0633 49.192 16.514 49.4 16.0766 49.816C15.6393 50.2213 15.3993 50.76 15.3566 51.432H20.0126Z" fill="#C6C6C8"/>
<path d="M21.5445 47.944C21.8538 47.848 22.0725 47.7093 22.2005 47.528C22.3285 47.336 22.3872 47.0373 22.3765 46.632H21.5445V44.888H23.2885V46.632C23.2885 47.7947 22.7072 48.52 21.5445 48.808V47.944Z" fill="#C6C6C8"/>
<path d="M25.3978 56.328H23.8298V48.168H25.3978V49.72H25.4298C25.9204 48.5573 26.6511 47.976 27.6217 47.976C27.8884 47.976 28.1391 47.992 28.3738 48.024V49.528C28.1818 49.496 28.0058 49.48 27.8458 49.48C27.1311 49.48 26.5444 49.7253 26.0858 50.216C25.6271 50.7067 25.3978 51.336 25.3978 52.104V56.328Z" fill="#C6C6C8"/>
<path d="M32.0245 56.568C31.1818 56.568 30.4565 56.3813 29.8485 56.008C29.2405 55.6347 28.7765 55.1227 28.4565 54.472C28.1472 53.8213 27.9925 53.0747 27.9925 52.232C27.9925 51.3787 28.1525 50.6267 28.4725 49.976C28.8032 49.3253 29.2725 48.8187 29.8805 48.456C30.4885 48.0933 31.2032 47.912 32.0245 47.912C33.2512 47.912 34.2005 48.2853 34.8725 49.032C35.5552 49.7787 35.8965 50.792 35.8965 52.072C35.8965 52.3813 35.8912 52.5787 35.8805 52.664H29.6085C29.6298 53.4 29.8485 54.024 30.2645 54.536C30.6912 55.0373 31.2885 55.288 32.0565 55.288C32.6965 55.288 33.1872 55.1333 33.5285 54.824C33.8805 54.5147 34.1045 54.1787 34.2005 53.816H35.8005C35.5658 54.648 35.1338 55.3147 34.5045 55.816C33.8752 56.3173 33.0485 56.568 32.0245 56.568ZM34.2645 51.432C34.2645 50.7813 34.0512 50.248 33.6245 49.832C33.2085 49.4053 32.6592 49.192 31.9765 49.192C31.3152 49.192 30.7658 49.4 30.3285 49.816C29.8912 50.2213 29.6512 50.76 29.6085 51.432H34.2645Z" fill="#C6C6C8"/>
<path d="M43.3968 56.552C42.7994 56.552 42.2928 56.44 41.8768 56.216C41.4608 55.9813 41.1301 55.6827 40.8848 55.32H40.8527V56.328H39.2847V44.888H40.8527V49.128H40.8848C41.5034 48.328 42.3408 47.928 43.3968 47.928C44.0901 47.928 44.7141 48.104 45.2687 48.456C45.8234 48.808 46.2607 49.3093 46.5807 49.96C46.9007 50.6107 47.0607 51.3733 47.0607 52.248C47.0607 53.1227 46.9007 53.8853 46.5807 54.536C46.2607 55.1867 45.8234 55.688 45.2687 56.04C44.7141 56.3813 44.0901 56.552 43.3968 56.552ZM40.8688 52.248C40.8688 53.176 41.0714 53.912 41.4767 54.456C41.8821 54.9893 42.4368 55.256 43.1408 55.256C43.8768 55.256 44.4368 54.968 44.8208 54.392C45.2154 53.816 45.4128 53.1013 45.4128 52.248C45.4128 51.3947 45.2154 50.68 44.8208 50.104C44.4368 49.528 43.8768 49.24 43.1408 49.24C42.4368 49.24 41.8821 49.512 41.4767 50.056C41.0714 50.5893 40.8688 51.32 40.8688 52.248Z" fill="#C6C6C8"/>
<path d="M50.4258 56.552C49.6258 56.552 48.9698 56.3227 48.4578 55.864C47.9564 55.3947 47.7057 54.712 47.7057 53.816V48.168H49.2738V53.384C49.2738 53.96 49.4071 54.4133 49.6738 54.744C49.9511 55.064 50.3724 55.224 50.9378 55.224C51.6098 55.224 52.1431 55.0373 52.5378 54.664C52.9431 54.2907 53.1458 53.7947 53.1458 53.176V48.168H54.7137V56.328H53.1458V55.304H53.1138C52.8684 55.6667 52.5217 55.9653 52.0737 56.2C51.6257 56.4347 51.0764 56.552 50.4258 56.552Z" fill="#C6C6C8"/>
<path d="M55.8329 48.168H57.4009V56.328H55.8329V48.168ZM55.7369 45.016H57.5129V46.712H55.7369V45.016Z" fill="#C6C6C8"/>
<path d="M58.521 44.888H60.089V56.328H58.521V44.888Z" fill="#C6C6C8"/>
<path d="M64.4571 56.552C63.7638 56.552 63.1398 56.3813 62.5851 56.04C62.0305 55.688 61.5931 55.1867 61.2731 54.536C60.9531 53.8853 60.7931 53.1227 60.7931 52.248C60.7931 51.3733 60.9531 50.6107 61.2731 49.96C61.5931 49.3093 62.0305 48.808 62.5851 48.456C63.1398 48.104 63.7638 47.928 64.4571 47.928C65.0545 47.928 65.5558 48.0453 65.9611 48.28C66.3771 48.504 66.7131 48.7973 66.9691 49.16H67.0011V44.888H68.5691V56.328H67.0011V55.368H66.9691C66.7025 55.7093 66.3611 55.992 65.9451 56.216C65.5398 56.44 65.0438 56.552 64.4571 56.552ZM62.4251 52.248C62.4251 53.1013 62.6225 53.816 63.0171 54.392C63.4118 54.968 63.9771 55.256 64.7131 55.256C65.4171 55.256 65.9718 54.9893 66.3771 54.456C66.7825 53.912 66.9851 53.176 66.9851 52.248C66.9851 51.32 66.7825 50.5893 66.3771 50.056C65.9718 49.512 65.4171 49.24 64.7131 49.24C63.9771 49.24 63.4118 49.528 63.0171 50.104C62.6225 50.68 62.4251 51.3947 62.4251 52.248Z" fill="#C6C6C8"/>
<path d="M69.6941 48.168H71.2621V56.328H69.6941V48.168ZM69.5981 45.016H71.3741V46.712H69.5981V45.016Z" fill="#C6C6C8"/>
<path d="M77.8223 51.096C77.8223 50.52 77.6836 50.072 77.4062 49.752C77.1396 49.432 76.7236 49.272 76.1582 49.272C75.4862 49.272 74.9476 49.4587 74.5423 49.832C74.1476 50.2053 73.9502 50.7013 73.9502 51.32V56.328H72.3822V48.168H73.9502V49.192H73.9822C74.2276 48.8293 74.5742 48.5307 75.0222 48.296C75.4702 48.0507 76.0196 47.928 76.6702 47.928C77.4703 47.928 78.1209 48.1627 78.6223 48.632C79.1343 49.0907 79.3903 49.768 79.3903 50.664V56.328H77.8223V51.096Z" fill="#C6C6C8"/>
<path d="M83.9494 59.256C82.8294 59.256 81.96 59.016 81.3414 58.536C80.7227 58.0667 80.3707 57.4427 80.2854 56.664H81.9174C82.1094 57.5387 82.7867 57.976 83.9494 57.976C84.7067 57.976 85.272 57.8 85.6454 57.448C86.0187 57.096 86.2054 56.5413 86.2054 55.784V54.68H86.1734C85.608 55.5013 84.7707 55.912 83.6614 55.912C82.9787 55.912 82.3654 55.7627 81.8214 55.464C81.2774 55.1547 80.8454 54.7013 80.5254 54.104C80.216 53.496 80.0614 52.7707 80.0614 51.928C80.0614 51.0747 80.216 50.3493 80.5254 49.752C80.8454 49.1547 81.272 48.7013 81.8054 48.392C82.3494 48.0827 82.968 47.928 83.6614 47.928C84.7174 47.928 85.5547 48.328 86.1734 49.128H86.2054V48.168H87.7734V55.688C87.7734 56.8827 87.4374 57.7733 86.7654 58.36C86.0934 58.9573 85.1547 59.256 83.9494 59.256ZM81.6934 51.928C81.6934 52.728 81.8854 53.3787 82.2694 53.88C82.6534 54.3707 83.2134 54.616 83.9494 54.616C84.664 54.616 85.2134 54.3867 85.5974 53.928C85.992 53.4693 86.1894 52.8027 86.1894 51.928C86.1894 51.0427 85.992 50.376 85.5974 49.928C85.2134 49.4693 84.664 49.24 83.9494 49.24C83.2134 49.24 82.6534 49.4907 82.2694 49.992C81.8854 50.4827 81.6934 51.128 81.6934 51.928Z" fill="#C6C6C8"/>
<path d="M93.8433 56.552C93.0326 56.552 92.3819 56.3387 91.8913 55.912C91.4113 55.4853 91.1712 54.92 91.1712 54.216C91.1712 53.6293 91.3046 53.16 91.5713 52.808C91.8486 52.4453 92.2273 52.168 92.7073 51.976C93.1979 51.7733 93.8219 51.6027 94.5793 51.464C95.1019 51.368 95.4966 51.2827 95.7633 51.208C96.0299 51.1227 96.2433 51.0107 96.4033 50.872C96.5633 50.7227 96.6432 50.52 96.6432 50.264C96.6432 49.5387 96.1259 49.176 95.0913 49.176C94.3979 49.176 93.9126 49.2933 93.6353 49.528C93.3579 49.7627 93.1979 50.1573 93.1553 50.712H91.5553C91.5979 49.8693 91.9126 49.192 92.4993 48.68C93.0859 48.168 93.9713 47.912 95.1553 47.912C96.0726 47.912 96.8033 48.136 97.3473 48.584C97.9019 49.0213 98.1793 49.736 98.1793 50.728V54.472C98.1793 54.7813 98.2059 55.0107 98.2593 55.16C98.3126 55.2987 98.4139 55.368 98.5633 55.368L98.7552 55.352V56.312C98.4886 56.376 98.2219 56.408 97.9553 56.408C97.5499 56.408 97.2406 56.3173 97.0273 56.136C96.8246 55.944 96.7019 55.624 96.6592 55.176H96.6273C96.3606 55.6133 95.9926 55.9547 95.5233 56.2C95.0539 56.4347 94.4939 56.552 93.8433 56.552ZM92.8033 54.104C92.8033 54.8933 93.2673 55.288 94.1953 55.288C94.9313 55.288 95.5233 55.1067 95.9713 54.744C96.4193 54.3707 96.6432 53.8373 96.6432 53.144V51.976C96.5259 52.0827 96.3179 52.184 96.0192 52.28C95.7312 52.3653 95.3419 52.4613 94.8512 52.568C94.1152 52.7173 93.5873 52.9093 93.2673 53.144C92.9579 53.368 92.8033 53.688 92.8033 54.104Z" fill="#C6C6C8"/>
<path d="M107.591 51.096C107.591 50.52 107.452 50.072 107.175 49.752C106.908 49.432 106.492 49.272 105.927 49.272C105.255 49.272 104.716 49.4587 104.311 49.832C103.916 50.2053 103.719 50.7013 103.719 51.32V56.328H102.151V48.168H103.719V49.192H103.751C103.996 48.8293 104.343 48.5307 104.791 48.296C105.239 48.0507 105.788 47.928 106.439 47.928C107.239 47.928 107.89 48.1627 108.391 48.632C108.903 49.0907 109.159 49.768 109.159 50.664V56.328H107.591V51.096Z" fill="#C6C6C8"/>
<path d="M113.83 56.568C112.987 56.568 112.262 56.3813 111.654 56.008C111.046 55.6347 110.582 55.1227 110.262 54.472C109.953 53.8213 109.798 53.0747 109.798 52.232C109.798 51.3787 109.958 50.6267 110.278 49.976C110.609 49.3253 111.078 48.8187 111.686 48.456C112.294 48.0933 113.009 47.912 113.83 47.912C115.057 47.912 116.006 48.2853 116.678 49.032C117.361 49.7787 117.702 50.792 117.702 52.072C117.702 52.3813 117.697 52.5787 117.686 52.664H111.414C111.435 53.4 111.654 54.024 112.07 54.536C112.497 55.0373 113.094 55.288 113.862 55.288C114.502 55.288 114.993 55.1333 115.334 54.824C115.686 54.5147 115.91 54.1787 116.006 53.816H117.606C117.371 54.648 116.939 55.3147 116.31 55.816C115.681 56.3173 114.854 56.568 113.83 56.568ZM116.07 51.432C116.07 50.7813 115.857 50.248 115.43 49.832C115.014 49.4053 114.465 49.192 113.782 49.192C113.121 49.192 112.571 49.4 112.134 49.816C111.697 50.2213 111.457 50.76 111.414 51.432H116.07Z" fill="#C6C6C8"/>
<path d="M120.06 52.152L117.26 48.168H119.052L121.004 51.08H121.036L122.956 48.168H124.748L121.948 52.152L125.052 56.328H123.212L121.004 53.208H120.972L118.812 56.328H116.988L120.06 52.152Z" fill="#C6C6C8"/>
<path d="M127.841 56.424C127.116 56.424 126.572 56.248 126.209 55.896C125.857 55.544 125.681 54.92 125.681 54.024V49.464H124.497V48.168H125.681V45.544H127.249V48.168H128.817V49.464H127.249V54.072C127.249 54.488 127.313 54.7707 127.441 54.92C127.58 55.0587 127.82 55.128 128.161 55.128C128.364 55.128 128.588 55.1067 128.833 55.064V56.328C128.513 56.392 128.182 56.424 127.841 56.424Z" fill="#C6C6C8"/>
<path d="M128.742 51.512H133.03V53H128.742V51.512Z" fill="#C6C6C8"/>
<path d="M137.439 59.256C136.319 59.256 135.45 59.016 134.831 58.536C134.213 58.0667 133.861 57.4427 133.775 56.664H135.407C135.599 57.5387 136.277 57.976 137.439 57.976C138.197 57.976 138.762 57.8 139.135 57.448C139.509 57.096 139.695 56.5413 139.695 55.784V54.68H139.663C139.098 55.5013 138.261 55.912 137.151 55.912C136.469 55.912 135.855 55.7627 135.311 55.464C134.767 55.1547 134.335 54.7013 134.015 54.104C133.706 53.496 133.551 52.7707 133.551 51.928C133.551 51.0747 133.706 50.3493 134.015 49.752C134.335 49.1547 134.762 48.7013 135.295 48.392C135.839 48.0827 136.458 47.928 137.151 47.928C138.207 47.928 139.045 48.328 139.663 49.128H139.695V48.168H141.263V55.688C141.263 56.8827 140.927 57.7733 140.255 58.36C139.583 58.9573 138.645 59.256 137.439 59.256ZM135.183 51.928C135.183 52.728 135.375 53.3787 135.759 53.88C136.143 54.3707 136.703 54.616 137.439 54.616C138.154 54.616 138.703 54.3867 139.087 53.928C139.482 53.4693 139.679 52.8027 139.679 51.928C139.679 51.0427 139.482 50.376 139.087 49.928C138.703 49.4693 138.154 49.24 137.439 49.24C136.703 49.24 136.143 49.4907 135.759 49.992C135.375 50.4827 135.183 51.128 135.183 51.928Z" fill="#C6C6C8"/>
<path d="M145.99 56.568C145.147 56.568 144.421 56.3813 143.813 56.008C143.205 55.6347 142.741 55.1227 142.421 54.472C142.112 53.8213 141.958 53.0747 141.958 52.232C141.958 51.3787 142.117 50.6267 142.438 49.976C142.768 49.3253 143.238 48.8187 143.846 48.456C144.454 48.0933 145.168 47.912 145.99 47.912C147.216 47.912 148.165 48.2853 148.837 49.032C149.52 49.7787 149.861 50.792 149.861 52.072C149.861 52.3813 149.856 52.5787 149.846 52.664H143.574C143.595 53.4 143.813 54.024 144.229 54.536C144.656 55.0373 145.253 55.288 146.021 55.288C146.661 55.288 147.152 55.1333 147.493 54.824C147.845 54.5147 148.069 54.1787 148.165 53.816H149.766C149.531 54.648 149.099 55.3147 148.469 55.816C147.84 56.3173 147.014 56.568 145.99 56.568ZM148.229 51.432C148.229 50.7813 148.016 50.248 147.589 49.832C147.173 49.4053 146.624 49.192 145.941 49.192C145.28 49.192 144.731 49.4 144.294 49.816C143.856 50.2213 143.616 50.76 143.574 51.432H148.229Z" fill="#C6C6C8"/>
<path d="M155.986 51.096C155.986 50.52 155.847 50.072 155.57 49.752C155.303 49.432 154.887 49.272 154.322 49.272C153.65 49.272 153.111 49.4587 152.706 49.832C152.311 50.2053 152.114 50.7013 152.114 51.32V56.328H150.546V48.168H152.114V49.192H152.146C152.391 48.8293 152.738 48.5307 153.186 48.296C153.634 48.0507 154.183 47.928 154.834 47.928C155.634 47.928 156.285 48.1627 156.786 48.632C157.298 49.0907 157.554 49.768 157.554 50.664V56.328H155.986V51.096Z" fill="#C6C6C8"/>
<path d="M162.225 56.568C161.382 56.568 160.657 56.3813 160.049 56.008C159.441 55.6347 158.977 55.1227 158.657 54.472C158.348 53.8213 158.193 53.0747 158.193 52.232C158.193 51.3787 158.353 50.6267 158.673 49.976C159.004 49.3253 159.473 48.8187 160.081 48.456C160.689 48.0933 161.404 47.912 162.225 47.912C163.452 47.912 164.401 48.2853 165.073 49.032C165.756 49.7787 166.097 50.792 166.097 52.072C166.097 52.3813 166.092 52.5787 166.081 52.664H159.809C159.83 53.4 160.049 54.024 160.465 54.536C160.892 55.0373 161.489 55.288 162.257 55.288C162.897 55.288 163.388 55.1333 163.729 54.824C164.081 54.5147 164.305 54.1787 164.401 53.816H166.001C165.766 54.648 165.334 55.3147 164.705 55.816C164.076 56.3173 163.249 56.568 162.225 56.568ZM164.465 51.432C164.465 50.7813 164.252 50.248 163.825 49.832C163.409 49.4053 162.86 49.192 162.177 49.192C161.516 49.192 160.966 49.4 160.529 49.816C160.092 50.2213 159.852 50.76 159.809 51.432H164.465Z" fill="#C6C6C8"/>
<path d="M168.35 56.328H166.782V48.168H168.35V49.72H168.382C168.872 48.5573 169.603 47.976 170.574 47.976C170.84 47.976 171.091 47.992 171.326 48.024V49.528C171.134 49.496 170.958 49.48 170.798 49.48C170.083 49.48 169.496 49.7253 169.038 50.216C168.579 50.7067 168.35 51.336 168.35 52.104V56.328Z" fill="#C6C6C8"/>
<path d="M173.679 56.552C172.868 56.552 172.218 56.3387 171.727 55.912C171.247 55.4853 171.007 54.92 171.007 54.216C171.007 53.6293 171.14 53.16 171.407 52.808C171.684 52.4453 172.063 52.168 172.543 51.976C173.034 51.7733 173.658 51.6027 174.415 51.464C174.938 51.368 175.332 51.2827 175.599 51.208C175.866 51.1227 176.079 51.0107 176.239 50.872C176.399 50.7227 176.479 50.52 176.479 50.264C176.479 49.5387 175.962 49.176 174.927 49.176C174.234 49.176 173.748 49.2933 173.471 49.528C173.194 49.7627 173.034 50.1573 172.991 50.712H171.391C171.434 49.8693 171.748 49.192 172.335 48.68C172.922 48.168 173.807 47.912 174.991 47.912C175.908 47.912 176.639 48.136 177.183 48.584C177.738 49.0213 178.015 49.736 178.015 50.728V54.472C178.015 54.7813 178.042 55.0107 178.095 55.16C178.148 55.2987 178.25 55.368 178.399 55.368L178.591 55.352V56.312C178.324 56.376 178.058 56.408 177.791 56.408C177.386 56.408 177.076 56.3173 176.863 56.136C176.66 55.944 176.538 55.624 176.495 55.176H176.463C176.196 55.6133 175.828 55.9547 175.359 56.2C174.89 56.4347 174.33 56.552 173.679 56.552ZM172.639 54.104C172.639 54.8933 173.103 55.288 174.031 55.288C174.767 55.288 175.359 55.1067 175.807 54.744C176.255 54.3707 176.479 53.8373 176.479 53.144V51.976C176.362 52.0827 176.154 52.184 175.855 52.28C175.567 52.3653 175.178 52.4613 174.687 52.568C173.951 52.7173 173.423 52.9093 173.103 53.144C172.794 53.368 172.639 53.688 172.639 54.104Z" fill="#C6C6C8"/>
<path d="M181.815 56.424C181.089 56.424 180.545 56.248 180.183 55.896C179.831 55.544 179.655 54.92 179.655 54.024V49.464H178.471V48.168H179.655V45.544H181.223V48.168H182.791V49.464H181.223V54.072C181.223 54.488 181.287 54.7707 181.415 54.92C181.553 55.0587 181.793 55.128 182.135 55.128C182.337 55.128 182.561 55.1067 182.807 55.064V56.328C182.487 56.392 182.156 56.424 181.815 56.424Z" fill="#C6C6C8"/>
<path d="M183.455 48.168H185.023V56.328H183.455V48.168ZM183.359 45.016H185.135V46.712H183.359V45.016Z" fill="#C6C6C8"/>
<path d="M189.792 56.568C188.96 56.568 188.234 56.3867 187.616 56.024C186.997 55.6613 186.522 55.1547 186.191 54.504C185.871 53.8533 185.712 53.1013 185.712 52.248C185.712 51.3947 185.877 50.6427 186.208 49.992C186.538 49.3413 187.008 48.8347 187.616 48.472C188.234 48.0987 188.965 47.912 189.808 47.912C190.64 47.912 191.359 48.0933 191.967 48.456C192.586 48.8187 193.056 49.3307 193.376 49.992C193.706 50.6427 193.872 51.3893 193.872 52.232C193.872 53.0853 193.706 53.8427 193.376 54.504C193.045 55.1547 192.57 55.6613 191.952 56.024C191.344 56.3867 190.624 56.568 189.792 56.568ZM187.344 52.248C187.344 53.144 187.551 53.8747 187.967 54.44C188.383 54.9947 188.997 55.272 189.808 55.272C190.608 55.272 191.21 54.9947 191.616 54.44C192.032 53.8747 192.24 53.144 192.24 52.248C192.24 51.352 192.032 50.6267 191.616 50.072C191.21 49.5067 190.608 49.224 189.808 49.224C188.997 49.224 188.383 49.5013 187.967 50.056C187.551 50.6107 187.344 51.3413 187.344 52.248Z" fill="#C6C6C8"/>
<path d="M200.006 51.096C200.006 50.52 199.867 50.072 199.59 49.752C199.323 49.432 198.907 49.272 198.342 49.272C197.67 49.272 197.131 49.4587 196.726 49.832C196.331 50.2053 196.134 50.7013 196.134 51.32V56.328H194.566V48.168H196.134V49.192H196.166C196.411 48.8293 196.758 48.5307 197.206 48.296C197.654 48.0507 198.203 47.928 198.854 47.928C199.654 47.928 200.305 48.1627 200.806 48.632C201.318 49.0907 201.574 49.768 201.574 50.664V56.328H200.006V51.096Z" fill="#C6C6C8"/>
<path d="M207.589 56.552C206.778 56.552 206.128 56.3387 205.637 55.912C205.157 55.4853 204.917 54.92 204.917 54.216C204.917 53.6293 205.05 53.16 205.317 52.808C205.594 52.4453 205.973 52.168 206.453 51.976C206.944 51.7733 207.568 51.6027 208.325 51.464C208.848 51.368 209.242 51.2827 209.509 51.208C209.776 51.1227 209.989 51.0107 210.149 50.872C210.309 50.7227 210.389 50.52 210.389 50.264C210.389 49.5387 209.872 49.176 208.837 49.176C208.144 49.176 207.658 49.2933 207.381 49.528C207.104 49.7627 206.944 50.1573 206.901 50.712H205.301C205.344 49.8693 205.658 49.192 206.245 48.68C206.832 48.168 207.717 47.912 208.901 47.912C209.818 47.912 210.549 48.136 211.093 48.584C211.648 49.0213 211.925 49.736 211.925 50.728V54.472C211.925 54.7813 211.952 55.0107 212.005 55.16C212.058 55.2987 212.16 55.368 212.309 55.368L212.501 55.352V56.312C212.234 56.376 211.968 56.408 211.701 56.408C211.296 56.408 210.986 56.3173 210.773 56.136C210.57 55.944 210.448 55.624 210.405 55.176H210.373C210.106 55.6133 209.738 55.9547 209.269 56.2C208.8 56.4347 208.24 56.552 207.589 56.552ZM206.549 54.104C206.549 54.8933 207.013 55.288 207.941 55.288C208.677 55.288 209.269 55.1067 209.717 54.744C210.165 54.3707 210.389 53.8373 210.389 53.144V51.976C210.272 52.0827 210.064 52.184 209.765 52.28C209.477 52.3653 209.088 52.4613 208.597 52.568C207.861 52.7173 207.333 52.9093 207.013 53.144C206.704 53.368 206.549 53.688 206.549 54.104Z" fill="#C6C6C8"/>
<path d="M218.089 51.096C218.089 50.488 217.988 50.0347 217.785 49.736C217.593 49.4267 217.22 49.272 216.665 49.272C216.089 49.272 215.625 49.4587 215.273 49.832C214.932 50.2053 214.761 50.7013 214.761 51.32V56.328H213.193V48.168H214.761V49.192H214.793C215.049 48.8293 215.374 48.5307 215.769 48.296C216.164 48.0507 216.644 47.928 217.209 47.928C218.318 47.928 219.038 48.4027 219.369 49.352H219.401C220.116 48.4027 221.006 47.928 222.073 47.928C222.884 47.928 223.497 48.1627 223.913 48.632C224.34 49.1013 224.553 49.7787 224.553 50.664V56.328H222.985V51.096C222.985 50.488 222.884 50.0347 222.681 49.736C222.489 49.4267 222.116 49.272 221.561 49.272C220.985 49.272 220.521 49.4587 220.169 49.832C219.828 50.2053 219.657 50.7013 219.657 51.32V56.328H218.089V51.096Z" fill="#C6C6C8"/>
<path d="M229.743 56.552C229.146 56.552 228.639 56.44 228.223 56.216C227.807 55.9813 227.476 55.6827 227.231 55.32H227.199V59.16H225.631V48.168H227.199V49.128H227.231C227.85 48.328 228.687 47.928 229.743 47.928C230.436 47.928 231.06 48.104 231.615 48.456C232.17 48.808 232.607 49.3093 232.927 49.96C233.247 50.6107 233.407 51.3733 233.407 52.248C233.407 53.1227 233.247 53.8853 232.927 54.536C232.607 55.1867 232.17 55.688 231.615 56.04C231.06 56.3813 230.436 56.552 229.743 56.552ZM227.215 52.248C227.215 53.176 227.418 53.912 227.823 54.456C228.228 54.9893 228.783 55.256 229.487 55.256C230.223 55.256 230.783 54.968 231.167 54.392C231.562 53.816 231.759 53.1013 231.759 52.248C231.759 51.3947 231.562 50.68 231.167 50.104C230.783 49.528 230.223 49.24 229.487 49.24C228.783 49.24 228.228 49.512 227.823 50.056C227.418 50.5893 227.215 51.32 227.215 52.248Z" fill="#C6C6C8"/>
<path d="M239.556 51.096C239.556 50.52 239.417 50.072 239.14 49.752C238.873 49.432 238.457 49.272 237.892 49.272C237.22 49.272 236.681 49.4587 236.276 49.832C235.881 50.2053 235.684 50.7013 235.684 51.32V56.328H234.116V44.888H235.684V49.192H235.716C235.961 48.8293 236.308 48.5307 236.756 48.296C237.204 48.0507 237.753 47.928 238.404 47.928C239.204 47.928 239.855 48.1627 240.356 48.632C240.868 49.0907 241.124 49.768 241.124 50.664V56.328H239.556V51.096Z" fill="#C6C6C8"/>
<path d="M242.179 48.168H243.747V56.328H242.179V48.168ZM242.083 45.016H243.859V46.712H242.083V45.016Z" fill="#C6C6C8"/>
<path d="M248.979 56.552C248.382 56.552 247.875 56.44 247.459 56.216C247.043 55.9813 246.713 55.6827 246.467 55.32H246.435V56.328H244.867V44.888H246.435V49.128H246.467C247.086 48.328 247.923 47.928 248.979 47.928C249.673 47.928 250.297 48.104 250.851 48.456C251.406 48.808 251.843 49.3093 252.163 49.96C252.483 50.6107 252.643 51.3733 252.643 52.248C252.643 53.1227 252.483 53.8853 252.163 54.536C251.843 55.1867 251.406 55.688 250.851 56.04C250.297 56.3813 249.673 56.552 248.979 56.552ZM246.451 52.248C246.451 53.176 246.654 53.912 247.059 54.456C247.465 54.9893 248.019 55.256 248.723 55.256C249.459 55.256 250.019 54.968 250.403 54.392C250.798 53.816 250.995 53.1013 250.995 52.248C250.995 51.3947 250.798 50.68 250.403 50.104C250.019 49.528 249.459 49.24 248.723 49.24C248.019 49.24 247.465 49.512 247.059 50.056C246.654 50.5893 246.451 51.32 246.451 52.248Z" fill="#C6C6C8"/>
<path d="M253.352 48.168H254.92V56.328H253.352V48.168ZM253.256 45.016H255.032V46.712H253.256V45.016Z" fill="#C6C6C8"/>
<path d="M259.688 56.568C258.856 56.568 258.131 56.3867 257.512 56.024C256.894 55.6613 256.419 55.1547 256.088 54.504C255.768 53.8533 255.608 53.1013 255.608 52.248C255.608 51.3947 255.774 50.6427 256.104 49.992C256.435 49.3413 256.904 48.8347 257.512 48.472C258.131 48.0987 258.862 47.912 259.704 47.912C260.536 47.912 261.256 48.0933 261.864 48.456C262.483 48.8187 262.952 49.3307 263.272 49.992C263.603 50.6427 263.768 51.3893 263.768 52.232C263.768 53.0853 263.603 53.8427 263.272 54.504C262.942 55.1547 262.467 55.6613 261.848 56.024C261.24 56.3867 260.52 56.568 259.688 56.568ZM257.24 52.248C257.24 53.144 257.448 53.8747 257.864 54.44C258.28 54.9947 258.894 55.272 259.704 55.272C260.504 55.272 261.107 54.9947 261.512 54.44C261.928 53.8747 262.136 53.144 262.136 52.248C262.136 51.352 261.928 50.6267 261.512 50.072C261.107 49.5067 260.504 49.224 259.704 49.224C258.894 49.224 258.28 49.5013 257.864 50.056C257.448 50.6107 257.24 51.3413 257.24 52.248Z" fill="#C6C6C8"/>
<path d="M267.119 56.552C266.319 56.552 265.663 56.3227 265.151 55.864C264.65 55.3947 264.399 54.712 264.399 53.816V48.168H265.967V53.384C265.967 53.96 266.1 54.4133 266.367 54.744C266.644 55.064 267.066 55.224 267.631 55.224C268.303 55.224 268.836 55.0373 269.231 54.664C269.636 54.2907 269.839 53.7947 269.839 53.176V48.168H271.407V56.328H269.839V55.304H269.807C269.562 55.6667 269.215 55.9653 268.767 56.2C268.319 56.4347 267.77 56.552 267.119 56.552Z" fill="#C6C6C8"/>
<path d="M275.742 56.552C274.547 56.552 273.625 56.28 272.974 55.736C272.334 55.192 272.003 54.4827 271.982 53.608H273.566C273.598 54.12 273.785 54.5307 274.126 54.84C274.478 55.1387 275.011 55.288 275.726 55.288C276.355 55.288 276.803 55.176 277.07 54.952C277.337 54.7173 277.47 54.4293 277.47 54.088C277.47 53.768 277.374 53.5227 277.182 53.352C276.99 53.1813 276.782 53.0693 276.558 53.016C276.345 52.952 275.934 52.856 275.326 52.728C274.697 52.5787 274.174 52.424 273.758 52.264C273.342 52.104 272.99 51.864 272.702 51.544C272.414 51.224 272.27 50.8027 272.27 50.28C272.27 49.5653 272.542 48.9947 273.086 48.568C273.641 48.1413 274.403 47.928 275.374 47.928C276.441 47.928 277.262 48.1733 277.838 48.664C278.414 49.1547 278.734 49.7787 278.798 50.536H277.214C277.139 50.1413 276.969 49.8213 276.702 49.576C276.446 49.32 276.014 49.192 275.406 49.192C274.894 49.192 274.515 49.2827 274.27 49.464C274.025 49.6453 273.902 49.896 273.902 50.216C273.902 50.4507 273.971 50.6373 274.11 50.776C274.249 50.9147 274.425 51.0213 274.638 51.096C274.851 51.16 275.166 51.2347 275.582 51.32C275.667 51.3307 275.795 51.3573 275.966 51.4C276.617 51.5493 277.155 51.7093 277.582 51.88C278.009 52.0507 278.366 52.3067 278.654 52.648C278.953 52.9893 279.102 53.4427 279.102 54.008C279.102 54.808 278.809 55.432 278.222 55.88C277.635 56.328 276.809 56.552 275.742 56.552Z" fill="#C6C6C8"/>
<path d="M284.658 56.552C283.848 56.552 283.197 56.3387 282.706 55.912C282.226 55.4853 281.986 54.92 281.986 54.216C281.986 53.6293 282.12 53.16 282.386 52.808C282.664 52.4453 283.042 52.168 283.522 51.976C284.013 51.7733 284.637 51.6027 285.394 51.464C285.917 51.368 286.312 51.2827 286.578 51.208C286.845 51.1227 287.058 51.0107 287.218 50.872C287.378 50.7227 287.458 50.52 287.458 50.264C287.458 49.5387 286.941 49.176 285.906 49.176C285.213 49.176 284.728 49.2933 284.45 49.528C284.173 49.7627 284.013 50.1573 283.97 50.712H282.37C282.413 49.8693 282.728 49.192 283.314 48.68C283.901 48.168 284.786 47.912 285.97 47.912C286.888 47.912 287.618 48.136 288.162 48.584C288.717 49.0213 288.994 49.736 288.994 50.728V54.472C288.994 54.7813 289.021 55.0107 289.074 55.16C289.128 55.2987 289.229 55.368 289.378 55.368L289.57 55.352V56.312C289.304 56.376 289.037 56.408 288.77 56.408C288.365 56.408 288.056 56.3173 287.842 56.136C287.64 55.944 287.517 55.624 287.474 55.176H287.442C287.176 55.6133 286.808 55.9547 286.338 56.2C285.869 56.4347 285.309 56.552 284.658 56.552ZM283.618 54.104C283.618 54.8933 284.082 55.288 285.01 55.288C285.746 55.288 286.338 55.1067 286.786 54.744C287.234 54.3707 287.458 53.8373 287.458 53.144V51.976C287.341 52.0827 287.133 52.184 286.834 52.28C286.546 52.3653 286.157 52.4613 285.666 52.568C284.93 52.7173 284.402 52.9093 284.082 53.144C283.773 53.368 283.618 53.688 283.618 54.104Z" fill="#C6C6C8"/>
<path d="M292.918 56.552C292.118 56.552 291.462 56.3227 290.95 55.864C290.449 55.3947 290.198 54.712 290.198 53.816V48.168H291.766V53.384C291.766 53.96 291.9 54.4133 292.166 54.744C292.444 55.064 292.865 55.224 293.43 55.224C294.102 55.224 294.636 55.0373 295.03 54.664C295.436 54.2907 295.638 53.7947 295.638 53.176V48.168H297.206V56.328H295.638V55.304H295.606C295.361 55.6667 295.014 55.9653 294.566 56.2C294.118 56.4347 293.569 56.552 292.918 56.552Z" fill="#C6C6C8"/>
<path d="M301.013 56.424C300.288 56.424 299.744 56.248 299.381 55.896C299.029 55.544 298.853 54.92 298.853 54.024V49.464H297.669V48.168H298.853V45.544H300.421V48.168H301.989V49.464H300.421V54.072C300.421 54.488 300.485 54.7707 300.613 54.92C300.752 55.0587 300.992 55.128 301.333 55.128C301.536 55.128 301.76 55.1067 302.005 55.064V56.328C301.685 56.392 301.355 56.424 301.013 56.424Z" fill="#C6C6C8"/>
<path d="M306.13 56.568C305.298 56.568 304.573 56.3867 303.954 56.024C303.336 55.6613 302.861 55.1547 302.53 54.504C302.21 53.8533 302.05 53.1013 302.05 52.248C302.05 51.3947 302.216 50.6427 302.546 49.992C302.877 49.3413 303.346 48.8347 303.954 48.472C304.573 48.0987 305.304 47.912 306.146 47.912C306.978 47.912 307.698 48.0933 308.306 48.456C308.925 48.8187 309.394 49.3307 309.714 49.992C310.045 50.6427 310.21 51.3893 310.21 52.232C310.21 53.0853 310.045 53.8427 309.714 54.504C309.384 55.1547 308.909 55.6613 308.29 56.024C307.682 56.3867 306.962 56.568 306.13 56.568ZM303.682 52.248C303.682 53.144 303.89 53.8747 304.306 54.44C304.722 54.9947 305.336 55.272 306.146 55.272C306.946 55.272 307.549 54.9947 307.954 54.44C308.37 53.8747 308.578 53.144 308.578 52.248C308.578 51.352 308.37 50.6267 307.954 50.072C307.549 49.5067 306.946 49.224 306.146 49.224C305.336 49.224 304.722 49.5013 304.306 50.056C303.89 50.6107 303.682 51.3413 303.682 52.248Z" fill="#C6C6C8"/>
<path d="M316.345 51.096C316.345 50.52 316.206 50.072 315.929 49.752C315.662 49.432 315.246 49.272 314.681 49.272C314.009 49.272 313.47 49.4587 313.065 49.832C312.67 50.2053 312.473 50.7013 312.473 51.32V56.328H310.905V48.168H312.473V49.192H312.505C312.75 48.8293 313.097 48.5307 313.545 48.296C313.993 48.0507 314.542 47.928 315.193 47.928C315.993 47.928 316.643 48.1627 317.145 48.632C317.657 49.0907 317.913 49.768 317.913 50.664V56.328H316.345V51.096Z" fill="#C6C6C8"/>
<path d="M322.616 56.568C321.784 56.568 321.059 56.3867 320.44 56.024C319.821 55.6613 319.347 55.1547 319.016 54.504C318.696 53.8533 318.536 53.1013 318.536 52.248C318.536 51.3947 318.701 50.6427 319.032 49.992C319.363 49.3413 319.832 48.8347 320.44 48.472C321.059 48.0987 321.789 47.912 322.632 47.912C323.464 47.912 324.184 48.0933 324.792 48.456C325.411 48.8187 325.88 49.3307 326.2 49.992C326.531 50.6427 326.696 51.3893 326.696 52.232C326.696 53.0853 326.531 53.8427 326.2 54.504C325.869 55.1547 325.395 55.6613 324.776 56.024C324.168 56.3867 323.448 56.568 322.616 56.568ZM320.168 52.248C320.168 53.144 320.376 53.8747 320.792 54.44C321.208 54.9947 321.821 55.272 322.632 55.272C323.432 55.272 324.035 54.9947 324.44 54.44C324.856 53.8747 325.064 53.144 325.064 52.248C325.064 51.352 324.856 50.6267 324.44 50.072C324.035 49.5067 323.432 49.224 322.632 49.224C321.821 49.224 321.208 49.5013 320.792 50.056C320.376 50.6107 320.168 51.3413 320.168 52.248Z" fill="#C6C6C8"/>
<path d="M332.286 51.096C332.286 50.488 332.185 50.0347 331.982 49.736C331.79 49.4267 331.417 49.272 330.862 49.272C330.286 49.272 329.822 49.4587 329.47 49.832C329.129 50.2053 328.958 50.7013 328.958 51.32V56.328H327.39V48.168H328.958V49.192H328.99C329.246 48.8293 329.572 48.5307 329.966 48.296C330.361 48.0507 330.841 47.928 331.406 47.928C332.516 47.928 333.236 48.4027 333.566 49.352H333.598C334.313 48.4027 335.204 47.928 336.27 47.928C337.081 47.928 337.694 48.1627 338.11 48.632C338.537 49.1013 338.75 49.7787 338.75 50.664V56.328H337.182V51.096C337.182 50.488 337.081 50.0347 336.878 49.736C336.686 49.4267 336.313 49.272 335.758 49.272C335.182 49.272 334.718 49.4587 334.366 49.832C334.025 50.2053 333.854 50.7013 333.854 51.32V56.328H332.286V51.096Z" fill="#C6C6C8"/>
<path d="M343.477 56.568C342.645 56.568 341.919 56.3867 341.301 56.024C340.682 55.6613 340.207 55.1547 339.877 54.504C339.557 53.8533 339.397 53.1013 339.397 52.248C339.397 51.3947 339.562 50.6427 339.893 49.992C340.223 49.3413 340.693 48.8347 341.301 48.472C341.919 48.0987 342.65 47.912 343.493 47.912C344.325 47.912 345.045 48.0933 345.653 48.456C346.271 48.8187 346.741 49.3307 347.061 49.992C347.391 50.6427 347.557 51.3893 347.557 52.232C347.557 53.0853 347.391 53.8427 347.061 54.504C346.73 55.1547 346.255 55.6613 345.637 56.024C345.029 56.3867 344.309 56.568 343.477 56.568ZM341.029 52.248C341.029 53.144 341.237 53.8747 341.653 54.44C342.069 54.9947 342.682 55.272 343.493 55.272C344.293 55.272 344.895 54.9947 345.301 54.44C345.717 53.8747 345.925 53.144 345.925 52.248C345.925 51.352 345.717 50.6267 345.301 50.072C344.895 49.5067 344.293 49.224 343.493 49.224C342.682 49.224 342.069 49.5013 341.653 50.056C341.237 50.6107 341.029 51.3413 341.029 52.248Z" fill="#C6C6C8"/>
<path d="M350.907 56.552C350.107 56.552 349.451 56.3227 348.939 55.864C348.438 55.3947 348.187 54.712 348.187 53.816V48.168H349.755V53.384C349.755 53.96 349.888 54.4133 350.155 54.744C350.432 55.064 350.854 55.224 351.419 55.224C352.091 55.224 352.624 55.0373 353.019 54.664C353.424 54.2907 353.627 53.7947 353.627 53.176V48.168H355.195V56.328H353.627V55.304H353.595C353.35 55.6667 353.003 55.9653 352.555 56.2C352.107 56.4347 351.558 56.552 350.907 56.552Z" fill="#C6C6C8"/>
<path d="M359.53 56.552C358.335 56.552 357.413 56.28 356.762 55.736C356.122 55.192 355.791 54.4827 355.77 53.608H357.354C357.386 54.12 357.573 54.5307 357.914 54.84C358.266 55.1387 358.799 55.288 359.514 55.288C360.143 55.288 360.591 55.176 360.858 54.952C361.125 54.7173 361.258 54.4293 361.258 54.088C361.258 53.768 361.162 53.5227 360.97 53.352C360.778 53.1813 360.57 53.0693 360.346 53.016C360.133 52.952 359.722 52.856 359.114 52.728C358.485 52.5787 357.962 52.424 357.546 52.264C357.13 52.104 356.778 51.864 356.49 51.544C356.202 51.224 356.058 50.8027 356.058 50.28C356.058 49.5653 356.33 48.9947 356.874 48.568C357.429 48.1413 358.191 47.928 359.162 47.928C360.229 47.928 361.05 48.1733 361.626 48.664C362.202 49.1547 362.522 49.7787 362.586 50.536H361.002C360.927 50.1413 360.757 49.8213 360.49 49.576C360.234 49.32 359.802 49.192 359.194 49.192C358.682 49.192 358.303 49.2827 358.058 49.464C357.813 49.6453 357.69 49.896 357.69 50.216C357.69 50.4507 357.759 50.6373 357.898 50.776C358.037 50.9147 358.213 51.0213 358.426 51.096C358.639 51.16 358.954 51.2347 359.37 51.32C359.455 51.3307 359.583 51.3573 359.754 51.4C360.405 51.5493 360.943 51.7093 361.37 51.88C361.797 52.0507 362.154 52.3067 362.442 52.648C362.741 52.9893 362.89 53.4427 362.89 54.008C362.89 54.808 362.597 55.432 362.01 55.88C361.423 56.328 360.597 56.552 359.53 56.552Z" fill="#C6C6C8"/>
<path d="M369.774 56.568C368.974 56.568 368.27 56.3867 367.662 56.024C367.054 55.6613 366.585 55.1547 366.254 54.504C365.924 53.8427 365.758 53.0907 365.758 52.248C365.758 51.4053 365.924 50.6587 366.254 50.008C366.585 49.3467 367.049 48.8347 367.646 48.472C368.254 48.1093 368.958 47.928 369.758 47.928C370.441 47.928 371.049 48.0667 371.582 48.344C372.116 48.6107 372.542 48.9893 372.862 49.48C373.182 49.96 373.374 50.5093 373.438 51.128H371.822C371.769 50.616 371.582 50.1733 371.262 49.8C370.942 49.416 370.446 49.224 369.774 49.224C368.964 49.224 368.361 49.5173 367.966 50.104C367.582 50.68 367.39 51.3947 367.39 52.248C367.39 53.1013 367.582 53.816 367.966 54.392C368.361 54.968 368.964 55.256 369.774 55.256C370.457 55.256 370.958 55.0693 371.278 54.696C371.598 54.3227 371.78 53.8587 371.822 53.304H373.438C373.406 53.9227 373.23 54.4827 372.91 54.984C372.59 55.4747 372.158 55.864 371.614 56.152C371.07 56.4293 370.457 56.568 369.774 56.568Z" fill="#C6C6C8"/>
<path d="M376.306 56.552C375.496 56.552 374.845 56.3387 374.354 55.912C373.874 55.4853 373.634 54.92 373.634 54.216C373.634 53.6293 373.768 53.16 374.034 52.808C374.312 52.4453 374.69 52.168 375.17 51.976C375.661 51.7733 376.285 51.6027 377.042 51.464C377.565 51.368 377.96 51.2827 378.226 51.208C378.493 51.1227 378.706 51.0107 378.866 50.872C379.026 50.7227 379.106 50.52 379.106 50.264C379.106 49.5387 378.589 49.176 377.554 49.176C376.861 49.176 376.376 49.2933 376.098 49.528C375.821 49.7627 375.661 50.1573 375.618 50.712H374.018C374.061 49.8693 374.376 49.192 374.962 48.68C375.549 48.168 376.434 47.912 377.618 47.912C378.536 47.912 379.266 48.136 379.81 48.584C380.365 49.0213 380.642 49.736 380.642 50.728V54.472C380.642 54.7813 380.669 55.0107 380.722 55.16C380.776 55.2987 380.877 55.368 381.026 55.368L381.218 55.352V56.312C380.952 56.376 380.685 56.408 380.418 56.408C380.013 56.408 379.704 56.3173 379.49 56.136C379.288 55.944 379.165 55.624 379.122 55.176H379.09C378.824 55.6133 378.456 55.9547 377.986 56.2C377.517 56.4347 376.957 56.552 376.306 56.552ZM375.266 54.104C375.266 54.8933 375.73 55.288 376.658 55.288C377.394 55.288 377.986 55.1067 378.434 54.744C378.882 54.3707 379.106 53.8373 379.106 53.144V51.976C378.989 52.0827 378.781 52.184 378.482 52.28C378.194 52.3653 377.805 52.4613 377.314 52.568C376.578 52.7173 376.05 52.9093 375.73 53.144C375.421 53.368 375.266 53.688 375.266 54.104Z" fill="#C6C6C8"/>
<path d="M383.478 56.328H381.91V48.168H383.478V49.72H383.51C384.001 48.5573 384.732 47.976 385.702 47.976C385.969 47.976 386.22 47.992 386.454 48.024V49.528C386.262 49.496 386.086 49.48 385.926 49.48C385.212 49.48 384.625 49.7253 384.166 50.216C383.708 50.7067 383.478 51.336 383.478 52.104V56.328Z" fill="#C6C6C8"/>
<path d="M390.04 59.256C388.92 59.256 388.051 59.016 387.432 58.536C386.813 58.0667 386.461 57.4427 386.376 56.664H388.008C388.2 57.5387 388.877 57.976 390.04 57.976C390.797 57.976 391.363 57.8 391.736 57.448C392.109 57.096 392.296 56.5413 392.296 55.784V54.68H392.264C391.699 55.5013 390.861 55.912 389.752 55.912C389.069 55.912 388.456 55.7627 387.912 55.464C387.368 55.1547 386.936 54.7013 386.616 54.104C386.307 53.496 386.152 52.7707 386.152 51.928C386.152 51.0747 386.307 50.3493 386.616 49.752C386.936 49.1547 387.363 48.7013 387.896 48.392C388.44 48.0827 389.059 47.928 389.752 47.928C390.808 47.928 391.645 48.328 392.264 49.128H392.296V48.168H393.864V55.688C393.864 56.8827 393.528 57.7733 392.856 58.36C392.184 58.9573 391.245 59.256 390.04 59.256ZM387.784 51.928C387.784 52.728 387.976 53.3787 388.36 53.88C388.744 54.3707 389.304 54.616 390.04 54.616C390.755 54.616 391.304 54.3867 391.688 53.928C392.083 53.4693 392.28 52.8027 392.28 51.928C392.28 51.0427 392.083 50.376 391.688 49.928C391.304 49.4693 390.755 49.24 390.04 49.24C389.304 49.24 388.744 49.4907 388.36 49.992C387.976 50.4827 387.784 51.128 387.784 51.928Z" fill="#C6C6C8"/>
<path d="M398.622 56.568C397.79 56.568 397.065 56.3867 396.446 56.024C395.827 55.6613 395.353 55.1547 395.022 54.504C394.702 53.8533 394.542 53.1013 394.542 52.248C394.542 51.3947 394.707 50.6427 395.038 49.992C395.369 49.3413 395.838 48.8347 396.446 48.472C397.065 48.0987 397.795 47.912 398.638 47.912C399.47 47.912 400.19 48.0933 400.798 48.456C401.417 48.8187 401.886 49.3307 402.206 49.992C402.537 50.6427 402.702 51.3893 402.702 52.232C402.702 53.0853 402.537 53.8427 402.206 54.504C401.875 55.1547 401.401 55.6613 400.782 56.024C400.174 56.3867 399.454 56.568 398.622 56.568ZM396.174 52.248C396.174 53.144 396.382 53.8747 396.798 54.44C397.214 54.9947 397.827 55.272 398.638 55.272C399.438 55.272 400.041 54.9947 400.446 54.44C400.862 53.8747 401.07 53.144 401.07 52.248C401.07 51.352 400.862 50.6267 400.446 50.072C400.041 49.5067 399.438 49.224 398.638 49.224C397.827 49.224 397.214 49.5013 396.798 50.056C396.382 50.6107 396.174 51.3413 396.174 52.248Z" fill="#C6C6C8"/>
<path d="M4.768 75.552C4.17067 75.552 3.664 75.44 3.248 75.216C2.832 74.9813 2.50133 74.6827 2.256 74.32H2.224V78.16H0.656V67.168H2.224V68.128H2.256C2.87467 67.328 3.712 66.928 4.768 66.928C5.46133 66.928 6.08533 67.104 6.64 67.456C7.19467 67.808 7.632 68.3093 7.952 68.96C8.272 69.6107 8.432 70.3733 8.432 71.248C8.432 72.1227 8.272 72.8853 7.952 73.536C7.632 74.1867 7.19467 74.688 6.64 75.04C6.08533 75.3813 5.46133 75.552 4.768 75.552ZM2.24 71.248C2.24 72.176 2.44267 72.912 2.848 73.456C3.25333 73.9893 3.808 74.256 4.512 74.256C5.248 74.256 5.808 73.968 6.192 73.392C6.58667 72.816 6.784 72.1013 6.784 71.248C6.784 70.3947 6.58667 69.68 6.192 69.104C5.808 68.528 5.248 68.24 4.512 68.24C3.808 68.24 3.25333 68.512 2.848 69.056C2.44267 69.5893 2.24 70.32 2.24 71.248Z" fill="#C6C6C8"/>
<path d="M9.141 63.888H10.709V75.328H9.141V63.888Z" fill="#C6C6C8"/>
<path d="M14.0851 75.552C13.2745 75.552 12.6238 75.3387 12.1331 74.912C11.6531 74.4853 11.4131 73.92 11.4131 73.216C11.4131 72.6293 11.5465 72.16 11.8131 71.808C12.0905 71.4453 12.4691 71.168 12.9491 70.976C13.4398 70.7733 14.0638 70.6027 14.8211 70.464C15.3438 70.368 15.7385 70.2827 16.0051 70.208C16.2718 70.1227 16.4851 70.0107 16.6451 69.872C16.8051 69.7227 16.8851 69.52 16.8851 69.264C16.8851 68.5387 16.3678 68.176 15.3331 68.176C14.6398 68.176 14.1545 68.2933 13.8771 68.528C13.5998 68.7627 13.4398 69.1573 13.3971 69.712H11.7971C11.8398 68.8693 12.1545 68.192 12.7411 67.68C13.3278 67.168 14.2131 66.912 15.3971 66.912C16.3145 66.912 17.0451 67.136 17.5891 67.584C18.1438 68.0213 18.4211 68.736 18.4211 69.728V73.472C18.4211 73.7813 18.4478 74.0107 18.5011 74.16C18.5545 74.2987 18.6558 74.368 18.8051 74.368L18.9971 74.352V75.312C18.7305 75.376 18.4638 75.408 18.1971 75.408C17.7918 75.408 17.4825 75.3173 17.2691 75.136C17.0665 74.944 16.9438 74.624 16.9011 74.176H16.8691C16.6025 74.6133 16.2345 74.9547 15.7651 75.2C15.2958 75.4347 14.7358 75.552 14.0851 75.552ZM13.0451 73.104C13.0451 73.8933 13.5091 74.288 14.4371 74.288C15.1731 74.288 15.7651 74.1067 16.2131 73.744C16.6611 73.3707 16.8851 72.8373 16.8851 72.144V70.976C16.7678 71.0827 16.5598 71.184 16.2611 71.28C15.9731 71.3653 15.5838 71.4613 15.0931 71.568C14.3571 71.7173 13.8291 71.9093 13.5091 72.144C13.1998 72.368 13.0451 72.688 13.0451 73.104Z" fill="#C6C6C8"/>
<path d="M25.1291 70.096C25.1291 69.52 24.9905 69.072 24.7131 68.752C24.4465 68.432 24.0305 68.272 23.4651 68.272C22.7931 68.272 22.2545 68.4587 21.8491 68.832C21.4545 69.2053 21.2571 69.7013 21.2571 70.32V75.328H19.6891V67.168H21.2571V68.192H21.2891C21.5345 67.8293 21.8811 67.5307 22.3291 67.296C22.7771 67.0507 23.3265 66.928 23.9771 66.928C24.7771 66.928 25.4278 67.1627 25.9291 67.632C26.4411 68.0907 26.6971 68.768 26.6971 69.664V75.328H25.1291V70.096Z" fill="#C6C6C8"/>
<path d="M31.3682 75.568C30.5256 75.568 29.8003 75.3813 29.1923 75.008C28.5843 74.6347 28.1203 74.1227 27.8003 73.472C27.4909 72.8213 27.3363 72.0747 27.3363 71.232C27.3363 70.3787 27.4962 69.6267 27.8162 68.976C28.1469 68.3253 28.6163 67.8187 29.2243 67.456C29.8323 67.0933 30.5469 66.912 31.3682 66.912C32.5949 66.912 33.5443 67.2853 34.2163 68.032C34.8989 68.7787 35.2402 69.792 35.2402 71.072C35.2402 71.3813 35.2349 71.5787 35.2243 71.664H28.9523C28.9736 72.4 29.1922 73.024 29.6082 73.536C30.0349 74.0373 30.6323 74.288 31.4003 74.288C32.0403 74.288 32.5309 74.1333 32.8722 73.824C33.2242 73.5147 33.4483 73.1787 33.5443 72.816H35.1442C34.9096 73.648 34.4776 74.3147 33.8483 74.816C33.2189 75.3173 32.3922 75.568 31.3682 75.568ZM33.6082 70.432C33.6082 69.7813 33.3949 69.248 32.9683 68.832C32.5523 68.4053 32.0029 68.192 31.3203 68.192C30.6589 68.192 30.1096 68.4 29.6723 68.816C29.2349 69.2213 28.9949 69.76 28.9523 70.432H33.6082Z" fill="#C6C6C8"/>
<path d="M39.2045 66.176C39.2045 65.28 39.3752 64.656 39.7165 64.304C40.0685 63.952 40.6018 63.776 41.3165 63.776C41.5298 63.776 41.8605 63.808 42.3085 63.872V65.136C41.9885 65.104 41.7645 65.088 41.6365 65.088C41.3058 65.088 41.0818 65.1573 40.9645 65.296C40.8472 65.4347 40.7885 65.7173 40.7885 66.144V67.168H42.3085V68.464H40.7885V75.328H39.2045V68.464H38.0845V67.168H39.2045V66.176Z" fill="#C6C6C8"/>
<path d="M46.1365 75.568C45.3045 75.568 44.5792 75.3867 43.9605 75.024C43.3418 74.6613 42.8672 74.1547 42.5365 73.504C42.2165 72.8533 42.0565 72.1013 42.0565 71.248C42.0565 70.3947 42.2218 69.6427 42.5525 68.992C42.8832 68.3413 43.3525 67.8347 43.9605 67.472C44.5792 67.0987 45.3098 66.912 46.1525 66.912C46.9845 66.912 47.7045 67.0933 48.3125 67.456C48.9312 67.8187 49.4005 68.3307 49.7205 68.992C50.0512 69.6427 50.2165 70.3893 50.2165 71.232C50.2165 72.0853 50.0512 72.8427 49.7205 73.504C49.3898 74.1547 48.9152 74.6613 48.2965 75.024C47.6885 75.3867 46.9685 75.568 46.1365 75.568ZM43.6885 71.248C43.6885 72.144 43.8965 72.8747 44.3125 73.44C44.7285 73.9947 45.3418 74.272 46.1525 74.272C46.9525 74.272 47.5552 73.9947 47.9605 73.44C48.3765 72.8747 48.5845 72.144 48.5845 71.248C48.5845 70.352 48.3765 69.6267 47.9605 69.072C47.5552 68.5067 46.9525 68.224 46.1525 68.224C45.3418 68.224 44.7285 68.5013 44.3125 69.056C43.8965 69.6107 43.6885 70.3413 43.6885 71.248Z" fill="#C6C6C8"/>
<path d="M52.479 75.328H50.911V67.168H52.479V68.72H52.511C53.0017 67.5573 53.7323 66.976 54.703 66.976C54.9697 66.976 55.2203 66.992 55.455 67.024V68.528C55.263 68.496 55.087 68.48 54.927 68.48C54.2123 68.48 53.6257 68.7253 53.167 69.216C52.7083 69.7067 52.479 70.336 52.479 71.104V75.328Z" fill="#C6C6C8"/>
<path d="M63.6179 70.096C63.6179 69.52 63.4792 69.072 63.2019 68.752C62.9352 68.432 62.5192 68.272 61.9539 68.272C61.2819 68.272 60.7432 68.4587 60.3379 68.832C59.9432 69.2053 59.7459 69.7013 59.7459 70.32V75.328H58.1779V63.888H59.7459V68.192H59.7779C60.0232 67.8293 60.3699 67.5307 60.8179 67.296C61.2659 67.0507 61.8152 66.928 62.4659 66.928C63.2659 66.928 63.9165 67.1627 64.4179 67.632C64.9299 68.0907 65.1859 68.768 65.1859 69.664V75.328H63.6179V70.096Z" fill="#C6C6C8"/>
<path d="M66.241 67.168H67.809V75.328H66.241V67.168ZM66.145 64.016H67.921V65.712H66.145V64.016Z" fill="#C6C6C8"/>
<path d="M72.4331 78.256C71.3131 78.256 70.4438 78.016 69.8251 77.536C69.2065 77.0667 68.8545 76.4427 68.7691 75.664H70.4011C70.5931 76.5387 71.2705 76.976 72.4331 76.976C73.1905 76.976 73.7558 76.8 74.1291 76.448C74.5025 76.096 74.6891 75.5413 74.6891 74.784V73.68H74.6571C74.0918 74.5013 73.2545 74.912 72.1451 74.912C71.4625 74.912 70.8491 74.7627 70.3051 74.464C69.7611 74.1547 69.3291 73.7013 69.0091 73.104C68.6998 72.496 68.5451 71.7707 68.5451 70.928C68.5451 70.0747 68.6998 69.3493 69.0091 68.752C69.3291 68.1547 69.7558 67.7013 70.2891 67.392C70.8331 67.0827 71.4518 66.928 72.1451 66.928C73.2011 66.928 74.0385 67.328 74.6571 68.128H74.6891V67.168H76.2571V74.688C76.2571 75.8827 75.9211 76.7733 75.2491 77.36C74.5771 77.9573 73.6385 78.256 72.4331 78.256ZM70.1771 70.928C70.1771 71.728 70.3691 72.3787 70.7531 72.88C71.1371 73.3707 71.6971 73.616 72.4331 73.616C73.1478 73.616 73.6971 73.3867 74.0811 72.928C74.4758 72.4693 74.6731 71.8027 74.6731 70.928C74.6731 70.0427 74.4758 69.376 74.0811 68.928C73.6971 68.4693 73.1478 68.24 72.4331 68.24C71.6971 68.24 71.1371 68.4907 70.7531 68.992C70.3691 69.4827 70.1771 70.128 70.1771 70.928Z" fill="#C6C6C8"/>
<path d="M82.8073 70.096C82.8073 69.52 82.6686 69.072 82.3913 68.752C82.1246 68.432 81.7086 68.272 81.1432 68.272C80.4712 68.272 79.9326 68.4587 79.5273 68.832C79.1326 69.2053 78.9352 69.7013 78.9352 70.32V75.328H77.3672V63.888H78.9352V68.192H78.9672C79.2126 67.8293 79.5592 67.5307 80.0072 67.296C80.4552 67.0507 81.0046 66.928 81.6553 66.928C82.4553 66.928 83.1059 67.1627 83.6073 67.632C84.1193 68.0907 84.3753 68.768 84.3753 69.664V75.328H82.8073V70.096Z" fill="#C6C6C8"/>
<path d="M85.2224 70.512H89.5104V72H85.2224V70.512Z" fill="#C6C6C8"/>
<path d="M94.0314 75.568C93.1887 75.568 92.4634 75.3813 91.8554 75.008C91.2474 74.6347 90.7834 74.1227 90.4634 73.472C90.154 72.8213 89.9994 72.0747 89.9994 71.232C89.9994 70.3787 90.1594 69.6267 90.4794 68.976C90.81 68.3253 91.2794 67.8187 91.8874 67.456C92.4954 67.0933 93.21 66.912 94.0314 66.912C95.258 66.912 96.2074 67.2853 96.8794 68.032C97.562 68.7787 97.9034 69.792 97.9034 71.072C97.9034 71.3813 97.898 71.5787 97.8874 71.664H91.6154C91.6367 72.4 91.8554 73.024 92.2714 73.536C92.698 74.0373 93.2954 74.288 94.0634 74.288C94.7034 74.288 95.194 74.1333 95.5354 73.824C95.8874 73.5147 96.1114 73.1787 96.2074 72.816H97.8074C97.5727 73.648 97.1407 74.3147 96.5114 74.816C95.882 75.3173 95.0554 75.568 94.0314 75.568ZM96.2714 70.432C96.2714 69.7813 96.058 69.248 95.6314 68.832C95.2154 68.4053 94.666 68.192 93.9834 68.192C93.322 68.192 92.7727 68.4 92.3354 68.816C91.898 69.2213 91.658 69.76 91.6154 70.432H96.2714Z" fill="#C6C6C8"/>
<path d="M98.992 68.464H97.872V67.168H98.992V66.176C98.992 65.28 99.1627 64.656 99.504 64.304C99.856 63.952 100.389 63.776 101.104 63.776C101.317 63.776 101.648 63.808 102.096 63.872V65.136C101.776 65.104 101.552 65.088 101.424 65.088C101.093 65.088 100.869 65.1573 100.752 65.296C100.635 65.4347 100.576 65.7173 100.576 66.144V67.168H103.168V66.176C103.168 65.28 103.339 64.656 103.68 64.304C104.032 63.952 104.565 63.776 105.28 63.776C105.493 63.776 105.824 63.808 106.272 63.872V65.136C105.952 65.104 105.728 65.088 105.6 65.088C105.269 65.088 105.045 65.1573 104.928 65.296C104.811 65.4347 104.752 65.7173 104.752 66.144V67.168H106.272V68.464H104.752V75.328H103.168V68.464H100.576V75.328H98.992V68.464ZM107.312 67.168H108.88V75.328H107.312V67.168ZM107.216 64.016H108.992V65.712H107.216V64.016Z" fill="#C6C6C8"/>
<path d="M113.563 75.568C112.763 75.568 112.059 75.3867 111.451 75.024C110.843 74.6613 110.374 74.1547 110.043 73.504C109.712 72.8427 109.547 72.0907 109.547 71.248C109.547 70.4053 109.712 69.6587 110.043 69.008C110.374 68.3467 110.838 67.8347 111.435 67.472C112.043 67.1093 112.747 66.928 113.547 66.928C114.23 66.928 114.838 67.0667 115.371 67.344C115.904 67.6107 116.331 67.9893 116.651 68.48C116.971 68.96 117.163 69.5093 117.227 70.128H115.611C115.558 69.616 115.371 69.1733 115.051 68.8C114.731 68.416 114.235 68.224 113.563 68.224C112.752 68.224 112.15 68.5173 111.755 69.104C111.371 69.68 111.179 70.3947 111.179 71.248C111.179 72.1013 111.371 72.816 111.755 73.392C112.15 73.968 112.752 74.256 113.563 74.256C114.246 74.256 114.747 74.0693 115.067 73.696C115.387 73.3227 115.568 72.8587 115.611 72.304H117.227C117.195 72.9227 117.019 73.4827 116.699 73.984C116.379 74.4747 115.947 74.864 115.403 75.152C114.859 75.4293 114.246 75.568 113.563 75.568Z" fill="#C6C6C8"/>
<path d="M117.839 67.168H119.407V75.328H117.839V67.168ZM117.743 64.016H119.519V65.712H117.743V64.016Z" fill="#C6C6C8"/>
<path d="M124.143 75.568C123.301 75.568 122.575 75.3813 121.967 75.008C121.359 74.6347 120.895 74.1227 120.575 73.472C120.266 72.8213 120.111 72.0747 120.111 71.232C120.111 70.3787 120.271 69.6267 120.591 68.976C120.922 68.3253 121.391 67.8187 121.999 67.456C122.607 67.0933 123.322 66.912 124.143 66.912C125.37 66.912 126.319 67.2853 126.991 68.032C127.674 68.7787 128.015 69.792 128.015 71.072C128.015 71.3813 128.01 71.5787 127.999 71.664H121.727C121.749 72.4 121.967 73.024 122.383 73.536C122.81 74.0373 123.407 74.288 124.175 74.288C124.815 74.288 125.306 74.1333 125.647 73.824C125.999 73.5147 126.223 73.1787 126.319 72.816H127.919C127.685 73.648 127.253 74.3147 126.623 74.816C125.994 75.3173 125.167 75.568 124.143 75.568ZM126.383 70.432C126.383 69.7813 126.17 69.248 125.743 68.832C125.327 68.4053 124.778 68.192 124.095 68.192C123.434 68.192 122.885 68.4 122.447 68.816C122.01 69.2213 121.77 69.76 121.727 70.432H126.383Z" fill="#C6C6C8"/>
<path d="M134.14 70.096C134.14 69.52 134.001 69.072 133.724 68.752C133.457 68.432 133.041 68.272 132.476 68.272C131.804 68.272 131.265 68.4587 130.86 68.832C130.465 69.2053 130.268 69.7013 130.268 70.32V75.328H128.7V67.168H130.268V68.192H130.3C130.545 67.8293 130.892 67.5307 131.34 67.296C131.788 67.0507 132.337 66.928 132.988 66.928C133.788 66.928 134.438 67.1627 134.94 67.632C135.452 68.0907 135.708 68.768 135.708 69.664V75.328H134.14V70.096Z" fill="#C6C6C8"/>
<path d="M140.347 75.568C139.547 75.568 138.843 75.3867 138.235 75.024C137.627 74.6613 137.158 74.1547 136.827 73.504C136.496 72.8427 136.331 72.0907 136.331 71.248C136.331 70.4053 136.496 69.6587 136.827 69.008C137.158 68.3467 137.622 67.8347 138.219 67.472C138.827 67.1093 139.531 66.928 140.331 66.928C141.014 66.928 141.622 67.0667 142.155 67.344C142.688 67.6107 143.115 67.9893 143.435 68.48C143.755 68.96 143.947 69.5093 144.011 70.128H142.395C142.342 69.616 142.155 69.1733 141.835 68.8C141.515 68.416 141.019 68.224 140.347 68.224C139.536 68.224 138.934 68.5173 138.539 69.104C138.155 69.68 137.963 70.3947 137.963 71.248C137.963 72.1013 138.155 72.816 138.539 73.392C138.934 73.968 139.536 74.256 140.347 74.256C141.03 74.256 141.531 74.0693 141.851 73.696C142.171 73.3227 142.352 72.8587 142.395 72.304H144.011C143.979 72.9227 143.803 73.4827 143.483 73.984C143.163 74.4747 142.731 74.864 142.187 75.152C141.643 75.4293 141.03 75.568 140.347 75.568Z" fill="#C6C6C8"/>
<path d="M145.523 78.192C145.235 78.192 144.899 78.1547 144.515 78.08V76.8C144.792 76.832 145.016 76.848 145.187 76.848C145.549 76.848 145.88 76.7253 146.179 76.48C146.488 76.2453 146.717 75.8347 146.867 75.248L143.571 67.168H145.283L147.667 73.408H147.699L149.939 67.168H151.587L148.355 75.52C147.971 76.512 147.56 77.2053 147.123 77.6C146.696 77.9947 146.163 78.192 145.523 78.192Z" fill="#C6C6C8"/>
<path d="M154.218 63.888H155.786V75.328H154.218V63.888Z" fill="#C6C6C8"/>
<path d="M160.554 75.568C159.722 75.568 158.997 75.3867 158.378 75.024C157.759 74.6613 157.285 74.1547 156.954 73.504C156.634 72.8533 156.474 72.1013 156.474 71.248C156.474 70.3947 156.639 69.6427 156.97 68.992C157.301 68.3413 157.77 67.8347 158.378 67.472C158.997 67.0987 159.727 66.912 160.57 66.912C161.402 66.912 162.122 67.0933 162.73 67.456C163.349 67.8187 163.818 68.3307 164.138 68.992C164.469 69.6427 164.634 70.3893 164.634 71.232C164.634 72.0853 164.469 72.8427 164.138 73.504C163.807 74.1547 163.333 74.6613 162.714 75.024C162.106 75.3867 161.386 75.568 160.554 75.568ZM158.106 71.248C158.106 72.144 158.314 72.8747 158.73 73.44C159.146 73.9947 159.759 74.272 160.57 74.272C161.37 74.272 161.973 73.9947 162.378 73.44C162.794 72.8747 163.002 72.144 163.002 71.248C163.002 70.352 162.794 69.6267 162.378 69.072C161.973 68.5067 161.37 68.224 160.57 68.224C159.759 68.224 159.146 68.5013 158.73 69.056C158.314 69.6107 158.106 70.3413 158.106 71.248Z" fill="#C6C6C8"/>
<path d="M168.833 78.256C167.713 78.256 166.843 78.016 166.225 77.536C165.606 77.0667 165.254 76.4427 165.169 75.664H166.801C166.993 76.5387 167.67 76.976 168.833 76.976C169.59 76.976 170.155 76.8 170.529 76.448C170.902 76.096 171.089 75.5413 171.089 74.784V73.68H171.057C170.491 74.5013 169.654 74.912 168.544 74.912C167.862 74.912 167.248 74.7627 166.704 74.464C166.16 74.1547 165.728 73.7013 165.408 73.104C165.099 72.496 164.945 71.7707 164.945 70.928C164.945 70.0747 165.099 69.3493 165.408 68.752C165.728 68.1547 166.155 67.7013 166.689 67.392C167.233 67.0827 167.851 66.928 168.544 66.928C169.6 66.928 170.438 67.328 171.057 68.128H171.089V67.168H172.656V74.688C172.656 75.8827 172.32 76.7733 171.648 77.36C170.976 77.9573 170.038 78.256 168.833 78.256ZM166.577 70.928C166.577 71.728 166.768 72.3787 167.152 72.88C167.536 73.3707 168.097 73.616 168.833 73.616C169.547 73.616 170.096 73.3867 170.48 72.928C170.875 72.4693 171.072 71.8027 171.072 70.928C171.072 70.0427 170.875 69.376 170.48 68.928C170.096 68.4693 169.547 68.24 168.833 68.24C168.097 68.24 167.536 68.4907 167.152 68.992C166.768 69.4827 166.577 70.128 166.577 70.928Z" fill="#C6C6C8"/>
<path d="M173.767 67.168H175.335V75.328H173.767V67.168ZM173.671 64.016H175.447V65.712H173.671V64.016Z" fill="#C6C6C8"/>
<path d="M179.671 75.552C178.476 75.552 177.553 75.28 176.903 74.736C176.263 74.192 175.932 73.4827 175.911 72.608H177.495C177.527 73.12 177.713 73.5307 178.055 73.84C178.407 74.1387 178.94 74.288 179.655 74.288C180.284 74.288 180.732 74.176 180.999 73.952C181.265 73.7173 181.399 73.4293 181.399 73.088C181.399 72.768 181.303 72.5227 181.111 72.352C180.919 72.1813 180.711 72.0693 180.487 72.016C180.273 71.952 179.863 71.856 179.255 71.728C178.625 71.5787 178.103 71.424 177.687 71.264C177.271 71.104 176.919 70.864 176.631 70.544C176.343 70.224 176.199 69.8027 176.199 69.28C176.199 68.5653 176.471 67.9947 177.015 67.568C177.569 67.1413 178.332 66.928 179.303 66.928C180.369 66.928 181.191 67.1733 181.767 67.664C182.343 68.1547 182.663 68.7787 182.727 69.536H181.143C181.068 69.1413 180.897 68.8213 180.631 68.576C180.375 68.32 179.943 68.192 179.335 68.192C178.823 68.192 178.444 68.2827 178.199 68.464C177.953 68.6453 177.831 68.896 177.831 69.216C177.831 69.4507 177.9 69.6373 178.039 69.776C178.177 69.9147 178.353 70.0213 178.567 70.096C178.78 70.16 179.095 70.2347 179.511 70.32C179.596 70.3307 179.724 70.3573 179.895 70.4C180.545 70.5493 181.084 70.7093 181.511 70.88C181.937 71.0507 182.295 71.3067 182.583 71.648C182.881 71.9893 183.031 72.4427 183.031 73.008C183.031 73.808 182.737 74.432 182.151 74.88C181.564 75.328 180.737 75.552 179.671 75.552Z" fill="#C6C6C8"/>
<path d="M186.221 75.424C185.496 75.424 184.952 75.248 184.59 74.896C184.238 74.544 184.062 73.92 184.062 73.024V68.464H182.878V67.168H184.062V64.544H185.63V67.168H187.198V68.464H185.63V73.072C185.63 73.488 185.694 73.7707 185.822 73.92C185.96 74.0587 186.2 74.128 186.542 74.128C186.744 74.128 186.968 74.1067 187.214 74.064V75.328C186.894 75.392 186.563 75.424 186.221 75.424Z" fill="#C6C6C8"/>
<path d="M187.862 67.168H189.43V75.328H187.862V67.168ZM187.766 64.016H189.542V65.712H187.766V64.016Z" fill="#C6C6C8"/>
<path d="M194.134 75.568C193.334 75.568 192.63 75.3867 192.022 75.024C191.414 74.6613 190.945 74.1547 190.614 73.504C190.284 72.8427 190.118 72.0907 190.118 71.248C190.118 70.4053 190.284 69.6587 190.614 69.008C190.945 68.3467 191.409 67.8347 192.006 67.472C192.614 67.1093 193.318 66.928 194.118 66.928C194.801 66.928 195.409 67.0667 195.942 67.344C196.476 67.6107 196.902 67.9893 197.222 68.48C197.542 68.96 197.734 69.5093 197.798 70.128H196.182C196.129 69.616 195.942 69.1733 195.622 68.8C195.302 68.416 194.806 68.224 194.134 68.224C193.324 68.224 192.721 68.5173 192.326 69.104C191.942 69.68 191.75 70.3947 191.75 71.248C191.75 72.1013 191.942 72.816 192.326 73.392C192.721 73.968 193.324 74.256 194.134 74.256C194.817 74.256 195.318 74.0693 195.638 73.696C195.958 73.3227 196.14 72.8587 196.182 72.304H197.798C197.766 72.9227 197.59 73.4827 197.27 73.984C196.95 74.4747 196.518 74.864 195.974 75.152C195.43 75.4293 194.817 75.568 194.134 75.568Z" fill="#C6C6C8"/>
<path d="M201.626 75.552C200.432 75.552 199.509 75.28 198.858 74.736C198.218 74.192 197.888 73.4827 197.866 72.608H199.45C199.482 73.12 199.669 73.5307 200.01 73.84C200.362 74.1387 200.896 74.288 201.61 74.288C202.24 74.288 202.688 74.176 202.954 73.952C203.221 73.7173 203.354 73.4293 203.354 73.088C203.354 72.768 203.258 72.5227 203.066 72.352C202.874 72.1813 202.666 72.0693 202.442 72.016C202.229 71.952 201.818 71.856 201.21 71.728C200.581 71.5787 200.058 71.424 199.642 71.264C199.226 71.104 198.874 70.864 198.586 70.544C198.298 70.224 198.154 69.8027 198.154 69.28C198.154 68.5653 198.426 67.9947 198.97 67.568C199.525 67.1413 200.288 66.928 201.258 66.928C202.325 66.928 203.146 67.1733 203.722 67.664C204.298 68.1547 204.618 68.7787 204.682 69.536H203.098C203.024 69.1413 202.853 68.8213 202.586 68.576C202.33 68.32 201.898 68.192 201.29 68.192C200.778 68.192 200.4 68.2827 200.154 68.464C199.909 68.6453 199.786 68.896 199.786 69.216C199.786 69.4507 199.856 69.6373 199.994 69.776C200.133 69.9147 200.309 70.0213 200.522 70.096C200.736 70.16 201.05 70.2347 201.466 70.32C201.552 70.3307 201.68 70.3573 201.85 70.4C202.501 70.5493 203.04 70.7093 203.466 70.88C203.893 71.0507 204.25 71.3067 204.538 71.648C204.837 71.9893 204.986 72.4427 204.986 73.008C204.986 73.808 204.693 74.432 204.106 74.88C203.52 75.328 202.693 75.552 201.626 75.552Z" fill="#C6C6C8"/>
<path d="M210.543 75.552C209.732 75.552 209.081 75.3387 208.591 74.912C208.111 74.4853 207.871 73.92 207.871 73.216C207.871 72.6293 208.004 72.16 208.271 71.808C208.548 71.4453 208.927 71.168 209.407 70.976C209.897 70.7733 210.521 70.6027 211.279 70.464C211.801 70.368 212.196 70.2827 212.463 70.208C212.729 70.1227 212.943 70.0107 213.103 69.872C213.263 69.7227 213.343 69.52 213.343 69.264C213.343 68.5387 212.825 68.176 211.791 68.176C211.097 68.176 210.612 68.2933 210.335 68.528C210.057 68.7627 209.897 69.1573 209.855 69.712H208.255C208.297 68.8693 208.612 68.192 209.199 67.68C209.785 67.168 210.671 66.912 211.855 66.912C212.772 66.912 213.503 67.136 214.047 67.584C214.601 68.0213 214.879 68.736 214.879 69.728V73.472C214.879 73.7813 214.905 74.0107 214.959 74.16C215.012 74.2987 215.113 74.368 215.263 74.368L215.455 74.352V75.312C215.188 75.376 214.921 75.408 214.655 75.408C214.249 75.408 213.94 75.3173 213.727 75.136C213.524 74.944 213.401 74.624 213.359 74.176H213.327C213.06 74.6133 212.692 74.9547 212.223 75.2C211.753 75.4347 211.193 75.552 210.543 75.552ZM209.503 73.104C209.503 73.8933 209.967 74.288 210.895 74.288C211.631 74.288 212.223 74.1067 212.671 73.744C213.119 73.3707 213.343 72.8373 213.343 72.144V70.976C213.225 71.0827 213.017 71.184 212.719 71.28C212.431 71.3653 212.041 71.4613 211.551 71.568C210.815 71.7173 210.287 71.9093 209.967 72.144C209.657 72.368 209.503 72.688 209.503 73.104Z" fill="#C6C6C8"/>
<path d="M219.653 75.568C218.853 75.568 218.149 75.3867 217.541 75.024C216.933 74.6613 216.463 74.1547 216.133 73.504C215.802 72.8427 215.637 72.0907 215.637 71.248C215.637 70.4053 215.802 69.6587 216.133 69.008C216.463 68.3467 216.927 67.8347 217.525 67.472C218.133 67.1093 218.837 66.928 219.637 66.928C220.319 66.928 220.927 67.0667 221.461 67.344C221.994 67.6107 222.421 67.9893 222.741 68.48C223.061 68.96 223.253 69.5093 223.317 70.128H221.701C221.647 69.616 221.461 69.1733 221.141 68.8C220.821 68.416 220.325 68.224 219.653 68.224C218.842 68.224 218.239 68.5173 217.845 69.104C217.461 69.68 217.269 70.3947 217.269 71.248C217.269 72.1013 217.461 72.816 217.845 73.392C218.239 73.968 218.842 74.256 219.653 74.256C220.335 74.256 220.837 74.0693 221.157 73.696C221.477 73.3227 221.658 72.8587 221.701 72.304H223.317C223.285 72.9227 223.109 73.4827 222.789 73.984C222.469 74.4747 222.037 74.864 221.493 75.152C220.949 75.4293 220.335 75.568 219.653 75.568Z" fill="#C6C6C8"/>
<path d="M225.497 75.328H223.929V67.168H225.497V68.72H225.529C226.019 67.5573 226.75 66.976 227.721 66.976C227.987 66.976 228.238 66.992 228.473 67.024V68.528C228.281 68.496 228.105 68.48 227.945 68.48C227.23 68.48 226.643 68.7253 226.185 69.216C225.726 69.7067 225.497 70.336 225.497 71.104V75.328Z" fill="#C6C6C8"/>
<path d="M232.155 75.568C231.323 75.568 230.598 75.3867 229.979 75.024C229.361 74.6613 228.886 74.1547 228.555 73.504C228.235 72.8533 228.075 72.1013 228.075 71.248C228.075 70.3947 228.241 69.6427 228.571 68.992C228.902 68.3413 229.371 67.8347 229.979 67.472C230.598 67.0987 231.329 66.912 232.171 66.912C233.003 66.912 233.723 67.0933 234.331 67.456C234.95 67.8187 235.419 68.3307 235.739 68.992C236.07 69.6427 236.235 70.3893 236.235 71.232C236.235 72.0853 236.07 72.8427 235.739 73.504C235.409 74.1547 234.934 74.6613 234.315 75.024C233.707 75.3867 232.987 75.568 232.155 75.568ZM229.707 71.248C229.707 72.144 229.915 72.8747 230.331 73.44C230.747 73.9947 231.361 74.272 232.171 74.272C232.971 74.272 233.574 73.9947 233.979 73.44C234.395 72.8747 234.603 72.144 234.603 71.248C234.603 70.352 234.395 69.6267 233.979 69.072C233.574 68.5067 232.971 68.224 232.171 68.224C231.361 68.224 230.747 68.5013 230.331 69.056C229.915 69.6107 229.707 70.3413 229.707 71.248Z" fill="#C6C6C8"/>
<path d="M240.146 75.552C238.951 75.552 238.028 75.28 237.378 74.736C236.738 74.192 236.407 73.4827 236.386 72.608H237.97C238.002 73.12 238.188 73.5307 238.53 73.84C238.882 74.1387 239.415 74.288 240.13 74.288C240.759 74.288 241.207 74.176 241.474 73.952C241.74 73.7173 241.874 73.4293 241.874 73.088C241.874 72.768 241.778 72.5227 241.586 72.352C241.394 72.1813 241.186 72.0693 240.962 72.016C240.748 71.952 240.338 71.856 239.73 71.728C239.1 71.5787 238.578 71.424 238.162 71.264C237.746 71.104 237.394 70.864 237.106 70.544C236.818 70.224 236.674 69.8027 236.674 69.28C236.674 68.5653 236.946 67.9947 237.49 67.568C238.044 67.1413 238.807 66.928 239.778 66.928C240.844 66.928 241.666 67.1733 242.242 67.664C242.818 68.1547 243.138 68.7787 243.202 69.536H241.618C241.543 69.1413 241.372 68.8213 241.106 68.576C240.85 68.32 240.418 68.192 239.81 68.192C239.298 68.192 238.919 68.2827 238.674 68.464C238.428 68.6453 238.306 68.896 238.306 69.216C238.306 69.4507 238.375 69.6373 238.514 69.776C238.652 69.9147 238.828 70.0213 239.042 70.096C239.255 70.16 239.57 70.2347 239.986 70.32C240.071 70.3307 240.199 70.3573 240.37 70.4C241.02 70.5493 241.559 70.7093 241.986 70.88C242.412 71.0507 242.77 71.3067 243.058 71.648C243.356 71.9893 243.506 72.4427 243.506 73.008C243.506 73.808 243.212 74.432 242.626 74.88C242.039 75.328 241.212 75.552 240.146 75.552Z" fill="#C6C6C8"/>
<path d="M247.318 75.552C246.124 75.552 245.201 75.28 244.55 74.736C243.91 74.192 243.58 73.4827 243.558 72.608H245.142C245.174 73.12 245.361 73.5307 245.702 73.84C246.054 74.1387 246.588 74.288 247.302 74.288C247.932 74.288 248.38 74.176 248.646 73.952C248.913 73.7173 249.046 73.4293 249.046 73.088C249.046 72.768 248.95 72.5227 248.758 72.352C248.566 72.1813 248.358 72.0693 248.134 72.016C247.921 71.952 247.51 71.856 246.902 71.728C246.273 71.5787 245.75 71.424 245.334 71.264C244.918 71.104 244.566 70.864 244.278 70.544C243.99 70.224 243.846 69.8027 243.846 69.28C243.846 68.5653 244.118 67.9947 244.662 67.568C245.217 67.1413 245.98 66.928 246.95 66.928C248.017 66.928 248.838 67.1733 249.414 67.664C249.99 68.1547 250.31 68.7787 250.374 69.536H248.79C248.716 69.1413 248.545 68.8213 248.278 68.576C248.022 68.32 247.59 68.192 246.982 68.192C246.47 68.192 246.092 68.2827 245.846 68.464C245.601 68.6453 245.478 68.896 245.478 69.216C245.478 69.4507 245.548 69.6373 245.686 69.776C245.825 69.9147 246.001 70.0213 246.214 70.096C246.428 70.16 246.742 70.2347 247.158 70.32C247.244 70.3307 247.372 70.3573 247.542 70.4C248.193 70.5493 248.732 70.7093 249.158 70.88C249.585 71.0507 249.942 71.3067 250.23 71.648C250.529 71.9893 250.678 72.4427 250.678 73.008C250.678 73.808 250.385 74.432 249.798 74.88C249.212 75.328 248.385 75.552 247.318 75.552Z" fill="#C6C6C8"/>
<path d="M253.979 63.888H255.546V75.328H253.979V63.888Z" fill="#C6C6C8"/>
<path d="M258.923 75.552C258.112 75.552 257.461 75.3387 256.971 74.912C256.491 74.4853 256.251 73.92 256.251 73.216C256.251 72.6293 256.384 72.16 256.651 71.808C256.928 71.4453 257.307 71.168 257.787 70.976C258.277 70.7733 258.901 70.6027 259.659 70.464C260.181 70.368 260.576 70.2827 260.843 70.208C261.109 70.1227 261.323 70.0107 261.483 69.872C261.643 69.7227 261.723 69.52 261.723 69.264C261.723 68.5387 261.205 68.176 260.171 68.176C259.477 68.176 258.992 68.2933 258.715 68.528C258.437 68.7627 258.277 69.1573 258.235 69.712H256.635C256.677 68.8693 256.992 68.192 257.579 67.68C258.165 67.168 259.051 66.912 260.235 66.912C261.152 66.912 261.883 67.136 262.427 67.584C262.981 68.0213 263.259 68.736 263.259 69.728V73.472C263.259 73.7813 263.285 74.0107 263.339 74.16C263.392 74.2987 263.493 74.368 263.643 74.368L263.835 74.352V75.312C263.568 75.376 263.301 75.408 263.035 75.408C262.629 75.408 262.32 75.3173 262.107 75.136C261.904 74.944 261.781 74.624 261.739 74.176H261.707C261.44 74.6133 261.072 74.9547 260.603 75.2C260.133 75.4347 259.573 75.552 258.923 75.552ZM257.883 73.104C257.883 73.8933 258.347 74.288 259.275 74.288C260.011 74.288 260.603 74.1067 261.051 73.744C261.499 73.3707 261.723 72.8373 261.723 72.144V70.976C261.605 71.0827 261.397 71.184 261.099 71.28C260.811 71.3653 260.421 71.4613 259.931 71.568C259.195 71.7173 258.667 71.9093 258.347 72.144C258.037 72.368 257.883 72.688 257.883 73.104Z" fill="#C6C6C8"/>
<path d="M269.967 70.096C269.967 69.52 269.828 69.072 269.551 68.752C269.284 68.432 268.868 68.272 268.303 68.272C267.631 68.272 267.092 68.4587 266.687 68.832C266.292 69.2053 266.095 69.7013 266.095 70.32V75.328H264.527V67.168H266.095V68.192H266.127C266.372 67.8293 266.719 67.5307 267.167 67.296C267.615 67.0507 268.164 66.928 268.815 66.928C269.615 66.928 270.265 67.1627 270.767 67.632C271.279 68.0907 271.535 68.768 271.535 69.664V75.328H269.967V70.096Z" fill="#C6C6C8"/>
<path d="M275.838 75.552C275.144 75.552 274.52 75.3813 273.966 75.04C273.411 74.688 272.974 74.1867 272.654 73.536C272.334 72.8853 272.174 72.1227 272.174 71.248C272.174 70.3733 272.334 69.6107 272.654 68.96C272.974 68.3093 273.411 67.808 273.966 67.456C274.52 67.104 275.144 66.928 275.838 66.928C276.435 66.928 276.936 67.0453 277.342 67.28C277.758 67.504 278.094 67.7973 278.35 68.16H278.382V63.888H279.95V75.328H278.382V74.368H278.35C278.083 74.7093 277.742 74.992 277.326 75.216C276.92 75.44 276.424 75.552 275.838 75.552ZM273.806 71.248C273.806 72.1013 274.003 72.816 274.398 73.392C274.792 73.968 275.358 74.256 276.094 74.256C276.798 74.256 277.352 73.9893 277.758 73.456C278.163 72.912 278.366 72.176 278.366 71.248C278.366 70.32 278.163 69.5893 277.758 69.056C277.352 68.512 276.798 68.24 276.094 68.24C275.358 68.24 274.792 68.528 274.398 69.104C274.003 69.68 273.806 70.3947 273.806 71.248Z" fill="#C6C6C8"/>
<path d="M286.034 75.552C285.224 75.552 284.573 75.3387 284.082 74.912C283.602 74.4853 283.362 73.92 283.362 73.216C283.362 72.6293 283.496 72.16 283.763 71.808C284.04 71.4453 284.418 71.168 284.898 70.976C285.389 70.7733 286.013 70.6027 286.771 70.464C287.293 70.368 287.688 70.2827 287.954 70.208C288.221 70.1227 288.434 70.0107 288.594 69.872C288.754 69.7227 288.835 69.52 288.835 69.264C288.835 68.5387 288.317 68.176 287.283 68.176C286.589 68.176 286.104 68.2933 285.827 68.528C285.549 68.7627 285.389 69.1573 285.346 69.712H283.746C283.789 68.8693 284.104 68.192 284.69 67.68C285.277 67.168 286.162 66.912 287.346 66.912C288.264 66.912 288.994 67.136 289.538 67.584C290.093 68.0213 290.37 68.736 290.37 69.728V73.472C290.37 73.7813 290.397 74.0107 290.451 74.16C290.504 74.2987 290.605 74.368 290.754 74.368L290.947 74.352V75.312C290.68 75.376 290.413 75.408 290.146 75.408C289.741 75.408 289.432 75.3173 289.219 75.136C289.016 74.944 288.893 74.624 288.85 74.176H288.819C288.552 74.6133 288.184 74.9547 287.715 75.2C287.245 75.4347 286.685 75.552 286.034 75.552ZM284.995 73.104C284.995 73.8933 285.459 74.288 286.387 74.288C287.123 74.288 287.715 74.1067 288.163 73.744C288.611 73.3707 288.835 72.8373 288.835 72.144V70.976C288.717 71.0827 288.509 71.184 288.211 71.28C287.923 71.3653 287.533 71.4613 287.043 71.568C286.307 71.7173 285.778 71.9093 285.458 72.144C285.149 72.368 284.995 72.688 284.995 73.104Z" fill="#C6C6C8"/>
<path d="M297.079 70.096C297.079 69.52 296.94 69.072 296.663 68.752C296.396 68.432 295.98 68.272 295.415 68.272C294.743 68.272 294.204 68.4587 293.799 68.832C293.404 69.2053 293.207 69.7013 293.207 70.32V75.328H291.639V67.168H293.207V68.192H293.239C293.484 67.8293 293.831 67.5307 294.279 67.296C294.727 67.0507 295.276 66.928 295.927 66.928C296.727 66.928 297.377 67.1627 297.879 67.632C298.391 68.0907 298.647 68.768 298.647 69.664V75.328H297.079V70.096Z" fill="#C6C6C8"/>
<path d="M302.95 75.552C302.256 75.552 301.632 75.3813 301.078 75.04C300.523 74.688 300.086 74.1867 299.766 73.536C299.446 72.8853 299.286 72.1227 299.286 71.248C299.286 70.3733 299.446 69.6107 299.766 68.96C300.086 68.3093 300.523 67.808 301.078 67.456C301.632 67.104 302.256 66.928 302.95 66.928C303.547 66.928 304.048 67.0453 304.454 67.28C304.87 67.504 305.206 67.7973 305.462 68.16H305.494V63.888H307.062V75.328H305.494V74.368H305.462C305.195 74.7093 304.854 74.992 304.438 75.216C304.032 75.44 303.536 75.552 302.95 75.552ZM300.918 71.248C300.918 72.1013 301.115 72.816 301.51 73.392C301.904 73.968 302.47 74.256 303.206 74.256C303.91 74.256 304.464 73.9893 304.87 73.456C305.275 72.912 305.478 72.176 305.478 71.248C305.478 70.32 305.275 69.5893 304.87 69.056C304.464 68.512 303.91 68.24 303.206 68.24C302.47 68.24 301.904 68.528 301.51 69.104C301.115 69.68 300.918 70.3947 300.918 71.248Z" fill="#C6C6C8"/>
<path d="M309.858 67.168H311.553L313.281 73.488H313.314L315.009 67.168H316.594L318.289 73.488H318.322L320.065 67.168H321.698L319.169 75.328H317.553L315.793 69.04H315.762L314.001 75.328H312.385L309.858 67.168Z" fill="#C6C6C8"/>
<path d="M324.1 75.552C323.289 75.552 322.639 75.3387 322.148 74.912C321.668 74.4853 321.428 73.92 321.428 73.216C321.428 72.6293 321.561 72.16 321.828 71.808C322.105 71.4453 322.484 71.168 322.964 70.976C323.455 70.7733 324.079 70.6027 324.836 70.464C325.359 70.368 325.753 70.2827 326.02 70.208C326.287 70.1227 326.5 70.0107 326.66 69.872C326.82 69.7227 326.9 69.52 326.9 69.264C326.9 68.5387 326.383 68.176 325.348 68.176C324.655 68.176 324.169 68.2933 323.892 68.528C323.615 68.7627 323.455 69.1573 323.412 69.712H321.812C321.855 68.8693 322.169 68.192 322.756 67.68C323.343 67.168 324.228 66.912 325.412 66.912C326.329 66.912 327.06 67.136 327.604 67.584C328.159 68.0213 328.436 68.736 328.436 69.728V73.472C328.436 73.7813 328.463 74.0107 328.516 74.16C328.569 74.2987 328.671 74.368 328.82 74.368L329.012 74.352V75.312C328.745 75.376 328.479 75.408 328.212 75.408C327.807 75.408 327.497 75.3173 327.284 75.136C327.081 74.944 326.959 74.624 326.916 74.176H326.884C326.617 74.6133 326.249 74.9547 325.78 75.2C325.311 75.4347 324.751 75.552 324.1 75.552ZM323.06 73.104C323.06 73.8933 323.524 74.288 324.452 74.288C325.188 74.288 325.78 74.1067 326.228 73.744C326.676 73.3707 326.9 72.8373 326.9 72.144V70.976C326.783 71.0827 326.575 71.184 326.276 71.28C325.988 71.3653 325.599 71.4613 325.108 71.568C324.372 71.7173 323.844 71.9093 323.524 72.144C323.215 72.368 323.06 72.688 323.06 73.104Z" fill="#C6C6C8"/>
<path d="M332.236 75.424C331.511 75.424 330.967 75.248 330.604 74.896C330.252 74.544 330.076 73.92 330.076 73.024V68.464H328.892V67.168H330.076V64.544H331.644V67.168H333.212V68.464H331.644V73.072C331.644 73.488 331.708 73.7707 331.836 73.92C331.975 74.0587 332.215 74.128 332.556 74.128C332.759 74.128 332.983 74.1067 333.228 74.064V75.328C332.908 75.392 332.577 75.424 332.236 75.424Z" fill="#C6C6C8"/>
<path d="M337.321 75.568C336.478 75.568 335.753 75.3813 335.145 75.008C334.537 74.6347 334.073 74.1227 333.753 73.472C333.443 72.8213 333.289 72.0747 333.289 71.232C333.289 70.3787 333.449 69.6267 333.769 68.976C334.099 68.3253 334.569 67.8187 335.177 67.456C335.785 67.0933 336.499 66.912 337.321 66.912C338.547 66.912 339.497 67.2853 340.169 68.032C340.851 68.7787 341.193 69.792 341.193 71.072C341.193 71.3813 341.187 71.5787 341.177 71.664H334.905C334.926 72.4 335.145 73.024 335.561 73.536C335.987 74.0373 336.585 74.288 337.353 74.288C337.993 74.288 338.483 74.1333 338.825 73.824C339.177 73.5147 339.401 73.1787 339.497 72.816H341.097C340.862 73.648 340.43 74.3147 339.801 74.816C339.171 75.3173 338.345 75.568 337.321 75.568ZM339.561 70.432C339.561 69.7813 339.347 69.248 338.921 68.832C338.505 68.4053 337.955 68.192 337.273 68.192C336.611 68.192 336.062 68.4 335.625 68.816C335.187 69.2213 334.947 69.76 334.905 70.432H339.561Z" fill="#C6C6C8"/>
<path d="M343.445 75.328H341.877V67.168H343.445V68.72H343.477C343.968 67.5573 344.699 66.976 345.669 66.976C345.936 66.976 346.187 66.992 346.421 67.024V68.528C346.229 68.496 346.053 68.48 345.893 68.48C345.179 68.48 344.592 68.7253 344.133 69.216C343.675 69.7067 343.445 70.336 343.445 71.104V75.328Z" fill="#C6C6C8"/>
<path d="M345.546 73.584H347.29V75.328H345.546V73.584Z" fill="#C6C6C8"/>
</svg>
