<svg width="384" height="79" viewBox="0 0 384 79" fill="none" xmlns="http://www.w3.org/2000/svg">
<path d="M11.92 23.776C9.68 23.776 7.70667 23.264 6 22.24C4.31467 21.216 3.00267 19.808 2.064 18.016C1.14667 16.2027 0.688 14.1547 0.688 11.872C0.688 9.58933 1.14667 7.552 2.064 5.76C3.00267 3.94667 4.31467 2.53867 6 1.536C7.70667 0.512 9.68 0 11.92 0C14.16 0 16.1227 0.512 17.808 1.536C19.5147 2.53867 20.8267 3.94667 21.744 5.76C22.6827 7.552 23.152 9.58933 23.152 11.872C23.152 14.1547 22.6827 16.2027 21.744 18.016C20.8267 19.808 19.5147 21.216 17.808 22.24C16.1227 23.264 14.16 23.776 11.92 23.776ZM4.368 11.872C4.368 14.432 4.98667 16.5547 6.224 18.24C7.48267 19.904 9.38133 20.736 11.92 20.736C14.4587 20.736 16.3467 19.904 17.584 18.24C18.8427 16.5547 19.472 14.432 19.472 11.872C19.472 9.312 18.8427 7.2 17.584 5.536C16.3467 3.872 14.4587 3.04 11.92 3.04C9.38133 3.04 7.48267 3.872 6.224 5.536C4.98667 7.2 4.368 9.312 4.368 11.872Z" fill="#C6C6C8"/>
<path d="M35.4585 12.864C35.4585 11.712 35.1812 10.816 34.6265 10.176C34.0932 9.536 33.2612 9.216 32.1305 9.216C30.7865 9.216 29.7092 9.58933 28.8985 10.336C28.1092 11.0827 27.7145 12.0747 27.7145 13.312V23.328H24.5785V7.008H27.7145V9.056H27.7785C28.2692 8.33067 28.9625 7.73333 29.8585 7.264C30.7545 6.77333 31.8532 6.528 33.1545 6.528C34.7545 6.528 36.0558 6.99733 37.0585 7.936C38.0825 8.85333 38.5945 10.208 38.5945 12V23.328H35.4585V12.864Z" fill="#C6C6C8"/>
<path d="M47.9367 23.808C46.2514 23.808 44.8007 23.4347 43.5847 22.688C42.3687 21.9413 41.4407 20.9173 40.8007 19.616C40.1821 18.3147 39.8727 16.8213 39.8727 15.136C39.8727 13.4293 40.1927 11.9253 40.8327 10.624C41.4941 9.32267 42.4328 8.30933 43.6488 7.584C44.8648 6.85867 46.2941 6.496 47.9367 6.496C50.3901 6.496 52.2887 7.24267 53.6327 8.736C54.9981 10.2293 55.6807 12.256 55.6807 14.816C55.6807 15.4347 55.6701 15.8293 55.6488 16H43.1047C43.1474 17.472 43.5847 18.72 44.4167 19.744C45.2701 20.7467 46.4647 21.248 48.0007 21.248C49.2807 21.248 50.2621 20.9387 50.9447 20.32C51.6487 19.7013 52.0967 19.0293 52.2887 18.304H55.4888C55.0194 19.968 54.1554 21.3013 52.8967 22.304C51.6381 23.3067 49.9847 23.808 47.9367 23.808ZM52.4167 13.536C52.4167 12.2347 51.9901 11.168 51.1367 10.336C50.3047 9.48267 49.2061 9.056 47.8407 9.056C46.5181 9.056 45.4194 9.472 44.5448 10.304C43.6701 11.1147 43.1901 12.192 43.1047 13.536H52.4167Z" fill="#C6C6C8"/>
<path d="M62.0413 13.696H70.6172V16.672H62.0413V13.696Z" fill="#C6C6C8"/>
<path d="M78.3467 0.448H87.8828C90.1654 0.448 91.9788 1.01333 93.3228 2.144C94.6881 3.25333 95.3708 4.96 95.3708 7.264C95.3708 9.568 94.6881 11.2747 93.3228 12.384C91.9788 13.4933 90.1654 14.048 87.8828 14.048H81.8668V23.328H78.3467V0.448ZM87.7227 11.008C89.0667 11.008 90.0694 10.7093 90.7308 10.112C91.3921 9.49333 91.7227 8.544 91.7227 7.264C91.7227 5.984 91.3921 5.03467 90.7308 4.416C90.0694 3.79733 89.0667 3.488 87.7227 3.488H81.8668V11.008H87.7227Z" fill="#C6C6C8"/>
<path d="M96.4922 0.448H99.6283V23.328H96.4922V0.448Z" fill="#C6C6C8"/>
<path d="M106.381 23.776C104.759 23.776 103.458 23.3493 102.477 22.496C101.517 21.6427 101.036 20.512 101.036 19.104C101.036 17.9307 101.303 16.992 101.837 16.288C102.391 15.5627 103.149 15.008 104.109 14.624C105.09 14.2187 106.338 13.8773 107.853 13.6C108.898 13.408 109.687 13.2373 110.221 13.088C110.754 12.9173 111.181 12.6933 111.501 12.416C111.821 12.1173 111.98 11.712 111.98 11.2C111.98 9.74933 110.946 9.024 108.877 9.024C107.49 9.024 106.519 9.25867 105.965 9.728C105.41 10.1973 105.09 10.9867 105.005 12.096H101.805C101.89 10.4107 102.519 9.056 103.693 8.032C104.866 7.008 106.637 6.496 109.005 6.496C110.839 6.496 112.301 6.944 113.389 7.84C114.498 8.71467 115.053 10.144 115.053 12.128V19.616C115.053 20.2347 115.106 20.6933 115.213 20.992C115.319 21.2693 115.522 21.408 115.821 21.408L116.205 21.376V23.296C115.671 23.424 115.138 23.488 114.604 23.488C113.794 23.488 113.175 23.3067 112.749 22.944C112.343 22.56 112.098 21.92 112.013 21.024H111.949C111.415 21.8987 110.679 22.5813 109.741 23.072C108.802 23.5413 107.682 23.776 106.381 23.776ZM104.3 18.88C104.3 20.4587 105.229 21.248 107.085 21.248C108.557 21.248 109.741 20.8853 110.637 20.16C111.533 19.4133 111.98 18.3467 111.98 16.96V14.624C111.746 14.8373 111.33 15.04 110.733 15.232C110.157 15.4027 109.378 15.5947 108.396 15.808C106.924 16.1067 105.869 16.4907 105.229 16.96C104.61 17.408 104.3 18.048 104.3 18.88Z" fill="#C6C6C8"/>
<path d="M128.469 12.864C128.469 11.712 128.191 10.816 127.637 10.176C127.103 9.536 126.271 9.216 125.141 9.216C123.797 9.216 122.719 9.58933 121.909 10.336C121.119 11.0827 120.725 12.0747 120.725 13.312V23.328H117.589V7.008H120.725V9.056H120.789C121.279 8.33067 121.973 7.73333 122.869 7.264C123.765 6.77333 124.863 6.528 126.165 6.528C127.765 6.528 129.066 6.99733 130.068 7.936C131.092 8.85333 131.605 10.208 131.605 12V23.328H128.469V12.864Z" fill="#C6C6C8"/>
<path d="M140.947 23.808C139.261 23.808 137.811 23.4347 136.595 22.688C135.379 21.9413 134.451 20.9173 133.811 19.616C133.192 18.3147 132.883 16.8213 132.883 15.136C132.883 13.4293 133.203 11.9253 133.843 10.624C134.504 9.32267 135.443 8.30933 136.659 7.584C137.875 6.85867 139.304 6.496 140.947 6.496C143.4 6.496 145.299 7.24267 146.643 8.736C148.008 10.2293 148.691 12.256 148.691 14.816C148.691 15.4347 148.68 15.8293 148.659 16H136.115C136.157 17.472 136.595 18.72 137.427 19.744C138.28 20.7467 139.475 21.248 141.011 21.248C142.291 21.248 143.272 20.9387 143.955 20.32C144.659 19.7013 145.107 19.0293 145.299 18.304H148.499C148.029 19.968 147.165 21.3013 145.907 22.304C144.648 23.3067 142.995 23.808 140.947 23.808ZM145.427 13.536C145.427 12.2347 145 11.168 144.147 10.336C143.315 9.48267 142.216 9.056 140.851 9.056C139.528 9.056 138.429 9.472 137.555 10.304C136.68 11.1147 136.2 12.192 136.115 13.536H145.427Z" fill="#C6C6C8"/>
<path d="M155.186 23.52C153.735 23.52 152.647 23.168 151.922 22.464C151.218 21.76 150.866 20.512 150.866 18.72V9.6H148.498V7.008H150.866V1.76H154.002V7.008H157.138V9.6H154.002V18.816C154.002 19.648 154.13 20.2133 154.386 20.512C154.663 20.7893 155.143 20.928 155.826 20.928C156.231 20.928 156.679 20.8853 157.17 20.8V23.328C156.53 23.456 155.868 23.52 155.186 23.52Z" fill="#C6C6C8"/>
<path d="M162.979 23.776C161.358 23.776 160.057 23.3493 159.075 22.496C158.115 21.6427 157.635 20.512 157.635 19.104C157.635 17.9307 157.902 16.992 158.435 16.288C158.99 15.5627 159.747 15.008 160.707 14.624C161.689 14.2187 162.937 13.8773 164.451 13.6C165.497 13.408 166.286 13.2373 166.819 13.088C167.353 12.9173 167.779 12.6933 168.099 12.416C168.419 12.1173 168.579 11.712 168.579 11.2C168.579 9.74933 167.545 9.024 165.475 9.024C164.089 9.024 163.118 9.25867 162.563 9.728C162.009 10.1973 161.689 10.9867 161.603 12.096H158.403C158.489 10.4107 159.118 9.056 160.291 8.032C161.465 7.008 163.235 6.496 165.603 6.496C167.438 6.496 168.899 6.944 169.987 7.84C171.097 8.71467 171.651 10.144 171.651 12.128V19.616C171.651 20.2347 171.705 20.6933 171.811 20.992C171.918 21.2693 172.121 21.408 172.419 21.408L172.803 21.376V23.296C172.27 23.424 171.737 23.488 171.203 23.488C170.393 23.488 169.774 23.3067 169.347 22.944C168.942 22.56 168.697 21.92 168.611 21.024H168.547C168.014 21.8987 167.278 22.5813 166.339 23.072C165.401 23.5413 164.281 23.776 162.979 23.776ZM160.899 18.88C160.899 20.4587 161.827 21.248 163.683 21.248C165.155 21.248 166.339 20.8853 167.235 20.16C168.131 19.4133 168.579 18.3467 168.579 16.96V14.624C168.345 14.8373 167.929 15.04 167.331 15.232C166.755 15.4027 165.977 15.5947 164.995 15.808C163.523 16.1067 162.467 16.4907 161.827 16.96C161.209 17.408 160.899 18.048 160.899 18.88Z" fill="#C6C6C8"/>
<path d="M177.323 23.328H174.187V7.008H177.323V10.112H177.387C178.369 7.78667 179.83 6.624 181.771 6.624C182.305 6.624 182.806 6.656 183.275 6.72V9.728C182.891 9.664 182.539 9.632 182.219 9.632C180.79 9.632 179.617 10.1227 178.699 11.104C177.782 12.0853 177.323 13.344 177.323 14.88V23.328Z" fill="#C6C6C8"/>
<path d="M186.207 29.056C185.631 29.056 184.959 28.9813 184.191 28.832V26.272C184.745 26.336 185.193 26.368 185.535 26.368C186.26 26.368 186.921 26.1227 187.519 25.632C188.137 25.1627 188.596 24.3413 188.895 23.168L182.303 7.008H185.727L190.495 19.488H190.559L195.039 7.008H198.335L191.871 23.712C191.103 25.696 190.281 27.0827 189.407 27.872C188.553 28.6613 187.487 29.056 186.207 29.056Z" fill="#C6C6C8"/>
<path d="M204.109 0.448H207.629V23.328H204.109V0.448Z" fill="#C6C6C8"/>
<path d="M220.979 12.864C220.979 11.712 220.701 10.816 220.146 10.176C219.613 9.536 218.781 9.216 217.651 9.216C216.307 9.216 215.229 9.58933 214.419 10.336C213.629 11.0827 213.235 12.0747 213.235 13.312V23.328H210.099V7.008H213.235V9.056H213.299C213.789 8.33067 214.483 7.73333 215.379 7.264C216.275 6.77333 217.373 6.528 218.674 6.528C220.274 6.528 221.576 6.99733 222.579 7.936C223.603 8.85333 224.115 10.208 224.115 12V23.328H220.979V12.864Z" fill="#C6C6C8"/>
<path d="M231.445 23.52C229.994 23.52 228.906 23.168 228.181 22.464C227.477 21.76 227.125 20.512 227.125 18.72V9.6H224.757V7.008H227.125V1.76H230.261V7.008H233.396V9.6H230.261V18.816C230.261 19.648 230.389 20.2133 230.645 20.512C230.922 20.7893 231.402 20.928 232.085 20.928C232.49 20.928 232.938 20.8853 233.429 20.8V23.328C232.789 23.456 232.127 23.52 231.445 23.52Z" fill="#C6C6C8"/>
<path d="M241.614 23.808C239.929 23.808 238.478 23.4347 237.262 22.688C236.046 21.9413 235.118 20.9173 234.478 19.616C233.86 18.3147 233.55 16.8213 233.55 15.136C233.55 13.4293 233.87 11.9253 234.51 10.624C235.172 9.32267 236.11 8.30933 237.326 7.584C238.542 6.85867 239.972 6.496 241.614 6.496C244.068 6.496 245.966 7.24267 247.31 8.736C248.676 10.2293 249.358 12.256 249.358 14.816C249.358 15.4347 249.348 15.8293 249.326 16H236.782C236.825 17.472 237.262 18.72 238.094 19.744C238.948 20.7467 240.142 21.248 241.678 21.248C242.958 21.248 243.94 20.9387 244.622 20.32C245.326 19.7013 245.774 19.0293 245.966 18.304H249.166C248.697 19.968 247.833 21.3013 246.574 22.304C245.316 23.3067 243.662 23.808 241.614 23.808ZM246.094 13.536C246.094 12.2347 245.668 11.168 244.814 10.336C243.982 9.48267 242.884 9.056 241.518 9.056C240.196 9.056 239.097 9.472 238.222 10.304C237.348 11.1147 236.868 12.192 236.782 13.536H246.094Z" fill="#C6C6C8"/>
<path d="M250.727 0.448H253.863V23.328H250.727V0.448Z" fill="#C6C6C8"/>
<path d="M256.103 0.448H259.24V23.328H256.103V0.448Z" fill="#C6C6C8"/>
<path d="M261.48 7.008H264.616V23.328H261.48V7.008ZM261.288 0.704H264.84V4.096H261.288V0.704Z" fill="#C6C6C8"/>
<path d="M273.864 29.184C271.624 29.184 269.885 28.704 268.648 27.744C267.411 26.8053 266.707 25.5573 266.536 24H269.8C270.184 25.7493 271.539 26.624 273.864 26.624C275.379 26.624 276.509 26.272 277.256 25.568C278.003 24.864 278.376 23.7547 278.376 22.24V20.032H278.312C277.181 21.6747 275.507 22.496 273.288 22.496C271.923 22.496 270.696 22.1973 269.608 21.6C268.52 20.9813 267.656 20.0747 267.016 18.88C266.397 17.664 266.088 16.2133 266.088 14.528C266.088 12.8213 266.397 11.3707 267.016 10.176C267.656 8.98133 268.509 8.07467 269.576 7.456C270.664 6.83733 271.901 6.528 273.288 6.528C275.4 6.528 277.075 7.328 278.312 8.928H278.376V7.008H281.512V22.048C281.512 24.4373 280.84 26.2187 279.496 27.392C278.152 28.5867 276.275 29.184 273.864 29.184ZM269.352 14.528C269.352 16.128 269.736 17.4293 270.504 18.432C271.272 19.4133 272.392 19.904 273.864 19.904C275.293 19.904 276.392 19.4453 277.16 18.528C277.949 17.6107 278.344 16.2773 278.344 14.528C278.344 12.7573 277.949 11.424 277.16 10.528C276.392 9.61067 275.293 9.152 273.864 9.152C272.392 9.152 271.272 9.65333 270.504 10.656C269.736 11.6373 269.352 12.928 269.352 14.528Z" fill="#C6C6C8"/>
<path d="M290.964 23.808C289.279 23.808 287.828 23.4347 286.612 22.688C285.396 21.9413 284.468 20.9173 283.828 19.616C283.21 18.3147 282.9 16.8213 282.9 15.136C282.9 13.4293 283.22 11.9253 283.86 10.624C284.522 9.32267 285.46 8.30933 286.676 7.584C287.892 6.85867 289.322 6.496 290.964 6.496C293.418 6.496 295.316 7.24267 296.66 8.736C298.026 10.2293 298.708 12.256 298.708 14.816C298.708 15.4347 298.698 15.8293 298.676 16H286.132C286.175 17.472 286.612 18.72 287.444 19.744C288.298 20.7467 289.492 21.248 291.028 21.248C292.308 21.248 293.29 20.9387 293.972 20.32C294.676 19.7013 295.124 19.0293 295.316 18.304H298.516C298.047 19.968 297.183 21.3013 295.924 22.304C294.666 23.3067 293.012 23.808 290.964 23.808ZM295.444 13.536C295.444 12.2347 295.018 11.168 294.164 10.336C293.332 9.48267 292.234 9.056 290.868 9.056C289.546 9.056 288.447 9.472 287.572 10.304C286.698 11.1147 286.218 12.192 286.132 13.536H295.444Z" fill="#C6C6C8"/>
<path d="M310.957 12.864C310.957 11.712 310.68 10.816 310.125 10.176C309.592 9.536 308.76 9.216 307.629 9.216C306.285 9.216 305.208 9.58933 304.397 10.336C303.608 11.0827 303.213 12.0747 303.213 13.312V23.328H300.077V7.008H303.213V9.056H303.277C303.768 8.33067 304.461 7.73333 305.357 7.264C306.253 6.77333 307.352 6.528 308.653 6.528C310.253 6.528 311.555 6.99733 312.557 7.936C313.581 8.85333 314.093 10.208 314.093 12V23.328H310.957V12.864Z" fill="#C6C6C8"/>
<path d="M323.371 23.808C321.771 23.808 320.363 23.4453 319.147 22.72C317.931 21.9947 316.993 20.9813 316.332 19.68C315.67 18.3573 315.34 16.8533 315.34 15.168C315.34 13.4827 315.67 11.9893 316.332 10.688C316.993 9.36533 317.921 8.34133 319.116 7.616C320.332 6.89067 321.74 6.528 323.34 6.528C324.705 6.528 325.921 6.80533 326.987 7.36C328.054 7.89333 328.908 8.65067 329.548 9.632C330.188 10.592 330.571 11.6907 330.699 12.928H327.467C327.361 11.904 326.988 11.0187 326.348 10.272C325.708 9.504 324.715 9.12 323.371 9.12C321.75 9.12 320.545 9.70667 319.755 10.88C318.987 12.032 318.604 13.4613 318.604 15.168C318.604 16.8747 318.987 18.304 319.755 19.456C320.545 20.608 321.75 21.184 323.371 21.184C324.737 21.184 325.74 20.8107 326.38 20.064C327.02 19.3173 327.382 18.3893 327.467 17.28H330.699C330.635 18.5173 330.283 19.6373 329.643 20.64C329.003 21.6213 328.14 22.4 327.052 22.976C325.964 23.5307 324.737 23.808 323.371 23.808Z" fill="#C6C6C8"/>
<path d="M339.156 23.808C337.47 23.808 336.019 23.4347 334.803 22.688C333.587 21.9413 332.66 20.9173 332.02 19.616C331.401 18.3147 331.091 16.8213 331.091 15.136C331.091 13.4293 331.412 11.9253 332.052 10.624C332.713 9.32267 333.651 8.30933 334.867 7.584C336.083 6.85867 337.513 6.496 339.156 6.496C341.609 6.496 343.508 7.24267 344.852 8.736C346.217 10.2293 346.9 12.256 346.9 14.816C346.9 15.4347 346.889 15.8293 346.867 16H334.324C334.366 17.472 334.803 18.72 335.635 19.744C336.489 20.7467 337.684 21.248 339.22 21.248C340.5 21.248 341.481 20.9387 342.164 20.32C342.868 19.7013 343.316 19.0293 343.508 18.304H346.707C346.238 19.968 345.374 21.3013 344.116 22.304C342.857 23.3067 341.204 23.808 339.156 23.808ZM343.635 13.536C343.635 12.2347 343.209 11.168 342.355 10.336C341.523 9.48267 340.425 9.056 339.06 9.056C337.737 9.056 336.638 9.472 335.763 10.304C334.889 11.1147 334.409 12.192 334.324 13.536H343.635Z" fill="#C6C6C8"/>
<path d="M5.728 56.552C4.608 56.552 3.62133 56.296 2.768 55.784C1.92533 55.272 1.26933 54.568 0.8 53.672C0.341333 52.7653 0.112 51.7413 0.112 50.6C0.112 49.4587 0.341333 48.44 0.8 47.544C1.26933 46.6373 1.92533 45.9333 2.768 45.432C3.62133 44.92 4.608 44.664 5.728 44.664C6.848 44.664 7.82933 44.92 8.672 45.432C9.52533 45.9333 10.1813 46.6373 10.64 47.544C11.1093 48.44 11.344 49.4587 11.344 50.6C11.344 51.7413 11.1093 52.7653 10.64 53.672C10.1813 54.568 9.52533 55.272 8.672 55.784C7.82933 56.296 6.848 56.552 5.728 56.552ZM1.952 50.6C1.952 51.88 2.26133 52.9413 2.88 53.784C3.50933 54.616 4.45867 55.032 5.728 55.032C6.99733 55.032 7.94133 54.616 8.56 53.784C9.18933 52.9413 9.504 51.88 9.504 50.6C9.504 49.32 9.18933 48.264 8.56 47.432C7.94133 46.6 6.99733 46.184 5.728 46.184C4.45867 46.184 3.50933 46.6 2.88 47.432C2.26133 48.264 1.952 49.32 1.952 50.6Z" fill="#C6C6C8"/>
<path d="M17.4972 51.096C17.4972 50.52 17.3586 50.072 17.0812 49.752C16.8146 49.432 16.3986 49.272 15.8333 49.272C15.1613 49.272 14.6226 49.4587 14.2172 49.832C13.8226 50.2053 13.6252 50.7013 13.6252 51.32V56.328H12.0573V48.168H13.6252V49.192H13.6572C13.9026 48.8293 14.2492 48.5307 14.6972 48.296C15.1452 48.0507 15.6946 47.928 16.3452 47.928C17.1452 47.928 17.7959 48.1627 18.2973 48.632C18.8093 49.0907 19.0653 49.768 19.0653 50.664V56.328H17.4972V51.096Z" fill="#C6C6C8"/>
<path d="M23.7364 56.568C22.8937 56.568 22.1684 56.3813 21.5604 56.008C20.9524 55.6347 20.4884 55.1227 20.1684 54.472C19.859 53.8213 19.7044 53.0747 19.7044 52.232C19.7044 51.3787 19.8644 50.6267 20.1844 49.976C20.515 49.3253 20.9844 48.8187 21.5924 48.456C22.2004 48.0933 22.915 47.912 23.7364 47.912C24.963 47.912 25.9124 48.2853 26.5844 49.032C27.267 49.7787 27.6084 50.792 27.6084 52.072C27.6084 52.3813 27.603 52.5787 27.5924 52.664H21.3204C21.3417 53.4 21.5604 54.024 21.9764 54.536C22.403 55.0373 23.0004 55.288 23.7684 55.288C24.4084 55.288 24.899 55.1333 25.2404 54.824C25.5924 54.5147 25.8164 54.1787 25.9124 53.816H27.5124C27.2777 54.648 26.8457 55.3147 26.2164 55.816C25.587 56.3173 24.7604 56.568 23.7364 56.568ZM25.9764 51.432C25.9764 50.7813 25.763 50.248 25.3364 49.832C24.9204 49.4053 24.371 49.192 23.6884 49.192C23.027 49.192 22.4777 49.4 22.0404 49.816C21.603 50.2213 21.363 50.76 21.3204 51.432H25.9764Z" fill="#C6C6C8"/>
<path d="M32.5646 56.328H30.9966V48.168H32.5646V49.72H32.5966C33.0873 48.5573 33.818 47.976 34.7886 47.976C35.0553 47.976 35.306 47.992 35.5406 48.024V49.528C35.3486 49.496 35.1726 49.48 35.0126 49.48C34.298 49.48 33.7113 49.7253 33.2526 50.216C32.794 50.7067 32.5646 51.336 32.5646 52.104V56.328Z" fill="#C6C6C8"/>
<path d="M39.1914 56.568C38.3487 56.568 37.6234 56.3813 37.0154 56.008C36.4074 55.6347 35.9434 55.1227 35.6234 54.472C35.314 53.8213 35.1594 53.0747 35.1594 52.232C35.1594 51.3787 35.3194 50.6267 35.6394 49.976C35.97 49.3253 36.4394 48.8187 37.0474 48.456C37.6554 48.0933 38.37 47.912 39.1914 47.912C40.418 47.912 41.3674 48.2853 42.0394 49.032C42.722 49.7787 43.0634 50.792 43.0634 52.072C43.0634 52.3813 43.058 52.5787 43.0474 52.664H36.7754C36.7967 53.4 37.0154 54.024 37.4314 54.536C37.858 55.0373 38.4554 55.288 39.2234 55.288C39.8634 55.288 40.354 55.1333 40.6954 54.824C41.0474 54.5147 41.2714 54.1787 41.3674 53.816H42.9674C42.7327 54.648 42.3007 55.3147 41.6714 55.816C41.042 56.3173 40.2154 56.568 39.1914 56.568ZM41.4314 51.432C41.4314 50.7813 41.218 50.248 40.7914 49.832C40.3754 49.4053 39.826 49.192 39.1434 49.192C38.482 49.192 37.9327 49.4 37.4954 49.816C37.058 50.2213 36.818 50.76 36.7754 51.432H41.4314Z" fill="#C6C6C8"/>
<path d="M46.0039 56.552C45.1932 56.552 44.5425 56.3387 44.0519 55.912C43.5719 55.4853 43.3319 54.92 43.3319 54.216C43.3319 53.6293 43.4652 53.16 43.7319 52.808C44.0092 52.4453 44.3879 52.168 44.8679 51.976C45.3585 51.7733 45.9825 51.6027 46.7399 51.464C47.2625 51.368 47.6572 51.2827 47.9239 51.208C48.1905 51.1227 48.4039 51.0107 48.5639 50.872C48.7239 50.7227 48.8039 50.52 48.8039 50.264C48.8039 49.5387 48.2865 49.176 47.2519 49.176C46.5585 49.176 46.0732 49.2933 45.7959 49.528C45.5185 49.7627 45.3585 50.1573 45.3159 50.712H43.7159C43.7585 49.8693 44.0732 49.192 44.6599 48.68C45.2465 48.168 46.1319 47.912 47.3159 47.912C48.2332 47.912 48.9639 48.136 49.5079 48.584C50.0625 49.0213 50.3399 49.736 50.3399 50.728V54.472C50.3399 54.7813 50.3665 55.0107 50.4199 55.16C50.4732 55.2987 50.5745 55.368 50.7239 55.368L50.9159 55.352V56.312C50.6492 56.376 50.3825 56.408 50.1159 56.408C49.7105 56.408 49.4012 56.3173 49.1879 56.136C48.9852 55.944 48.8625 55.624 48.8199 55.176H48.7879C48.5212 55.6133 48.1532 55.9547 47.6839 56.2C47.2145 56.4347 46.6545 56.552 46.0039 56.552ZM44.9639 54.104C44.9639 54.8933 45.4279 55.288 46.3559 55.288C47.0919 55.288 47.6839 55.1067 48.1319 54.744C48.5799 54.3707 48.8039 53.8373 48.8039 53.144V51.976C48.6865 52.0827 48.4785 52.184 48.1799 52.28C47.8919 52.3653 47.5025 52.4613 47.0119 52.568C46.2759 52.7173 45.7479 52.9093 45.4279 53.144C45.1185 53.368 44.9639 53.688 44.9639 54.104Z" fill="#C6C6C8"/>
<path d="M54.7778 56.552C54.0844 56.552 53.4604 56.3813 52.9058 56.04C52.3511 55.688 51.9137 55.1867 51.5938 54.536C51.2737 53.8853 51.1138 53.1227 51.1138 52.248C51.1138 51.3733 51.2737 50.6107 51.5938 49.96C51.9137 49.3093 52.3511 48.808 52.9058 48.456C53.4604 48.104 54.0844 47.928 54.7778 47.928C55.3751 47.928 55.8764 48.0453 56.2817 48.28C56.6977 48.504 57.0337 48.7973 57.2897 49.16H57.3218V44.888H58.8898V56.328H57.3218V55.368H57.2897C57.0231 55.7093 56.6818 55.992 56.2658 56.216C55.8604 56.44 55.3644 56.552 54.7778 56.552ZM52.7458 52.248C52.7458 53.1013 52.9431 53.816 53.3377 54.392C53.7324 54.968 54.2978 55.256 55.0338 55.256C55.7378 55.256 56.2924 54.9893 56.6978 54.456C57.1031 53.912 57.3058 53.176 57.3058 52.248C57.3058 51.32 57.1031 50.5893 56.6978 50.056C56.2924 49.512 55.7378 49.24 55.0338 49.24C54.2978 49.24 53.7324 49.528 53.3377 50.104C52.9431 50.68 52.7458 51.3947 52.7458 52.248Z" fill="#C6C6C8"/>
<path d="M63.2308 56.552C62.0361 56.552 61.1134 56.28 60.4627 55.736C59.8227 55.192 59.4921 54.4827 59.4708 53.608H61.0548C61.0868 54.12 61.2734 54.5307 61.6147 54.84C61.9667 55.1387 62.5001 55.288 63.2148 55.288C63.8441 55.288 64.2921 55.176 64.5588 54.952C64.8254 54.7173 64.9587 54.4293 64.9587 54.088C64.9587 53.768 64.8628 53.5227 64.6708 53.352C64.4788 53.1813 64.2708 53.0693 64.0468 53.016C63.8334 52.952 63.4228 52.856 62.8148 52.728C62.1854 52.5787 61.6627 52.424 61.2467 52.264C60.8307 52.104 60.4788 51.864 60.1908 51.544C59.9028 51.224 59.7588 50.8027 59.7588 50.28C59.7588 49.5653 60.0308 48.9947 60.5748 48.568C61.1294 48.1413 61.8921 47.928 62.8628 47.928C63.9294 47.928 64.7508 48.1733 65.3268 48.664C65.9028 49.1547 66.2228 49.7787 66.2868 50.536H64.7028C64.6281 50.1413 64.4574 49.8213 64.1908 49.576C63.9348 49.32 63.5028 49.192 62.8948 49.192C62.3828 49.192 62.0041 49.2827 61.7588 49.464C61.5134 49.6453 61.3908 49.896 61.3908 50.216C61.3908 50.4507 61.4601 50.6373 61.5988 50.776C61.7374 50.9147 61.9134 51.0213 62.1268 51.096C62.3401 51.16 62.6548 51.2347 63.0708 51.32C63.1561 51.3307 63.2841 51.3573 63.4548 51.4C64.1054 51.5493 64.6441 51.7093 65.0708 51.88C65.4974 52.0507 65.8548 52.3067 66.1428 52.648C66.4414 52.9893 66.5908 53.4427 66.5908 54.008C66.5908 54.808 66.2974 55.432 65.7108 55.88C65.1241 56.328 64.2974 56.552 63.2308 56.552Z" fill="#C6C6C8"/>
<path d="M72.147 56.552C71.3363 56.552 70.6857 56.3387 70.195 55.912C69.715 55.4853 69.475 54.92 69.475 54.216C69.475 53.6293 69.6083 53.16 69.875 52.808C70.1523 52.4453 70.531 52.168 71.011 51.976C71.5017 51.7733 72.1257 51.6027 72.883 51.464C73.4057 51.368 73.8003 51.2827 74.067 51.208C74.3337 51.1227 74.547 51.0107 74.707 50.872C74.867 50.7227 74.947 50.52 74.947 50.264C74.947 49.5387 74.4297 49.176 73.395 49.176C72.7017 49.176 72.2163 49.2933 71.939 49.528C71.6617 49.7627 71.5017 50.1573 71.459 50.712H69.859C69.9017 49.8693 70.2163 49.192 70.803 48.68C71.3897 48.168 72.275 47.912 73.459 47.912C74.3763 47.912 75.107 48.136 75.651 48.584C76.2057 49.0213 76.483 49.736 76.483 50.728V54.472C76.483 54.7813 76.5097 55.0107 76.563 55.16C76.6163 55.2987 76.7177 55.368 76.867 55.368L77.059 55.352V56.312C76.7923 56.376 76.5257 56.408 76.259 56.408C75.8537 56.408 75.5443 56.3173 75.331 56.136C75.1283 55.944 75.0057 55.624 74.963 55.176H74.931C74.6643 55.6133 74.2963 55.9547 73.827 56.2C73.3577 56.4347 72.7977 56.552 72.147 56.552ZM71.107 54.104C71.107 54.8933 71.571 55.288 72.499 55.288C73.235 55.288 73.827 55.1067 74.275 54.744C74.723 54.3707 74.947 53.8373 74.947 53.144V51.976C74.8297 52.0827 74.6217 52.184 74.323 52.28C74.035 52.3653 73.6457 52.4613 73.155 52.568C72.419 52.7173 71.891 52.9093 71.571 53.144C71.2617 53.368 71.107 53.688 71.107 54.104Z" fill="#C6C6C8"/>
<path d="M77.751 44.888H79.319V56.328H77.751V44.888Z" fill="#C6C6C8"/>
<path d="M80.4391 44.888H82.0071V56.328H80.4391V44.888Z" fill="#C6C6C8"/>
<path d="M88.519 56.424C87.7937 56.424 87.2497 56.248 86.887 55.896C86.535 55.544 86.359 54.92 86.359 54.024V49.464H85.175V48.168H86.359V45.544H87.927V48.168H89.495V49.464H87.927V54.072C87.927 54.488 87.991 54.7707 88.119 54.92C88.2577 55.0587 88.4977 55.128 88.839 55.128C89.0417 55.128 89.2657 55.1067 89.511 55.064V56.328C89.191 56.392 88.8603 56.424 88.519 56.424Z" fill="#C6C6C8"/>
<path d="M95.5998 51.096C95.5998 50.52 95.4611 50.072 95.1838 49.752C94.9171 49.432 94.5011 49.272 93.9358 49.272C93.2638 49.272 92.7251 49.4587 92.3197 49.832C91.9251 50.2053 91.7278 50.7013 91.7278 51.32V56.328H90.1598V44.888H91.7278V49.192H91.7598C92.0051 48.8293 92.3518 48.5307 92.7998 48.296C93.2478 48.0507 93.7971 47.928 94.4478 47.928C95.2478 47.928 95.8984 48.1627 96.3997 48.632C96.9117 49.0907 97.1678 49.768 97.1678 50.664V56.328H95.5998V51.096Z" fill="#C6C6C8"/>
<path d="M101.839 56.568C100.996 56.568 100.271 56.3813 99.6629 56.008C99.0549 55.6347 98.5909 55.1227 98.2709 54.472C97.9615 53.8213 97.8069 53.0747 97.8069 52.232C97.8069 51.3787 97.9669 50.6267 98.2869 49.976C98.6175 49.3253 99.0869 48.8187 99.6949 48.456C100.303 48.0933 101.018 47.912 101.839 47.912C103.066 47.912 104.015 48.2853 104.687 49.032C105.37 49.7787 105.711 50.792 105.711 52.072C105.711 52.3813 105.706 52.5787 105.695 52.664H99.4229C99.4442 53.4 99.6629 54.024 100.079 54.536C100.506 55.0373 101.103 55.288 101.871 55.288C102.511 55.288 103.002 55.1333 103.343 54.824C103.695 54.5147 103.919 54.1787 104.015 53.816H105.615C105.38 54.648 104.948 55.3147 104.319 55.816C103.69 56.3173 102.863 56.568 101.839 56.568ZM104.079 51.432C104.079 50.7813 103.866 50.248 103.439 49.832C103.023 49.4053 102.474 49.192 101.791 49.192C101.13 49.192 100.58 49.4 100.143 49.816C99.7055 50.2213 99.4655 50.76 99.4229 51.432H104.079Z" fill="#C6C6C8"/>
<path d="M114.539 51.096C114.539 50.52 114.4 50.072 114.123 49.752C113.856 49.432 113.44 49.272 112.875 49.272C112.203 49.272 111.664 49.4587 111.259 49.832C110.864 50.2053 110.667 50.7013 110.667 51.32V56.328H109.099V48.168H110.667V49.192H110.699C110.944 48.8293 111.291 48.5307 111.739 48.296C112.187 48.0507 112.736 47.928 113.387 47.928C114.187 47.928 114.838 48.1627 115.339 48.632C115.851 49.0907 116.107 49.768 116.107 50.664V56.328H114.539V51.096Z" fill="#C6C6C8"/>
<path d="M120.81 56.568C119.978 56.568 119.253 56.3867 118.634 56.024C118.016 55.6613 117.541 55.1547 117.21 54.504C116.89 53.8533 116.73 53.1013 116.73 52.248C116.73 51.3947 116.896 50.6427 117.226 49.992C117.557 49.3413 118.026 48.8347 118.634 48.472C119.253 48.0987 119.984 47.912 120.826 47.912C121.658 47.912 122.378 48.0933 122.986 48.456C123.605 48.8187 124.074 49.3307 124.394 49.992C124.725 50.6427 124.89 51.3893 124.89 52.232C124.89 53.0853 124.725 53.8427 124.394 54.504C124.064 55.1547 123.589 55.6613 122.97 56.024C122.362 56.3867 121.642 56.568 120.81 56.568ZM118.362 52.248C118.362 53.144 118.57 53.8747 118.986 54.44C119.402 54.9947 120.016 55.272 120.826 55.272C121.626 55.272 122.229 54.9947 122.634 54.44C123.05 53.8747 123.258 53.144 123.258 52.248C123.258 51.352 123.05 50.6267 122.634 50.072C122.229 49.5067 121.626 49.224 120.826 49.224C120.016 49.224 119.402 49.5013 118.986 50.056C118.57 50.6107 118.362 51.3413 118.362 52.248Z" fill="#C6C6C8"/>
<path d="M125.585 48.168H127.153V56.328H125.585V48.168ZM125.489 45.016H127.265V46.712H125.489V45.016Z" fill="#C6C6C8"/>
<path d="M131.489 56.552C130.294 56.552 129.372 56.28 128.721 55.736C128.081 55.192 127.75 54.4827 127.729 53.608H129.313C129.345 54.12 129.532 54.5307 129.873 54.84C130.225 55.1387 130.758 55.288 131.473 55.288C132.102 55.288 132.55 55.176 132.817 54.952C133.084 54.7173 133.217 54.4293 133.217 54.088C133.217 53.768 133.121 53.5227 132.929 53.352C132.737 53.1813 132.529 53.0693 132.305 53.016C132.092 52.952 131.681 52.856 131.073 52.728C130.444 52.5787 129.921 52.424 129.505 52.264C129.089 52.104 128.737 51.864 128.449 51.544C128.161 51.224 128.017 50.8027 128.017 50.28C128.017 49.5653 128.289 48.9947 128.833 48.568C129.388 48.1413 130.15 47.928 131.121 47.928C132.188 47.928 133.009 48.1733 133.585 48.664C134.161 49.1547 134.481 49.7787 134.545 50.536H132.961C132.886 50.1413 132.716 49.8213 132.449 49.576C132.193 49.32 131.761 49.192 131.153 49.192C130.641 49.192 130.262 49.2827 130.017 49.464C129.772 49.6453 129.649 49.896 129.649 50.216C129.649 50.4507 129.718 50.6373 129.857 50.776C129.996 50.9147 130.172 51.0213 130.385 51.096C130.598 51.16 130.913 51.2347 131.329 51.32C131.414 51.3307 131.542 51.3573 131.713 51.4C132.364 51.5493 132.902 51.7093 133.329 51.88C133.756 52.0507 134.113 52.3067 134.401 52.648C134.7 52.9893 134.849 53.4427 134.849 54.008C134.849 54.808 134.556 55.432 133.969 55.88C133.382 56.328 132.556 56.552 131.489 56.552Z" fill="#C6C6C8"/>
<path d="M139.061 56.568C138.219 56.568 137.493 56.3813 136.885 56.008C136.277 55.6347 135.813 55.1227 135.493 54.472C135.184 53.8213 135.029 53.0747 135.029 52.232C135.029 51.3787 135.189 50.6267 135.509 49.976C135.84 49.3253 136.309 48.8187 136.917 48.456C137.525 48.0933 138.24 47.912 139.061 47.912C140.288 47.912 141.237 48.2853 141.909 49.032C142.592 49.7787 142.933 50.792 142.933 52.072C142.933 52.3813 142.928 52.5787 142.917 52.664H136.645C136.667 53.4 136.885 54.024 137.301 54.536C137.728 55.0373 138.325 55.288 139.093 55.288C139.733 55.288 140.224 55.1333 140.565 54.824C140.917 54.5147 141.141 54.1787 141.237 53.816H142.837C142.603 54.648 142.171 55.3147 141.541 55.816C140.912 56.3173 140.085 56.568 139.061 56.568ZM141.301 51.432C141.301 50.7813 141.088 50.248 140.661 49.832C140.245 49.4053 139.696 49.192 139.013 49.192C138.352 49.192 137.803 49.4 137.365 49.816C136.928 50.2213 136.688 50.76 136.645 51.432H141.301Z" fill="#C6C6C8"/>
<path d="M149.97 56.568C149.138 56.568 148.412 56.3867 147.794 56.024C147.175 55.6613 146.7 55.1547 146.37 54.504C146.05 53.8533 145.89 53.1013 145.89 52.248C145.89 51.3947 146.055 50.6427 146.386 49.992C146.716 49.3413 147.186 48.8347 147.794 48.472C148.412 48.0987 149.143 47.912 149.986 47.912C150.818 47.912 151.538 48.0933 152.146 48.456C152.764 48.8187 153.234 49.3307 153.554 49.992C153.884 50.6427 154.05 51.3893 154.05 52.232C154.05 53.0853 153.884 53.8427 153.554 54.504C153.223 55.1547 152.748 55.6613 152.13 56.024C151.522 56.3867 150.802 56.568 149.97 56.568ZM147.522 52.248C147.522 53.144 147.73 53.8747 148.146 54.44C148.562 54.9947 149.175 55.272 149.986 55.272C150.786 55.272 151.388 54.9947 151.794 54.44C152.21 53.8747 152.418 53.144 152.418 52.248C152.418 51.352 152.21 50.6267 151.794 50.072C151.388 49.5067 150.786 49.224 149.986 49.224C149.175 49.224 148.562 49.5013 148.146 50.056C147.73 50.6107 147.522 51.3413 147.522 52.248Z" fill="#C6C6C8"/>
<path d="M155.117 47.176C155.117 46.28 155.288 45.656 155.629 45.304C155.981 44.952 156.514 44.776 157.229 44.776C157.442 44.776 157.773 44.808 158.221 44.872V46.136C157.901 46.104 157.677 46.088 157.549 46.088C157.218 46.088 156.994 46.1573 156.877 46.296C156.76 46.4347 156.701 46.7173 156.701 47.144V48.168H158.221V49.464H156.701V56.328H155.117V49.464H153.997V48.168H155.117V47.176Z" fill="#C6C6C8"/>
<path d="M163.777 56.424C163.052 56.424 162.508 56.248 162.145 55.896C161.793 55.544 161.617 54.92 161.617 54.024V49.464H160.433V48.168H161.617V45.544H163.185V48.168H164.753V49.464H163.185V54.072C163.185 54.488 163.249 54.7707 163.377 54.92C163.516 55.0587 163.756 55.128 164.097 55.128C164.3 55.128 164.524 55.1067 164.769 55.064V56.328C164.449 56.392 164.118 56.424 163.777 56.424Z" fill="#C6C6C8"/>
<path d="M170.858 51.096C170.858 50.52 170.719 50.072 170.442 49.752C170.175 49.432 169.759 49.272 169.194 49.272C168.522 49.272 167.983 49.4587 167.578 49.832C167.183 50.2053 166.986 50.7013 166.986 51.32V56.328H165.418V44.888H166.986V49.192H167.018C167.263 48.8293 167.61 48.5307 168.058 48.296C168.506 48.0507 169.055 47.928 169.706 47.928C170.506 47.928 171.157 48.1627 171.658 48.632C172.17 49.0907 172.426 49.768 172.426 50.664V56.328H170.858V51.096Z" fill="#C6C6C8"/>
<path d="M177.097 56.568C176.254 56.568 175.529 56.3813 174.921 56.008C174.313 55.6347 173.849 55.1227 173.529 54.472C173.22 53.8213 173.065 53.0747 173.065 52.232C173.065 51.3787 173.225 50.6267 173.545 49.976C173.876 49.3253 174.345 48.8187 174.953 48.456C175.561 48.0933 176.276 47.912 177.097 47.912C178.324 47.912 179.273 48.2853 179.945 49.032C180.628 49.7787 180.969 50.792 180.969 52.072C180.969 52.3813 180.964 52.5787 180.953 52.664H174.681C174.702 53.4 174.921 54.024 175.337 54.536C175.764 55.0373 176.361 55.288 177.129 55.288C177.769 55.288 178.26 55.1333 178.601 54.824C178.953 54.5147 179.177 54.1787 179.273 53.816H180.873C180.638 54.648 180.206 55.3147 179.577 55.816C178.948 56.3173 178.121 56.568 177.097 56.568ZM179.337 51.432C179.337 50.7813 179.124 50.248 178.697 49.832C178.281 49.4053 177.732 49.192 177.049 49.192C176.388 49.192 175.838 49.4 175.401 49.816C174.964 50.2213 174.724 50.76 174.681 51.432H179.337Z" fill="#C6C6C8"/>
<path d="M187.861 59.256C186.741 59.256 185.872 59.016 185.253 58.536C184.635 58.0667 184.283 57.4427 184.197 56.664H185.829C186.021 57.5387 186.699 57.976 187.861 57.976C188.619 57.976 189.184 57.8 189.557 57.448C189.931 57.096 190.117 56.5413 190.117 55.784V54.68H190.085C189.52 55.5013 188.683 55.912 187.573 55.912C186.891 55.912 186.277 55.7627 185.733 55.464C185.189 55.1547 184.757 54.7013 184.437 54.104C184.128 53.496 183.973 52.7707 183.973 51.928C183.973 51.0747 184.128 50.3493 184.437 49.752C184.757 49.1547 185.184 48.7013 185.717 48.392C186.261 48.0827 186.88 47.928 187.573 47.928C188.629 47.928 189.467 48.328 190.085 49.128H190.117V48.168H191.685V55.688C191.685 56.8827 191.349 57.7733 190.677 58.36C190.005 58.9573 189.067 59.256 187.861 59.256ZM185.605 51.928C185.605 52.728 185.797 53.3787 186.181 53.88C186.565 54.3707 187.125 54.616 187.861 54.616C188.576 54.616 189.125 54.3867 189.509 53.928C189.904 53.4693 190.101 52.8027 190.101 51.928C190.101 51.0427 189.904 50.376 189.509 49.928C189.125 49.4693 188.576 49.24 187.861 49.24C187.125 49.24 186.565 49.4907 186.181 49.992C185.797 50.4827 185.605 51.128 185.605 51.928Z" fill="#C6C6C8"/>
<path d="M192.795 44.888H194.363V56.328H192.795V44.888Z" fill="#C6C6C8"/>
<path d="M199.132 56.568C198.3 56.568 197.574 56.3867 196.956 56.024C196.337 55.6613 195.862 55.1547 195.532 54.504C195.212 53.8533 195.051 53.1013 195.051 52.248C195.051 51.3947 195.217 50.6427 195.548 49.992C195.878 49.3413 196.348 48.8347 196.956 48.472C197.574 48.0987 198.305 47.912 199.148 47.912C199.98 47.912 200.7 48.0933 201.308 48.456C201.926 48.8187 202.395 49.3307 202.715 49.992C203.046 50.6427 203.212 51.3893 203.212 52.232C203.212 53.0853 203.046 53.8427 202.715 54.504C202.385 55.1547 201.91 55.6613 201.292 56.024C200.684 56.3867 199.964 56.568 199.132 56.568ZM196.684 52.248C196.684 53.144 196.892 53.8747 197.308 54.44C197.724 54.9947 198.337 55.272 199.148 55.272C199.948 55.272 200.55 54.9947 200.956 54.44C201.372 53.8747 201.579 53.144 201.579 52.248C201.579 51.352 201.372 50.6267 200.956 50.072C200.55 49.5067 199.948 49.224 199.148 49.224C198.337 49.224 197.724 49.5013 197.308 50.056C196.892 50.6107 196.684 51.3413 196.684 52.248Z" fill="#C6C6C8"/>
<path d="M208.018 56.552C207.421 56.552 206.914 56.44 206.498 56.216C206.082 55.9813 205.751 55.6827 205.506 55.32H205.474V56.328H203.906V44.888H205.474V49.128H205.506C206.125 48.328 206.962 47.928 208.018 47.928C208.711 47.928 209.335 48.104 209.89 48.456C210.445 48.808 210.882 49.3093 211.202 49.96C211.522 50.6107 211.682 51.3733 211.682 52.248C211.682 53.1227 211.522 53.8853 211.202 54.536C210.882 55.1867 210.445 55.688 209.89 56.04C209.335 56.3813 208.711 56.552 208.018 56.552ZM205.49 52.248C205.49 53.176 205.693 53.912 206.098 54.456C206.503 54.9893 207.058 55.256 207.762 55.256C208.498 55.256 209.058 54.968 209.442 54.392C209.837 53.816 210.034 53.1013 210.034 52.248C210.034 51.3947 209.837 50.68 209.442 50.104C209.058 49.528 208.498 49.24 207.762 49.24C207.058 49.24 206.503 49.512 206.098 50.056C205.693 50.5893 205.49 51.32 205.49 52.248Z" fill="#C6C6C8"/>
<path d="M214.647 56.552C213.836 56.552 213.186 56.3387 212.695 55.912C212.215 55.4853 211.975 54.92 211.975 54.216C211.975 53.6293 212.108 53.16 212.375 52.808C212.652 52.4453 213.031 52.168 213.511 51.976C214.002 51.7733 214.626 51.6027 215.383 51.464C215.906 51.368 216.3 51.2827 216.567 51.208C216.834 51.1227 217.047 51.0107 217.207 50.872C217.367 50.7227 217.447 50.52 217.447 50.264C217.447 49.5387 216.93 49.176 215.895 49.176C215.202 49.176 214.716 49.2933 214.439 49.528C214.162 49.7627 214.002 50.1573 213.959 50.712H212.359C212.402 49.8693 212.716 49.192 213.303 48.68C213.89 48.168 214.775 47.912 215.959 47.912C216.876 47.912 217.607 48.136 218.151 48.584C218.706 49.0213 218.983 49.736 218.983 50.728V54.472C218.983 54.7813 219.01 55.0107 219.063 55.16C219.116 55.2987 219.218 55.368 219.367 55.368L219.559 55.352V56.312C219.292 56.376 219.026 56.408 218.759 56.408C218.354 56.408 218.044 56.3173 217.831 56.136C217.628 55.944 217.506 55.624 217.463 55.176H217.431C217.164 55.6133 216.796 55.9547 216.327 56.2C215.858 56.4347 215.298 56.552 214.647 56.552ZM213.607 54.104C213.607 54.8933 214.071 55.288 214.999 55.288C215.735 55.288 216.327 55.1067 216.775 54.744C217.223 54.3707 217.447 53.8373 217.447 53.144V51.976C217.33 52.0827 217.122 52.184 216.823 52.28C216.535 52.3653 216.146 52.4613 215.655 52.568C214.919 52.7173 214.391 52.9093 214.071 53.144C213.762 53.368 213.607 53.688 213.607 54.104Z" fill="#C6C6C8"/>
<path d="M220.251 44.888H221.819V56.328H220.251V44.888Z" fill="#C6C6C8"/>
<path d="M229.259 56.568C228.416 56.568 227.691 56.3813 227.083 56.008C226.475 55.6347 226.011 55.1227 225.691 54.472C225.382 53.8213 225.227 53.0747 225.227 52.232C225.227 51.3787 225.387 50.6267 225.707 49.976C226.038 49.3253 226.507 48.8187 227.115 48.456C227.723 48.0933 228.438 47.912 229.259 47.912C230.486 47.912 231.435 48.2853 232.107 49.032C232.79 49.7787 233.131 50.792 233.131 52.072C233.131 52.3813 233.126 52.5787 233.115 52.664H226.843C226.864 53.4 227.083 54.024 227.499 54.536C227.926 55.0373 228.523 55.288 229.291 55.288C229.931 55.288 230.422 55.1333 230.763 54.824C231.115 54.5147 231.339 54.1787 231.435 53.816H233.035C232.8 54.648 232.368 55.3147 231.739 55.816C231.11 56.3173 230.283 56.568 229.259 56.568ZM231.499 51.432C231.499 50.7813 231.286 50.248 230.859 49.832C230.443 49.4053 229.894 49.192 229.211 49.192C228.55 49.192 228 49.4 227.563 49.816C227.126 50.2213 226.886 50.76 226.843 51.432H231.499Z" fill="#C6C6C8"/>
<path d="M237.399 56.568C236.599 56.568 235.895 56.3867 235.287 56.024C234.679 55.6613 234.21 55.1547 233.879 54.504C233.549 53.8427 233.383 53.0907 233.383 52.248C233.383 51.4053 233.549 50.6587 233.879 50.008C234.21 49.3467 234.674 48.8347 235.271 48.472C235.879 48.1093 236.583 47.928 237.383 47.928C238.066 47.928 238.674 48.0667 239.207 48.344C239.741 48.6107 240.167 48.9893 240.487 49.48C240.807 49.96 240.999 50.5093 241.063 51.128H239.447C239.394 50.616 239.207 50.1733 238.887 49.8C238.567 49.416 238.071 49.224 237.399 49.224C236.589 49.224 235.986 49.5173 235.591 50.104C235.207 50.68 235.015 51.3947 235.015 52.248C235.015 53.1013 235.207 53.816 235.591 54.392C235.986 54.968 236.589 55.256 237.399 55.256C238.082 55.256 238.583 55.0693 238.903 54.696C239.223 54.3227 239.405 53.8587 239.447 53.304H241.063C241.031 53.9227 240.855 54.4827 240.535 54.984C240.215 55.4747 239.783 55.864 239.239 56.152C238.695 56.4293 238.082 56.568 237.399 56.568Z" fill="#C6C6C8"/>
<path d="M245.323 56.568C244.491 56.568 243.766 56.3867 243.147 56.024C242.529 55.6613 242.054 55.1547 241.723 54.504C241.403 53.8533 241.243 53.1013 241.243 52.248C241.243 51.3947 241.409 50.6427 241.739 49.992C242.07 49.3413 242.539 48.8347 243.147 48.472C243.766 48.0987 244.497 47.912 245.339 47.912C246.171 47.912 246.891 48.0933 247.499 48.456C248.118 48.8187 248.587 49.3307 248.907 49.992C249.238 50.6427 249.403 51.3893 249.403 52.232C249.403 53.0853 249.238 53.8427 248.907 54.504C248.577 55.1547 248.102 55.6613 247.483 56.024C246.875 56.3867 246.155 56.568 245.323 56.568ZM242.875 52.248C242.875 53.144 243.083 53.8747 243.499 54.44C243.915 54.9947 244.529 55.272 245.339 55.272C246.139 55.272 246.742 54.9947 247.147 54.44C247.563 53.8747 247.771 53.144 247.771 52.248C247.771 51.352 247.563 50.6267 247.147 50.072C246.742 49.5067 246.139 49.224 245.339 49.224C244.529 49.224 243.915 49.5013 243.499 50.056C243.083 50.6107 242.875 51.3413 242.875 52.248Z" fill="#C6C6C8"/>
<path d="M255.538 51.096C255.538 50.52 255.399 50.072 255.122 49.752C254.855 49.432 254.439 49.272 253.874 49.272C253.202 49.272 252.663 49.4587 252.258 49.832C251.863 50.2053 251.666 50.7013 251.666 51.32V56.328H250.098V48.168H251.666V49.192H251.698C251.943 48.8293 252.29 48.5307 252.738 48.296C253.186 48.0507 253.735 47.928 254.386 47.928C255.186 47.928 255.837 48.1627 256.338 48.632C256.85 49.0907 257.106 49.768 257.106 50.664V56.328H255.538V51.096Z" fill="#C6C6C8"/>
<path d="M261.809 56.568C260.977 56.568 260.252 56.3867 259.633 56.024C259.014 55.6613 258.54 55.1547 258.209 54.504C257.889 53.8533 257.729 53.1013 257.729 52.248C257.729 51.3947 257.894 50.6427 258.225 49.992C258.556 49.3413 259.025 48.8347 259.633 48.472C260.252 48.0987 260.982 47.912 261.825 47.912C262.657 47.912 263.377 48.0933 263.985 48.456C264.604 48.8187 265.073 49.3307 265.393 49.992C265.724 50.6427 265.889 51.3893 265.889 52.232C265.889 53.0853 265.724 53.8427 265.393 54.504C265.062 55.1547 264.588 55.6613 263.969 56.024C263.361 56.3867 262.641 56.568 261.809 56.568ZM259.361 52.248C259.361 53.144 259.569 53.8747 259.985 54.44C260.401 54.9947 261.014 55.272 261.825 55.272C262.625 55.272 263.228 54.9947 263.633 54.44C264.049 53.8747 264.257 53.144 264.257 52.248C264.257 51.352 264.049 50.6267 263.633 50.072C263.228 49.5067 262.625 49.224 261.825 49.224C261.014 49.224 260.401 49.5013 259.985 50.056C259.569 50.6107 259.361 51.3413 259.361 52.248Z" fill="#C6C6C8"/>
<path d="M271.48 51.096C271.48 50.488 271.378 50.0347 271.176 49.736C270.984 49.4267 270.61 49.272 270.056 49.272C269.48 49.272 269.016 49.4587 268.664 49.832C268.322 50.2053 268.152 50.7013 268.152 51.32V56.328H266.583V48.168H268.152V49.192H268.184C268.44 48.8293 268.765 48.5307 269.16 48.296C269.554 48.0507 270.034 47.928 270.6 47.928C271.709 47.928 272.429 48.4027 272.76 49.352H272.792C273.506 48.4027 274.397 47.928 275.464 47.928C276.274 47.928 276.887 48.1627 277.303 48.632C277.73 49.1013 277.944 49.7787 277.944 50.664V56.328H276.376V51.096C276.376 50.488 276.274 50.0347 276.072 49.736C275.88 49.4267 275.506 49.272 274.952 49.272C274.376 49.272 273.912 49.4587 273.56 49.832C273.218 50.2053 273.048 50.7013 273.048 51.32V56.328H271.48V51.096Z" fill="#C6C6C8"/>
<path d="M279.937 59.192C279.649 59.192 279.313 59.1547 278.929 59.08V57.8C279.206 57.832 279.43 57.848 279.601 57.848C279.964 57.848 280.294 57.7253 280.593 57.48C280.902 57.2453 281.132 56.8347 281.281 56.248L277.985 48.168H279.697L282.081 54.408H282.113L284.353 48.168H286.001L282.769 56.52C282.385 57.512 281.974 58.2053 281.537 58.6C281.11 58.9947 280.577 59.192 279.937 59.192Z" fill="#C6C6C8"/>
<path d="M288.632 48.168H290.2V56.328H288.632V48.168ZM288.536 45.016H290.312V46.712H288.536V45.016Z" fill="#C6C6C8"/>
<path d="M296.76 51.096C296.76 50.52 296.622 50.072 296.344 49.752C296.078 49.432 295.662 49.272 295.096 49.272C294.424 49.272 293.886 49.4587 293.48 49.832C293.086 50.2053 292.888 50.7013 292.888 51.32V56.328H291.32V48.168H292.888V49.192H292.92C293.166 48.8293 293.512 48.5307 293.96 48.296C294.408 48.0507 294.958 47.928 295.608 47.928C296.408 47.928 297.059 48.1627 297.56 48.632C298.072 49.0907 298.328 49.768 298.328 50.664V56.328H296.76V51.096Z" fill="#C6C6C8"/>
<path d="M303.655 56.328H302.087V48.168H303.655V49.72H303.687C304.178 48.5573 304.909 47.976 305.879 47.976C306.146 47.976 306.397 47.992 306.631 48.024V49.528C306.439 49.496 306.263 49.48 306.103 49.48C305.389 49.48 304.802 49.7253 304.343 50.216C303.885 50.7067 303.655 51.336 303.655 52.104V56.328Z" fill="#C6C6C8"/>
<path d="M310.282 56.568C309.439 56.568 308.714 56.3813 308.106 56.008C307.498 55.6347 307.034 55.1227 306.714 54.472C306.405 53.8213 306.25 53.0747 306.25 52.232C306.25 51.3787 306.41 50.6267 306.73 49.976C307.061 49.3253 307.53 48.8187 308.138 48.456C308.746 48.0933 309.461 47.912 310.282 47.912C311.509 47.912 312.458 48.2853 313.13 49.032C313.813 49.7787 314.154 50.792 314.154 52.072C314.154 52.3813 314.149 52.5787 314.138 52.664H307.866C307.887 53.4 308.106 54.024 308.522 54.536C308.949 55.0373 309.546 55.288 310.314 55.288C310.954 55.288 311.445 55.1333 311.786 54.824C312.138 54.5147 312.362 54.1787 312.458 53.816H314.058C313.823 54.648 313.391 55.3147 312.762 55.816C312.133 56.3173 311.306 56.568 310.282 56.568ZM312.522 51.432C312.522 50.7813 312.309 50.248 311.882 49.832C311.466 49.4053 310.917 49.192 310.234 49.192C309.573 49.192 309.023 49.4 308.586 49.816C308.149 50.2213 307.909 50.76 307.866 51.432H312.522Z" fill="#C6C6C8"/>
<path d="M317.095 56.552C316.284 56.552 315.633 56.3387 315.143 55.912C314.663 55.4853 314.423 54.92 314.423 54.216C314.423 53.6293 314.556 53.16 314.823 52.808C315.1 52.4453 315.479 52.168 315.959 51.976C316.449 51.7733 317.073 51.6027 317.831 51.464C318.353 51.368 318.748 51.2827 319.015 51.208C319.281 51.1227 319.495 51.0107 319.655 50.872C319.815 50.7227 319.895 50.52 319.895 50.264C319.895 49.5387 319.377 49.176 318.343 49.176C317.649 49.176 317.164 49.2933 316.887 49.528C316.609 49.7627 316.449 50.1573 316.407 50.712H314.807C314.849 49.8693 315.164 49.192 315.751 48.68C316.337 48.168 317.223 47.912 318.407 47.912C319.324 47.912 320.055 48.136 320.599 48.584C321.153 49.0213 321.431 49.736 321.431 50.728V54.472C321.431 54.7813 321.457 55.0107 321.511 55.16C321.564 55.2987 321.665 55.368 321.815 55.368L322.007 55.352V56.312C321.74 56.376 321.473 56.408 321.207 56.408C320.801 56.408 320.492 56.3173 320.279 56.136C320.076 55.944 319.953 55.624 319.911 55.176H319.879C319.612 55.6133 319.244 55.9547 318.775 56.2C318.305 56.4347 317.745 56.552 317.095 56.552ZM316.055 54.104C316.055 54.8933 316.519 55.288 317.447 55.288C318.183 55.288 318.775 55.1067 319.223 54.744C319.671 54.3707 319.895 53.8373 319.895 53.144V51.976C319.777 52.0827 319.569 52.184 319.271 52.28C318.983 52.3653 318.593 52.4613 318.103 52.568C317.367 52.7173 316.839 52.9093 316.519 53.144C316.209 53.368 316.055 53.688 316.055 54.104Z" fill="#C6C6C8"/>
<path d="M322.698 44.888H324.267V56.328H322.698V44.888Z" fill="#C6C6C8"/>
<path d="M325.179 51.512H329.467V53H325.179V51.512Z" fill="#C6C6C8"/>
<path d="M332.778 56.424C332.053 56.424 331.509 56.248 331.146 55.896C330.794 55.544 330.618 54.92 330.618 54.024V49.464H329.434V48.168H330.618V45.544H332.186V48.168H333.754V49.464H332.186V54.072C332.186 54.488 332.25 54.7707 332.378 54.92C332.517 55.0587 332.757 55.128 333.098 55.128C333.301 55.128 333.525 55.1067 333.77 55.064V56.328C333.45 56.392 333.12 56.424 332.778 56.424Z" fill="#C6C6C8"/>
<path d="M334.419 48.168H335.987V56.328H334.419V48.168ZM334.323 45.016H336.099V46.712H334.323V45.016Z" fill="#C6C6C8"/>
<path d="M342.003 51.096C342.003 50.488 341.902 50.0347 341.699 49.736C341.507 49.4267 341.134 49.272 340.579 49.272C340.003 49.272 339.539 49.4587 339.187 49.832C338.846 50.2053 338.675 50.7013 338.675 51.32V56.328H337.107V48.168H338.675V49.192H338.707C338.963 48.8293 339.289 48.5307 339.683 48.296C340.078 48.0507 340.558 47.928 341.123 47.928C342.233 47.928 342.953 48.4027 343.283 49.352H343.315C344.03 48.4027 344.921 47.928 345.987 47.928C346.798 47.928 347.411 48.1627 347.827 48.632C348.254 49.1013 348.467 49.7787 348.467 50.664V56.328H346.899V51.096C346.899 50.488 346.798 50.0347 346.595 49.736C346.403 49.4267 346.03 49.272 345.475 49.272C344.899 49.272 344.435 49.4587 344.083 49.832C343.742 50.2053 343.571 50.7013 343.571 51.32V56.328H342.003V51.096Z" fill="#C6C6C8"/>
<path d="M353.161 56.568C352.319 56.568 351.593 56.3813 350.985 56.008C350.377 55.6347 349.913 55.1227 349.593 54.472C349.284 53.8213 349.129 53.0747 349.129 52.232C349.129 51.3787 349.289 50.6267 349.609 49.976C349.94 49.3253 350.409 48.8187 351.017 48.456C351.625 48.0933 352.34 47.912 353.161 47.912C354.388 47.912 355.337 48.2853 356.009 49.032C356.692 49.7787 357.033 50.792 357.033 52.072C357.033 52.3813 357.028 52.5787 357.017 52.664H350.745C350.767 53.4 350.985 54.024 351.401 54.536C351.828 55.0373 352.425 55.288 353.193 55.288C353.833 55.288 354.324 55.1333 354.665 54.824C355.017 54.5147 355.241 54.1787 355.337 53.816H356.937C356.703 54.648 356.271 55.3147 355.641 55.816C355.012 56.3173 354.185 56.568 353.161 56.568ZM355.401 51.432C355.401 50.7813 355.188 50.248 354.761 49.832C354.345 49.4053 353.796 49.192 353.113 49.192C352.452 49.192 351.903 49.4 351.465 49.816C351.028 50.2213 350.788 50.76 350.745 51.432H355.401Z" fill="#C6C6C8"/>
<path d="M362.678 56.552C361.867 56.552 361.216 56.3387 360.726 55.912C360.246 55.4853 360.006 54.92 360.006 54.216C360.006 53.6293 360.139 53.16 360.406 52.808C360.683 52.4453 361.062 52.168 361.542 51.976C362.032 51.7733 362.656 51.6027 363.414 51.464C363.936 51.368 364.331 51.2827 364.598 51.208C364.864 51.1227 365.078 51.0107 365.238 50.872C365.398 50.7227 365.478 50.52 365.478 50.264C365.478 49.5387 364.96 49.176 363.926 49.176C363.232 49.176 362.747 49.2933 362.47 49.528C362.192 49.7627 362.032 50.1573 361.99 50.712H360.39C360.432 49.8693 360.747 49.192 361.334 48.68C361.92 48.168 362.806 47.912 363.99 47.912C364.907 47.912 365.638 48.136 366.182 48.584C366.736 49.0213 367.014 49.736 367.014 50.728V54.472C367.014 54.7813 367.04 55.0107 367.094 55.16C367.147 55.2987 367.248 55.368 367.398 55.368L367.59 55.352V56.312C367.323 56.376 367.056 56.408 366.79 56.408C366.384 56.408 366.075 56.3173 365.862 56.136C365.659 55.944 365.536 55.624 365.494 55.176H365.462C365.195 55.6133 364.827 55.9547 364.358 56.2C363.888 56.4347 363.328 56.552 362.678 56.552ZM361.638 54.104C361.638 54.8933 362.102 55.288 363.03 55.288C363.766 55.288 364.358 55.1067 364.806 54.744C365.254 54.3707 365.478 53.8373 365.478 53.144V51.976C365.36 52.0827 365.152 52.184 364.854 52.28C364.566 52.3653 364.176 52.4613 363.686 52.568C362.95 52.7173 362.422 52.9093 362.102 53.144C361.792 53.368 361.638 53.688 361.638 54.104Z" fill="#C6C6C8"/>
<path d="M373.722 51.096C373.722 50.52 373.583 50.072 373.306 49.752C373.039 49.432 372.623 49.272 372.058 49.272C371.386 49.272 370.847 49.4587 370.442 49.832C370.047 50.2053 369.85 50.7013 369.85 51.32V56.328H368.282V48.168H369.85V49.192H369.882C370.127 48.8293 370.474 48.5307 370.922 48.296C371.37 48.0507 371.919 47.928 372.57 47.928C373.37 47.928 374.02 48.1627 374.522 48.632C375.034 49.0907 375.29 49.768 375.29 50.664V56.328H373.722V51.096Z" fill="#C6C6C8"/>
<path d="M379.593 56.552C378.899 56.552 378.275 56.3813 377.721 56.04C377.166 55.688 376.729 55.1867 376.409 54.536C376.089 53.8853 375.929 53.1227 375.929 52.248C375.929 51.3733 376.089 50.6107 376.409 49.96C376.729 49.3093 377.166 48.808 377.721 48.456C378.275 48.104 378.899 47.928 379.593 47.928C380.19 47.928 380.691 48.0453 381.097 48.28C381.513 48.504 381.849 48.7973 382.105 49.16H382.137V44.888H383.705V56.328H382.137V55.368H382.105C381.838 55.7093 381.497 55.992 381.081 56.216C380.675 56.44 380.179 56.552 379.593 56.552ZM377.561 52.248C377.561 53.1013 377.758 53.816 378.153 54.392C378.547 54.968 379.113 55.256 379.849 55.256C380.553 55.256 381.107 54.9893 381.513 54.456C381.918 53.912 382.121 53.176 382.121 52.248C382.121 51.32 381.918 50.5893 381.513 50.056C381.107 49.512 380.553 49.24 379.849 49.24C379.113 49.24 378.547 49.528 378.153 50.104C377.758 50.68 377.561 51.3947 377.561 52.248Z" fill="#C6C6C8"/>
<path d="M3.664 75.552C2.97067 75.552 2.34667 75.3813 1.792 75.04C1.23733 74.688 0.8 74.1867 0.48 73.536C0.16 72.8853 0 72.1227 0 71.248C0 70.3733 0.16 69.6107 0.48 68.96C0.8 68.3093 1.23733 67.808 1.792 67.456C2.34667 67.104 2.97067 66.928 3.664 66.928C4.26133 66.928 4.76267 67.0453 5.168 67.28C5.584 67.504 5.92 67.7973 6.176 68.16H6.208V63.888H7.776V75.328H6.208V74.368H6.176C5.90933 74.7093 5.568 74.992 5.152 75.216C4.74667 75.44 4.25067 75.552 3.664 75.552ZM1.632 71.248C1.632 72.1013 1.82933 72.816 2.224 73.392C2.61867 73.968 3.184 74.256 3.92 74.256C4.624 74.256 5.17867 73.9893 5.584 73.456C5.98933 72.912 6.192 72.176 6.192 71.248C6.192 70.32 5.98933 69.5893 5.584 69.056C5.17867 68.512 4.624 68.24 3.92 68.24C3.184 68.24 2.61867 68.528 2.224 69.104C1.82933 69.68 1.632 70.3947 1.632 71.248Z" fill="#C6C6C8"/>
<path d="M8.901 67.168H10.469V75.328H8.901V67.168ZM8.805 64.016H10.581V65.712H8.805V64.016Z" fill="#C6C6C8"/>
<path d="M14.8051 75.552C13.6105 75.552 12.6878 75.28 12.0371 74.736C11.3971 74.192 11.0665 73.4827 11.0451 72.608H12.6291C12.6611 73.12 12.8478 73.5307 13.1891 73.84C13.5411 74.1387 14.0745 74.288 14.7891 74.288C15.4185 74.288 15.8665 74.176 16.1331 73.952C16.3998 73.7173 16.5331 73.4293 16.5331 73.088C16.5331 72.768 16.4371 72.5227 16.2451 72.352C16.0531 72.1813 15.8451 72.0693 15.6211 72.016C15.4078 71.952 14.9971 71.856 14.3891 71.728C13.7598 71.5787 13.2371 71.424 12.8211 71.264C12.4051 71.104 12.0531 70.864 11.7651 70.544C11.4771 70.224 11.3331 69.8027 11.3331 69.28C11.3331 68.5653 11.6051 67.9947 12.1491 67.568C12.7038 67.1413 13.4665 66.928 14.4371 66.928C15.5038 66.928 16.3251 67.1733 16.9011 67.664C17.4771 68.1547 17.7971 68.7787 17.8611 69.536H16.2771C16.2025 69.1413 16.0318 68.8213 15.7651 68.576C15.5091 68.32 15.0771 68.192 14.4691 68.192C13.9571 68.192 13.5785 68.2827 13.3331 68.464C13.0878 68.6453 12.9651 68.896 12.9651 69.216C12.9651 69.4507 13.0345 69.6373 13.1731 69.776C13.3118 69.9147 13.4878 70.0213 13.7011 70.096C13.9145 70.16 14.2291 70.2347 14.6451 70.32C14.7305 70.3307 14.8585 70.3573 15.0291 70.4C15.6798 70.5493 16.2185 70.7093 16.6451 70.88C17.0718 71.0507 17.4291 71.3067 17.7171 71.648C18.0158 71.9893 18.1651 72.4427 18.1651 73.008C18.1651 73.808 17.8718 74.432 17.2851 74.88C16.6985 75.328 15.8718 75.552 14.8051 75.552Z" fill="#C6C6C8"/>
<path d="M21.3559 75.424C20.6305 75.424 20.0865 75.248 19.7239 74.896C19.3719 74.544 19.1959 73.92 19.1959 73.024V68.464H18.0119V67.168H19.1959V64.544H20.7639V67.168H22.3319V68.464H20.7639V73.072C20.7639 73.488 20.8279 73.7707 20.9559 73.92C21.0945 74.0587 21.3345 74.128 21.6759 74.128C21.8785 74.128 22.1025 74.1067 22.3479 74.064V75.328C22.0279 75.392 21.6972 75.424 21.3559 75.424Z" fill="#C6C6C8"/>
<path d="M22.9966 67.168H24.5646V75.328H22.9966V67.168ZM22.9006 64.016H24.6766V65.712H22.9006V64.016Z" fill="#C6C6C8"/>
<path d="M25.6847 63.888H27.2527V75.328H25.6847V63.888Z" fill="#C6C6C8"/>
<path d="M28.3729 63.888H29.9409V75.328H28.3729V63.888Z" fill="#C6C6C8"/>
<path d="M34.277 75.552C33.0823 75.552 32.1597 75.28 31.509 74.736C30.869 74.192 30.5383 73.4827 30.517 72.608H32.101C32.133 73.12 32.3197 73.5307 32.661 73.84C33.013 74.1387 33.5463 74.288 34.261 74.288C34.8903 74.288 35.3383 74.176 35.605 73.952C35.8717 73.7173 36.005 73.4293 36.005 73.088C36.005 72.768 35.909 72.5227 35.717 72.352C35.525 72.1813 35.317 72.0693 35.093 72.016C34.8797 71.952 34.469 71.856 33.861 71.728C33.2317 71.5787 32.709 71.424 32.293 71.264C31.877 71.104 31.525 70.864 31.237 70.544C30.949 70.224 30.805 69.8027 30.805 69.28C30.805 68.5653 31.077 67.9947 31.621 67.568C32.1757 67.1413 32.9383 66.928 33.909 66.928C34.9757 66.928 35.797 67.1733 36.373 67.664C36.949 68.1547 37.269 68.7787 37.333 69.536H35.749C35.6743 69.1413 35.5037 68.8213 35.237 68.576C34.981 68.32 34.549 68.192 33.941 68.192C33.429 68.192 33.0503 68.2827 32.805 68.464C32.5597 68.6453 32.437 68.896 32.437 69.216C32.437 69.4507 32.5063 69.6373 32.645 69.776C32.7837 69.9147 32.9597 70.0213 33.173 70.096C33.3863 70.16 33.701 70.2347 34.117 70.32C34.2023 70.3307 34.3303 70.3573 34.501 70.4C35.1517 70.5493 35.6903 70.7093 36.117 70.88C36.5437 71.0507 36.901 71.3067 37.189 71.648C37.4877 71.9893 37.637 72.4427 37.637 73.008C37.637 73.808 37.3437 74.432 36.757 74.88C36.1703 75.328 35.3437 75.552 34.277 75.552Z" fill="#C6C6C8"/>
<path d="M43.6253 75.424C42.8999 75.424 42.3559 75.248 41.9933 74.896C41.6413 74.544 41.4653 73.92 41.4653 73.024V68.464H40.2812V67.168H41.4653V64.544H43.0333V67.168H44.6013V68.464H43.0333V73.072C43.0333 73.488 43.0973 73.7707 43.2253 73.92C43.3639 74.0587 43.6039 74.128 43.9453 74.128C44.1479 74.128 44.3719 74.1067 44.6173 74.064V75.328C44.2973 75.392 43.9666 75.424 43.6253 75.424Z" fill="#C6C6C8"/>
<path d="M50.706 70.096C50.706 69.52 50.5673 69.072 50.29 68.752C50.0233 68.432 49.6073 68.272 49.042 68.272C48.37 68.272 47.8313 68.4587 47.426 68.832C47.0313 69.2053 46.834 69.7013 46.834 70.32V75.328H45.266V63.888H46.834V68.192H46.866C47.1113 67.8293 47.458 67.5307 47.906 67.296C48.354 67.0507 48.9033 66.928 49.554 66.928C50.354 66.928 51.0047 67.1627 51.506 67.632C52.018 68.0907 52.274 68.768 52.274 69.664V75.328H50.706V70.096Z" fill="#C6C6C8"/>
<path d="M55.5851 75.552C54.7745 75.552 54.1238 75.3387 53.6331 74.912C53.1531 74.4853 52.9131 73.92 52.9131 73.216C52.9131 72.6293 53.0465 72.16 53.3131 71.808C53.5905 71.4453 53.9691 71.168 54.4491 70.976C54.9398 70.7733 55.5638 70.6027 56.3211 70.464C56.8438 70.368 57.2385 70.2827 57.5051 70.208C57.7718 70.1227 57.9851 70.0107 58.1451 69.872C58.3051 69.7227 58.3851 69.52 58.3851 69.264C58.3851 68.5387 57.8678 68.176 56.8331 68.176C56.1398 68.176 55.6545 68.2933 55.3771 68.528C55.0998 68.7627 54.9398 69.1573 54.8971 69.712H53.2971C53.3398 68.8693 53.6545 68.192 54.2411 67.68C54.8278 67.168 55.7131 66.912 56.8971 66.912C57.8145 66.912 58.5451 67.136 59.0891 67.584C59.6438 68.0213 59.9211 68.736 59.9211 69.728V73.472C59.9211 73.7813 59.9478 74.0107 60.0011 74.16C60.0545 74.2987 60.1558 74.368 60.3051 74.368L60.4971 74.352V75.312C60.2305 75.376 59.9638 75.408 59.6971 75.408C59.2918 75.408 58.9825 75.3173 58.7691 75.136C58.5665 74.944 58.4438 74.624 58.4011 74.176H58.3691C58.1025 74.6133 57.7345 74.9547 57.2651 75.2C56.7958 75.4347 56.2358 75.552 55.5851 75.552ZM54.5451 73.104C54.5451 73.8933 55.0091 74.288 55.9371 74.288C56.6731 74.288 57.2651 74.1067 57.7131 73.744C58.1611 73.3707 58.3851 72.8373 58.3851 72.144V70.976C58.2678 71.0827 58.0598 71.184 57.7611 71.28C57.4731 71.3653 57.0838 71.4613 56.5931 71.568C55.8571 71.7173 55.3291 71.9093 55.0091 72.144C54.6998 72.368 54.5451 72.688 54.5451 73.104Z" fill="#C6C6C8"/>
<path d="M63.7209 75.424C62.9955 75.424 62.4515 75.248 62.0889 74.896C61.7369 74.544 61.5609 73.92 61.5609 73.024V68.464H60.3769V67.168H61.5609V64.544H63.1289V67.168H64.6969V68.464H63.1289V73.072C63.1289 73.488 63.1929 73.7707 63.3209 73.92C63.4595 74.0587 63.6995 74.128 64.0409 74.128C64.2435 74.128 64.4675 74.1067 64.7129 74.064V75.328C64.3929 75.392 64.0622 75.424 63.7209 75.424Z" fill="#C6C6C8"/>
<path d="M68.0654 67.168H69.6334V75.328H68.0654V67.168ZM67.9694 64.016H69.7454V65.712H67.9694V64.016Z" fill="#C6C6C8"/>
<path d="M76.1935 70.096C76.1935 69.52 76.0548 69.072 75.7775 68.752C75.5108 68.432 75.0948 68.272 74.5295 68.272C73.8575 68.272 73.3188 68.4587 72.9135 68.832C72.5188 69.2053 72.3215 69.7013 72.3215 70.32V75.328H70.7535V67.168H72.3215V68.192H72.3535C72.5988 67.8293 72.9455 67.5307 73.3935 67.296C73.8415 67.0507 74.3908 66.928 75.0415 66.928C75.8415 66.928 76.4922 67.1627 76.9935 67.632C77.5055 68.0907 77.7615 68.768 77.7615 69.664V75.328H76.1935V70.096Z" fill="#C6C6C8"/>
<path d="M81.4265 75.424C80.7012 75.424 80.1572 75.248 79.7945 74.896C79.4425 74.544 79.2665 73.92 79.2665 73.024V68.464H78.0825V67.168H79.2665V64.544H80.8345V67.168H82.4025V68.464H80.8345V73.072C80.8345 73.488 80.8985 73.7707 81.0265 73.92C81.1652 74.0587 81.4052 74.128 81.7465 74.128C81.9492 74.128 82.1732 74.1067 82.4185 74.064V75.328C82.0985 75.392 81.7678 75.424 81.4265 75.424Z" fill="#C6C6C8"/>
<path d="M86.5434 75.568C85.7114 75.568 84.986 75.3867 84.3674 75.024C83.7487 74.6613 83.274 74.1547 82.9434 73.504C82.6234 72.8533 82.4634 72.1013 82.4634 71.248C82.4634 70.3947 82.6287 69.6427 82.9594 68.992C83.29 68.3413 83.7594 67.8347 84.3674 67.472C84.986 67.0987 85.7167 66.912 86.5594 66.912C87.3914 66.912 88.1114 67.0933 88.7194 67.456C89.338 67.8187 89.8074 68.3307 90.1274 68.992C90.458 69.6427 90.6234 70.3893 90.6234 71.232C90.6234 72.0853 90.458 72.8427 90.1274 73.504C89.7967 74.1547 89.322 74.6613 88.7034 75.024C88.0954 75.3867 87.3754 75.568 86.5434 75.568ZM84.0954 71.248C84.0954 72.144 84.3034 72.8747 84.7194 73.44C85.1354 73.9947 85.7487 74.272 86.5594 74.272C87.3594 74.272 87.962 73.9947 88.3674 73.44C88.7834 72.8747 88.9914 72.144 88.9914 71.248C88.9914 70.352 88.7834 69.6267 88.3674 69.072C87.962 68.5067 87.3594 68.224 86.5594 68.224C85.7487 68.224 85.1354 68.5013 84.7194 69.056C84.3034 69.6107 84.0954 70.3413 84.0954 71.248Z" fill="#C6C6C8"/>
<path d="M96.2776 75.552C95.467 75.552 94.8163 75.3387 94.3256 74.912C93.8456 74.4853 93.6056 73.92 93.6056 73.216C93.6056 72.6293 93.739 72.16 94.0056 71.808C94.283 71.4453 94.6616 71.168 95.1416 70.976C95.6323 70.7733 96.2563 70.6027 97.0136 70.464C97.5363 70.368 97.931 70.2827 98.1976 70.208C98.4643 70.1227 98.6776 70.0107 98.8376 69.872C98.9976 69.7227 99.0776 69.52 99.0776 69.264C99.0776 68.5387 98.5603 68.176 97.5256 68.176C96.8323 68.176 96.347 68.2933 96.0696 68.528C95.7923 68.7627 95.6323 69.1573 95.5896 69.712H93.9896C94.0323 68.8693 94.347 68.192 94.9336 67.68C95.5203 67.168 96.4056 66.912 97.5896 66.912C98.507 66.912 99.2376 67.136 99.7816 67.584C100.336 68.0213 100.614 68.736 100.614 69.728V73.472C100.614 73.7813 100.64 74.0107 100.694 74.16C100.747 74.2987 100.848 74.368 100.998 74.368L101.19 74.352V75.312C100.923 75.376 100.656 75.408 100.39 75.408C99.9843 75.408 99.675 75.3173 99.4616 75.136C99.259 74.944 99.1363 74.624 99.0936 74.176H99.0616C98.795 74.6133 98.427 74.9547 97.9576 75.2C97.4883 75.4347 96.9283 75.552 96.2776 75.552ZM95.2376 73.104C95.2376 73.8933 95.7016 74.288 96.6296 74.288C97.3656 74.288 97.9576 74.1067 98.4056 73.744C98.8536 73.3707 99.0776 72.8373 99.0776 72.144V70.976C98.9603 71.0827 98.7523 71.184 98.4536 71.28C98.1656 71.3653 97.7763 71.4613 97.2856 71.568C96.5496 71.7173 96.0216 71.9093 95.7016 72.144C95.3923 72.368 95.2376 72.688 95.2376 73.104Z" fill="#C6C6C8"/>
<path d="M105.387 75.568C104.587 75.568 103.883 75.3867 103.275 75.024C102.667 74.6613 102.198 74.1547 101.868 73.504C101.537 72.8427 101.371 72.0907 101.371 71.248C101.371 70.4053 101.537 69.6587 101.868 69.008C102.198 68.3467 102.662 67.8347 103.259 67.472C103.867 67.1093 104.571 66.928 105.371 66.928C106.054 66.928 106.662 67.0667 107.195 67.344C107.729 67.6107 108.155 67.9893 108.475 68.48C108.795 68.96 108.987 69.5093 109.051 70.128H107.435C107.382 69.616 107.195 69.1733 106.875 68.8C106.555 68.416 106.059 68.224 105.387 68.224C104.577 68.224 103.974 68.5173 103.579 69.104C103.195 69.68 103.003 70.3947 103.003 71.248C103.003 72.1013 103.195 72.816 103.579 73.392C103.974 73.968 104.577 74.256 105.387 74.256C106.07 74.256 106.571 74.0693 106.891 73.696C107.211 73.3227 107.393 72.8587 107.435 72.304H109.051C109.019 72.9227 108.843 73.4827 108.523 73.984C108.203 74.4747 107.772 74.864 107.228 75.152C106.684 75.4293 106.07 75.568 105.387 75.568Z" fill="#C6C6C8"/>
<path d="M112.289 75.424C111.564 75.424 111.02 75.248 110.657 74.896C110.305 74.544 110.129 73.92 110.129 73.024V68.464H108.945V67.168H110.129V64.544H111.697V67.168H113.265V68.464H111.697V73.072C111.697 73.488 111.761 73.7707 111.889 73.92C112.028 74.0587 112.268 74.128 112.609 74.128C112.812 74.128 113.036 74.1067 113.281 74.064V75.328C112.961 75.392 112.63 75.424 112.289 75.424Z" fill="#C6C6C8"/>
<path d="M113.93 67.168H115.498V75.328H113.93V67.168ZM113.834 64.016H115.61V65.712H113.834V64.016Z" fill="#C6C6C8"/>
<path d="M120.266 75.568C119.434 75.568 118.709 75.3867 118.09 75.024C117.471 74.6613 116.997 74.1547 116.666 73.504C116.346 72.8533 116.186 72.1013 116.186 71.248C116.186 70.3947 116.351 69.6427 116.682 68.992C117.013 68.3413 117.482 67.8347 118.09 67.472C118.709 67.0987 119.439 66.912 120.282 66.912C121.114 66.912 121.834 67.0933 122.442 67.456C123.061 67.8187 123.53 68.3307 123.85 68.992C124.181 69.6427 124.346 70.3893 124.346 71.232C124.346 72.0853 124.181 72.8427 123.85 73.504C123.519 74.1547 123.045 74.6613 122.426 75.024C121.818 75.3867 121.098 75.568 120.266 75.568ZM117.818 71.248C117.818 72.144 118.026 72.8747 118.442 73.44C118.858 73.9947 119.471 74.272 120.282 74.272C121.082 74.272 121.685 73.9947 122.09 73.44C122.506 72.8747 122.714 72.144 122.714 71.248C122.714 70.352 122.506 69.6267 122.09 69.072C121.685 68.5067 121.082 68.224 120.282 68.224C119.471 68.224 118.858 68.5013 118.442 69.056C118.026 69.6107 117.818 70.3413 117.818 71.248Z" fill="#C6C6C8"/>
<path d="M130.48 70.096C130.48 69.52 130.342 69.072 130.064 68.752C129.798 68.432 129.382 68.272 128.816 68.272C128.144 68.272 127.606 68.4587 127.2 68.832C126.806 69.2053 126.608 69.7013 126.608 70.32V75.328H125.04V67.168H126.608V68.192H126.64C126.886 67.8293 127.232 67.5307 127.68 67.296C128.128 67.0507 128.678 66.928 129.328 66.928C130.128 66.928 130.779 67.1627 131.28 67.632C131.792 68.0907 132.048 68.768 132.048 69.664V75.328H130.48V70.096Z" fill="#C6C6C8"/>
<path d="M135.359 75.552C134.549 75.552 133.898 75.3387 133.408 74.912C132.928 74.4853 132.688 73.92 132.688 73.216C132.688 72.6293 132.821 72.16 133.087 71.808C133.365 71.4453 133.743 71.168 134.223 70.976C134.714 70.7733 135.338 70.6027 136.096 70.464C136.618 70.368 137.013 70.2827 137.279 70.208C137.546 70.1227 137.759 70.0107 137.919 69.872C138.079 69.7227 138.16 69.52 138.16 69.264C138.16 68.5387 137.642 68.176 136.607 68.176C135.914 68.176 135.429 68.2933 135.152 68.528C134.874 68.7627 134.714 69.1573 134.671 69.712H133.072C133.114 68.8693 133.429 68.192 134.016 67.68C134.602 67.168 135.487 66.912 136.671 66.912C137.589 66.912 138.319 67.136 138.863 67.584C139.418 68.0213 139.695 68.736 139.695 69.728V73.472C139.695 73.7813 139.722 74.0107 139.775 74.16C139.829 74.2987 139.93 74.368 140.079 74.368L140.271 74.352V75.312C140.005 75.376 139.738 75.408 139.471 75.408C139.066 75.408 138.757 75.3173 138.544 75.136C138.341 74.944 138.218 74.624 138.176 74.176H138.143C137.877 74.6133 137.509 74.9547 137.04 75.2C136.57 75.4347 136.01 75.552 135.359 75.552ZM134.32 73.104C134.32 73.8933 134.784 74.288 135.712 74.288C136.448 74.288 137.04 74.1067 137.488 73.744C137.936 73.3707 138.16 72.8373 138.16 72.144V70.976C138.042 71.0827 137.834 71.184 137.536 71.28C137.248 71.3653 136.858 71.4613 136.367 71.568C135.631 71.7173 135.103 71.9093 134.783 72.144C134.474 72.368 134.32 72.688 134.32 73.104Z" fill="#C6C6C8"/>
<path d="M145.076 75.552C144.478 75.552 143.971 75.44 143.555 75.216C143.139 74.9813 142.809 74.6827 142.564 74.32H142.531V75.328H140.964V63.888H142.531V68.128H142.564C143.182 67.328 144.02 66.928 145.076 66.928C145.769 66.928 146.393 67.104 146.947 67.456C147.502 67.808 147.94 68.3093 148.26 68.96C148.58 69.6107 148.74 70.3733 148.74 71.248C148.74 72.1227 148.58 72.8853 148.26 73.536C147.94 74.1867 147.502 74.688 146.947 75.04C146.393 75.3813 145.769 75.552 145.076 75.552ZM142.548 71.248C142.548 72.176 142.75 72.912 143.156 73.456C143.561 73.9893 144.116 74.256 144.82 74.256C145.556 74.256 146.115 73.968 146.499 73.392C146.894 72.816 147.092 72.1013 147.092 71.248C147.092 70.3947 146.894 69.68 146.499 69.104C146.115 68.528 145.556 68.24 144.82 68.24C144.116 68.24 143.561 68.512 143.156 69.056C142.75 69.5893 142.548 70.32 142.548 71.248Z" fill="#C6C6C8"/>
<path d="M149.449 63.888H151.016V75.328H149.449V63.888Z" fill="#C6C6C8"/>
<path d="M155.753 75.568C154.91 75.568 154.185 75.3813 153.577 75.008C152.969 74.6347 152.505 74.1227 152.185 73.472C151.875 72.8213 151.721 72.0747 151.721 71.232C151.721 70.3787 151.881 69.6267 152.201 68.976C152.531 68.3253 153.001 67.8187 153.609 67.456C154.217 67.0933 154.931 66.912 155.753 66.912C156.979 66.912 157.929 67.2853 158.601 68.032C159.283 68.7787 159.625 69.792 159.625 71.072C159.625 71.3813 159.619 71.5787 159.609 71.664H153.337C153.358 72.4 153.577 73.024 153.993 73.536C154.419 74.0373 155.017 74.288 155.785 74.288C156.425 74.288 156.915 74.1333 157.257 73.824C157.609 73.5147 157.833 73.1787 157.929 72.816H159.529C159.294 73.648 158.862 74.3147 158.233 74.816C157.603 75.3173 156.777 75.568 155.753 75.568ZM157.993 70.432C157.993 69.7813 157.779 69.248 157.353 68.832C156.937 68.4053 156.387 68.192 155.705 68.192C155.043 68.192 154.494 68.4 154.057 68.816C153.619 69.2213 153.379 69.76 153.337 70.432H157.993Z" fill="#C6C6C8"/>
<path d="M163.013 67.168H164.581V75.328H163.013V67.168ZM162.917 64.016H164.693V65.712H162.917V64.016Z" fill="#C6C6C8"/>
<path d="M171.141 70.096C171.141 69.52 171.002 69.072 170.725 68.752C170.458 68.432 170.042 68.272 169.477 68.272C168.805 68.272 168.266 68.4587 167.861 68.832C167.466 69.2053 167.269 69.7013 167.269 70.32V75.328H165.701V67.168H167.269V68.192H167.301C167.546 67.8293 167.893 67.5307 168.341 67.296C168.789 67.0507 169.338 66.928 169.989 66.928C170.789 66.928 171.44 67.1627 171.941 67.632C172.453 68.0907 172.709 68.768 172.709 69.664V75.328H171.141V70.096Z" fill="#C6C6C8"/>
<path d="M176.98 75.552C175.785 75.552 174.863 75.28 174.212 74.736C173.572 74.192 173.241 73.4827 173.22 72.608H174.804C174.836 73.12 175.023 73.5307 175.364 73.84C175.716 74.1387 176.249 74.288 176.964 74.288C177.593 74.288 178.041 74.176 178.308 73.952C178.575 73.7173 178.708 73.4293 178.708 73.088C178.708 72.768 178.612 72.5227 178.42 72.352C178.228 72.1813 178.02 72.0693 177.796 72.016C177.583 71.952 177.172 71.856 176.564 71.728C175.935 71.5787 175.412 71.424 174.996 71.264C174.58 71.104 174.228 70.864 173.94 70.544C173.652 70.224 173.508 69.8027 173.508 69.28C173.508 68.5653 173.78 67.9947 174.324 67.568C174.879 67.1413 175.641 66.928 176.612 66.928C177.679 66.928 178.5 67.1733 179.076 67.664C179.652 68.1547 179.972 68.7787 180.036 69.536H178.452C178.377 69.1413 178.207 68.8213 177.94 68.576C177.684 68.32 177.252 68.192 176.644 68.192C176.132 68.192 175.753 68.2827 175.508 68.464C175.263 68.6453 175.14 68.896 175.14 69.216C175.14 69.4507 175.209 69.6373 175.348 69.776C175.487 69.9147 175.663 70.0213 175.876 70.096C176.089 70.16 176.404 70.2347 176.82 70.32C176.905 70.3307 177.033 70.3573 177.204 70.4C177.855 70.5493 178.393 70.7093 178.82 70.88C179.247 71.0507 179.604 71.3067 179.892 71.648C180.191 71.9893 180.34 72.4427 180.34 73.008C180.34 73.808 180.047 74.432 179.46 74.88C178.873 75.328 178.047 75.552 176.98 75.552Z" fill="#C6C6C8"/>
<path d="M180.937 67.168H182.505V75.328H180.937V67.168ZM180.841 64.016H182.617V65.712H180.841V64.016Z" fill="#C6C6C8"/>
<path d="M187.129 78.256C186.009 78.256 185.139 78.016 184.521 77.536C183.902 77.0667 183.55 76.4427 183.465 75.664H185.097C185.289 76.5387 185.966 76.976 187.129 76.976C187.886 76.976 188.451 76.8 188.825 76.448C189.198 76.096 189.385 75.5413 189.385 74.784V73.68H189.353C188.787 74.5013 187.95 74.912 186.841 74.912C186.158 74.912 185.545 74.7627 185.001 74.464C184.457 74.1547 184.025 73.7013 183.705 73.104C183.395 72.496 183.241 71.7707 183.241 70.928C183.241 70.0747 183.395 69.3493 183.705 68.752C184.025 68.1547 184.451 67.7013 184.985 67.392C185.529 67.0827 186.147 66.928 186.841 66.928C187.897 66.928 188.734 67.328 189.353 68.128H189.385V67.168H190.953V74.688C190.953 75.8827 190.617 76.7733 189.945 77.36C189.273 77.9573 188.334 78.256 187.129 78.256ZM184.873 70.928C184.873 71.728 185.065 72.3787 185.449 72.88C185.833 73.3707 186.393 73.616 187.129 73.616C187.843 73.616 188.393 73.3867 188.777 72.928C189.171 72.4693 189.369 71.8027 189.369 70.928C189.369 70.0427 189.171 69.376 188.777 68.928C188.393 68.4693 187.843 68.24 187.129 68.24C186.393 68.24 185.833 68.4907 185.449 68.992C185.065 69.4827 184.873 70.128 184.873 70.928Z" fill="#C6C6C8"/>
<path d="M197.503 70.096C197.503 69.52 197.364 69.072 197.087 68.752C196.82 68.432 196.404 68.272 195.839 68.272C195.167 68.272 194.628 68.4587 194.223 68.832C193.828 69.2053 193.631 69.7013 193.631 70.32V75.328H192.063V63.888H193.631V68.192H193.663C193.908 67.8293 194.255 67.5307 194.703 67.296C195.151 67.0507 195.7 66.928 196.351 66.928C197.151 66.928 197.802 67.1627 198.303 67.632C198.815 68.0907 199.071 68.768 199.071 69.664V75.328H197.503V70.096Z" fill="#C6C6C8"/>
<path d="M202.736 75.424C202.011 75.424 201.467 75.248 201.104 74.896C200.752 74.544 200.576 73.92 200.576 73.024V68.464H199.392V67.168H200.576V64.544H202.144V67.168H203.712V68.464H202.144V73.072C202.144 73.488 202.208 73.7707 202.336 73.92C202.475 74.0587 202.715 74.128 203.056 74.128C203.259 74.128 203.483 74.1067 203.728 74.064V75.328C203.408 75.392 203.077 75.424 202.736 75.424Z" fill="#C6C6C8"/>
<path d="M207.593 75.552C206.398 75.552 205.475 75.28 204.825 74.736C204.185 74.192 203.854 73.4827 203.833 72.608H205.417C205.449 73.12 205.635 73.5307 205.977 73.84C206.329 74.1387 206.862 74.288 207.577 74.288C208.206 74.288 208.654 74.176 208.921 73.952C209.187 73.7173 209.321 73.4293 209.321 73.088C209.321 72.768 209.225 72.5227 209.033 72.352C208.841 72.1813 208.633 72.0693 208.409 72.016C208.195 71.952 207.785 71.856 207.177 71.728C206.547 71.5787 206.025 71.424 205.609 71.264C205.193 71.104 204.841 70.864 204.553 70.544C204.265 70.224 204.121 69.8027 204.121 69.28C204.121 68.5653 204.393 67.9947 204.937 67.568C205.491 67.1413 206.254 66.928 207.225 66.928C208.291 66.928 209.113 67.1733 209.689 67.664C210.265 68.1547 210.585 68.7787 210.649 69.536H209.065C208.99 69.1413 208.819 68.8213 208.553 68.576C208.297 68.32 207.865 68.192 207.257 68.192C206.745 68.192 206.366 68.2827 206.121 68.464C205.875 68.6453 205.753 68.896 205.753 69.216C205.753 69.4507 205.822 69.6373 205.961 69.776C206.099 69.9147 206.275 70.0213 206.489 70.096C206.702 70.16 207.017 70.2347 207.433 70.32C207.518 70.3307 207.646 70.3573 207.817 70.4C208.467 70.5493 209.006 70.7093 209.433 70.88C209.859 71.0507 210.217 71.3067 210.505 71.648C210.803 71.9893 210.953 72.4427 210.953 73.008C210.953 73.808 210.659 74.432 210.073 74.88C209.486 75.328 208.659 75.552 207.593 75.552Z" fill="#C6C6C8"/>
<path d="M211.389 73.584H213.133V75.328H211.389V73.584Z" fill="#C6C6C8"/>
</svg>
